<?xml version="1.0" standalone="no"?>
<!DOCTYPE svg PUBLIC "-//W3C//DTD SVG 20010904//EN"
 "http://www.w3.org/TR/2001/REC-SVG-20010904/DTD/svg10.dtd">
<svg version="1.0" xmlns="http://www.w3.org/2000/svg"
 width="1024.000000pt" height="1024.000000pt" viewBox="0 0 1024.000000 1024.000000"
 preserveAspectRatio="xMidYMid meet">
<metadata>

</metadata>
<g transform="translate(0.000000,1024.000000) scale(0.100000,-0.100000)"
fill="#000000" stroke="none">
<path d="M5077 8754 c-1 -1 -63 -4 -137 -8 -215 -10 -350 -27 -561 -72 -63
-13 -124 -26 -135 -28 -71 -14 -373 -111 -441 -142 -17 -8 -34 -14 -38 -14 -4
0 -21 -6 -38 -14 -18 -8 -54 -24 -82 -36 -27 -12 -95 -45 -150 -73 -55 -28
-110 -55 -122 -61 -13 -6 -23 -14 -23 -18 0 -5 -5 -8 -11 -8 -9 0 -139 -73
-164 -92 -5 -5 -62 -44 -125 -87 -63 -44 -119 -83 -125 -88 -5 -4 -41 -33 -80
-63 -101 -80 -143 -119 -305 -280 -134 -135 -213 -222 -249 -274 -8 -12 -17
-23 -20 -26 -18 -16 -191 -257 -191 -265 0 -3 -5 -11 -10 -18 -24 -29 -70
-103 -70 -114 0 -7 -3 -13 -7 -13 -5 0 -13 -10 -19 -23 -6 -12 -38 -71 -70
-132 -77 -143 -200 -426 -219 -505 -3 -8 -22 -73 -45 -144 -22 -71 -43 -143
-46 -160 -2 -17 -10 -49 -15 -71 -6 -22 -13 -49 -15 -60 -7 -35 -25 -139 -29
-165 -2 -14 -6 -42 -9 -63 -11 -72 -16 -110 -21 -166 -3 -31 -8 -81 -11 -111
-6 -66 -6 -430 0 -480 2 -19 7 -71 11 -115 3 -44 8 -87 11 -96 2 -9 6 -36 9
-60 2 -24 7 -55 10 -69 3 -14 7 -41 10 -60 6 -40 7 -48 30 -150 25 -110 62
-242 98 -350 17 -52 32 -97 32 -100 1 -3 7 -18 13 -33 7 -16 12 -30 12 -32 0
-23 160 -364 209 -445 11 -19 24 -42 28 -50 14 -33 139 -229 180 -283 24 -31
43 -61 43 -66 0 -5 4 -11 8 -13 5 -1 28 -30 53 -63 24 -33 49 -65 54 -71 6 -6
35 -40 65 -75 124 -145 353 -363 524 -498 77 -60 326 -229 391 -265 17 -9 50
-28 75 -42 85 -48 282 -146 320 -159 3 -1 16 -6 30 -12 83 -36 279 -108 320
-118 8 -2 47 -13 85 -25 39 -12 77 -23 85 -25 141 -33 246 -56 277 -60 21 -3
47 -7 59 -9 12 -2 45 -8 75 -11 30 -4 65 -9 79 -11 26 -4 77 -9 190 -19 82 -8
405 -8 485 0 138 13 212 21 264 30 14 2 44 6 66 10 23 3 52 8 65 10 14 3 39 7
55 10 112 16 502 128 616 177 19 8 70 30 114 48 88 37 346 164 385 190 14 10
70 45 125 79 110 67 333 232 441 326 137 118 330 318 445 460 102 126 319 438
319 459 0 3 14 29 31 58 93 156 221 449 288 662 45 141 105 382 116 466 2 14
8 52 14 85 5 33 13 83 16 110 3 28 7 66 9 85 17 143 24 492 12 600 -3 25 -8
75 -11 112 -3 37 -7 75 -9 85 -2 10 -7 46 -11 78 -4 33 -9 69 -11 80 -2 11 -6
34 -9 50 -3 17 -8 41 -10 55 -3 14 -7 34 -9 45 -2 11 -9 40 -16 64 -6 25 -13
54 -14 65 -2 12 -11 48 -22 81 -10 33 -19 62 -19 65 -50 205 -197 549 -343
800 -96 165 -295 450 -314 450 -4 0 -8 5 -8 11 0 6 -6 16 -12 23 -7 7 -40 44
-73 82 -74 86 -279 291 -365 366 -243 211 -591 433 -885 563 -185 82 -517 196
-610 210 -11 1 -40 8 -65 15 -54 14 -60 16 -175 36 -121 20 -132 22 -195 29
-30 4 -66 8 -80 10 -54 8 -397 24 -403 19z m258 -298 c66 -4 145 -11 175 -16
30 -5 73 -11 95 -14 22 -2 51 -7 65 -10 21 -5 57 -11 120 -21 8 -1 34 -7 56
-14 23 -6 62 -15 85 -20 24 -5 91 -23 149 -41 58 -17 111 -32 118 -32 6 -1 12
-5 12 -10 0 -4 8 -8 18 -8 22 0 319 -120 347 -141 6 -4 48 -27 95 -51 110 -58
204 -110 210 -117 3 -3 17 -12 33 -20 15 -8 27 -18 27 -23 0 -4 6 -8 13 -8 7
0 22 -8 33 -17 11 -10 27 -22 36 -28 53 -34 153 -109 168 -126 3 -3 15 -12 27
-20 45 -31 152 -128 263 -239 130 -130 160 -164 246 -270 56 -69 77 -98 167
-227 69 -100 134 -211 218 -373 28 -54 84 -182 123 -280 10 -25 22 -54 26 -65
24 -59 97 -303 105 -350 1 -11 10 -47 18 -80 9 -33 18 -73 21 -90 3 -16 7 -41
10 -55 3 -14 10 -63 16 -110 6 -47 13 -96 15 -110 20 -125 20 -574 0 -700 -2
-14 -6 -45 -10 -70 -7 -59 -16 -120 -21 -145 -3 -11 -7 -35 -10 -54 -9 -52
-11 -62 -29 -137 -20 -81 -73 -272 -82 -294 -3 -8 -7 -17 -8 -20 -15 -62 -142
-370 -155 -380 -4 -3 -11 -16 -15 -30 -4 -14 -17 -41 -29 -60 -12 -19 -28 -48
-36 -65 -8 -16 -17 -32 -20 -35 -3 -3 -16 -25 -29 -50 -57 -107 -258 -388
-357 -499 -66 -75 -286 -293 -343 -341 -29 -25 -59 -50 -65 -55 -6 -6 -29 -24
-51 -40 -22 -17 -42 -32 -45 -36 -24 -27 -348 -239 -366 -239 -7 0 -14 -3 -16
-8 -5 -13 -235 -127 -363 -180 -146 -61 -384 -138 -485 -158 -14 -3 -43 -10
-65 -16 -54 -14 -76 -18 -165 -32 -19 -3 -46 -8 -60 -10 -217 -40 -594 -49
-845 -20 -99 11 -139 16 -159 20 -12 2 -37 7 -56 10 -32 4 -53 8 -105 18 -92
18 -324 83 -430 121 -71 25 -134 47 -140 49 -48 15 -345 159 -420 203 -86 51
-221 136 -225 142 -3 3 -32 24 -65 46 -33 22 -62 42 -65 45 -3 3 -39 32 -80
65 -189 150 -352 317 -563 575 -7 8 -41 55 -76 105 -209 295 -371 625 -466
950 -14 50 -29 97 -32 105 -3 8 -7 22 -8 30 -1 8 -10 46 -19 84 -23 91 -26
104 -32 146 -2 19 -7 49 -11 65 -3 17 -7 39 -9 50 -1 11 -7 56 -13 100 -16
112 -30 441 -22 485 1 3 3 57 6 120 3 63 7 124 9 136 2 12 7 45 11 75 7 61 13
102 20 139 3 14 7 41 10 60 17 105 128 503 147 525 4 5 8 15 8 22 0 13 76 195
114 272 180 366 376 641 656 921 124 123 180 175 250 230 25 19 47 37 50 40 3
3 21 17 40 30 19 13 37 27 40 30 19 20 236 161 337 219 87 49 355 181 378 185
5 2 26 10 46 18 20 9 68 26 105 38 38 12 78 26 89 31 11 4 40 13 65 20 25 6
63 17 85 24 22 8 54 16 70 18 17 3 59 12 95 22 36 9 79 19 95 21 17 3 39 6 50
8 32 5 177 26 210 31 17 2 84 7 150 10 66 4 121 8 122 8 3 3 181 -1 298 -7z"/>
<path d="M6050 6057 c-3 -3 -23 -7 -45 -10 -216 -29 -407 -136 -521 -292 -16
-22 -31 -42 -34 -45 -14 -13 -70 -132 -93 -195 -21 -61 -29 -99 -53 -248 -3
-16 -5 -75 -6 -130 -2 -216 32 -381 108 -525 97 -183 249 -297 469 -352 107
-27 147 -31 285 -33 140 -1 206 7 356 43 69 16 138 30 153 30 31 0 74 -27 66
-41 -4 -5 3 -9 14 -9 24 0 23 -6 26 90 11 330 14 480 7 481 -4 0 -14 2 -23 4
-11 2 -29 -23 -60 -88 -49 -102 -118 -220 -131 -225 -4 -2 -8 -9 -8 -16 0 -24
-138 -151 -197 -181 -50 -25 -69 -29 -138 -29 -96 0 -155 24 -220 91 -95 96
-149 240 -173 458 -9 92 -9 583 1 660 12 96 14 107 32 174 47 183 136 292 263
325 204 53 384 -89 554 -437 15 -31 28 -61 28 -66 0 -12 49 -21 56 -10 4 7 -2
238 -11 424 -2 33 -4 77 -4 97 -1 31 -4 36 -18 31 -10 -4 -25 -15 -33 -25 -8
-11 -28 -20 -44 -22 -26 -3 -107 13 -156 30 -8 3 -15 5 -15 5 0 0 -27 6 -60
15 -57 14 -365 32 -375 21z"/>
<path d="M3344 6016 c-9 -28 5 -35 80 -38 l69 -3 -1 -805 c0 -443 -1 -819 -1
-837 l-1 -31 -71 1 c-71 2 -72 2 -75 -25 l-3 -28 400 0 399 0 0 25 c0 17 -6
25 -17 26 -10 0 -43 1 -73 2 l-55 2 0 410 0 410 250 0 250 0 0 -395 c1 -217
-1 -403 -3 -412 -3 -14 -15 -17 -56 -17 -92 1 -93 1 -93 -26 l0 -25 400 2 400
3 3 23 c4 20 0 22 -39 23 -23 1 -58 2 -77 3 l-35 1 0 835 0 835 75 5 c51 3 75
9 74 18 -1 6 -2 18 -3 25 -1 9 -84 12 -384 10 -210 0 -390 -2 -399 -2 -13 -1
-17 -8 -14 -23 3 -21 10 -23 77 -28 l73 -5 1 -387 c0 -256 -3 -388 -10 -389
-14 -1 -445 -1 -471 0 -20 1 -21 3 -20 389 l1 387 73 3 c69 3 72 4 72 27 0 17
-6 25 -17 26 -10 0 -188 2 -396 2 -359 2 -378 1 -383 -17z"/>
</g>
</svg>
