<svg transform="scale(1)" version="1.1" id="_x30_927_x5F_Error_x5F_2" xmlns="http://www.w3.org/2000/svg" xmlns:xlink="http://www.w3.org/1999/xlink" x="0px" y="0px" width="500px" height="500px" viewBox="0 0 500 500" xml:space="preserve" class="show_show__wrapper__graphic__5Waiy "><title>React</title><style type="text/css">
	.st0{fill:#495057;}
	.st1{fill:#343A40;}
	.st2{fill:#E9ECEF;}
	.st3{fill:#212529;}
	.st4{fill:#F8F9FA;}
</style><g id="character"><path class="st0" d="M322.24,184.27c-0.45-1.14-0.26-2.45,0.28-3.55c0.54-1.1,1.4-2.01,2.29-2.84c7.68-7.12,19.51-9.39,29.27-5.62
		c1.92,0.74,3.8,1.73,5.21,3.23c0.46,0.49,0.88,1.04,1.42,1.45c0.35,0.26,0.74,0.45,1.09,0.72c1.38,1.03,1.82,2.88,1.98,4.59
		c0.29,3.06-0.01,6.14-0.32,9.19c-0.61,6.16-1.23,12.34-2.51,18.39c-0.18,0.86-0.39,1.74-0.87,2.47c-0.48,0.73-1.31,1.3-2.19,1.24
		c-1.16-0.09-1.95-1.17-2.58-2.15c-1.7-2.66-3.4-5.32-5.1-7.98c-1.07-1.68-2.16-3.38-3.6-4.76s-3.29-2.43-5.29-2.52
		c-2.69-0.12-5.51,1.46-7.97,0.36c-0.84-0.38-1.52-1.03-2.14-1.71c-2.34-2.55-4.13-5.62-5.19-8.92L322.24,184.27z"></path><path class="st1" d="M345.67,230.78c2.07,1.48,4.93,0.64,7.26-0.37c2.33-1.01,4.97-2.16,7.3-1.17c0.32,0.14,0.64,0.32,0.99,0.37
		c0.6,0.09,1.18-0.21,1.72-0.48c7.05-3.51,15.6-2.71,22.93,0.17c0.46,0.18,0.94,0.37,1.43,0.34c0.88-0.06,1.59-0.8,2.46-0.87
		c0.81-0.07,1.53,0.44,2.26,0.79c0.73,0.34,1.74,0.48,2.24-0.16L424.92,215c0,0-50.55-18.22-51.11-18.19
		c0.89-3.66,2.97-7.03,5.85-9.46c0.33-0.28,0.68-0.55,1.11-0.63c0.41-0.07,0.84,0.05,1.26,0.07c0.97,0.04,1.85-0.52,2.72-0.95
		c2.7-1.33,5.82-1.57,8.83-1.34c6.59,0.5,12.82,3.05,18.93,5.57c9.51,3.92,19.07,7.87,27.77,13.34c3.84,2.41,7.77,5.5,8.81,9.91
		c0.8,3.41-0.34,7.08-2.42,9.9s-5.02,4.9-8.07,6.62c0,0-42.97,27.39-43.12,27.29c-9.39,20.64-9.3,44.16-9.04,66.84
		c0.03,2.61,0.1,5.36,1.43,7.61c0.42,0.7,0.96,1.36,1.17,2.15c0.36,1.38-0.36,2.78-0.83,4.13c-1.48,4.18-0.62,8.79,0.26,13.14h-72.9
		c0,0-0.54-2.19-1.03-2.98c1.42-2.4,1.38-5.6-0.1-7.96c-0.99-1.58-2.58-2.84-3.06-4.64c-0.29-1.09-0.14-2.25,0.01-3.38
		c2.12-16.7,0.36-33.62-1.4-50.37c-0.61-5.82-1.22-11.64-2.32-17.39c0,0-52.13-19.81-52.7-20.2c-4.77-2.03-8.15-6.88-8.65-12.05
		c-0.49-5.16,1.82-10.46,5.79-13.8c0,0,48.18-27.61,48.23-27.48c0.89,0.02,1.78-0.26,2.49-0.78c0.36-0.27,0.68-0.6,1.05-0.86
		c0.73-0.52,1.64-0.77,2.54-0.7c-0.06,0.82,0.31,1.6,0.69,2.33c1.13,2.12,2.51,4.11,4.11,5.91c0.11,0.12,0.22,0.26,0.26,0.42
		c0.06,0.33-0.24,0.62-0.52,0.82c-0.59,0.43-1.19,0.85-1.61,1.44s-0.63,1.38-0.34,2.05l-36.75,27.2c0,0,40.24,4.59,40.01,4.21
		c0.68,0.53,1.35,1.05,2.03,1.58c1.06-2.12,3.83-2.58,6.19-2.69c4.05-0.18,8.35-0.01,11.75,2.2c1.34,0.87,2.61,2.08,4.21,2.15
		C339.83,236.2,341.47,231.31,345.67,230.78z"></path><path class="st2" d="M322.62,183.99c-1.81,8.06-2.31,16.41-1.47,24.62l-5.29,5.8l5.93-0.97c0,0,0.93,7.39,1.16,7.79
		c0.2,2.42,0.86,4.79,1.94,6.96c0.47,0.95,1.06,1.91,1.98,2.45c0.72,0.43,1.58,0.56,2.42,0.59c2.11,0.07,4.24-0.48,6.04-1.57
		l0.05,10.37c0,0,1.49,1.46,1.61,1.29c0.96,0.41,2.04,0.38,3.08,0.27c3.43-0.38,6.72-1.63,9.74-3.3c3.02-1.66,5.8-3.73,8.53-5.84
		c0,0-0.32-20.26-0.41-20.37c-1.41-3.27-2.7-6.58-3.88-9.96c0.57-2.93,1.08-6.05-0.02-8.83c-0.19-0.48-0.44-0.96-0.88-1.24
		c-0.56-0.36-1.29-0.3-1.95-0.19c-1.3,0.23-2.74,0.81-3.1,1.88c-1.13-0.75-1.1-2.59-2.24-3.34c-0.32-0.21-0.69-0.31-1.01-0.52
		c-0.88-0.61-0.92-1.87-0.94-2.94c-0.02-1.07-0.28-2.36-1.29-2.72c-0.34-0.12-0.72-0.11-1.08-0.08c-3.55,0.23-7.05,1.22-10.6,1.05
		c-1.32-0.06-2.63-0.28-3.94-0.5c-1.26-0.21-2.52-0.43-3.78-0.64c-0.19-0.03-0.4-0.07-0.54-0.2c-0.18-0.16-0.23-0.42-0.26-0.66
		c-0.18-1.84,0.59-3.75,2.01-4.95c-0.85-0.44-1.87-0.27-2.8-0.06c-4.2,0.93-8.3,2.36-12.17,4.25c-1.09,0.53-2.18,1.11-2.99,2.02
		c-0.9,1.01-1.36,2.34-1.59,3.67c-0.04,0.26-0.08,0.54,0.01,0.79c0.06,0.16,0.16,0.3,0.26,0.44c1.91,2.6,3.82,5.2,5.73,7.79
		c0.1,0.14,0.23,0.28,0.39,0.28c0.12,0,0.22-0.09,0.32-0.15c1.06-0.71,2.4,0.21,3.65,0.48c1.55,0.33,3.1-0.43,4.5-1.16
		c0.29-0.15,0.6-0.32,0.79-0.59c0.17-0.26,0.22-0.57,0.27-0.88C321.33,191.56,321.84,188.02,322.62,183.99z"></path><path class="st2" d="M379.27,187.45c-2.07,2.41-3.56,5.32-4.29,8.41c-0.04,0.19-0.09,0.38-0.23,0.52c-0.14,0.13-0.33,0.17-0.52,0.2
		c-2.8,0.45-5.78-0.34-8-2.11c-0.88-0.7-1.64-1.55-2.39-2.39c-0.2-0.22-0.4-0.45-0.51-0.73c-0.1-0.26-0.12-0.55-0.12-0.83
		c-0.08-3.73,0.75-7.58-0.43-11.12c-0.3-0.9-0.71-1.95-0.17-2.73c0.5-0.74,1.55-0.79,2.45-0.74c2.4,0.13,4.79,0.43,7.15,0.89
		c1.55,0.31,3.13,0.7,4.47,1.55c0.54,0.34,1.07,0.81,1.18,1.44c0.06,0.36-0.02,0.73-0.13,1.08c-0.26,0.88-0.65,1.72-1.15,2.49
		c-0.41,0.63-0.92,1.4-0.58,2.08c0.21,0.42,0.68,0.63,1.12,0.8C377.86,186.58,378.62,186.89,379.27,187.45z"></path><ellipse class="st3" cx="331.97" cy="196.61" rx="1.38" ry="2.56"></ellipse><ellipse class="st3" cx="323.55" cy="196.05" rx="1.38" ry="2.56"></ellipse><path class="st3" d="M321.18,208.8c-0.26,0-0.48-0.2-0.5-0.46c-0.64-8.85-0.18-16.9,1.42-24.6c0.03-0.13,0.11-0.25,0.22-0.32
		c0.11-0.07,0.25-0.1,0.38-0.07c6.35,1.4,13.07,1.39,19.43-0.04c0.08-0.02,0.17-0.02,0.25,0.01c1.11,0.33,1.78,1.52,1.84,3.26
		l0.01,0.33c0.03,0.96,0.05,1.96,0.63,2.54c0.16,0.16,0.37,0.3,0.6,0.44c0.14,0.09,0.28,0.18,0.41,0.27c1.09,0.79,1.66,2,2.05,3.31
		c0.41-0.76,0.96-1.39,1.63-1.81c1.31-0.83,3.05-0.78,4.15,0.11c1.21,0.98,1.45,2.61,1.52,4.07c0.07,1.48,0.08,3.22-0.44,4.9
		c-0.55,1.79-1.67,3.24-3.07,3.99c-0.24,0.13-0.55,0.04-0.68-0.21c-0.13-0.24-0.04-0.55,0.21-0.68c1.17-0.62,2.11-1.86,2.58-3.4
		c0.47-1.53,0.46-3.16,0.4-4.56c-0.06-1.24-0.25-2.61-1.15-3.34c-0.77-0.63-2.03-0.64-2.98-0.04c-0.87,0.55-1.52,1.57-1.77,2.8
		c-0.05,0.23-0.25,0.4-0.49,0.4h0c-0.24,0-0.44-0.17-0.49-0.4c-0.37-1.77-0.81-3.44-2.05-4.34c-0.12-0.08-0.24-0.16-0.36-0.24
		c-0.26-0.16-0.53-0.33-0.77-0.58c-0.86-0.86-0.9-2.11-0.93-3.22l-0.01-0.32c-0.01-0.46-0.13-1.92-1.01-2.29
		c-6.3,1.4-12.93,1.44-19.23,0.12c-1.5,7.46-1.92,15.26-1.29,23.83c0.02,0.28-0.19,0.51-0.46,0.53
		C321.21,208.8,321.2,208.8,321.18,208.8z"></path><path class="st3" d="M314.99,215.65c-0.17,0-0.34-0.09-0.43-0.25c-0.12-0.2-0.08-0.46,0.1-0.62c3.6-3.25,6.07-5.96,7.99-8.78
		c2.44-3.57,3.89-7.22,4.31-10.84c0.03-0.27,0.28-0.47,0.55-0.44c0.27,0.03,0.47,0.28,0.44,0.55c-0.44,3.78-1.95,7.58-4.48,11.29
		c-1.66,2.43-3.7,4.77-6.49,7.43l13.46-4.31c0.26-0.08,0.54,0.06,0.63,0.32c0.08,0.26-0.06,0.54-0.32,0.63l-15.61,4.99
		C315.09,215.64,315.04,215.65,314.99,215.65z"></path><path class="st3" d="M329.72,231.7c-1.35,0-2.74-0.35-3.85-1.4c-0.96-0.91-1.47-2.15-1.87-3.25c-1.6-4.37-2.52-8.95-2.75-13.6
		c-0.01-0.28,0.2-0.51,0.47-0.52c0.3-0.02,0.51,0.2,0.52,0.48c0.22,4.55,1.12,9.02,2.69,13.3c0.36,0.99,0.82,2.11,1.62,2.87
		c2.28,2.15,6.25,0.63,7.41,0.11c7.11-3.16,12.27-9.37,16.78-15.61c0.16-0.22,0.47-0.27,0.7-0.11c0.22,0.16,0.27,0.47,0.11,0.7
		c-4.59,6.35-9.86,12.68-17.18,15.94C333.41,231.03,331.59,231.7,329.72,231.7z"></path><path class="st3" d="M338.47,242.11c-0.31,0-0.62-0.02-0.94-0.08c-1.25-0.21-2.26-0.92-2.71-1.89c-0.03-0.06-0.05-0.14-0.05-0.21
		l-0.07-9.71c0-0.28,0.22-0.5,0.5-0.5c0,0,0,0,0,0c0.27,0,0.5,0.22,0.5,0.5l0.07,9.59c0.33,0.62,1.06,1.09,1.93,1.24
		c0.91,0.16,1.9-0.02,2.75-0.19c6.37-1.31,12.34-4.24,17.27-8.48c0.1-1.36-0.05-12.55-0.2-20.03l-3.83-9.5
		c-0.1-0.26,0.02-0.55,0.28-0.65c0.25-0.1,0.55,0.02,0.65,0.28l3.86,9.59c0.02,0.06,0.04,0.12,0.04,0.18
		c0.11,5.97,0.35,19.93,0.13,20.57c-0.03,0.08-0.08,0.16-0.15,0.22c-5.09,4.42-11.26,7.47-17.86,8.82
		C339.98,241.97,339.24,242.11,338.47,242.11z"></path><path class="st3" d="M334.91,218.03c-0.04,0-0.08,0-0.12-0.01c-0.27-0.06-0.43-0.33-0.37-0.6c0.13-0.56,0.27-1.13,0.25-1.68
		c-0.03-0.54-0.23-1-0.56-1.25c-0.59-0.45-1.54-0.26-2.31-0.04c-1.75,0.5-3.46,1.17-5.1,1.98c-0.25,0.12-0.55,0.02-0.67-0.23
		c-0.12-0.25-0.02-0.55,0.22-0.67c1.69-0.84,3.46-1.53,5.26-2.05c0.99-0.29,2.25-0.52,3.19,0.21c0.56,0.43,0.9,1.16,0.94,2
		c0.04,0.69-0.12,1.34-0.27,1.96C335.34,217.88,335.14,218.03,334.91,218.03z"></path><path class="st3" d="M325.22,191.55c-0.09,0-0.18-0.02-0.26-0.07c-0.94-0.58-2.01-0.92-3.12-0.98c-0.28-0.02-0.49-0.25-0.47-0.53
		s0.26-0.5,0.53-0.47c1.27,0.07,2.51,0.46,3.59,1.13c0.24,0.15,0.31,0.45,0.16,0.69C325.55,191.47,325.39,191.55,325.22,191.55z"></path><path class="st3" d="M329.01,192c-0.21,0-0.41-0.14-0.48-0.35c-0.08-0.26,0.06-0.54,0.32-0.63c2.22-0.71,4.62-0.9,6.92-0.53
		c0.27,0.04,0.46,0.3,0.42,0.57c-0.04,0.27-0.31,0.46-0.57,0.42c-2.15-0.34-4.39-0.17-6.47,0.5C329.11,191.99,329.06,192,329.01,192
		z"></path><path class="st3" d="M345.82,182.8c-0.2,0-0.38-0.12-0.46-0.31c-0.11-0.25,0.01-0.55,0.27-0.65c3.43-1.44,7-2.63,10.61-3.54
		c0.27-0.07,0.54,0.1,0.61,0.36c0.07,0.27-0.1,0.54-0.36,0.61c-3.56,0.9-7.08,2.07-10.47,3.49
		C345.95,182.79,345.88,182.8,345.82,182.8z"></path><path class="st3" d="M349.68,198.24c-0.02,0-0.04,0-0.06,0c-0.27-0.03-0.47-0.28-0.44-0.56c0.17-1.45,0.67-2.88,1.43-4.13
		c0.14-0.24,0.45-0.31,0.69-0.17c0.24,0.14,0.31,0.45,0.17,0.69c-0.69,1.13-1.13,2.42-1.29,3.73
		C350.14,198.05,349.92,198.24,349.68,198.24z"></path><path class="st3" d="M350.72,201.03c-0.08,0-0.15-0.02-0.23-0.05c-0.25-0.13-0.34-0.43-0.22-0.67c0.56-1.1,0.81-2.33,0.72-3.55
		c-0.02-0.28,0.19-0.52,0.46-0.54c0.25-0.02,0.51,0.19,0.54,0.46c0.1,1.41-0.18,2.82-0.83,4.08
		C351.08,200.93,350.9,201.03,350.72,201.03z"></path><path class="st3" d="M305.12,188.05c-0.03,0-0.06,0-0.1-0.01c-0.27-0.05-0.45-0.31-0.4-0.59c0.32-1.67,1.36-3.28,2.93-4.55
		c1.45-1.17,3.17-1.94,4.66-2.53c3.39-1.35,6.94-2.33,10.54-2.91c0.27-0.04,0.53,0.14,0.57,0.41c0.04,0.27-0.14,0.53-0.41,0.57
		c-3.53,0.58-7.01,1.54-10.33,2.86c-1.42,0.56-3.06,1.29-4.4,2.37c-1.38,1.12-2.3,2.53-2.58,3.96
		C305.57,187.89,305.36,188.05,305.12,188.05z"></path><path class="st3" d="M316.86,183.83c-0.18,0-0.36-0.1-0.45-0.28c-0.12-0.25-0.02-0.55,0.23-0.67c1.29-0.63,2.67-1.1,4.09-1.38
		c0.27-0.05,0.53,0.12,0.59,0.39c0.05,0.27-0.12,0.53-0.39,0.59c-1.33,0.26-2.62,0.7-3.84,1.29
		C317.01,183.82,316.93,183.83,316.86,183.83z"></path><path class="st3" d="M318.88,186.71c-0.21,0-0.41-0.13-0.48-0.35c-0.08-0.26,0.06-0.54,0.32-0.63l1.8-0.58
		c0.26-0.08,0.54,0.06,0.63,0.32c0.08,0.26-0.06,0.54-0.32,0.63l-1.8,0.58C318.99,186.7,318.94,186.71,318.88,186.71z"></path><path class="st3" d="M308.93,191.28c-0.1,0-0.21-0.03-0.3-0.1c-0.22-0.17-0.26-0.48-0.1-0.7c1.08-1.43,2.86-2.34,4.65-2.37
		c2.2-0.04,4.19,1.13,5.79,2.08c0.24,0.14,0.32,0.45,0.18,0.68c-0.14,0.24-0.45,0.32-0.68,0.18c-1.5-0.88-3.37-1.99-5.27-1.94
		c-1.49,0.03-2.97,0.78-3.86,1.97C309.23,191.21,309.08,191.28,308.93,191.28z"></path><path class="st3" d="M316.32,198.2c-1.38,0-2.7-0.56-3.78-1.01c-0.25-0.11-0.38-0.4-0.27-0.65c0.11-0.25,0.4-0.37,0.65-0.27
		c1.18,0.5,2.51,1.06,3.82,0.91c0.71-0.08,1.39-0.36,2.11-0.66c0.42-0.18,0.84-0.35,1.28-0.49c0.26-0.08,0.54,0.06,0.63,0.32
		c0.08,0.26-0.06,0.54-0.33,0.63c-0.4,0.13-0.8,0.29-1.19,0.46c-0.75,0.31-1.53,0.64-2.38,0.73
		C316.67,198.19,316.49,198.2,316.32,198.2z"></path><path class="st3" d="M263.98,235.98c-0.17,0-0.34-0.09-0.44-0.25c-0.14-0.24-0.05-0.55,0.19-0.68c1.45-0.82,2.83-1.76,4.12-2.81
		c1.11-0.91,2.28-2.05,2.56-3.67c0.04-0.2,0.19-0.36,0.39-0.41c0.21-0.04,0.41,0.04,0.52,0.22c1.35,2.06,1.95,4.64,1.65,7.09
		c-0.03,0.27-0.28,0.48-0.56,0.44c-0.27-0.03-0.47-0.28-0.44-0.56c0.22-1.84-0.11-3.76-0.93-5.43c-0.56,1.32-1.58,2.29-2.56,3.09
		c-1.33,1.09-2.76,2.06-4.26,2.91C264.15,235.96,264.06,235.98,263.98,235.98z"></path><path class="st3" d="M372.14,197.16c-0.78,0-1.57-0.07-2.34-0.27c-1.91-0.5-3.38-1.87-3.74-3.47c-0.29-1.27,0.1-2.57,0.49-3.69
		c0.09-0.26,0.38-0.4,0.64-0.31c0.26,0.09,0.4,0.38,0.31,0.64c-0.36,1.03-0.69,2.12-0.46,3.14c0.28,1.24,1.47,2.31,3.02,2.72
		c1.37,0.36,2.83,0.25,4.25,0.1c0.71-3.07,2.2-6,4.27-8.39c-0.94-0.24-1.82-0.7-2.55-1.33c-0.21-0.18-0.23-0.5-0.05-0.71
		c0.18-0.21,0.5-0.23,0.71-0.05c0.81,0.71,1.85,1.15,2.92,1.26c0.19,0.02,0.35,0.14,0.42,0.32c0.07,0.18,0.03,0.38-0.11,0.52
		c-2.34,2.45-4.01,5.62-4.71,8.94c-0.04,0.21-0.22,0.37-0.44,0.39C373.94,197.07,373.05,197.16,372.14,197.16z"></path><path class="st3" d="M374.67,188.99c-0.2,0-0.39-0.12-0.47-0.32c-0.4-1.03-0.17-2.24,0.58-3.05c0.62-1.21,1.36-2.46,2.07-3.67
		c0.26-0.44,0.56-0.94,0.58-1.43c0.04-0.69-0.43-1.3-0.89-1.65c-0.6-0.45-1.37-0.69-2.05-0.88c-3.37-0.93-6.92-1.29-10.35-1.64
		c-0.27-0.03-0.47-0.27-0.45-0.55c0.03-0.28,0.28-0.47,0.55-0.45c3.47,0.35,7.07,0.72,10.51,1.67c0.77,0.21,1.65,0.49,2.39,1.05
		c0.86,0.65,1.34,1.59,1.28,2.5c-0.04,0.73-0.42,1.37-0.72,1.88c-0.72,1.22-1.46,2.48-2.08,3.68c-0.02,0.04-0.05,0.09-0.09,0.12
		c-0.51,0.52-0.68,1.37-0.41,2.05c0.1,0.26-0.03,0.55-0.28,0.65C374.79,188.98,374.73,188.99,374.67,188.99z M375.19,185.92
		L375.19,185.92L375.19,185.92z"></path><path class="st3" d="M365.73,188.65c-0.06,0-0.11-0.01-0.17-0.03c-0.26-0.09-0.39-0.38-0.3-0.64c0.72-1.98,1.52-3.48,2.52-4.72
		c0.88-1.08,2.37-2.5,4.49-3.06c0.27-0.07,0.54,0.09,0.61,0.35c0.07,0.27-0.09,0.54-0.35,0.61c-1.45,0.39-2.86,1.35-3.97,2.72
		c-0.93,1.14-1.68,2.55-2.36,4.43C366.13,188.52,365.94,188.65,365.73,188.65z"></path><path class="st3" d="M365.59,194.27c-0.14,0-0.29-0.06-0.38-0.18c-1.21-1.45-1.5-1.85-1.07-2.23c0.42-0.36,0.86,0.12,1.03,0.3
		c0.39,0.42,0.64,0.93,0.87,1.38c0.11,0.23,0.04,0.5-0.17,0.64C365.78,194.24,365.68,194.27,365.59,194.27z"></path><path class="st3" d="M365.74,186.5c-0.17,0-0.34-0.09-0.43-0.25c-0.49-0.84-1.25-1.52-2.14-1.91c-0.25-0.11-0.37-0.41-0.25-0.66
		c0.11-0.25,0.41-0.37,0.66-0.26c1.08,0.48,2,1.3,2.6,2.32c0.14,0.24,0.06,0.54-0.18,0.68C365.91,186.48,365.82,186.5,365.74,186.5z
		"></path><path class="st3" d="M366.78,183.11c-0.11,0-0.23-0.04-0.32-0.12c-0.84-0.7-1.79-1.25-2.81-1.63c-0.26-0.1-0.39-0.38-0.29-0.64
		s0.39-0.39,0.64-0.29c1.13,0.42,2.17,1.03,3.1,1.8c0.21,0.18,0.24,0.49,0.07,0.7C367.07,183.05,366.93,183.11,366.78,183.11z"></path><path class="st3" d="M369.54,180.6c-0.09,0-0.17-0.02-0.25-0.07c-0.91-0.54-2.07-0.7-3.1-0.43c-0.26,0.07-0.54-0.09-0.61-0.36
		c-0.07-0.27,0.09-0.54,0.36-0.61c1.3-0.34,2.71-0.15,3.86,0.54c0.24,0.14,0.32,0.45,0.18,0.68
		C369.88,180.51,369.71,180.6,369.54,180.6z"></path><path class="st3" d="M432.16,218c-0.07,0-0.15-0.02-0.21-0.05c-1.96-0.93-4.02-1.7-6.12-2.27c-0.27-0.07-0.42-0.35-0.35-0.61
		c0.07-0.27,0.35-0.42,0.61-0.35c2.15,0.59,4.27,1.37,6.29,2.33c0.25,0.12,0.36,0.42,0.24,0.67C432.52,217.9,432.34,218,432.16,218z
		"></path><path class="st3" d="M389.14,262.14c-0.16,0-0.32-0.08-0.42-0.22c-0.15-0.23-0.09-0.54,0.14-0.69l6.74-4.46
		c0.23-0.15,0.54-0.09,0.69,0.14c0.15,0.23,0.09,0.54-0.14,0.69l-6.74,4.46C389.33,262.12,389.23,262.14,389.14,262.14z"></path><path class="st3" d="M340.91,246.16c-3.35,0-6.49-0.93-8.9-2.75c-0.18-0.13-0.25-0.37-0.17-0.57l0.84-2.26
		c0.1-0.26,0.38-0.39,0.64-0.29c0.26,0.1,0.39,0.38,0.29,0.64l-0.71,1.9c3.81,2.68,9.43,3.08,14.76,1.05
		c4.97-1.9,9.07-5.38,13.18-9.08c0.21-0.19,0.52-0.17,0.71,0.04c0.19,0.21,0.17,0.52-0.04,0.71c-4.18,3.77-8.36,7.31-13.49,9.27
		C345.66,245.71,343.23,246.16,340.91,246.16z"></path><path class="st3" d="M310.46,266.14c-0.06,0-0.12-0.01-0.19-0.04l-3.07-1.23c-0.26-0.1-0.38-0.39-0.28-0.65
		c0.1-0.26,0.39-0.38,0.65-0.28l3.07,1.23c0.26,0.1,0.38,0.39,0.28,0.65C310.85,266.02,310.66,266.14,310.46,266.14z"></path></g><g id="desk"><polygon class="st3" points="251.06,370.6 369.65,393.98 392.68,369.45 276.28,352.21 	"></polygon><path class="st4" d="M178.88,326.67h55.21c6.2,0.31,8.18-3.73,8.08-8.26l-0.08-3.68v-78.2c0-3.77-3.05-6.82-6.82-6.82h-14.25
		H100.95c-4.46,0-8.08,3.62-8.08,8.08v80.69c0,4.46,3.62,8.08,8.08,8.08h52.58L178.88,326.67z"></path><path class="st0" d="M156.77,289.61h24.06l0.49,27.47l-12.27,42.88L190,360.6l-0.57-0.57l-22.99,15.6c0,0-23.64-2.44-23.87-2.46
		c-1.61-0.59-2.54-2.59-1.96-4.2l16.41-52.15L156.77,289.61z"></path><path class="st4" d="M160.2,330.02c1.3-1.03,2.84-2,4.49-1.83c1.54,0.16,2.86,1.35,3.41,2.8c0.55,1.45,0.41,3.1-0.14,4.55
		c-0.64,1.69-1.9,3.22-3.61,3.81c-1.71,0.59-3.85,0.03-4.76-1.53c-0.26-0.45-0.42-0.95-0.53-1.45
		C158.55,334.18,158.49,331.38,160.2,330.02z"></path><path class="st3" d="M448.89,351.62H172.52c-0.28,0-0.5-0.22-0.5-0.5s0.22-0.5,0.5-0.5h276.36c0.28,0,0.5,0.22,0.5,0.5
		S449.16,351.62,448.89,351.62z"></path><path class="st3" d="M145.37,351.39H51.11c-0.28,0-0.5-0.22-0.5-0.5s0.22-0.5,0.5-0.5h94.25c0.28,0,0.5,0.22,0.5,0.5
		S145.64,351.39,145.37,351.39z"></path><path class="st3" d="M166.24,376.03c-0.01,0-0.03,0-0.04,0l-22.91-1.93c-1.11-0.09-2.11-0.68-2.74-1.6
		c-0.63-0.93-0.8-2.07-0.47-3.14l16.12-52.58v-27.13c0-0.13,0.05-0.26,0.15-0.36c0.1-0.09,0.21-0.15,0.36-0.14l23.95,0.5
		c0.27,0.01,0.48,0.22,0.49,0.49l0.75,26.83c0,0.05-0.01,0.1-0.02,0.15l-12.1,42.37h19.9c0.22,0,0.42,0.14,0.48,0.36
		c0.06,0.21-0.02,0.44-0.2,0.56l-23.44,15.55C166.43,376,166.34,376.03,166.24,376.03z M157.21,290.16v26.7
		c0,0.05-0.01,0.1-0.02,0.15l-16.15,52.65c-0.24,0.78-0.11,1.61,0.34,2.28c0.46,0.67,1.18,1.1,1.99,1.17l22.73,1.91l21.92-14.53
		h-18.9c-0.16,0-0.3-0.07-0.4-0.2c-0.09-0.12-0.12-0.29-0.08-0.44l12.27-42.93l-0.74-26.28L157.21,290.16z"></path><path class="st3" d="M163.35,340.06c-0.37,0-0.74-0.04-1.1-0.13c-2.83-0.7-4.47-3.99-3.64-7.34l0,0c0.83-3.34,3.81-5.5,6.64-4.8
		c1.39,0.34,2.53,1.31,3.22,2.72c0.67,1.38,0.82,3.02,0.42,4.62s-1.29,2.99-2.53,3.89C165.43,339.71,164.39,340.06,163.35,340.06z
		 M159.58,332.83L159.58,332.83c-0.69,2.81,0.61,5.56,2.91,6.13c1.1,0.27,2.26,0.01,3.28-0.74c1.05-0.77,1.81-1.95,2.15-3.33
		c0.34-1.38,0.22-2.78-0.35-3.94c-0.55-1.14-1.46-1.91-2.56-2.18C162.71,328.2,160.27,330.02,159.58,332.83z"></path><path class="st3" d="M165.2,374.76c-0.19,0-0.37-0.11-0.46-0.3c-0.53-1.19-0.48-2.64,0.15-3.78l0.05,0.03
		c0.18-0.88,0.97-3.19,3.19-9.78c0.09-0.26,0.37-0.4,0.63-0.31c0.26,0.09,0.4,0.37,0.31,0.63c-1.25,3.69-3.12,9.26-3.26,9.75
		c-0.01,0.05-0.03,0.1-0.05,0.15c-0.48,0.88-0.52,1.99-0.11,2.9c0.11,0.25,0,0.55-0.25,0.66
		C165.33,374.74,165.26,374.76,165.2,374.76z"></path><path class="st3" d="M235.96,327.24h-56.74c-0.28,0-0.5-0.22-0.5-0.5s0.22-0.5,0.5-0.5h56.74c3.25,0,5.9-2.65,5.9-5.9v-84.1
		c0-3.25-2.65-5.9-5.9-5.9H99.57c-3.25,0-5.9,2.65-5.9,5.9v83.86c0,3.25,2.65,5.9,5.9,5.9h53.69c0.28,0,0.5,0.22,0.5,0.5
		s-0.22,0.5-0.5,0.5H99.57c-3.8,0-6.9-3.09-6.9-6.9v-83.86c0-3.8,3.09-6.9,6.9-6.9h136.39c3.8,0,6.9,3.09,6.9,6.9v84.1
		C242.86,324.14,239.77,327.24,235.96,327.24z"></path><path class="st1" d="M195.47,377.32c-0.06,0-0.13-0.01-0.19-0.04c-3.69-1.5-4.92-5.92-5.3-9.37c-0.06-0.52-0.11-1.05-0.16-1.58
		c-0.29-3.03-0.58-6.16-2.4-8.46c-2.09-2.63-6.05-3.81-10.6-3.14c-2.14,0.32-4.27,0.96-6.33,1.59c-1.74,0.53-3.54,1.08-5.36,1.43
		c-3.2,0.62-5.68,0.26-7.35-1.1c-2.72-2.2-2.48-6.19-2.25-7.81c0.77-5.36,3.83-10.08,7.03-14.38c0.16-0.22,0.48-0.27,0.7-0.1
		c0.22,0.17,0.27,0.48,0.1,0.7c-3.12,4.2-6.1,8.79-6.84,13.93c-0.21,1.45-0.44,5.01,1.89,6.89c1.43,1.16,3.63,1.46,6.53,0.89
		c1.77-0.34,3.54-0.88,5.26-1.41c2.09-0.64,4.26-1.29,6.47-1.62c4.9-0.72,9.21,0.59,11.53,3.51c2,2.52,2.32,5.81,2.62,8.98
		c0.05,0.53,0.1,1.05,0.16,1.56c0.35,3.18,1.45,7.24,4.69,8.56c0.26,0.1,0.38,0.4,0.27,0.65
		C195.86,377.2,195.67,377.32,195.47,377.32z"></path><path class="st0" d="M283.2,393.51c-0.47,0-0.94-0.01-1.41-0.03c-9.38-0.38-18.72-4.48-25.62-11.26c-0.42-0.42-0.84-0.84-1.26-1.27
		c-1.38-1.41-2.81-2.88-4.49-3.89c-2.89-1.74-6.42-2.12-9.79-2.35c-5.64-0.4-10.78-0.49-15.71-0.27c-0.71,0.03-1.43,0.07-2.15,0.11
		c-3.39,0.19-6.89,0.38-10.31-0.17c-2.79-0.45-7.9-1.84-10.78-6.19c-2.57-3.9-2.07-9.25,1.12-11.92c0.21-0.18,0.53-0.15,0.7,0.06
		c0.18,0.21,0.15,0.53-0.06,0.7c-3.05,2.56-2.95,7.55-0.93,10.61c2.66,4.03,7.47,5.34,10.1,5.76c3.31,0.53,6.76,0.34,10.1,0.16
		c0.72-0.04,1.44-0.08,2.15-0.11c4.96-0.22,10.14-0.14,15.82,0.27c3.49,0.25,7.15,0.65,10.23,2.5c1.8,1.08,3.27,2.59,4.69,4.05
		c0.41,0.42,0.83,0.85,1.25,1.26c6.73,6.6,15.83,10.6,24.96,10.97c9.34,0.38,18.84-3.15,25.41-9.45c0.2-0.19,0.52-0.18,0.71,0.02
		c0.19,0.2,0.18,0.52-0.02,0.71C301.51,389.92,292.35,393.51,283.2,393.51z"></path><path class="st4" d="M368.03,388c-0.03,0-0.07,0-0.1-0.01l-107.37-21.17c-0.27-0.05-0.45-0.32-0.39-0.59
		c0.05-0.27,0.32-0.45,0.59-0.39l107.37,21.17c0.27,0.05,0.45,0.32,0.39,0.59C368.48,387.83,368.27,388,368.03,388z"></path><path class="st4" d="M373.24,381.86c-0.03,0-0.06,0-0.09-0.01l-106.79-18.74c-0.27-0.05-0.45-0.31-0.41-0.58
		c0.05-0.27,0.31-0.46,0.58-0.41l106.79,18.74c0.27,0.05,0.45,0.31,0.41,0.58C373.69,381.69,373.48,381.86,373.24,381.86z"></path><path class="st4" d="M377.41,376.43c-0.03,0-0.05,0-0.08-0.01l-106.1-17.59c-0.27-0.04-0.46-0.3-0.41-0.58
		c0.04-0.27,0.29-0.46,0.58-0.41l106.1,17.59c0.27,0.04,0.46,0.3,0.41,0.58C377.86,376.25,377.65,376.43,377.41,376.43z"></path><path class="st4" d="M382.03,372.15c-0.03,0-0.05,0-0.08-0.01l-105.41-15.97c-0.27-0.04-0.46-0.3-0.42-0.57
		c0.04-0.27,0.3-0.46,0.57-0.42l105.41,15.97c0.27,0.04,0.46,0.3,0.42,0.57C382.49,371.97,382.28,372.15,382.03,372.15z"></path></g><g id="error"><polygon class="st2" points="96.67,184.52 96.67,106.02 240.17,106.02 240.17,184.52 175.88,184.52 168.36,216.27 160.69,184.52 	
		"></polygon><rect class="st3" x="143.99" y="113.4" transform="matrix(0.7141 -0.7 0.7 0.7141 -47.768 138.3351)" width="3" height="28.51"></rect><rect class="st3" x="130.77" y="126.07" transform="matrix(0.7071 -0.7071 0.7071 0.7071 -47.654 140.0969)" width="29.02" height="3"></rect><rect class="st3" x="190.4" y="112.89" transform="matrix(0.7071 -0.7071 0.7071 0.7071 -33.9001 173.0202)" width="3" height="29.08"></rect><rect class="st3" x="177.9" y="126.19" transform="matrix(0.7071 -0.7071 0.7071 0.7071 -33.9848 173.3386)" width="28.68" height="3"></rect><path class="st3" d="M191.14,166.86c-0.61,0-1.19-0.38-1.41-0.99c-0.95-2.6-3.04-4.94-6.21-6.98c-5.65-3.63-12.67-5.03-19.27-3.84
		c-6.6,1.18-12.7,4.94-16.74,10.3c-0.5,0.66-1.44,0.79-2.1,0.3c-0.66-0.5-0.79-1.44-0.3-2.1c4.48-5.96,11.26-10.13,18.6-11.45
		c7.34-1.32,15.15,0.24,21.42,4.27c3.74,2.4,6.23,5.25,7.41,8.48c0.28,0.78-0.12,1.64-0.89,1.92
		C191.49,166.83,191.32,166.86,191.14,166.86z"></path><path class="st3" d="M176.06,172.01c-1.31,0-2.59-0.4-3.61-1.39c-1.06-1.03-1.64-2.58-1.62-4.35c0.01-1.16,0.26-2.24,0.49-3.28
		l0.12-0.53c0.72-3.29,0.75-5.83,0.07-8c-0.25-0.79,0.19-1.63,0.98-1.88c0.79-0.25,1.63,0.19,1.88,0.98c0.84,2.68,0.84,5.72,0,9.54
		l-0.12,0.55c-0.21,0.93-0.41,1.8-0.42,2.65c-0.01,0.93,0.25,1.72,0.71,2.17c0.96,0.94,2.88,0.54,4.19-0.31
		c2.29-1.48,4.01-4.11,5.44-8.26c0.27-0.78,1.12-1.2,1.91-0.93c0.78,0.27,1.2,1.12,0.93,1.91c-1.04,3.03-2.86,7.35-6.65,9.8
		C179.15,171.46,177.59,172.01,176.06,172.01z"></path><path class="st3" d="M178.18,164.89c-0.25,0-0.5-0.06-0.73-0.19c-0.72-0.41-0.98-1.32-0.58-2.04c1.13-2.01,1.66-4.39,1.49-6.69
		c-0.06-0.83,0.56-1.54,1.39-1.6c0.83-0.05,1.54,0.56,1.6,1.39c0.21,2.88-0.45,5.85-1.86,8.37
		C179.21,164.61,178.7,164.89,178.18,164.89z"></path></g></svg>