<svg transform="scale(1)" version="1.1" id="_x30_134_x5F_presentation" xmlns="http://www.w3.org/2000/svg" xmlns:xlink="http://www.w3.org/1999/xlink" x="0px" y="0px" width="500px" height="500px" viewBox="0 0 500 500" xml:space="preserve" class="show_show__wrapper__graphic__5Waiy "><title>React</title><style type="text/css">
	.st0{fill:#343A40;}
	.st1{fill:#E9ECEF;}
	.st2{fill:#212529;}
	.st3{fill:#F8F9FA;}
	.st4{fill:#495057;}
</style><g id="character"><g id="colors"><path class="st0" d="M128.02,101.03c-1.2,3.64-3.89,6.76-7.27,8.55c-1.02,0.37-2.12,0.74-3.17,0.47
			c-0.94-0.24-1.68-0.97-2.32-1.69c-4.05-4.53-6.61-10.37-7.11-16.38c-3.93,0.77-8.4-0.31-10.89-3.45
			c-0.85-1.07-1.44-2.33-1.84-3.64c-0.57-1.88-0.75-3.89-0.52-5.84c0.22-1.88,0.83-3.72,1.77-5.36c2.07-3.64,5.93-6.3,10.11-6.55
			s8.49,2.14,10.24,6c3.97-3.31,9.38-4.59,14.53-4.17c2.65,0.22,5.3,0.88,7.59,2.23c2.29,1.35,4.21,3.43,5.04,6.06
			c-1.5,0.82-2.02,2.65-2.66,4.23c-1.3,3.21-3.62,6-6.54,7.86c-1.06,0.68-2.21,1.24-3.14,2.09c-1.28,1.17-2.07,2.79-2.55,4.46
			C128.8,97.57,128.6,99.3,128.02,101.03z"></path><path class="st0" d="M188.19,445.33c-1.64,0.22-3.3,0.32-4.96,0.3l-46.13,0.63l-26.02,1.17c0,0-17.49-4.45-17.58-4.51
			c-1.36-2.01-1.15-4.76-0.1-6.94s2.82-3.93,4.55-5.62c0.2-0.19,0.42-0.4,0.7-0.4c0.42-0.01,0.69,0.43,0.94,0.77
			c1.1,1.53,3.18,1.93,5.05,2.14c4.47,0.5,8.99,0.62,13.68,0.85c0.33,0.82,0.68,1.65,1.27,2.31c1.12,1.25,2.89,1.62,4.54,1.92
			c1.06,0.2,2.11,0.39,3.17,0.59c1.09,0.2,2.19,0.41,3.29,0.39c1.38-0.02,2.73-0.38,3.87-0.7c0.4-0.88,0.42-1.87,0.6-2.82
			c0.17-0.95,0.58-1.96,1.44-2.39l19.1-0.45c0,0,4.52-1.46,5.03-1.57c6.89,4.46,17,0.98,23.57,5.89
			C186.95,438.94,188.64,442.33,188.19,445.33z"></path><path class="st1" d="M148.19,90.53c0.75,2.52,2.33,4.74,4.21,6.57c1.88,1.84,4.07,3.33,6.28,4.76c0,0-9.72-0.27-9.68-0.05
			c-1,4.94-0.46,10.39-3.13,14.66c-0.28,0.44-0.6,0.88-1.08,1.1c-0.52,0.24-1.12,0.17-1.69,0.09c-1.94-0.27-3.87-0.58-5.57-0.56
			c0.24,1.52,0.66,3.02,1.22,4.46c-6.66,0.21-13.29,1.16-19.37,2.73c-0.14-0.97,0.34-1.9,0.61-2.84c0.29-1.05,0.32-2.15,0.34-3.24
			c0.06-2.85,0.13-5.7-0.15-8.56c1.86-0.72,3.39-2.09,4.72-3.58c1.29-1.45,2.48-3.22,2.69-5.22c-0.74-0.18-1.34-0.75-1.72-1.41
			s-0.55-1.42-0.69-2.17c-0.22-1.24-0.33-2.52-0.08-3.75c0.11-0.57,0.3-1.13,0.63-1.61c1.01-1.5,3.25-1.91,5.3-0.94
			c2.21-1.36,4.43-2.72,6.38-4.44s3.61-3.82,4.46-6.27c0.22-0.65,0.39-1.32,0.74-1.91s0.93-1.09,1.6-0.89
			c0.81,0.85,1.13,2.05,1.42,3.2C146.42,83.81,147.13,86.99,148.19,90.53z"></path><path class="st1" d="M201.53,131.24c1.27-0.09,2.54-0.27,3.78-0.55c0,0,84.12-15.3,84.2-15.45c1.34-1.89,2.54-3.88,3.6-5.94
			c0.44-0.86,0.86-1.74,1.44-2.52c0.58-0.78,1.34-1.46,2.26-1.75c1.23-0.4,2.56-0.09,3.85-0.14c1-0.04,1.98-0.31,2.99-0.35
			c0.29-0.01,0.6,0,0.86,0.13c0.4,0.19,0.63,0.62,0.84,1.01c1.22,2.36,2.44,4.71,3.66,7.07c0.26,0.5,0.52,1,0.67,1.54
			c0.3,1.07,0.15,2.21-0.02,3.31c-0.48,2.97-1.18,5.9-2.1,9.06c-0.46,1.95-1.11,3.94-2.51,5.36c-1.71,1.74-4.28,2.34-6.72,2.4
			s-4.87-0.36-7.31-0.31c-2.08,0.04-4.16,0.42-6.12,1.11c0,0-74.23,24.31-74.37,24.41c-3.02,0.78-6.27,0.69-9.24-0.27L201.53,131.24
			z"></path><path class="st1" d="M75.71,163.48c0.88,0.74,1.77,1.47,2.65,2.21c0,0,17.5,15.86,17.66,16.51c-3.32,6.24-5.54,13.08-6.51,20.08
			c0,0,1.36,2.14,1.67,2.53c1.51,0.88,2.57,2.34,3.7,3.67c1.84,2.17,3.96,4.09,6.3,5.69c0,0,0.69,8.32,0.55,8.64
			c-2.48,4.34-4.36,9.02-5.56,13.87c0,0-24.16-16.7-24.39-16.74c-6.26-5.98-9.11-15.31-7.26-23.76L75.71,163.48z"></path><path class="st1" d="M100.43,424.79c-0.73,1.72-1.54,3.4-2.13,5.14c0.81,1.58,2.29,2.75,3.91,3.48s3.4,1.04,5.17,1.25
			c3.84,0.46,7.74,0.44,11.61-0.17c-0.94-0.99-1.25-2.42-1.32-3.78s0.06-2.74-0.01-3.93C111.91,427.19,106.09,426.62,100.43,424.79z
			"></path><path class="st1" d="M136.43,427.76c0.47,0.85,0.55,1.87,0.43,2.83s-0.46,1.89-0.68,2.96c8.01,3.31,17.6,2.51,25.11-2.08
			c-2.11-0.74-3.81-2.56-4.09-4.51C150.47,428.21,143.59,428.6,136.43,427.76z"></path><path class="st2" d="M159.59,221.08c-9.24,2.78-18.6,5.59-28.24,6.09c-6.82,0.36-13.64-0.44-20.46-0.54
			c-1.74-0.08-3.11-0.31-4.44-0.65c-1.03-0.26-2.07-0.6-2.93-1.22c-0.87-0.62-1.55-1.56-1.79-2.57c-2.59,4.35-4.46,9.12-4.95,14.29
			c-3.51,19.04-0.33,38.63,3.48,57.61c2.18,10.83,4.56,21.62,7.14,32.36c0.74,3.06,1.5,6.14,2.73,9.04c0,0-13.59,78.48-13.44,78.24
			c-1.22,2.07-1.43,4.7-0.53,6.92c0.25,0.62,0.58,1.2,1,1.73c1.28,1.61,3.27,2.47,5.22,3.12c8.14,2.67,17.23,2.32,25.15-0.97
			l0.71-2.89c0,0,12.59-88.47,12.42-88.7c0.05-1.47-0.25-2.94-0.85-4.28c0,0-20.55-61.76-20.65-61.94c-1-5.72-1.03-11.61-0.09-17.34
			c0.09,6.39,0.2,12.91,2.39,18.91c0,0,21.43,60.39,21.53,60.45c0.34,0.55,0.38,1.31,0.89,1.7c0.19,0.14,0.43,0.22,0.65,0.3
			c0.8,0.29,1.53,0.73,2.17,1.29c0.17,0.15,0.35,0.33,0.41,0.55c0.17,0.59-0.49,1.08-1.08,1.26c-0.64,0.2-1.32,0.28-1.99,0.24
			c-0.18-0.01-0.37-0.03-0.54,0.03s-0.32,0.23-0.28,0.41c0,0-12.41,88.77-12.4,88.7c-0.12,1.24,1.01,2.22,2.1,2.82
			c3.48,1.93,7.58,2.41,11.57,2.51c6.64,0.17,13.48-0.65,19.31-3.82c0,0,14.8-94.71,14.67-95.11c1.16-13.35-0.3-26.93-4.28-39.73
			L159.59,221.08z"></path><path class="st2" d="M132.25,114.34c0.9,2.51,2.97,4.57,5.48,5.46c-0.02-0.93-0.04-1.87-0.06-2.8c0-0.16-0.01-0.33-0.11-0.45
			c-0.1-0.13-0.28-0.18-0.44-0.22C135.58,115.92,134.09,115.25,132.25,114.34z"></path><path class="st3" d="M159.52,220.03c-0.82,2.37-4.38,2.57-6.83,3.08c-6.69,1.4-12.75,2.9-19.54,3.69c-2.3,0.27-4.59,0.53-6.9,0.61
			c-3.15,0.11-6.3-0.14-9.44-0.49c-3.5-0.39-6.99-0.92-10.46-1.55c-1.09-0.2-2.22-0.42-3.12-1.06c-0.91-0.64-1.53-1.81-1.19-2.87
			l-2.46-36.95l-2.63-2.36c0,0-24.46-21.8-24.41-22.3c6.54-12.68,17.53-22.86,30.29-29.26s27.2-9.12,41.88-8.77
			c6.89-1.21,13.96-0.35,20.9,0.55c10.25,1.33,20.5,2.78,30.54,5.18c1.69,0.41,3.39,0.84,4.93,1.66l-0.05,35.52
			c0,0-27.49,3.19-27.39,3.52C164.9,184.2,165.38,203.18,159.52,220.03z"></path></g><g id="line"><path class="st2" d="M145.21,117.98c-4.54,0-9.02-1.2-12.96-3.47c-0.24-0.14-0.32-0.44-0.18-0.68c0.14-0.24,0.44-0.32,0.68-0.18
			c3.75,2.15,7.99,3.3,12.3,3.33c0.92-1.05,1.37-2.34,1.72-3.58c2.2-7.8,1.45-16.18,0.43-23.34c-0.57-4-1.36-8.58-3.54-12.48
			c-0.14-0.24-0.05-0.55,0.19-0.68c0.24-0.13,0.55-0.05,0.68,0.19c2.27,4.04,3.08,8.74,3.66,12.82c1.04,7.27,1.8,15.78-0.45,23.76
			c-0.4,1.43-0.93,2.92-2.1,4.16C145.53,117.94,145.37,117.98,145.21,117.98z M145.27,117.48L145.27,117.48L145.27,117.48z"></path><path class="st2" d="M138.54,121.89c-0.19,0-0.37-0.1-0.45-0.28c-0.76-1.59-1.1-3.36-0.96-5.12c0.02-0.28,0.26-0.48,0.54-0.46
			c0.28,0.02,0.48,0.26,0.46,0.54c-0.12,1.59,0.17,3.18,0.86,4.62c0.12,0.25,0.01,0.55-0.23,0.67
			C138.69,121.87,138.61,121.89,138.54,121.89z"></path><path class="st2" d="M128.18,101.39c-0.13,0-0.26-0.01-0.39-0.02c-0.97-0.12-1.88-0.72-2.51-1.66c-0.61-0.9-0.86-1.97-0.99-2.69
			c-0.26-1.51-0.23-2.76,0.09-3.85c0.42-1.41,1.33-2.53,2.49-3.08c1.24-0.6,2.72-0.45,3.72,0.34c5.68-2.1,10.05-6.92,11.43-12.63
			c0.06-0.27,0.33-0.43,0.6-0.37c0.27,0.06,0.43,0.33,0.37,0.6c-1.48,6.13-6.21,11.28-12.34,13.43c-0.18,0.06-0.38,0.02-0.52-0.12
			c-0.68-0.67-1.87-0.83-2.83-0.37c-0.91,0.43-1.62,1.33-1.96,2.46c-0.28,0.94-0.3,2.04-0.07,3.39c0.18,1,0.45,1.74,0.83,2.31
			c0.46,0.68,1.14,1.14,1.81,1.22c0.61,0.08,1.25-0.13,1.85-0.36c0.26-0.1,0.55,0.03,0.65,0.29c0.1,0.26-0.03,0.55-0.28,0.65
			C129.54,101.17,128.87,101.39,128.18,101.39z"></path><path class="st2" d="M119.75,109.78c-0.27,0-0.5-0.22-0.5-0.49c0-0.28,0.22-0.5,0.49-0.51c1.55-0.02,3.18-0.88,4.35-2.3
			c0.97-1.16,1.68-2.67,2.24-4.75c0.07-0.27,0.35-0.43,0.61-0.35c0.27,0.07,0.42,0.35,0.35,0.61c-0.6,2.22-1.38,3.85-2.44,5.13
			C123.51,108.76,121.6,109.75,119.75,109.78C119.76,109.78,119.75,109.78,119.75,109.78z"></path><path class="st2" d="M126.12,117.47c-0.28,0-0.5-0.22-0.5-0.5v-0.11c0-0.56,0-1.14-0.13-1.67c-0.14-0.57-0.42-1.02-0.8-1.27
			c-0.26-0.17-0.6-0.27-0.96-0.37c-0.41-0.11-0.82-0.23-1.21-0.48c-0.67-0.44-1.12-1.21-1.25-2.12c-0.11-0.79,0.01-1.59,0.14-2.26
			c0.05-0.27,0.32-0.45,0.59-0.39c0.27,0.06,0.45,0.32,0.39,0.59c-0.12,0.59-0.23,1.28-0.14,1.92c0.09,0.62,0.38,1.14,0.81,1.42
			c0.25,0.16,0.58,0.26,0.93,0.35c0.42,0.12,0.84,0.24,1.24,0.5c0.59,0.39,1.02,1.05,1.22,1.87c0.16,0.64,0.15,1.28,0.15,1.9v0.11
			C126.62,117.25,126.4,117.47,126.12,117.47z"></path><path class="st2" d="M111.79,121.5c-0.14,0-0.29-0.06-0.39-0.18c-0.18-0.21-0.15-0.53,0.07-0.7c0.63-0.52,1.02-1.37,1-2.21
			c-0.01-0.2-0.03-0.41-0.06-0.61c-0.05-0.43-0.11-0.87-0.02-1.33c0.16-0.88,0.81-1.67,1.88-2.29c0.26-0.15,0.54-0.29,0.81-0.43
			c0.51-0.26,0.99-0.5,1.39-0.83c0.74-0.61,1.2-1.59,1.22-2.54c0-0.28,0.25-0.49,0.51-0.49c0.28,0,0.5,0.23,0.49,0.51
			c-0.02,1.26-0.61,2.49-1.58,3.29c-0.49,0.41-1.04,0.69-1.58,0.96c-0.26,0.13-0.51,0.26-0.76,0.4c-0.56,0.33-1.26,0.87-1.4,1.61
			c-0.06,0.31-0.01,0.66,0.03,1.02c0.03,0.24,0.06,0.47,0.07,0.71c0.02,1.16-0.48,2.29-1.36,3.01
			C112.02,121.46,111.9,121.5,111.79,121.5z"></path><path class="st2" d="M119.13,123.88c-0.05,0-0.1-0.01-0.16-0.03c-0.26-0.09-0.4-0.37-0.32-0.63c1.38-4.15,1.73-8.62,1.01-12.92
			c-0.05-0.27,0.14-0.53,0.41-0.58c0.27-0.05,0.53,0.14,0.58,0.41c0.74,4.46,0.38,9.09-1.05,13.4
			C119.54,123.75,119.34,123.88,119.13,123.88z"></path><path class="st2" d="M108.01,92.25C108.01,92.25,108.01,92.25,108.01,92.25c-0.28,0-0.5-0.23-0.5-0.51
			c0.06-4.12,0.69-7.61,1.93-10.68c1.46-3.63,3.88-6.64,6.8-8.47c0.23-0.15,0.54-0.08,0.69,0.16c0.15,0.23,0.08,0.54-0.16,0.69
			c-2.74,1.72-5.02,4.56-6.4,7.99c-1.19,2.95-1.8,6.33-1.85,10.32C108.51,92.03,108.28,92.25,108.01,92.25z"></path><path class="st2" d="M105.68,76.57c-0.09,0-0.19-0.03-0.27-0.08c-0.23-0.15-0.3-0.46-0.14-0.69c4.45-6.8,9.14-13.54,13.94-20.02
			c0.16-0.22,0.48-0.27,0.7-0.1c0.22,0.16,0.27,0.48,0.1,0.7c-4.78,6.47-9.46,13.19-13.9,19.98C106,76.49,105.84,76.57,105.68,76.57
			z"></path><path class="st2" d="M87.45,105.29c-0.09,0-0.19-0.03-0.27-0.08c-0.23-0.15-0.3-0.46-0.15-0.69l10.12-15.54
			c0.15-0.23,0.46-0.3,0.69-0.15c0.23,0.15,0.3,0.46,0.15,0.69l-10.12,15.54C87.77,105.21,87.61,105.29,87.45,105.29z"></path><path class="st2" d="M97.33,183.22c-0.12,0-0.24-0.04-0.33-0.13l-24.99-22.48c-0.17-0.15-0.21-0.39-0.12-0.59
			c6.61-13.73,19.01-24.98,34.9-31.69c13.39-5.65,29.23-8.12,47.09-7.35c17.19,0.74,33.69,4.26,47.56,7.6
			c0.23,0.05,0.38,0.26,0.38,0.49c-0.1,11.89-0.2,23.79-0.29,35.68c0,0.25-0.19,0.46-0.44,0.49l-48.36,5.51
			c-0.28,0.04-0.52-0.17-0.55-0.44c-0.03-0.27,0.17-0.52,0.44-0.55l47.92-5.46c0.09-11.61,0.19-23.23,0.28-34.84
			c-13.74-3.3-30.03-6.75-46.98-7.48c-17.71-0.77-33.4,1.68-46.65,7.27c-15.53,6.56-27.67,17.51-34.22,30.87l24.71,22.23
			c0.21,0.18,0.22,0.5,0.04,0.71C97.6,183.16,97.47,183.22,97.33,183.22z"></path><path class="st2" d="M123.84,227.61c-6.41,0-12.82-0.57-19.16-1.73c-0.27-0.05-0.45-0.31-0.4-0.58c0.05-0.27,0.31-0.45,0.58-0.4
			c18.04,3.29,36.7,1.83,54.01-4.23c0.68-17.47,5.29-35.15,13.34-51.15c0.12-0.25,0.43-0.35,0.67-0.22
			c0.25,0.12,0.35,0.42,0.22,0.67c-8.04,15.97-12.62,33.63-13.25,51.07c-0.01,0.21-0.14,0.38-0.33,0.45
			C148.04,225.56,135.95,227.61,123.84,227.61z"></path><path class="st2" d="M96.16,237.16c-0.1,0-0.19-0.03-0.28-0.09l-24.61-16.73c-6.4-6.09-9.15-15.5-7.05-24
			c2.8-9.58,6.33-20.13,10.8-32.26c0.1-0.26,0.38-0.39,0.64-0.3c0.26,0.1,0.39,0.38,0.3,0.64c-4.46,12.12-7.99,22.64-10.77,32.18
			c-2,8.15,0.63,17.17,6.71,22.97l24.55,16.68c0.23,0.16,0.29,0.47,0.13,0.69C96.48,237.08,96.32,237.16,96.16,237.16z"></path><path class="st2" d="M89.04,202.47c-0.05,0-0.1-0.01-0.15-0.02c-0.26-0.08-0.41-0.37-0.32-0.63c2.27-7.12,4.44-13.68,6.63-20.06
			c0.09-0.26,0.37-0.4,0.64-0.31c0.26,0.09,0.4,0.37,0.31,0.64c-2.19,6.37-4.36,12.93-6.63,20.04
			C89.45,202.33,89.25,202.47,89.04,202.47z"></path><path class="st2" d="M79.55,206.07c-0.24,0-0.46-0.18-0.49-0.42c-0.04-0.27,0.14-0.53,0.42-0.57c1.93-0.3,3.9-0.7,5.87-1.18
			c0.27-0.07,0.54,0.1,0.6,0.37s-0.1,0.54-0.37,0.6c-1.99,0.49-3.99,0.89-5.95,1.2C79.6,206.07,79.58,206.07,79.55,206.07z"></path><path class="st2" d="M100.32,213.99c-0.13,0-0.25-0.05-0.35-0.14l-10.43-10.14c-0.2-0.19-0.2-0.51-0.01-0.71
			c0.19-0.2,0.51-0.2,0.71-0.01l10.43,10.14c0.2,0.19,0.2,0.51,0.01,0.71C100.58,213.94,100.45,213.99,100.32,213.99z"></path><path class="st2" d="M204.7,131.42c-0.23,0-0.44-0.16-0.49-0.39c-0.06-0.27,0.11-0.54,0.38-0.6c4.43-0.99,9.04-1.8,13.7-2.4
			c27.41-4.82,68.74-12.39,71.17-13.64l4.67-7.61c0.36-0.59,0.85-1.39,1.63-1.84c0.94-0.54,2.03-0.45,2.92-0.39
			c0.28,0.02,0.48,0.26,0.46,0.54c-0.02,0.28-0.27,0.48-0.54,0.46c-0.78-0.06-1.67-0.13-2.34,0.25c-0.52,0.3-0.88,0.85-1.27,1.5
			l-4.73,7.7c-0.02,0.04-0.05,0.07-0.08,0.1c-1.58,1.51-60.03,11.85-71.73,13.91c-4.65,0.6-9.22,1.4-13.63,2.39
			C204.77,131.42,204.74,131.42,204.7,131.42z"></path><path class="st2" d="M299.01,110.6c-0.92,0-1.83-0.16-2.7-0.49c-0.26-0.1-0.39-0.39-0.29-0.65s0.39-0.39,0.65-0.29
			c2.17,0.83,4.83,0.39,6.61-1.09c0.21-0.18,0.53-0.15,0.7,0.07c0.18,0.21,0.15,0.53-0.07,0.7C302.54,110,300.78,110.6,299.01,110.6
			z"></path><path class="st2" d="M297.19,134.84c-2.35,0-4.73-0.13-7.07-0.39c-0.27-0.03-0.47-0.28-0.44-0.55c0.03-0.27,0.27-0.47,0.55-0.44
			c2.3,0.26,4.64,0.39,6.95,0.39c2.62-0.01,5.55-0.27,7.37-2.14c1.08-1.1,1.64-2.67,2.12-4.19c1.32-4.18,2.32-8.49,2.98-12.82
			c-1.8-3.42-3.42-6.26-4.98-9.01l-0.42-0.74c-0.14-0.24-0.05-0.55,0.19-0.68c0.24-0.14,0.54-0.05,0.68,0.19l0.42,0.74
			c1.59,2.79,3.23,5.68,5.08,9.18c0.05,0.09,0.07,0.2,0.05,0.31c-0.66,4.44-1.68,8.86-3.04,13.14c-0.52,1.63-1.12,3.33-2.36,4.59
			C303.2,134.53,300.02,134.83,297.19,134.84z"></path><path class="st2" d="M303.7,129.49c-0.06,0-0.11-0.01-0.17-0.03c-0.26-0.09-0.39-0.38-0.3-0.64c1.29-3.62,2.1-7.38,2.38-11.17
			c0.02-0.28,0.26-0.49,0.54-0.46c0.28,0.02,0.48,0.26,0.46,0.54c-0.29,3.88-1.11,7.73-2.44,11.43
			C304.1,129.36,303.91,129.49,303.7,129.49z"></path><path class="st2" d="M206.74,160.46c-1.3,0-2.58-0.19-3.82-0.65c-0.26-0.1-0.39-0.38-0.3-0.64c0.1-0.26,0.38-0.39,0.64-0.3
			c3.69,1.36,7.8,0.13,12.04-1.36c23.21-8.15,46.82-15.95,70.16-23.18c0.26-0.08,0.54,0.07,0.62,0.33c0.08,0.26-0.07,0.54-0.33,0.63
			c-23.33,7.22-46.92,15.01-70.12,23.16C212.6,159.52,209.61,160.46,206.74,160.46z"></path><path class="st2" d="M206.88,153.68c-0.48,0-0.96-0.05-1.43-0.17c-0.27-0.06-0.43-0.33-0.37-0.6s0.34-0.43,0.6-0.37
			c2.05,0.5,4.36-0.34,5.61-2.03c0.17-0.22,0.48-0.27,0.7-0.1c0.22,0.16,0.27,0.48,0.1,0.7
			C210.9,152.73,208.89,153.68,206.88,153.68z"></path><path class="st2" d="M299.79,107.61c-0.09,0-0.19-0.03-0.27-0.08c-0.23-0.15-0.29-0.46-0.14-0.69
			c5.4-8.22,10.99-16.47,16.63-24.52c0.16-0.23,0.47-0.28,0.7-0.12c0.23,0.16,0.28,0.47,0.12,0.7c-5.63,8.05-11.22,16.29-16.61,24.5
			C300.11,107.53,299.95,107.61,299.79,107.61z"></path><path class="st2" d="M111.35,447.71c-0.04,0-0.08,0-0.12-0.01l-17.27-4.17c-0.04-0.01-0.09-0.03-0.13-0.05
			c-2.13-1.2-2.45-4.06-1.68-6.15c0.58-1.58,1.65-2.89,2.68-4.16c0.3-0.37,0.6-0.73,0.88-1.1c1.63-2.12,2.9-4.46,3.77-6.97
			c0.09-0.26,0.38-0.4,0.64-0.31c0.26,0.09,0.4,0.38,0.31,0.64c-0.91,2.61-2.23,5.05-3.93,7.25c-0.29,0.38-0.6,0.75-0.9,1.13
			c-1.03,1.26-2,2.44-2.51,3.87c-0.63,1.7-0.35,3.98,1.18,4.9l17.13,4.14l23.64-1.01c0.28,0.01,0.51,0.2,0.52,0.48
			c0.01,0.28-0.2,0.51-0.48,0.52l-23.71,1.01C111.36,447.71,111.36,447.71,111.35,447.71z"></path><path class="st2" d="M130.02,439.41c-1.9,0-3.81-0.22-5.69-0.65c-1.33-0.3-3.02-0.8-4.35-1.94c-1.21-1.03-2.1-2.57-2.56-4.45
			c-0.4-1.64-0.45-3.3-0.47-4.99c0-0.28,0.22-0.5,0.49-0.51c0.25,0.01,0.5,0.22,0.51,0.49c0.02,1.64,0.07,3.23,0.45,4.77
			c0.29,1.17,0.91,2.8,2.24,3.93c1.17,1,2.71,1.44,3.93,1.72c2.51,0.58,5.06,0.75,7.58,0.53c0.28-0.01,0.52,0.18,0.54,0.45
			c0.02,0.27-0.18,0.52-0.45,0.54C131.49,439.37,130.75,439.41,130.02,439.41z"></path><path class="st2" d="M112.15,435.23c-3.27,0-6.56-0.47-9.68-1.41c-1.5-0.44-3.15-1.09-4.06-2.54c-0.15-0.23-0.08-0.54,0.16-0.69
			c0.23-0.15,0.54-0.08,0.69,0.16c0.73,1.17,2.18,1.73,3.5,2.12c4.45,1.33,9.24,1.7,13.84,1.06c0.27-0.04,0.53,0.15,0.56,0.43
			c0.04,0.27-0.15,0.53-0.43,0.56C115.22,435.12,113.68,435.23,112.15,435.23z"></path><path class="st2" d="M136.92,446.42c-0.16,0-0.31-0.08-0.4-0.21c-2.3-3.17-3-7.46-1.84-11.18c0.16-0.53,0.37-1.07,0.57-1.6
			c0.62-1.64,1.2-3.18,0.76-4.68c-0.08-0.26,0.07-0.54,0.34-0.62c0.27-0.08,0.54,0.07,0.62,0.34c0.53,1.81-0.14,3.59-0.78,5.31
			c-0.2,0.52-0.39,1.03-0.55,1.55c-1.04,3.35-0.45,7.19,1.55,10.09c8.57-0.08,46.04-0.43,51.08-0.39c0.08-3.74-2.97-6.97-5.96-8.44
			c-3.25-1.6-7.01-1.97-10.65-2.33l-0.83-0.08c-4-0.41-8.2-1.01-11.62-3.33c-1.59-1.08-2.43-2.34-2.43-3.64c0-0.28,0.22-0.5,0.5-0.5
			s0.5,0.22,0.5,0.5c0,1.21,1.08,2.2,1.99,2.82c3.23,2.19,7.28,2.77,11.16,3.17l0.83,0.08c3.73,0.37,7.58,0.75,10.99,2.43
			c3.52,1.73,6.89,5.46,6.49,9.88c-0.01,0.14-0.08,0.26-0.19,0.35c-0.11,0.08-0.25,0.12-0.39,0.1
			C187.74,445.96,154.42,446.25,136.92,446.42C136.92,446.42,136.92,446.42,136.92,446.42z"></path><path class="st2" d="M146.79,436.44c-3.08,0-6.16-0.56-9.05-1.69c-0.26-0.1-0.38-0.39-0.28-0.65c0.1-0.26,0.39-0.39,0.65-0.28
			c7.17,2.82,15.62,1.92,22.04-2.35c0.23-0.15,0.54-0.09,0.69,0.14c0.15,0.23,0.09,0.54-0.14,0.69
			C156.6,435.03,151.69,436.44,146.79,436.44z"></path><path class="st2" d="M101.76,223.1c-0.27,0-0.49-0.21-0.5-0.48c-0.87-22.76-2.03-46.14-3.43-69.5c-0.02-0.28,0.19-0.51,0.47-0.53
			c0.28-0.01,0.51,0.19,0.53,0.47c1.4,23.36,2.56,46.75,3.43,69.52c0.01,0.28-0.2,0.51-0.48,0.52
			C101.77,223.1,101.77,223.1,101.76,223.1z"></path><path class="st2" d="M159.76,102.5C159.76,102.5,159.76,102.5,159.76,102.5l-11.2-0.16c-0.28,0-0.5-0.23-0.49-0.51
			c0-0.28,0.19-0.5,0.51-0.49l8.66,0.12c-5.33-2.72-9.33-7.92-10.46-13.83c-0.05-0.27,0.13-0.53,0.4-0.59
			c0.27-0.05,0.53,0.13,0.59,0.4c1.23,6.4,6.01,11.93,12.16,14.08c0.23,0.08,0.37,0.32,0.33,0.56
			C160.21,102.33,160,102.5,159.76,102.5z"></path><path class="st2" d="M143.19,86.86c-0.13,0-0.26-0.05-0.36-0.15c-0.19-0.2-0.19-0.52,0.01-0.71c0.74-0.72,1.85-0.98,2.83-0.66
			c0.26,0.09,0.41,0.37,0.32,0.63c-0.09,0.26-0.37,0.41-0.63,0.32c-0.62-0.2-1.36-0.03-1.83,0.42
			C143.44,86.81,143.32,86.86,143.19,86.86z"></path><path class="st2" d="M143.91,107.39c-0.05,0-0.09-0.01-0.14-0.02c-1.28-0.36-2.21-1.59-2.21-2.91c0-0.28,0.22-0.5,0.5-0.5
			s0.5,0.22,0.5,0.5c0,0.87,0.64,1.71,1.49,1.95c0.27,0.08,0.42,0.35,0.34,0.62C144.33,107.25,144.13,107.39,143.91,107.39z"></path><g><ellipse class="st2" cx="144.94" cy="90" rx="0.58" ry="1.38"></ellipse><path class="st2" d="M144.94,91.88c-0.64,0-1.08-0.77-1.08-1.88s0.44-1.88,1.08-1.88s1.08,0.77,1.08,1.88
				S145.58,91.88,144.94,91.88z M144.94,89.37c-0.04,0.15-0.08,0.37-0.08,0.63s0.04,0.48,0.08,0.63c0.04-0.15,0.08-0.37,0.08-0.63
				S144.98,89.52,144.94,89.37z"></path></g></g></g><g id="plant"><g id="colors_1_"><path class="st1" d="M357.4,363.58c-4.06-2.61-6.96-6.64-9.75-10.58c-2.5-3.51-5-7.04-6.96-10.87c-1.96-3.84-3.36-8.02-3.5-12.33
			c-0.04-1.13,0.14-2.48,1.21-3.08c2.75-0.01,5.45,0.8,7.89,2.06s4.62,2.97,6.65,4.92c0.75,7.62,4.99,14.4,9.11,20.68
			c-1.2-1.71-2.12-3.59-3.04-5.47c-0.67-1.36-1.33-2.72-2-4.08c-1.8-3.67-3.61-7.39-4.51-12.09c-6.69-15.9-11-32.8-12.73-49.96
			c-0.41-4.09-0.68-8.24,0.05-12.28c0.34-1.86,1.12-3.93,2.91-4.53c1.05-0.35,2.21-0.08,3.24,0.3c6.73,2.51,10.58,9.44,13.67,15.92
			c5.93,12.42,11.21,25.14,16.22,38.37c-0.57-8.41,3.38-16.38,5.63-24.5c6.56-23.7-1.33-49.49,4.67-73.34
			c0.94-3.74,2.27-7.5,4.8-10.41c1.42-1.64,3.42-3.03,5.58-2.86c1.43,0.12,2.73,0.92,3.79,1.9c3.4,3.19,4.53,8.08,5.1,12.71
			c2.86,23.29-4.03,47.36,1.48,70.23c1.85-13.9,6.02-27.38,10.38-40.72c1.29-3.95,2.63-7.96,4.96-11.41
			c0.93-1.38,2.06-2.69,3.54-3.45s3.38-0.88,4.77,0.04c0.95,0.63,1.56,1.66,2.08,2.69c3.6,7.2,3.97,15.64,2.8,23.6
			s-3.79,15.62-5.93,23.38c-3,10.83-5.09,21.92-6.26,33.09c-0.68,6.48-1.08,13.14-3.69,19.12c-3.59,8.19-11.01,14.29-14.34,22.59
			L357.4,363.58z"></path><path class="st3" d="M353.93,363.44c-1.8,0.11-3.61,0.22-5.41,0.33c-0.11,0.01-0.22,0.02-0.3,0.09c-0.06,0.06-0.09,0.14-0.12,0.23
			c-0.1,0.31-0.19,0.62-0.29,0.94l-19.45,80.61l49.28-0.2c0,0,7.3-19.16,7.11-19.64c1.68-6.58,3.37-13.2,3.89-19.96
			c0.52-6.77-0.18-13.76-3.08-19.9c-2.64-5.59-7.03-10.25-12.12-13.75S362.56,366.27,353.93,363.44z"></path><path class="st0" d="M348.14,363.83c7.13,2.57,13.95,6.17,19.7,11.12c5.75,4.94,10.4,11.28,12.79,18.48
			c1.56,4.69,2.15,9.66,2.28,14.6c0.35,12.82-2.35,25.71-7.79,37.32l19.56-0.18l20.96-81.76L348.14,363.83z"></path></g><g id="line_1_"><path class="st2" d="M394.43,446h-66.27c-0.15,0-0.3-0.07-0.39-0.19c-0.1-0.12-0.13-0.28-0.09-0.43l19.87-81.87
			c0.05-0.22,0.25-0.38,0.48-0.38l67.74-0.54c0,0,0,0,0,0c0.15,0,0.3,0.07,0.39,0.19c0.1,0.12,0.13,0.28,0.09,0.43l-21.34,82.41
			C394.86,445.85,394.66,446,394.43,446z M328.8,445h65.25l21.08-81.41l-66.7,0.53L328.8,445z"></path><path class="st2" d="M368.6,360.82c-0.08,0-0.16-0.02-0.23-0.06c-2.42-1.26-4.22-3.46-5.66-5.45
			c-4.69-6.49-8.18-13.68-10.37-21.37c-3.22-2.7-6.23-4.61-9.19-5.85c-1.4-0.58-3.21-1.19-4.87-0.68c-0.27,0.08-0.54-0.07-0.62-0.33
			c-0.08-0.26,0.07-0.54,0.33-0.62c1.96-0.6,4,0.07,5.55,0.72c3.1,1.3,6.23,3.29,9.57,6.11c0.08,0.06,0.13,0.15,0.16,0.25
			c2.16,7.64,5.61,14.77,10.26,21.2c1.37,1.9,3.07,3.99,5.3,5.15c0.25,0.13,0.34,0.43,0.21,0.67
			C368.96,360.72,368.78,360.82,368.6,360.82z"></path><path class="st2" d="M355.74,353.71c-0.17,0-0.33-0.08-0.42-0.23l-11.94-18.93c-0.15-0.23-0.08-0.54,0.16-0.69
			c0.23-0.15,0.54-0.08,0.69,0.16l11.94,18.93c0.15,0.23,0.08,0.54-0.16,0.69C355.92,353.69,355.83,353.71,355.74,353.71z"></path><path class="st2" d="M367.07,344.75c-0.2,0-0.39-0.12-0.47-0.32c-4.54-11.71-7.91-24.03-11.16-35.94
			c-2.92-10.7-5.94-21.76-9.81-32.34c-0.09-0.26,0.04-0.55,0.3-0.64c0.26-0.1,0.55,0.04,0.64,0.3c3.88,10.61,6.9,21.7,9.83,32.42
			c3.25,11.89,6.6,24.18,11.13,35.84c0.1,0.26-0.03,0.55-0.29,0.65C367.19,344.74,367.13,344.75,367.07,344.75z"></path><path class="st2" d="M388.7,355.4c-0.23,0-0.44-0.16-0.49-0.4c-2.42-12.07,0.16-24.44,2.66-36.39c0.81-3.9,1.66-7.94,2.31-11.89
			c2.79-16.88,2.35-34.32,1.94-51.19c-0.28-11.48-0.58-23.36,0.14-35c0.02-0.27,0.26-0.48,0.53-0.47c0.28,0.02,0.49,0.25,0.47,0.53
			c-0.71,11.6-0.42,23.45-0.14,34.91c0.42,16.92,0.85,34.41-1.95,51.38c-0.65,3.97-1.5,8.02-2.32,11.93
			c-2.48,11.86-5.04,24.12-2.66,35.99c0.05,0.27-0.12,0.53-0.39,0.59C388.77,355.4,388.73,355.4,388.7,355.4z"></path><path class="st2" d="M406.53,351.94c-0.05,0-0.11-0.01-0.16-0.03c-0.26-0.09-0.4-0.37-0.31-0.63c2.83-8.32,5.12-16.89,6.83-25.49
			c1.47-7.42,2.54-15.05,3.57-22.43c0.55-3.91,1.11-7.96,1.73-11.93c2.5-16.04,6.08-32.07,9.54-47.58c0.06-0.27,0.33-0.44,0.6-0.38
			c0.27,0.06,0.44,0.33,0.38,0.6c-3.46,15.49-7.03,31.51-9.52,47.52c-0.62,3.96-1.18,8.01-1.73,11.92
			c-1.03,7.39-2.1,15.04-3.58,22.48c-1.72,8.64-4.03,17.26-6.87,25.61C406.93,351.81,406.74,351.94,406.53,351.94z"></path><path class="st2" d="M380.56,361.33c-0.21,0-0.41-0.13-0.47-0.34c-4.28-12.97-6.19-26.48-5.68-40.15
			c-5.59-16.1-11.48-30.09-18.01-42.78c-1.4-2.73-2.82-5.36-4.8-7.6c-1.53-1.73-4.06-3.92-7.37-4.49c-0.27-0.05-0.46-0.31-0.41-0.58
			c0.05-0.27,0.31-0.46,0.58-0.41c3.6,0.62,6.31,2.96,7.95,4.81c2.06,2.32,3.51,5.02,4.94,7.8c6.56,12.75,12.48,26.81,18.1,42.99
			c0.02,0.06,0.03,0.12,0.03,0.18c-0.52,13.58,1.37,27,5.62,39.89c0.09,0.26-0.06,0.54-0.32,0.63
			C380.67,361.32,380.61,361.33,380.56,361.33z"></path><path class="st2" d="M396.87,360.69c-0.03,0-0.06,0-0.09-0.01c-0.27-0.05-0.45-0.31-0.4-0.58c1.21-6.78,3.25-13.48,5.22-19.97
			c2.59-8.52,5.27-17.34,6.05-26.31c-0.12-5.79-0.93-11.74-1.71-17.5c-0.62-4.6-1.27-9.37-1.57-14.09c-0.55-8.53,0-17.24,0.54-25.66
			c0.77-12.16,1.57-24.74-0.99-36.79c-0.42-2.02-0.97-4.14-2.08-5.99c-1.17-1.94-2.87-3.29-4.67-3.7c-0.27-0.06-0.44-0.33-0.38-0.6
			c0.06-0.27,0.32-0.44,0.6-0.38c2.06,0.47,4,1.98,5.31,4.16c1.18,1.98,1.76,4.19,2.2,6.29c2.58,12.18,1.78,24.83,1.01,37.06
			c-0.53,8.39-1.08,17.07-0.54,25.53c0.3,4.69,0.94,9.44,1.56,14.02c0.78,5.79,1.59,11.77,1.72,17.67c-0.79,9.14-3.48,18-6.09,26.57
			c-1.96,6.46-3.99,13.14-5.19,19.86C397.32,360.52,397.11,360.69,396.87,360.69z"></path><path class="st2" d="M406.98,359.81c-0.11,0-0.21-0.03-0.3-0.1c-0.22-0.17-0.26-0.48-0.1-0.7c5.8-7.67,11.79-15.61,14.37-25.02
			c1.22-4.47,1.62-9.2,2.01-13.78c0.17-2.01,0.35-4.09,0.59-6.12c1.05-8.67,3.41-17.27,5.7-25.59c3.06-11.14,6.23-22.67,6.19-34.34
			c-0.04-6.72-1.38-11.36-4.22-14.59c-0.18-0.21-0.16-0.52,0.04-0.71c0.21-0.18,0.52-0.16,0.71,0.05c3.01,3.43,4.44,8.27,4.47,15.25
			c0.05,11.81-3.14,23.4-6.22,34.61c-2.28,8.28-4.63,16.85-5.67,25.44c-0.24,2.02-0.42,4.08-0.59,6.08
			c-0.39,4.62-0.8,9.4-2.05,13.96c-2.62,9.6-8.95,17.97-14.53,25.36C407.28,359.74,407.13,359.81,406.98,359.81z"></path></g></g><g id="board"><path class="st4" d="M370.67,299.6c-0.55,0-1-0.45-1-1V53.57h-181v66.65c0,0.55-0.45,1-1,1s-1-0.45-1-1V52.57c0-0.55,0.45-1,1-1
		h183c0.55,0,1,0.45,1,1V298.6C371.67,299.15,371.22,299.6,370.67,299.6z"></path><path class="st4" d="M333.91,343.57H187.67c-0.55,0-1-0.45-1-1V173.79c0-0.55,0.45-1,1-1s1,0.45,1,1v167.78h145.24
		c0.55,0,1,0.45,1,1S334.46,343.57,333.91,343.57z"></path><path class="st4" d="M241,75.23c-0.24,0-0.48-0.09-0.66-0.25c-0.27-0.24-0.39-0.61-0.31-0.96c0.49-2.24,1.57-4.22,2.89-5.98
		c-2.72,1.22-5.62,2.02-8.61,2.36c-0.55,0.06-1.04-0.33-1.11-0.88c-0.06-0.55,0.33-1.04,0.88-1.11c4.93-0.56,9.78-2.56,13.68-5.62
		c0.42-0.33,1.02-0.27,1.37,0.13c0.35,0.4,0.33,1-0.05,1.38c-2.34,2.28-5.16,5.03-6.52,8.34l1.22-0.43
		c3.62-1.28,7.24-2.55,10.86-3.84c1-0.35,2.37-0.82,3.7-0.32c0.88,0.32,1.58,1.18,1.74,2.14c0.03,0.15,0.04,0.31,0.04,0.45
		c2.11,0.15,4.28-0.54,6.54-1.26c1.94-0.61,3.94-1.25,6.01-1.38c0.72-0.05,1.8-0.05,2.79,0.45c0.47,0.24,0.85,0.56,1.18,0.83
		c0.18,0.15,0.36,0.31,0.56,0.44c1.79,1.24,4.17,0.5,6.69-0.29c0.92-0.29,1.87-0.58,2.8-0.78c2.16-0.46,4.35-0.34,6.47-0.22
		c0.95,0.05,1.94,0.11,2.89,0.1c7.49,0,14.75-3.42,21.16-6.43c0.47-0.22,1.03-0.05,1.29,0.4c0.26,0.45,0.14,1.02-0.28,1.32
		c-0.92,0.66-1.4,1.28-1.29,1.67c0.13,0.4,0.89,0.62,2.09,0.6c5.88-0.1,11.74,0.02,17.42,0.35c0.55,0.03,0.97,0.51,0.94,1.06
		c-0.03,0.55-0.52,0.98-1.06,0.94c-5.63-0.33-11.44-0.45-17.26-0.35c-2.82,0.07-3.74-1.05-4.04-2c-0.07-0.21-0.11-0.45-0.11-0.71
		c-5.79,2.65-12.16,5.16-18.86,5.16c-1,0-2.02-0.05-3-0.1c-2.08-0.11-4.04-0.22-5.94,0.18c-0.84,0.18-1.71,0.45-2.62,0.73
		c-2.73,0.85-5.83,1.82-8.41,0.03c-0.24-0.17-0.48-0.36-0.71-0.56c-0.28-0.23-0.54-0.45-0.8-0.58c-0.41-0.21-0.97-0.29-1.75-0.23
		c-1.83,0.11-3.71,0.71-5.53,1.29c-2.81,0.89-5.72,1.82-8.74,1.14c-0.37-0.08-0.66-0.37-0.75-0.74c-0.09-0.37,0.03-0.76,0.32-1
		c0.02-0.02,0.02-0.1,0.01-0.15c-0.04-0.25-0.26-0.53-0.47-0.61c-0.62-0.23-1.43,0.02-2.34,0.34c-3.61,1.28-7.23,2.56-10.85,3.83
		l-3.1,1.09C241.23,75.21,241.11,75.23,241,75.23z"></path><path class="st4" d="M226.08,86.2c-0.41,0-0.8-0.26-0.94-0.67c-0.18-0.52,0.09-1.09,0.61-1.27c9.77-3.41,20.29-3.62,30.46-3.82
		c3.35-0.07,6.82-0.14,10.2-0.32c7.57-0.41,15.23-1.45,22.64-2.44c7.42-1,15.09-2.03,22.71-2.46c14.22-0.79,28.37,0.6,39.11,1.9
		c2.83,0.34,6.36,0.77,9.47,2.19c0.5,0.23,0.72,0.82,0.5,1.32c-0.23,0.5-0.82,0.72-1.33,0.49c-2.62-1.2-5.46-1.61-8.88-2.03
		c-10.66-1.29-24.69-2.66-38.75-1.88c-7.54,0.42-15.17,1.45-22.55,2.44c-7.45,1-15.15,2.04-22.8,2.46
		c-3.41,0.19-6.9,0.26-10.27,0.32c-10.02,0.2-20.37,0.41-29.85,3.71C226.3,86.18,226.19,86.2,226.08,86.2z"></path><path class="st4" d="M203.09,108.64c-0.16,0-0.31-0.04-0.45-0.11c-0.24-0.12-0.43-0.34-0.5-0.6c-0.41-1.36-0.33-2.88,0.2-4.21
		c-0.02-0.24,0.02-0.48,0.14-0.71c0.39-0.76,1.43-1.05,2.23-1c1.36,0.09,2.5,1.24,2.49,2.51c0,0.78-0.41,1.41-0.71,1.82
		c-0.76,1.02-1.85,1.82-3.06,2.24C203.32,108.62,203.2,108.64,203.09,108.64z M204.37,104.02c-0.02,0.07-0.04,0.13-0.07,0.2
		c-0.28,0.6-0.43,1.25-0.43,1.91c0.39-0.27,0.73-0.6,1.01-0.98c0.26-0.34,0.31-0.53,0.31-0.63c0-0.2-0.3-0.48-0.61-0.5
		C204.5,104,204.43,104.01,204.37,104.02z"></path><path class="st4" d="M222.93,106.9c-0.37,0-0.74-0.01-1.12-0.05c-0.57-0.05-1.25-0.15-1.85-0.53c-0.38-0.24-0.65-0.54-0.89-0.81
		c-0.11-0.12-0.21-0.23-0.33-0.34c-1.04-0.94-2.86-0.71-5.56,0.72c-0.49,0.26-1.09,0.07-1.35-0.42c-0.26-0.49-0.07-1.09,0.42-1.35
		c1.3-0.69,5.25-2.77,7.84-0.43c0.16,0.15,0.31,0.31,0.46,0.47c0.17,0.19,0.34,0.37,0.49,0.47c0.23,0.15,0.61,0.2,0.94,0.22
		c1.92,0.16,3.84-0.21,5.87-0.6c1.86-0.36,3.77-0.73,5.75-0.67c0.96,0.03,1.9,0.16,2.82,0.29c0.83,0.12,1.61,0.23,2.4,0.26
		c2.05,0.1,4.21-0.3,6.31-0.68c3.65-0.66,7.41-1.34,10.87,0.37c0.49,0.25,0.7,0.85,0.45,1.34s-0.84,0.69-1.34,0.45
		c-2.86-1.42-6.15-0.83-9.62-0.2c-2.21,0.4-4.5,0.81-6.76,0.71c-0.88-0.04-1.75-0.16-2.58-0.28c-0.9-0.13-1.75-0.25-2.6-0.27
		c-1.74-0.06-3.48,0.28-5.31,0.63C226.51,106.56,224.74,106.9,222.93,106.9z"></path><path class="st4" d="M202.91,119.9c-0.14,0-0.28-0.03-0.41-0.09c-0.3-0.13-0.52-0.41-0.58-0.73c-0.27-1.44-0.07-2.96,0.56-4.27
		c0.14-0.29,0.41-0.5,0.73-0.55c0.91-0.15,1.73,0.12,2.24,0.76c0.52,0.66,0.64,1.6,0.3,2.42c-0.48,1.18-1.59,1.86-2.33,2.31
		C203.27,119.85,203.09,119.9,202.91,119.9z"></path><path class="st4" d="M227.82,119.88c-0.43,0-0.87-0.04-1.31-0.13c-1.01-0.21-1.89-0.66-2.74-1.09c-0.52-0.27-1.01-0.52-1.52-0.7
		c-2.54-0.95-5.6-0.31-8.06,0.21c-0.54,0.11-1.07-0.23-1.18-0.77c-0.11-0.54,0.23-1.07,0.77-1.18c2.71-0.57,6.08-1.28,9.17-0.13
		c0.61,0.23,1.18,0.52,1.73,0.79c0.77,0.39,1.49,0.76,2.24,0.91c1.49,0.3,3.04-0.23,4.68-0.8c0.89-0.31,1.81-0.63,2.76-0.83
		c2.22-0.47,4.45-0.23,6.62-0.01c0.58,0.06,1.15,0.12,1.73,0.17c3.46,0.28,6.94,0.04,10.35-0.71c0.54-0.12,1.07,0.22,1.19,0.76
		c0.12,0.54-0.22,1.07-0.76,1.19c-3.61,0.8-7.29,1.05-10.95,0.75c-0.59-0.05-1.18-0.11-1.78-0.17c-2.1-0.22-4.08-0.43-5.99-0.02
		c-0.83,0.17-1.65,0.46-2.52,0.76C230.83,119.37,229.36,119.88,227.82,119.88z"></path><path class="st4" d="M357.97,193.96H198.59c-0.55,0-1-0.45-1-1s0.45-1,1-1h159.38c0.55,0,1,0.45,1,1S358.52,193.96,357.97,193.96z"></path><path class="st4" d="M228.21,214.4c-1.16,0-2.33-0.14-3.49-0.5c-1.13-0.35-2.16-0.87-3.16-1.38c-0.61-0.31-1.18-0.6-1.78-0.86
		c-5.13-2.19-11.28-1.23-16.22-0.45c-0.54,0.08-1.06-0.29-1.14-0.83c-0.09-0.55,0.29-1.06,0.83-1.14
		c5.19-0.82,11.65-1.83,17.32,0.59c0.66,0.28,1.29,0.6,1.9,0.91c0.96,0.49,1.87,0.96,2.84,1.25c3.17,0.97,6.47,0.06,9.97-0.9
		c1.53-0.42,3.12-0.85,4.7-1.12c3.14-0.53,6.32-0.4,9.41-0.26c1.92,0.08,3.92,0.17,5.85,0.08c1.65-0.07,3.35-0.27,4.99-0.47
		c2.16-0.26,4.4-0.52,6.65-0.51c3.4,0.02,6.81,0.67,10.11,1.31c5.25,1.01,10.2,1.96,15,0.52c0.53-0.16,1.08,0.14,1.24,0.67
		c0.16,0.53-0.14,1.09-0.67,1.24c-5.27,1.58-10.7,0.53-15.95-0.48c-3.21-0.62-6.53-1.25-9.74-1.27c-2.12-0.02-4.3,0.25-6.4,0.5
		c-1.68,0.2-3.41,0.41-5.14,0.48c-2.01,0.09-4.05,0-6.02-0.08c-3.12-0.13-6.06-0.25-8.99,0.24c-1.48,0.25-3.02,0.67-4.5,1.08
		C233.32,213.7,230.77,214.4,228.21,214.4z"></path><path class="st4" d="M241.11,228.69c-4.36,0-8.5-0.43-11.98-2.68c-0.68-0.44-1.32-0.93-1.93-1.41c-1.17-0.92-2.28-1.78-3.57-2.16
		c-1.71-0.5-3.61-0.09-5.57,0.41c-6.1,1.56-12.11,3.47-17.87,5.67c-0.51,0.2-1.09-0.06-1.29-0.58c-0.2-0.52,0.06-1.09,0.58-1.29
		c5.83-2.23,11.91-4.16,18.09-5.74c2.15-0.55,4.44-1.03,6.63-0.39c1.65,0.48,2.97,1.51,4.24,2.5c0.61,0.47,1.18,0.92,1.78,1.31
		c3.66,2.36,8.38,2.44,13.31,2.32c15.54-0.38,31.38-1.22,47.07-2.5c0.54-0.05,1.03,0.37,1.08,0.92c0.04,0.55-0.37,1.03-0.92,1.08
		c-15.73,1.28-31.61,2.13-47.19,2.5C242.75,228.67,241.92,228.69,241.11,228.69z"></path><path class="st4" d="M240.8,244.82c-1.03,0-2.07-0.06-3.1-0.21c-1.71-0.25-3.37-0.72-4.98-1.17c-0.84-0.24-1.67-0.47-2.52-0.68
		c-9.02-2.19-18.83-0.61-27.47,0.79c-0.54,0.09-1.06-0.28-1.15-0.83c-0.09-0.55,0.28-1.06,0.83-1.15
		c8.84-1.42,18.85-3.04,28.27-0.75c0.87,0.21,1.73,0.45,2.59,0.7c1.61,0.46,3.14,0.89,4.72,1.11c3.25,0.46,6.66-0.01,9.88-0.54
		c2.22-0.36,4.45-0.75,6.69-1.15c11.67-2.06,23.73-4.19,35.43-1.6c0.54,0.12,0.88,0.65,0.76,1.19c-0.12,0.54-0.65,0.88-1.19,0.76
		c-11.31-2.51-23.18-0.41-34.65,1.62c-2.24,0.4-4.48,0.79-6.71,1.15C245.8,244.46,243.3,244.82,240.8,244.82z"></path><path class="st4" d="M275.24,328.11h-67.71c-0.55,0-1-0.45-1-1v-51.62c0-0.55,0.45-1,1-1s1,0.45,1,1v50.62h66.71c0.55,0,1,0.45,1,1
		S275.79,328.11,275.24,328.11z"></path><path class="st4" d="M218.42,306.99c-0.15,0-0.31-0.04-0.45-0.11c-0.29-0.15-0.5-0.43-0.54-0.76l-1.91-13.67l-7.14,6.72
		c-0.4,0.38-1.03,0.36-1.41-0.04c-0.38-0.4-0.36-1.04,0.04-1.41l8.55-8.05c0.27-0.25,0.67-0.34,1.02-0.21
		c0.35,0.12,0.61,0.43,0.66,0.8l1.98,14.15l14.15-7.84c0.48-0.26,1.08-0.1,1.35,0.38l3.76,6.5l8.43-7.26l-0.98-14.42
		c-0.03-0.44,0.23-0.85,0.65-1c0.42-0.16,0.88-0.02,1.15,0.33l6.2,8.21c0.03,0.04,0.06,0.09,0.08,0.13l5.24,9.86l5.99-3.07
		c0.34-0.18,0.75-0.14,1.06,0.09l6.21,4.69c0.44,0.33,0.53,0.96,0.2,1.4c-0.33,0.44-0.96,0.53-1.4,0.2l-5.71-4.31l-6.31,3.23
		c-0.49,0.25-1.08,0.06-1.34-0.42l-5.66-10.66l-4.13-5.47l0.78,11.57c0.02,0.31-0.11,0.62-0.34,0.83l-9.72,8.38
		c-0.23,0.19-0.53,0.27-0.82,0.23c-0.29-0.05-0.55-0.23-0.7-0.49l-3.87-6.7l-14.56,8.07C218.76,306.95,218.59,306.99,218.42,306.99z
		"></path><path class="st4" d="M314.45,283.39c-0.94,0-1.88-0.21-2.71-0.81c-0.36-0.26-0.65-0.58-0.91-0.85c-0.26-0.28-0.51-0.54-0.77-0.7
		c-0.66-0.39-1.62-0.21-2.63,0.01l-9.51,2.12c-0.54,0.12-1.07-0.22-1.19-0.76c-0.12-0.54,0.22-1.07,0.76-1.19l9.51-2.12
		c1.36-0.3,2.8-0.54,4.07,0.21c0.51,0.29,0.89,0.7,1.22,1.05c0.22,0.23,0.43,0.45,0.64,0.61c1.09,0.79,2.85,0.32,4.39-0.11
		c4.24-1.17,8.63-1.77,13.06-1.77c0.55,0,1,0.45,1,1s-0.45,1-1,1c-4.25,0-8.47,0.57-12.53,1.69
		C316.85,283.06,315.65,283.39,314.45,283.39z"></path><path class="st4" d="M298.72,296.16c-0.42,0-0.81-0.26-0.95-0.68c-0.18-0.52,0.1-1.09,0.63-1.27c3.83-1.3,7.84-2.2,11.89-2.68
		c0.67-0.08,1.46-0.15,2.2,0.21c0.56,0.26,0.92,0.68,1.25,1.04c0.13,0.14,0.26,0.29,0.4,0.42c1.06,0.94,2.93,0.56,4.59,0.22
		c4.71-0.97,9.5-1.14,14.24-0.5c0.55,0.07,0.93,0.58,0.86,1.12c-0.07,0.55-0.58,0.93-1.12,0.86c-4.52-0.61-9.08-0.45-13.58,0.48
		c-1.91,0.39-4.52,0.92-6.32-0.68c-0.2-0.18-0.39-0.38-0.57-0.59c-0.22-0.25-0.42-0.47-0.61-0.56c-0.26-0.12-0.7-0.08-1.1-0.03
		c-3.93,0.46-7.79,1.33-11.5,2.58C298.93,296.14,298.83,296.16,298.72,296.16z"></path><path class="st4" d="M302.73,306.5c-0.47,0-0.89-0.33-0.98-0.81c-0.1-0.54,0.25-1.07,0.79-1.17c3.99-0.76,8.09-0.96,12.06-1.15
		c6.69-0.31,13.5-0.63,20.16,0.4c0.54,0.08,0.92,0.6,0.83,1.14c-0.08,0.54-0.58,0.92-1.14,0.83c-6.46-1-13.17-0.68-19.66-0.38
		c-3.99,0.19-8.02,0.38-11.88,1.12C302.85,306.49,302.79,306.5,302.73,306.5z"></path><path class="st4" d="M323.55,316.3c-0.4,0-0.81-0.02-1.21-0.05c-1.11-0.09-2.19-0.32-3.23-0.54c-0.35-0.07-0.7-0.15-1.05-0.22
		c-5.95-1.15-12.12-0.67-18.08-0.21c-0.56,0.04-1.03-0.37-1.07-0.92c-0.04-0.55,0.37-1.03,0.92-1.07c6.1-0.47,12.4-0.95,18.62,0.24
		c0.36,0.07,0.72,0.15,1.08,0.22c1.03,0.22,2,0.42,2.99,0.5c3.6,0.31,7.29-1.08,10.54-2.31c0.52-0.2,1.09,0.07,1.29,0.58
		c0.2,0.52-0.07,1.09-0.58,1.29C330.65,314.99,327.17,316.3,323.55,316.3z"></path><path class="st4" d="M333.4,259.14c-15.37,0-27.88-12.51-27.88-27.88s12.51-27.88,27.88-27.88c15.37,0,27.88,12.51,27.88,27.88
		S348.77,259.14,333.4,259.14z M333.4,205.38c-14.27,0-25.88,11.61-25.88,25.88s11.61,25.88,25.88,25.88s25.88-11.61,25.88-25.88
		S347.67,205.38,333.4,205.38z"></path><path class="st4" d="M335.07,234.75c-0.25,0-0.49-0.09-0.68-0.27c-0.26-0.24-0.37-0.6-0.3-0.94l5.87-27.65
		c0.12-0.54,0.64-0.88,1.19-0.77c0.54,0.11,0.88,0.65,0.77,1.19l-5.52,26.02l22.87-6.58c0.53-0.15,1.08,0.15,1.24,0.68
		c0.15,0.53-0.15,1.08-0.68,1.24l-24.47,7.04C335.26,234.74,335.16,234.75,335.07,234.75z"></path></g></svg>