<svg transform="scale(1)" version="1.1" id="_x30_1026_x5F_Solving_x5F_Problem_x5F_2" xmlns="http://www.w3.org/2000/svg" xmlns:xlink="http://www.w3.org/1999/xlink" x="0px" y="0px" width="500px" height="500px" viewBox="0 0 500 500" xml:space="preserve" class="show_show__wrapper__graphic__5Waiy "><title>React</title><style type="text/css">
	.st0{fill:#212529;}
	.st1{fill:#F8F9FA;}
	.st2{fill:#343A40;}
	.st3{fill:#E9ECEF;}
	.st4{fill:#DEE2E6;}
</style><g id="character"><path class="st0" d="M251.58,228.05c2.31-1.56,5.36-1.96,7.99-1.04c1.91,0.67,3.53,1.96,5.3,2.95c2.91,1.61,6.28,2.39,9.61,2.2
		c8.61-0.48,15.54-6.94,23.44-10.42c6.71-2.96,14.2-3.76,21.54-3.67c2.28,0.03,4.72,0.19,6.52,1.59c0.98-2.41-1.4-4.83-1.81-7.4
		c-0.15-0.96-0.02-1.95-0.21-2.91c-0.27-1.33-1.14-2.46-2.14-3.38c-1.63-1.51-3.66-2.59-5.83-3.09c-0.48-0.11-1.01-0.22-1.34-0.58
		c-0.3-0.32-0.39-0.77-0.47-1.19c-0.19-1.01-0.38-2.02-0.57-3.03c-0.06-0.33-0.14-0.68-0.38-0.91c-0.18-0.17-0.43-0.24-0.68-0.29
		c-4.51-1.05-9.28,0.82-12.94,3.66c-3.66,2.84-6.5,6.58-9.62,10.01c-1.81,1.99-4.3,4.05-6.89,3.31c-2.38-0.69-3.47-3.38-4.07-5.78
		c-1.9-7.68-2-15.72-1.12-23.58c0.04-0.37,1.56-14.69,1.56-14.69c-0.28-1.44,1.99-2.36,1.85-3.82c-0.03-0.35-0.21-0.66-0.31-1
		c-0.23-0.77-0.07-1.59,0.06-2.38c1.2-7.29-0.34-14.97-4.14-21.3c-3.8-6.33-9.83-11.27-16.73-13.89c-1.85-0.7-3.76-1.24-5.71-1.58
		c-2.48-0.44-5.01-0.55-7.52-0.37c-9.75,0.67-19.09,5.88-24.79,13.82c-5.7,7.94-7.65,18.45-5.18,27.91
		c0.12,0.44,0.24,0.89,0.37,1.33c0.29,1.01,0.57,2.02,0.94,3.28c0.86,1.64,0.97,3.56,1.05,5.42c0.14,3.21,0.26,6.43,0.35,9.64
		c0.13,4.17,0.22,8.34,0.03,12.5c-0.17,3.72-0.58,7.48-1.89,10.96c-0.56,1.49-1.32,2.96-2.51,4.02c-1.19,1.06-2.9,1.65-4.43,1.18
		c-1.69-0.51-2.77-2.11-3.78-3.56c-3.51-5.04-7.87-9.55-13.08-12.8c-1.64-1.02-3.46-1.94-5.39-1.86c-1.93,0.08-3.92,1.49-4.01,3.42
		c-0.03,0.74,0.16,1.63-0.4,2.12c-0.26,0.23-0.62,0.3-0.96,0.34c-1.57,0.2-3.19,0.05-4.7,0.51c-1.77,0.54-3.21,1.86-4.35,3.32
		c-1.06,1.34-1.96,2.94-1.87,4.65c0.04,0.77,0.28,1.53,0.35,2.3c0.15,1.61-0.52,3.28-1.73,4.35l36.2,10.31l34.62,7.44L251.58,228.05
		z"></path><path class="st1" d="M220.41,270.13l26.07,9.46l11.65,0.92l87.56-36.14c1.13-4.29,0.23-8.96-1.94-12.82
		c-2.17-3.86-5.55-6.96-9.32-9.28c-8.64-5.33-19.27-6.74-29.37-5.64c-10.09,1.1-19.78,4.55-29.19,8.36
		c-1.65,0.2-2.51-0.19-3.42-0.27c-0.91-0.08-1.88,0.19-2.5,0.86c-0.22,0.23-0.39,0.51-0.67,0.67c-0.23,0.14-0.51,0.17-0.78,0.21
		c-0.9,0.11-1.81,0.22-2.71,0.33c-1.68,0.21-3.42,0.41-5.04-0.09c-0.76-0.24-1.48-0.62-2.27-0.77c-1.18-0.22-2.39,0.12-3.55,0.45
		c-3.23,0.94-6.46,1.88-10.02,3c-4.68-0.84-9.13-3.63-13.84-2.99c-0.73,0.1-1.47,0.28-2.2,0.19c-1.21-0.16-2.18-1.04-3.27-1.58
		s-2.68-0.61-3.81,0.41c-10.45-4.77-21.39-9.02-32.86-9.69c-11.47-0.68-23.65,2.68-31.43,11.13c-4.2,4.56-6.99,10.97-5.46,16.98
		L220.41,270.13z"></path><path class="st1" d="M312.79,135.56c5.67-15.13,28.3-20.63,50.53-12.29c22.24,8.34,35.66,27.36,29.99,42.49
		s-28.3,20.63-50.53,12.29c-3.92-1.47-7.57-3.27-10.89-5.33c-0.1-0.06-0.29-0.18-0.29-0.18l-49.07,7.31l39.98-14.43
		c0,0-0.17-0.16-0.25-0.25C313.24,156.19,309.22,145.1,312.79,135.56z"></path><path class="st1" d="M209.98,81.33c1.41-21-20.86-32.36-49.72-25.36s-53.41,29.69-54.81,50.69s20.86,32.36,49.72,25.36
		c5.09-1.23,10.05-2.96,14.76-5.07c0.14-0.06,0.41-0.19,0.41-0.19l50.64,18.52l-36.95-26.28c0,0,0.27-0.19,0.4-0.28
		C199.01,108.5,209.1,94.58,209.98,81.33z"></path><path class="st2" d="M124.49,91l11.08,23.11c0,0,7.49-2.63,7.87-2.63c0.06,1.03,0.84,1.92,1.78,2.35c0.94,0.43,2.01,0.48,3.04,0.4
		c0.86-0.07,1.76-0.23,2.42-0.8c0.39-0.33,0.67-0.79,0.81-1.28c0.43-1.47-0.47-3.19-1.92-3.67l9.11-4.41c0,0-3.59-10.92-3.03-11.17
		c0.81-0.05,1.64-0.12,2.36-0.49c1.23-0.64,1.88-2.14,1.75-3.52c-0.13-1.38-0.92-2.64-1.95-3.58c-0.47-0.43-1.03-0.81-1.66-0.9
		c-1.39-0.19-2.51,1.07-3.35,2.19l-3.76-8.12c0,0-9.09,4.14-8.86,4.09c1.53,0.85,2.41,2.74,2.07,4.46s-1.86,3.14-3.6,3.34
		c-0.45,0.05-0.91,0.03-1.34-0.12c-0.94-0.33-1.55-1.22-2.1-2.05c-0.41-0.62-0.83-1.42-0.46-2.07L124.49,91z"></path><path class="st2" d="M171.11,101.68l26.38-9.48l-6.14-22.56c0,0-9.56,2.31-9.94,2.44c0.81-1.92-0.37-4.29-2.24-5.2
		c-1.87-0.91-4.17-0.57-5.98,0.45c-0.38,0.21-0.75,0.46-0.99,0.82c-0.2,0.3-0.3,0.66-0.35,1.02c-0.26,1.74,0.52,3.6,1.94,4.64
		l-8.74,3.39c0,0,1.67,7.65,2.25,8.23c0.82-0.6,1.76-1.22,2.76-1.06c1.04,0.16,1.76,1.12,2.21,2.07c0.66,1.38,1,3,0.47,4.43
		c-0.54,1.43-2.17,2.5-3.62,2.01L171.11,101.68z"></path><path class="st2" d="M290.4,101.11c1.04,1.11,0.98,3.07-0.13,4.1c-0.5,0.47-1.23,0.84-1.31,1.52c-0.04,0.34,0.09,0.67,0.13,1.01
		c0.07,0.55-0.14,1.13-0.55,1.52c-0.28,0.27-0.64,0.44-0.89,0.74c-0.46,0.55-0.41,1.36-0.75,1.99c-0.48,0.89-1.6,1.22-2.61,1.26
		c-1.01,0.05-2.06-0.09-3.01,0.25c-1.31,0.47-2.23,1.76-3.57,2.13c-1.55,0.43-3.34-0.75-3.56-2.34c-0.1-0.72,0.06-1.52-0.33-2.14
		c-0.2-0.32-0.52-0.53-0.82-0.76c-0.88-0.69-1.57-1.62-2-2.65c-0.24-0.58-0.39-1.24-0.22-1.84c0.39-1.35,2.29-2.12,2.11-3.52
		c-0.05-0.35-0.23-0.68-0.19-1.03c0.11-0.97,1.66-1.07,2.02-1.97c0.09-0.23,0.09-0.49,0.12-0.74c0.18-1.47,1.64-2.66,3.11-2.55
		L290.4,101.11z"></path><path class="st3" d="M270.18,199.73l1.73-4.68l2.06-6.02c1.18,0.19,2.25-0.74,2.99-1.68c3.19-4.07,4.06-9.57,3.53-14.71
		c-0.13-1.23-0.35-2.5-1.07-3.5s-2.07-1.65-3.22-1.21c-0.05,0.04-1.97,0.9-1.97,0.9c-0.45-3.61-1.33-7.17-2.83-10.85
		c-8.61-1.8-16.61-6.42-22.47-12.98c-5.22,4.66-11.16,8.69-17.88,10.64c-1.41,0.41-2.88,0.74-4.11,1.54c0,0-2.12,5.49-2.07,5.62
		c-1.23,1.61-0.86,3.88-1.22,5.87c-0.02,0.12-0.05,0.25-0.13,0.35c-0.15,0.19-0.45,0.19-0.67,0.08c-0.22-0.11-0.37-0.31-0.54-0.48
		c-0.62-0.66-1.47-1.12-2.37-1.16c-0.9-0.05-1.83,0.35-2.34,1.1c-0.47,0.69-0.53,1.56-0.57,2.39c-0.23,5.27,0.21,10.74,2.68,15.4
		c0.36,0.68,0.78,1.35,1.42,1.76c0.73,0.47,1.73,0.59,2.32,1.83c1.05,3.9,2.47,7.69,4.24,11.32c0,0-0.21,25.25-0.3,25.43
		c5.18,4.67,12.34,6.46,19.29,7.13c3.72,0.36,7.54,0.44,11.11-0.68c2.01-0.63,3.88-1.62,5.74-2.61c1.42-0.76,2.85-1.51,4.27-2.27
		c0.56-0.3,1.14-0.61,1.57-1.08c0.43-0.47,0.7-1.14,0.54-1.76L270.18,199.73z"></path><path class="st3" d="M277.12,95.9c1.64-7.33-0.93-15.05,0.33-22.46c0.7-4.09,2.62-8.03,5.71-10.81c3.08-2.78,7.36-4.31,11.47-3.75
		c4.31,0.59,8.16,3.46,10.34,7.23c2.18,3.77,2.76,8.35,2.02,12.64c-0.37,2.18-1.08,4.31-2.19,6.22c-3.63,6.2-11.23,9.55-14.15,16.23
		c-3.58,0.96-7.54,0.41-10.72-1.49C278.76,99.02,276.63,98.11,277.12,95.9z"></path><path class="st4" d="M266.15,166.76c0.91,0.63,1.83,1.27,2.55,2.1c0.73,0.83,1.26,1.89,1.24,3c-0.02,1.12-0.59,2.15-1.21,3.08
		c-2.28,3.44-5.49,6.25-9.19,8.08c-0.67,0.33-1.37,0.63-2.12,0.67c-1.5,0.07-2.86-0.96-3.76-2.17c-0.9-1.21-1.5-2.62-2.4-3.83
		c-0.45-0.61-1-1.18-1.7-1.48s-1.57-0.28-2.16,0.19c-0.3,0.24-0.5,0.58-0.71,0.91c-1.28,2.04-2.78,3.93-4.48,5.63
		c-0.26,0.26-0.54,0.53-0.9,0.63c-0.31,0.09-0.64,0.03-0.96-0.04c-2.86-0.64-5.28-2.48-7.55-4.33c-1.81-1.47-3.66-3.06-4.61-5.19
		c-0.46-1.04-0.67-2.34-0.01-3.27c0.29-0.41,0.72-0.7,1.1-1.05c0.83-0.77,1.38-1.85,1.51-2.98c0,0,6.49,0.77,6.74,0.75
		C246.95,168.83,256.6,168.48,266.15,166.76z"></path><ellipse class="st0" cx="257.89" cy="173.61" rx="1.5" ry="3.5"></ellipse><ellipse class="st0" cx="239.54" cy="173.61" rx="1.5" ry="3.5"></ellipse><path class="st0" d="M276.79,159.58c-0.02,0-0.04,0-0.06,0c-10.44-1.22-20.57-6.31-27.87-13.99c-7.47,7.14-17.68,10.59-28.37,13.76
		c-0.27,0.08-0.54-0.07-0.62-0.34c-0.08-0.27,0.07-0.54,0.34-0.62c10.74-3.19,20.99-6.65,28.32-13.87c0.1-0.1,0.22-0.15,0.36-0.14
		c0.13,0,0.26,0.06,0.35,0.16c7.17,7.71,17.23,12.84,27.61,14.05c0.27,0.03,0.47,0.28,0.44,0.55
		C277.25,159.39,277.04,159.58,276.79,159.58z"></path><path class="st0" d="M238.87,160.21c-0.16,0-0.31-0.07-0.41-0.21c-0.16-0.23-0.1-0.54,0.12-0.7c4.87-3.42,8.45-8.46,10.06-14.19
		c0.06-0.22,0.27-0.33,0.49-0.36c0.23,0,0.42,0.16,0.48,0.38c1.24,5.03,4.14,9.84,8.17,13.54c0.2,0.19,0.22,0.5,0.03,0.71
		c-0.19,0.2-0.5,0.22-0.71,0.03c-3.74-3.43-6.54-7.79-8.01-12.41c-1.86,5.28-5.34,9.9-9.94,13.13
		C239.07,160.18,238.97,160.21,238.87,160.21z"></path><path class="st0" d="M274.36,189.72c-0.19,0-0.37-0.11-0.46-0.3c-0.11-0.25,0-0.55,0.25-0.66c1.96-0.87,3.49-2.86,4.53-5.9
		c1.17-3.41,1.54-7.11,1.09-10.68c-0.11-0.86-0.27-1.75-0.7-2.52c-0.43-0.77-1.11-1.29-1.81-1.38c-0.97-0.13-1.91,0.47-2.87,1.16
		c-0.14,0.1-0.33,0.12-0.5,0.05c-0.16-0.07-0.27-0.23-0.29-0.41c-0.36-3.59-1.16-7.14-2.39-10.54c-0.09-0.26,0.04-0.55,0.3-0.64
		c0.26-0.09,0.55,0.04,0.64,0.3c1.16,3.21,1.95,6.56,2.35,9.95c0.89-0.57,1.85-1,2.88-0.86c1.01,0.13,1.97,0.84,2.55,1.88
		c0.52,0.92,0.71,1.97,0.82,2.88c0.47,3.73,0.08,7.58-1.14,11.13c-1.14,3.32-2.84,5.51-5.07,6.49
		C274.49,189.7,274.42,189.72,274.36,189.72z"></path><path class="st0" d="M222.44,189.36c-0.08,0-0.16-0.02-0.23-0.06c-2.6-1.36-4.28-4.26-5.15-8.87c-0.44-2.31-0.7-4.68-0.79-7.04
		c-0.05-1.22-0.05-2.63,0.5-3.9c0.53-1.21,1.76-2.44,3.32-2.39c0.94,0.02,1.87,0.48,2.76,1.37c0.05,0.05,0.14,0.13,0.19,0.16
		c-0.03-0.04,0.02-0.19,0.03-0.45c0.13-4.03,1.36-7.96,3.53-11.36c0.15-0.23,0.46-0.3,0.69-0.15c0.23,0.15,0.3,0.46,0.15,0.69
		c-2.08,3.25-3.25,7-3.38,10.85c-0.03,0.87-0.43,1.42-1.04,1.42c0,0,0,0,0,0c-0.42,0-0.7-0.28-0.88-0.46
		c-0.49-0.48-1.25-1.06-2.08-1.08c-1.09-0.05-2,0.91-2.38,1.78c-0.47,1.08-0.46,2.36-0.42,3.47c0.09,2.31,0.35,4.62,0.77,6.89
		c0.81,4.28,2.32,6.96,4.63,8.17c0.24,0.13,0.34,0.43,0.21,0.68C222.79,189.26,222.62,189.36,222.44,189.36z"></path><path class="st0" d="M248.83,223.04c-2.77,0-5.7-1.35-8.91-4.12c-8.6-7.41-14.64-18.61-17.94-33.3c-0.06-0.27,0.11-0.54,0.38-0.6
		c0.27-0.06,0.54,0.11,0.6,0.38c3.25,14.48,9.18,25.5,17.61,32.76c3.24,2.79,6.13,4.06,8.81,3.85c1.25-0.09,2.58-0.52,4.07-1.29
		c5.74-2.98,9.51-8.75,11.86-12.82c4.08-7.09,7.07-14.72,8.91-22.68c0.06-0.27,0.33-0.44,0.6-0.38c0.27,0.06,0.44,0.33,0.38,0.6
		c-1.86,8.06-4.89,15.78-9.01,22.95c-2.41,4.18-6.3,10.1-12.26,13.21c-1.62,0.84-3.08,1.3-4.46,1.4
		C249.24,223.03,249.04,223.04,248.83,223.04z"></path><path class="st0" d="M275.79,179.25c-0.01,0-0.03,0-0.04,0c-0.28-0.02-0.48-0.27-0.46-0.54c0.21-2.4,1-4.75,2.28-6.78
		c0.15-0.23,0.46-0.3,0.69-0.16c0.23,0.15,0.3,0.46,0.16,0.69c-1.2,1.9-1.94,4.1-2.13,6.34
		C276.26,179.06,276.04,179.25,275.79,179.25z"></path><path class="st0" d="M277.55,180.92c-0.01,0-0.01,0-0.02,0c-0.28-0.01-0.49-0.24-0.48-0.52l0.11-2.67
		c0.01-0.28,0.23-0.51,0.52-0.48c0.28,0.01,0.49,0.24,0.48,0.52l-0.11,2.67C278.04,180.71,277.82,180.92,277.55,180.92z"></path><path class="st0" d="M221.67,179.19c-0.26,0-0.48-0.21-0.5-0.47c-0.13-2.42-0.96-4.85-2.33-6.84c-0.16-0.23-0.1-0.54,0.13-0.7
		c0.23-0.16,0.54-0.1,0.7,0.13c1.5,2.17,2.37,4.72,2.51,7.36c0.01,0.28-0.2,0.51-0.47,0.53
		C221.68,179.19,221.67,179.19,221.67,179.19z"></path><path class="st0" d="M220.16,180.92c-0.24,0-0.45-0.17-0.49-0.42l-0.62-3.89c-0.04-0.27,0.14-0.53,0.42-0.57
		c0.27-0.04,0.53,0.14,0.57,0.42l0.62,3.89c0.04,0.27-0.14,0.53-0.41,0.57C220.22,180.91,220.19,180.92,220.16,180.92z"></path><path class="st0" d="M247.99,168.52c-8.86,0-17.73-1.2-26.36-3.59c-0.27-0.07-0.42-0.35-0.35-0.62c0.07-0.27,0.35-0.42,0.62-0.35
		c17.32,4.8,35.62,4.73,52.91-0.21c0.27-0.07,0.54,0.08,0.62,0.34c0.08,0.27-0.08,0.54-0.34,0.62
		C266.22,167.26,257.1,168.52,247.99,168.52z"></path><path class="st0" d="M245.29,164.69c-0.07,0-0.14-0.01-0.21-0.05c-3.31-1.54-6.98-2.35-10.63-2.35c-0.05,0-0.09,0-0.14,0
		c-0.27,0-0.5-0.22-0.5-0.5c0-0.28,0.22-0.5,0.5-0.5c3.83-0.04,7.72,0.82,11.2,2.44c0.25,0.12,0.36,0.41,0.24,0.66
		C245.66,164.59,245.48,164.69,245.29,164.69z"></path><path class="st0" d="M251.85,164.58c-0.21,0-0.4-0.13-0.47-0.33c-0.09-0.26,0.04-0.55,0.3-0.64c3.67-1.32,7.51-1.98,11.41-1.98
		c0.3-0.01,0.51,0.22,0.51,0.5c0,0.28-0.22,0.5-0.5,0.5l0,0c0,0-0.01,0-0.01,0c-3.78,0-7.51,0.65-11.07,1.92
		C251.96,164.57,251.9,164.58,251.85,164.58z"></path><path class="st0" d="M248.65,196.98c-0.11,0-0.21-0.03-0.3-0.1l-6.27-4.71c-0.22-0.17-0.26-0.48-0.1-0.7
		c0.17-0.22,0.48-0.27,0.7-0.1l5.96,4.48l5.81-4.48c0.22-0.17,0.53-0.13,0.7,0.09c0.17,0.22,0.13,0.53-0.09,0.7l-6.11,4.71
		C248.86,196.94,248.76,196.98,248.65,196.98z"></path><path class="st0" d="M249.93,203.87c-0.26,0-0.48-0.2-0.5-0.46c-0.02-0.27,0.18-0.52,0.45-0.54c2.08-0.18,4.09-0.91,5.81-2.11
		c0.23-0.16,0.54-0.1,0.7,0.12c0.16,0.23,0.1,0.54-0.12,0.7c-1.86,1.3-4.04,2.08-6.29,2.28
		C249.96,203.87,249.95,203.87,249.93,203.87z"></path><path class="st0" d="M248.79,234.56c-0.11,0-0.23,0-0.34,0c-7.73-0.08-15.31-2.77-21.35-7.59c-0.12-0.1-0.19-0.24-0.19-0.39v-25.46
		c0-0.28,0.22-0.5,0.5-0.5s0.5,0.22,0.5,0.5v25.22c5.84,4.59,13.13,7.15,20.55,7.23c7.39,0.05,14.76-2.34,20.69-6.81
		c0.05-0.37,0.26-0.7,0.41-0.9v-26.18c0-0.28,0.22-0.5,0.5-0.5s0.5,0.22,0.5,0.5v26.36c0,0.12-0.04,0.24-0.12,0.33
		c-0.16,0.18-0.3,0.45-0.3,0.54c0.04,0.19-0.03,0.38-0.19,0.5C263.91,232.02,256.41,234.56,248.79,234.56z"></path><path class="st0" d="M289.07,206.33c-2.94,0-5.16-2.46-6.52-4.54c-2.67-4.11-4.17-8.87-4.32-13.77c-0.01-0.28,0.21-0.51,0.48-0.52
		c0.01,0,0.01,0,0.02,0c0.27,0,0.49,0.21,0.5,0.48c0.14,4.72,1.58,9.3,4.16,13.26c1.02,1.57,3.14,4.19,5.86,4.09
		c1.41-0.06,2.89-0.9,4.07-2.31c0.88-1.06,1.55-2.34,2.19-3.58l0.43-0.82c1.12-2.11,2.41-4.15,3.84-6.06
		c1.39-1.87,3.32-4.17,5.95-5.44c2.78-1.35,5.93-1.19,8.02,0.4c0.58,0.44,1.07,0.97,1.54,1.49c0.71,0.77,1.38,1.5,2.26,1.85
		c0.26,0.1,0.38,0.39,0.28,0.65c-0.1,0.26-0.39,0.38-0.65,0.28c-1.09-0.44-1.87-1.29-2.62-2.1c-0.47-0.51-0.91-0.99-1.41-1.37
		c-1.8-1.37-4.54-1.48-6.98-0.3c-2.43,1.18-4.26,3.36-5.58,5.14c-1.4,1.87-2.66,3.87-3.76,5.93l-0.43,0.81
		c-0.67,1.28-1.36,2.61-2.31,3.76c-0.8,0.96-2.48,2.58-4.8,2.67C289.21,206.33,289.14,206.33,289.07,206.33z"></path><path class="st0" d="M208.14,205.28c-1.01,0-2.08-0.35-3.18-1.03c-3.01-1.88-4.69-5.1-6.31-8.22c-0.27-0.52-0.54-1.05-0.82-1.56
		c-2.44-4.53-5.25-6.96-8.34-7.23c-3.51-0.3-6.6,2.21-9.45,4.81c-0.2,0.19-0.52,0.17-0.71-0.03c-0.19-0.2-0.17-0.52,0.03-0.71
		c3.02-2.75,6.3-5.41,10.21-5.07c3.45,0.29,6.52,2.9,9.13,7.75c0.28,0.52,0.55,1.04,0.83,1.57c1.56,3,3.17,6.1,5.95,7.83
		c2.57,1.6,4.65,1.03,7.08-1.75c3.37-3.86,5.32-8.81,5.48-13.93c0.01-0.28,0.27-0.5,0.52-0.48c0.28,0.01,0.49,0.24,0.48,0.52
		c-0.17,5.35-2.21,10.52-5.73,14.55C211.58,204.31,209.88,205.28,208.14,205.28z"></path><path class="st0" d="M248.9,240.42c-8.3,0-16.79-3.21-23.34-8.83c-0.21-0.18-0.23-0.5-0.05-0.71c0.18-0.21,0.5-0.23,0.71-0.05
		c6.44,5.53,14.83,8.69,22.97,8.59c8.43-0.08,16.79-3.66,22.37-9.59c0.19-0.2,0.51-0.21,0.71-0.02s0.21,0.51,0.02,0.71
		c-5.76,6.12-14.39,9.83-23.09,9.91C249.1,240.42,249,240.42,248.9,240.42z"></path><path class="st4" d="M288.55,98.83c-0.02,0-0.03,0-0.05,0c-0.27-0.03-0.48-0.27-0.45-0.55c0.55-5.69,1.9-11.2,4.03-16.46
		c-1.17-0.01-2.16-0.19-3.02-0.53c-0.35-0.14-0.69-0.31-1.02-0.52c-0.41,1.21-0.86,2.39-1.32,3.52c-1.79,4.48-3.83,8.9-6.07,13.15
		c-0.13,0.25-0.43,0.34-0.68,0.21c-0.24-0.13-0.34-0.43-0.21-0.68c2.22-4.22,4.25-8.61,6.03-13.05c0.49-1.22,0.97-2.48,1.4-3.78
		c-0.8-0.71-1.45-1.62-1.87-2.66c-0.65-1.61-0.73-3.49-0.24-5.29c0.16-0.57,0.41-1.29,0.99-1.79c0.66-0.58,1.64-0.67,2.27-0.21
		c0.4,0.29,0.59,0.72,0.72,1.06c0.67,1.8,0.43,3.74,0.14,5.23c-0.22,1.12-0.51,2.23-0.85,3.3c0.33,0.24,0.69,0.43,1.06,0.58
		c0.74,0.29,1.62,0.44,2.67,0.46c0.13,0,0.27,0,0.4,0c0.5-1.17,1.04-2.32,1.61-3.46c0.47-0.93,1-1.91,1.77-2.71
		c0.57-0.58,1.16-0.94,1.77-1.06c0.85-0.16,1.69,0.16,2.1,0.81c0.22,0.34,0.32,0.76,0.32,1.31c-0.01,1.8-1.06,3.62-2.74,4.73
		c-1.14,0.75-2.56,1.21-4.15,1.34c-2.19,5.29-3.58,10.85-4.13,16.59C289.02,98.64,288.8,98.83,288.55,98.83z M298.07,74.56
		c-0.08,0-0.16,0.01-0.23,0.02c-0.41,0.08-0.83,0.34-1.25,0.77c-0.68,0.7-1.16,1.6-1.6,2.46c-0.49,0.96-0.95,1.94-1.38,2.92
		c1.21-0.16,2.28-0.54,3.15-1.12c1.41-0.93,2.29-2.43,2.29-3.9c0-0.35-0.05-0.59-0.16-0.77C298.73,74.68,298.39,74.56,298.07,74.56z
		 M287.41,70.89c-0.24,0-0.49,0.11-0.67,0.26c-0.29,0.26-0.51,0.66-0.68,1.31c-0.44,1.59-0.36,3.25,0.2,4.66
		c0.3,0.74,0.74,1.4,1.27,1.96c0.27-0.91,0.51-1.84,0.69-2.78c0.27-1.36,0.49-3.12-0.09-4.69c-0.12-0.31-0.23-0.5-0.37-0.6
		C287.66,70.93,287.54,70.89,287.41,70.89z"></path><path class="st0" d="M286.16,106.36c-0.02,0-0.04,0-0.05,0c-3.74-0.38-7.31-2.02-10.04-4.59c-0.2-0.19-0.21-0.51-0.02-0.71
		c0.19-0.2,0.51-0.21,0.71-0.02c2.58,2.43,5.94,3.96,9.46,4.32c0.28,0.03,0.47,0.27,0.45,0.55
		C286.63,106.17,286.41,106.36,286.16,106.36z"></path><path class="st0" d="M283.93,110.61c-1.76,0-3.61-0.59-5.65-1.79c-0.95-0.56-1.86-1.21-2.74-1.83c-0.68-0.48-1.37-0.96-2.07-1.41
		c-0.23-0.15-0.3-0.46-0.15-0.69s0.46-0.3,0.69-0.15c0.72,0.46,1.42,0.95,2.11,1.44c0.87,0.61,1.76,1.24,2.68,1.78
		c1.88,1.11,3.56,1.65,5.14,1.65c0.02,0,0.05,0,0.05,0c0.27,0,0.5,0.22,0.5,0.5c0,0.28-0.22,0.5-0.5,0.5
		C283.97,110.61,283.95,110.61,283.93,110.61z"></path><path class="st0" d="M279.53,113.49c-0.03,0-0.06,0-0.08-0.01c-1.61-0.27-3.16-0.82-4.58-1.62c-0.24-0.14-0.33-0.44-0.19-0.68
		c0.13-0.24,0.44-0.33,0.68-0.19c1.33,0.75,2.76,1.25,4.26,1.51c0.27,0.05,0.46,0.3,0.41,0.58
		C279.98,113.32,279.77,113.49,279.53,113.49z"></path><path class="st0" d="M349.82,159.14C349.82,159.14,349.82,159.14,349.82,159.14c-0.83,0-1.5-0.68-1.5-1.5
		c0.01-1.78,0.97-3.51,2.86-5.13c1.45-1.24,3.05-2.21,4.61-3.15c0.58-0.35,1.17-0.71,1.74-1.08c1.65-1.06,3.69-2.53,4.82-4.54
		c0.87-1.55,1.25-3.84,0.13-5.46c-0.45-0.66-1.19-1.25-2.19-1.77c-3.79-1.96-8.87-1.32-12.06,1.52c-0.62,0.55-1.57,0.5-2.12-0.12
		c-0.55-0.62-0.5-1.57,0.12-2.12c4.15-3.69,10.5-4.49,15.43-1.94c1.44,0.74,2.54,1.66,3.28,2.73c1.63,2.37,1.64,5.75,0.02,8.63
		c-1.46,2.6-3.88,4.36-5.82,5.6c-0.6,0.38-1.2,0.75-1.81,1.12c-1.52,0.92-2.95,1.79-4.21,2.86c-0.83,0.7-1.81,1.77-1.81,2.86
		C351.32,158.48,350.65,159.14,349.82,159.14z"></path><path class="st0" d="M349.69,170.93c-1.62,0-2.94-1.32-2.94-2.94s1.32-2.94,2.94-2.94s2.94,1.32,2.94,2.94
		S351.3,170.93,349.69,170.93z M349.69,167.93v0.13l0.06-0.06C349.75,167.96,349.72,167.93,349.69,167.93z"></path></g><g id="character_1_"><path class="st2" d="M150.81,410.34c0,0,90.37,28.29,90.86,28.57c-0.63,1.38-0.28,3.07,0.64,4.28c0.91,1.21,2.3,1.98,3.75,2.43
		c1.87,0.58,3.92,0.66,5.76,0.02s3.46-2.05,4.13-3.89c0.36-0.96,0.45-2,0.47-3.03l89.84-28.08l0.34-168.97l-0.28-0.6l-90.15,28.59
		c0,0-0.15,1.2-0.33,1.3c-0.23,2.1-1.55,4.05-3.42,5.05c-2.13,1.14-4.77,1-6.99,0.06c-0.69-0.29-1.36-0.67-1.9-1.2
		c-0.46-0.46-0.81-1.03-1.09-1.61c-0.62-1.27-0.97-2.68-1.02-4.09l-90.34-28.08L150.81,410.34z"></path><path class="st3" d="M156.07,242.96v-7.44c0,0,1.67,0.12,1.73,0.04c3.11,0.18,6.22,0.36,9.33,0.54c0,0-0.86-7.73-0.1-8.3
		c15.51,2,30.85,5.99,44.95,12.75c14.11,6.76,26.97,16.35,36.9,28.25c21.38-23.1,51.53-37.88,82.88-40.63l-0.83,8.26l11.06-0.66
		l-0.42,6.91l-85.16,26.77c0,0-0.22,1.45-0.34,1.79c0.11,1.01-0.29,2.03-0.94,2.81c-0.65,0.78-1.54,1.33-2.47,1.74
		c-0.79,0.35-1.62,0.61-2.48,0.7c-1.36,0.16-2.75-0.09-4.06-0.49c-1.76-0.53-3.6-1.49-4.21-3.22c-0.38-1.07-0.22-2.27-0.57-3.36
		L156.07,242.96z"></path><path class="st3" d="M346.67,293.58c1.67-1.1,3.4-2.09,5.18-2.99c0.72-0.36,1.57-0.71,2.3-0.38c0.66,0.29,0.99,1.07,0.99,1.79
		c-0.01,0.72-0.29,1.41-0.57,2.07c-1.09,2.62-2.19,5.24-3.28,7.86c1.35,0.26,2.73,0.53,3.93,1.21c1.2,0.67,2.22,1.82,2.37,3.19
		c0.2,1.86-1.2,3.55-1.3,5.49c0.37,1.05,0.74,2.11,1.1,3.16c0.27,0.76,0.54,1.57,0.38,2.36c-0.2,0.98-1.01,1.72-1.37,2.65
		c-1.01,2.6,1.73,5.51,0.85,8.16c-0.41,1.23-1.55,2.15-1.83,3.41c-0.26,1.17,0.26,2.37,0.25,3.56c-0.01,1.22-0.58,2.38-1.3,3.36
		c-1.48,2.03-3.63,3.51-5.98,4.37c-2.36,0.86-4.91,1.1-7.41,0.91c-0.94-0.07-1.9-0.21-2.7-0.72s-1.38-1.45-1.19-2.37
		c0.33-1.6,2.61-2.23,2.87-3.85c-0.79-0.03-1.58-0.06-2.37-0.08c-1.2-0.04-2.44-0.09-3.52-0.61c-1.08-0.51-1.98-1.62-1.87-2.82
		c0.1-1.06,0.96-1.98,0.9-3.05c-1.31,0.41-2.83,0.35-3.96-0.44c-1.13-0.79-1.7-2.4-1.09-3.63c0.5-1,1.59-1.53,2.54-2.13
		c0.1-0.06,0.21-0.14,0.24-0.26c0.03-0.12-0.05-0.24-0.11-0.35c-0.76-1.24-0.86-2.86-0.26-4.19c0.6-1.33,1.87-2.33,3.31-2.59
		c0,0,5.9-2.5,6.12-2.65c2.2-1.57,4.86-2.55,6.65-4.58L346.67,293.58z"></path><path class="st3" d="M151.36,293.78c-1.73-1.32-3.61-2.42-5.6-3.3c-0.86-0.37-1.95-0.67-2.64-0.04c-0.54,0.49-0.56,1.33-0.48,2.06
		c0.36,3.6,1.93,7.08,4.4,9.72c-1.47-0.1-3,0.02-4.32,0.69c-1.31,0.67-2.37,1.98-2.42,3.46c-0.06,1.63,1.05,3.13,0.99,4.76
		c-0.07,2.05-1.98,3.82-1.67,5.84c0.22,1.45,1.53,2.55,1.76,3.99c0.32,2.06-1.64,3.93-1.43,6.01c0.15,1.49,1.38,2.66,1.72,4.12
		c0.29,1.25-0.12,2.56-0.04,3.84c0.11,1.85,1.21,3.51,2.56,4.78c2.96,2.78,7.1,3.99,11.15,4.28c1.07,0.08,2.17,0.09,3.17-0.29
		c1-0.38,1.88-1.24,2-2.3c0.18-1.59-1.27-2.83-2.57-3.75l0.07-0.79c0,0,3.22,0,3.18-0.22c1.57-0.06,3.21-0.71,4.03-2.05
		c0.82-1.34,0.48-3.39-0.93-4.07c1.54,0.21,3.14-0.06,4.53-0.76c0.33-0.17,0.65-0.36,0.89-0.64c0.53-0.62,0.54-1.53,0.32-2.31
		c-0.39-1.36-1.45-2.5-2.78-2.99c-0.16-0.06-0.34-0.13-0.42-0.28c-0.08-0.17,0-0.38,0.09-0.55c0.58-1.22,0.94-2.66,0.43-3.91
		c-0.49-1.2-1.67-1.96-2.82-2.55c-3.25-1.65-6.85-2.56-10.08-4.26c-1.26-0.67-2.51-1.5-3.21-2.75L151.36,293.78z"></path><polygon class="st4" points="159.34,366.3 159.34,400.64 231.77,422.46 231.93,388.17 	"></polygon><path class="st0" d="M151.17,309.79c-0.28,0-0.5-0.22-0.5-0.5v-15.33c0-0.28,0.22-0.5,0.5-0.5s0.5,0.22,0.5,0.5v15.33
		C151.67,309.57,151.44,309.79,151.17,309.79z"></path><path class="st0" d="M166.95,323.31c-0.09,0-0.19-0.03-0.27-0.08c-0.23-0.15-0.29-0.46-0.14-0.69c0.89-1.35,0.59-3.37-0.65-4.4
		c-0.71-0.59-1.66-0.88-2.58-1.17l-0.28-0.09c-5.77-1.82-11.04-5.09-15.23-9.46c-0.19-0.2-0.19-0.52,0.01-0.71
		c0.2-0.19,0.52-0.18,0.71,0.01c4.08,4.25,9.2,7.43,14.81,9.2l0.28,0.09c1.02,0.32,2.07,0.65,2.92,1.36
		c1.64,1.37,2.02,3.94,0.84,5.72C167.27,323.23,167.11,323.31,166.95,323.31z"></path><path class="st0" d="M150.48,306.32c-0.11,0-0.23-0.04-0.32-0.12c-4.09-3.41-6.31-8.41-7.79-12.38c-0.23-0.61-0.92-2.46,0.21-3.57
		c0.51-0.5,1.32-0.71,2.15-0.56c0.68,0.13,1.29,0.46,1.83,0.76l4.51,2.48c0.24,0.13,0.33,0.44,0.2,0.68
		c-0.13,0.24-0.44,0.33-0.68,0.2l-4.51-2.48c-0.49-0.27-1-0.55-1.53-0.65c-0.39-0.07-0.94-0.04-1.27,0.29
		c-0.45,0.44-0.44,1.26,0.03,2.51c1.44,3.86,3.58,8.7,7.49,11.96c0.21,0.18,0.24,0.49,0.06,0.7
		C150.77,306.26,150.63,306.32,150.48,306.32z"></path><path class="st0" d="M156.27,344.57c-0.95,0-1.88-0.12-2.69-0.27c-3.64-0.63-8.55-2.21-11.26-6.16c-0.66-0.96-1.01-1.84-1.08-2.69
		c-0.06-0.71,0.07-1.39,0.2-2.05c0.15-0.8,0.3-1.56,0.08-2.25c-0.16-0.5-0.5-0.93-0.85-1.4c-0.39-0.5-0.79-1.02-1-1.66
		c-0.47-1.4,0.1-2.79,0.64-4.14c0.52-1.29,1.02-2.51,0.5-3.55c-0.15-0.29-0.38-0.56-0.62-0.85c-0.28-0.33-0.57-0.67-0.77-1.09
		c-0.49-1.03-0.38-2.28,0.34-3.83c0.1-0.21,0.21-0.43,0.31-0.64c0.41-0.84,0.8-1.63,0.85-2.47c0.05-0.83-0.24-1.66-0.54-2.54
		c-0.38-1.1-0.77-2.23-0.5-3.43c0.27-1.23,1.26-2.34,2.63-2.96c1.15-0.52,2.41-0.67,3.71-0.79c0.27-0.02,0.52,0.18,0.54,0.45
		s-0.18,0.52-0.45,0.54c-1.26,0.12-2.38,0.25-3.39,0.71c-1.09,0.49-1.86,1.34-2.07,2.26c-0.2,0.93,0.12,1.88,0.47,2.89
		c0.32,0.93,0.65,1.9,0.59,2.92c-0.06,1.04-0.51,1.96-0.95,2.85c-0.1,0.21-0.2,0.41-0.3,0.62c-0.58,1.24-0.69,2.24-0.35,2.97
		c0.15,0.3,0.38,0.58,0.63,0.87c0.27,0.32,0.55,0.64,0.75,1.05c0.72,1.45,0.12,2.94-0.47,4.38c-0.5,1.23-0.97,2.39-0.62,3.44
		c0.16,0.48,0.49,0.91,0.84,1.37c0.4,0.51,0.81,1.05,1.02,1.71c0.29,0.93,0.11,1.85-0.06,2.74c-0.12,0.62-0.23,1.21-0.19,1.78
		c0.06,0.68,0.35,1.4,0.91,2.21c2.51,3.67,7.15,5.15,10.61,5.75c1.61,0.28,3.67,0.5,5.35-0.32c0.45-0.22,0.76-0.46,0.93-0.74
		c0.44-0.7,0.13-1.68-0.37-2.35c-0.34-0.46-0.77-0.84-1.22-1.25c-0.33-0.3-0.66-0.6-0.96-0.92c-0.19-0.2-0.17-0.52,0.03-0.71
		c0.2-0.18,0.52-0.17,0.71,0.03c0.28,0.3,0.59,0.58,0.9,0.86c0.47,0.42,0.95,0.86,1.35,1.39c0.66,0.88,1.16,2.32,0.42,3.49
		c-0.28,0.44-0.72,0.8-1.34,1.11C158.5,344.4,157.37,344.57,156.27,344.57z"></path><path class="st0" d="M164.65,330.81c-6.84,0-13.66-2.37-19-6.65c-0.22-0.17-0.25-0.49-0.08-0.7c0.17-0.21,0.49-0.25,0.7-0.08
		c5.72,4.59,13.21,6.91,20.52,6.35c0.66-0.05,1.35-0.13,1.88-0.48c0.97-0.64,1.09-2.12,0.59-3.1c-0.68-1.32-2.15-1.92-2.97-2.16
		c-0.96-0.28-1.95-0.38-3-0.49c-0.35-0.04-0.7-0.07-1.05-0.11c-5.45-0.66-10.67-3.08-14.69-6.82c-0.2-0.19-0.21-0.5-0.03-0.71
		c0.19-0.2,0.5-0.21,0.71-0.03c3.87,3.59,8.89,5.92,14.13,6.56c0.34,0.04,0.69,0.08,1.03,0.11c1.05,0.11,2.13,0.21,3.18,0.52
		c1.67,0.49,2.95,1.43,3.58,2.66c0.8,1.55,0.39,3.52-0.92,4.39c-0.73,0.48-1.59,0.58-2.35,0.64
		C166.14,330.78,165.39,330.81,164.65,330.81z"></path><path class="st0" d="M159.38,337.35c-4.06,0-8.11-0.93-11.76-2.72c-0.87-0.43-1.76-0.93-2.41-1.72c-0.18-0.21-0.14-0.53,0.07-0.7
		c0.21-0.17,0.53-0.14,0.7,0.07c0.53,0.64,1.31,1.08,2.08,1.46c3.7,1.81,7.83,2.72,11.95,2.61c1.38-0.03,3.11-0.21,4.25-1.26
		c0.57-0.53,0.89-1.38,0.83-2.17c-0.03-0.4-0.18-0.96-0.69-1.31c-0.23-0.16-0.29-0.47-0.13-0.7c0.16-0.23,0.47-0.29,0.69-0.13
		c0.66,0.45,1.06,1.18,1.13,2.06c0.08,1.09-0.37,2.25-1.15,2.98c-1.38,1.28-3.35,1.49-4.9,1.53
		C159.82,337.34,159.6,337.35,159.38,337.35z"></path><path class="st0" d="M346.51,309.79c-0.28,0-0.5-0.22-0.5-0.5v-15.33c0-0.28,0.22-0.5,0.5-0.5s0.5,0.22,0.5,0.5v15.33
		C347.01,309.57,346.79,309.79,346.51,309.79z"></path><path class="st0" d="M330.73,323.31c-0.16,0-0.32-0.08-0.42-0.22c-1.18-1.79-0.8-4.35,0.84-5.72c0.86-0.72,1.91-1.04,2.93-1.36
		l0.28-0.09c5.61-1.77,10.73-4.95,14.81-9.2c0.19-0.2,0.51-0.21,0.71-0.01c0.2,0.19,0.21,0.51,0.01,0.71
		c-4.19,4.36-9.46,7.63-15.23,9.46l-0.28,0.09c-0.97,0.3-1.88,0.59-2.58,1.17c-1.24,1.04-1.54,3.05-0.65,4.4
		c0.15,0.23,0.09,0.54-0.14,0.69C330.92,323.29,330.83,323.31,330.73,323.31z"></path><path class="st0" d="M347.19,306.32c-0.14,0-0.29-0.06-0.38-0.18c-0.18-0.21-0.15-0.53,0.06-0.7c3.91-3.26,6.05-8.1,7.49-11.96
		c0.46-1.25,0.47-2.07,0.03-2.51c-0.33-0.32-0.87-0.36-1.27-0.29c-0.52,0.1-1.03,0.38-1.53,0.65l-4.51,2.48
		c-0.24,0.13-0.54,0.05-0.68-0.2s-0.05-0.55,0.2-0.68l4.51-2.48c0.54-0.3,1.15-0.63,1.83-0.76c0.83-0.16,1.64,0.05,2.15,0.56
		c1.13,1.11,0.44,2.96,0.21,3.57c-1.48,3.97-3.7,8.97-7.79,12.38C347.42,306.29,347.31,306.32,347.19,306.32z"></path><path class="st0" d="M341.41,344.57c-1.1,0-2.23-0.17-3.26-0.67c-0.62-0.3-1.06-0.66-1.34-1.11c-0.74-1.18-0.24-2.62,0.42-3.49
		c0.4-0.53,0.88-0.97,1.35-1.39c0.31-0.28,0.62-0.56,0.9-0.86c0.19-0.2,0.5-0.21,0.71-0.03c0.2,0.19,0.22,0.5,0.03,0.71
		c-0.3,0.33-0.63,0.63-0.96,0.93c-0.45,0.41-0.88,0.8-1.22,1.25c-0.5,0.67-0.81,1.66-0.37,2.35c0.18,0.28,0.48,0.52,0.93,0.74
		c1.67,0.81,3.74,0.59,5.35,0.32c3.45-0.6,8.1-2.08,10.61-5.74c0.56-0.81,0.85-1.53,0.91-2.21c0.05-0.57-0.07-1.16-0.19-1.78
		c-0.17-0.89-0.35-1.81-0.06-2.74c0.21-0.67,0.62-1.2,1.02-1.71c0.35-0.45,0.68-0.88,0.84-1.37c0.35-1.05-0.12-2.21-0.62-3.44
		c-0.58-1.44-1.19-2.93-0.47-4.38c0.2-0.4,0.48-0.73,0.75-1.05c0.25-0.29,0.48-0.57,0.63-0.87c0.35-0.73,0.23-1.73-0.34-2.97
		c-0.1-0.21-0.2-0.41-0.3-0.62c-0.44-0.89-0.89-1.81-0.96-2.86c-0.06-1.03,0.27-1.99,0.59-2.92c0.35-1.01,0.68-1.96,0.47-2.89
		c-0.2-0.92-0.98-1.77-2.07-2.26c-1.01-0.46-2.13-0.59-3.39-0.71c-0.28-0.03-0.48-0.27-0.45-0.54c0.03-0.28,0.29-0.46,0.54-0.45
		c1.3,0.12,2.56,0.28,3.7,0.79c1.38,0.62,2.36,1.73,2.63,2.96c0.26,1.2-0.12,2.33-0.5,3.43c-0.3,0.88-0.59,1.71-0.54,2.54
		c0.05,0.84,0.44,1.64,0.85,2.47c0.1,0.21,0.21,0.43,0.31,0.64c0.72,1.55,0.83,2.8,0.34,3.83c-0.2,0.42-0.49,0.76-0.77,1.09
		c-0.24,0.28-0.47,0.55-0.62,0.85c-0.52,1.04-0.03,2.26,0.5,3.55c0.55,1.34,1.11,2.73,0.64,4.14c-0.21,0.64-0.62,1.16-1,1.66
		c-0.36,0.46-0.7,0.9-0.85,1.4c-0.22,0.69-0.07,1.45,0.08,2.25c0.13,0.66,0.26,1.35,0.2,2.05c-0.07,0.86-0.42,1.74-1.08,2.69
		c-2.71,3.95-7.62,5.53-11.26,6.16C343.28,344.45,342.36,344.57,341.41,344.57z"></path><path class="st0" d="M333.02,330.81c-0.74,0-1.48-0.03-2.23-0.08c-0.76-0.06-1.63-0.16-2.35-0.64c-1.31-0.87-1.72-2.83-0.92-4.39
		c0.63-1.23,1.9-2.17,3.58-2.66c1.05-0.3,2.13-0.41,3.18-0.52c0.34-0.04,0.69-0.07,1.03-0.11c5.24-0.64,10.26-2.97,14.13-6.56
		c0.2-0.19,0.52-0.18,0.71,0.03c0.19,0.2,0.18,0.52-0.03,0.71c-4.02,3.74-9.24,6.16-14.69,6.82c-0.35,0.04-0.7,0.08-1.05,0.11
		c-1.05,0.11-2.04,0.21-3,0.49c-0.82,0.24-2.29,0.83-2.97,2.16c-0.5,0.98-0.39,2.45,0.58,3.1c0.52,0.35,1.21,0.43,1.88,0.48
		c7.32,0.56,14.8-1.76,20.52-6.35c0.21-0.17,0.53-0.14,0.7,0.08c0.17,0.21,0.14,0.53-0.08,0.7
		C346.68,328.44,339.87,330.81,333.02,330.81z"></path><path class="st0" d="M338.3,337.35c-0.22,0-0.44,0-0.66-0.01c-1.56-0.04-3.52-0.25-4.9-1.53c-0.78-0.72-1.23-1.89-1.15-2.98
		c0.07-0.88,0.47-1.61,1.13-2.06c0.23-0.15,0.54-0.09,0.7,0.13c0.15,0.23,0.09,0.54-0.13,0.7c-0.52,0.35-0.66,0.9-0.69,1.31
		c-0.06,0.79,0.27,1.65,0.83,2.17c1.14,1.05,2.87,1.23,4.25,1.26c4.1,0.11,8.25-0.8,11.95-2.61c0.77-0.38,1.55-0.81,2.08-1.46
		c0.17-0.21,0.49-0.25,0.7-0.07c0.21,0.17,0.24,0.49,0.07,0.7c-0.65,0.79-1.54,1.29-2.41,1.72
		C346.41,336.41,342.36,337.35,338.3,337.35z"></path><path class="st0" d="M249.54,277.18c-0.93,0-1.83-0.13-2.61-0.27c-0.78-0.14-1.7-0.34-2.53-0.75c-2.33-1.12-3.72-3.79-3.38-6.34
		c-4.35-1.45-56.36-17.65-84.13-26.29c-0.26-0.08-0.41-0.36-0.33-0.63s0.36-0.41,0.63-0.33c31.44,9.78,84.26,26.22,84.68,26.52
		c0.16,0.12,0.24,0.32,0.2,0.51c-0.47,2.19,0.75,4.67,2.76,5.65c0.72,0.35,1.52,0.53,2.27,0.66c1.42,0.26,3.25,0.47,4.86-0.16
		c2.25-0.89,3.77-3.54,3.54-6.18c-0.02-0.23,0.12-0.45,0.35-0.52L341.72,242c0.26-0.08,0.54,0.06,0.63,0.33s-0.06,0.54-0.33,0.63
		l-85.49,26.96c0.09,2.96-1.62,5.78-4.19,6.79C251.42,277.06,250.46,277.18,249.54,277.18z"></path><path class="st0" d="M248.46,271.14c-0.13,0-0.25-0.05-0.35-0.14c-9.44-9.15-21.48-15.02-32.02-19.82
		c-14.24-6.48-31.16-13.27-48.61-14.57c-0.28-0.02-0.48-0.26-0.46-0.54s0.24-0.48,0.54-0.46c17.61,1.31,34.62,8.14,48.95,14.65
		c10.49,4.77,22.46,10.61,31.96,19.69c2.56-2.24,4.88-4.17,7.1-5.88c19.36-14.96,44.23-24.47,73.92-28.27
		c0.27-0.03,0.52,0.16,0.56,0.43c0.04,0.27-0.16,0.52-0.43,0.56c-29.51,3.77-54.22,13.22-73.44,28.07c-2.3,1.77-4.71,3.78-7.39,6.14
		C248.69,271.1,248.57,271.14,248.46,271.14z"></path><path class="st0" d="M256.55,436c-0.28,0-0.5-0.22-0.5-0.5V275.55c0-0.28,0.22-0.5,0.5-0.5s0.5,0.22,0.5,0.5V435.5
		C257.05,435.78,256.83,436,256.55,436z"></path><path class="st0" d="M240.91,436.26c-0.28,0-0.5-0.22-0.5-0.5V275.81c0-0.28,0.22-0.5,0.5-0.5s0.5,0.22,0.5,0.5v159.95
		C241.41,436.04,241.19,436.26,240.91,436.26z"></path><path class="st1" d="M268.92,305.62c-0.12,0-0.25-0.05-0.34-0.14l-0.83-0.78c-0.18-0.17-0.21-0.43-0.08-0.63
		c2-3.1,4.17-6.07,6.5-8.9c-2.51,1.62-5.07,3.16-7.68,4.62c-0.24,0.13-0.54,0.05-0.68-0.19c-0.13-0.24-0.05-0.55,0.19-0.68
		c3.61-2.02,7.12-4.2,10.54-6.52c3.87-4.36,8.14-8.36,12.78-11.96c1.45-1.13,3.17-2.34,5.14-2.4c0.2-0.01,0.4,0.12,0.48,0.31
		c0.08,0.19,0.03,0.41-0.12,0.55c-5.48,5.22-11.37,9.99-17.61,14.25c-3.09,3.48-5.91,7.19-8.47,11.12l0.27,0.25
		c4.62-2.44,9.1-5.35,13.44-8.16c7.27-4.71,14.79-9.58,23.14-12.41c0.15-0.05,0.31-0.03,0.44,0.06c0.24,0.16,0.4,0.41,0.45,0.7
		c0.12,0.65-0.29,1.29-0.42,1.47c-0.46,0.66-1.02,1.29-1.56,1.89c-1.18,1.33-2.3,2.6-2.46,4.08c2.96-0.95,5.76-2.46,8.48-3.92
		c2.9-1.56,5.9-3.18,9.12-4.14c0.34-0.1,1.05-0.31,1.64,0.07c0.17,0.11,0.25,0.32,0.21,0.52l-0.2,0.99
		c2.72,0.29,5.41-0.45,8.25-1.23c2.9-0.79,5.9-1.61,8.93-1.23c0.27,0.04,0.47,0.29,0.43,0.56c-0.04,0.27-0.3,0.47-0.56,0.43
		c-2.84-0.36-5.74,0.43-8.54,1.2c-2.99,0.82-6.08,1.67-9.19,1.19c-0.14-0.02-0.26-0.1-0.33-0.21c-0.08-0.11-0.11-0.25-0.08-0.39
		l0.21-1.05c-0.15,0.01-0.33,0.06-0.49,0.11c-3.12,0.93-6.08,2.52-8.93,4.06c-2.96,1.59-6.02,3.24-9.32,4.2
		c-0.14,0.04-0.3,0.02-0.42-0.07c-0.12-0.09-0.2-0.22-0.21-0.37c-0.18-2.19,1.29-3.86,2.72-5.46c0.52-0.59,1.06-1.19,1.49-1.81
		c0.13-0.18,0.22-0.4,0.25-0.57c-8.07,2.81-15.41,7.56-22.51,12.16c-4.46,2.89-9.07,5.87-13.84,8.37
		C269.07,305.6,268.99,305.62,268.92,305.62z M292.82,279.39c-1.02,0.41-1.98,1.11-2.89,1.82c-3.3,2.57-6.41,5.34-9.33,8.29
		C284.86,286.36,288.94,282.99,292.82,279.39z"></path><path class="st1" d="M278.13,319.64c-0.19,0-0.37-0.11-0.46-0.3c-0.11-0.25,0-0.55,0.25-0.66c6.96-3.1,13.93-6.42,20.72-9.86
		c0.21-0.11,0.48-0.05,0.63,0.15c0.15,0.19,0.13,0.47-0.04,0.64c-0.63,0.66-1.11,1.45-1.4,2.32c0.04,0,0.09,0,0.13,0
		c2.77,0,5.53-0.87,8.2-1.71c2.88-0.9,5.87-1.84,8.93-1.75c0.15,0,0.28,0.07,0.38,0.19c0.09,0.11,0.13,0.26,0.1,0.41l-0.21,1.16
		c0.77,0.26,1.74,0.03,2.68-0.26c2.42-0.76,4.84-1.67,7.18-2.56c4.67-1.77,9.5-3.59,14.55-4.27c0.26-0.05,0.53,0.15,0.56,0.43
		c0.04,0.27-0.15,0.53-0.43,0.56c-4.93,0.67-9.71,2.47-14.33,4.21c-2.36,0.89-4.8,1.81-7.24,2.58c-1.29,0.4-2.64,0.69-3.79,0.03
		c-0.18-0.11-0.28-0.32-0.25-0.53l0.18-0.96c-2.71,0.04-5.4,0.89-8.01,1.71c-3.01,0.94-6.11,1.92-9.32,1.73
		c-0.15-0.01-0.28-0.08-0.37-0.2c-0.09-0.12-0.12-0.27-0.08-0.41c0.14-0.58,0.35-1.15,0.62-1.67c-6.24,3.12-12.61,6.14-18.97,8.98
		C278.26,319.63,278.19,319.64,278.13,319.64z"></path><path class="st0" d="M231.91,423.26c-0.05,0-0.1-0.01-0.15-0.02l-72.58-22.38c-0.21-0.06-0.35-0.26-0.35-0.48v-34.23
		c0-0.16,0.08-0.31,0.2-0.4c0.13-0.09,0.29-0.12,0.44-0.08l72.58,22.06c0.21,0.06,0.35,0.26,0.35,0.48v34.55
		c0,0.16-0.08,0.31-0.2,0.4C232.12,423.23,232.01,423.26,231.91,423.26z M159.83,400.02l71.58,22.07v-33.5l-71.58-21.75V400.02z"></path><path class="st0" d="M221.01,392.5c-0.11,0-0.22-0.04-0.32-0.11c-3.18-2.6-7.59-3.11-11.85-3.41l-0.22-0.02
		c-4.31-0.3-8.76-0.62-12.35-3.05c-0.33-0.22-0.65-0.46-0.97-0.7c-0.82-0.62-1.59-1.2-2.5-1.47c-0.86-0.26-1.82-0.23-2.74-0.2
		l-7.28,0.25c-0.87,0.03-1.85,0.06-2.78-0.21c-1.1-0.33-1.94-1.07-2.25-1.99c-0.15-0.45-0.17-0.93-0.2-1.4
		c-0.04-0.78-0.09-1.27-0.46-1.5c-0.26-0.17-0.66-0.16-1.12-0.12l-9.85,0.76c-0.14,0.01-0.27-0.03-0.37-0.12
		c-0.1-0.09-0.16-0.22-0.17-0.35l-0.05-1.01c-0.01-0.28,0.2-0.51,0.48-0.52c0.27-0.04,0.51,0.2,0.52,0.47l0.02,0.5l9.34-0.72
		c0.49-0.04,1.17-0.09,1.74,0.28c0.82,0.53,0.87,1.47,0.91,2.29c0.02,0.42,0.04,0.81,0.15,1.14c0.23,0.71,0.97,1.16,1.58,1.34
		c0.77,0.23,1.63,0.2,2.46,0.17l7.28-0.25c0.96-0.03,2.05-0.07,3.07,0.24c1.07,0.33,1.95,0.99,2.81,1.63
		c0.31,0.23,0.61,0.46,0.93,0.67c3.37,2.28,7.69,2.59,11.86,2.88l0.22,0.02c4.41,0.31,9.01,0.85,12.41,3.64
		c0.21,0.17,0.25,0.49,0.07,0.7C221.3,392.44,221.16,392.5,221.01,392.5z"></path><path class="st0" d="M212.69,406.08c-1.48,0-2.96-0.77-4.53-2.35c-0.27-0.28-0.54-0.56-0.8-0.85c-0.86-0.92-1.67-1.79-2.7-2.35
		c-1.66-0.91-3.71-0.89-5.68-0.87l-0.43,0c-2.53,0.02-5.08-0.12-7.59-0.4c-1.87-0.21-3.94-0.63-5.11-2.17
		c-0.49-0.65-0.76-1.42-1.02-2.16c-0.32-0.9-0.61-1.75-1.27-2.26c-0.65-0.5-1.58-0.61-2.48-0.71c-3.9-0.44-7.8-1.15-11.61-2.12
		c-0.27-0.07-0.43-0.34-0.36-0.61c0.07-0.27,0.34-0.43,0.61-0.36c3.76,0.96,7.62,1.66,11.47,2.09c0.99,0.11,2.11,0.24,2.98,0.91
		c0.89,0.69,1.25,1.72,1.6,2.72c0.25,0.7,0.48,1.36,0.88,1.88c0.94,1.24,2.68,1.59,4.43,1.78c2.47,0.28,5,0.41,7.47,0.39l0.43,0
		c2.11-0.02,4.28-0.04,6.17,1c1.17,0.64,2.08,1.61,2.95,2.55c0.26,0.28,0.52,0.56,0.78,0.82c1.39,1.4,2.67,2.07,3.87,2.05
		c0.27,0,0.5,0.21,0.51,0.49s-0.22,0.5-0.49,0.51C212.74,406.08,212.72,406.08,212.69,406.08z"></path></g></svg>