<svg transform="scale(1)" version="1.1" id="_x30_376_x5F_Profile_x5F_1" xmlns="http://www.w3.org/2000/svg" xmlns:xlink="http://www.w3.org/1999/xlink" x="0px" y="0px" width="500px" height="500px" viewBox="0 0 500 500" xml:space="preserve" class="show_show__wrapper__graphic__5Waiy "><title>React</title><style type="text/css">
	.st0{fill:#343A40;}
	.st1{fill:#E9ECEF;}
	.st2{fill:#212529;}
	.st3{fill:#495057;}
	.st4{fill:#E9ECEF;}
</style><g id="character"><g id="colors_1_"><path class="st0" d="M281.07,153.85c3.12-4.79,4.56-10.66,4.02-16.35c-0.55-5.69-3.08-11.18-7.06-15.28
			c-1.43-1.48-3.2-2.85-5.26-2.93c-1.89-0.07-3.62,0.95-5.6,1.83c-4.22-1.97-8.74-3.27-13.36-3.86c-1.1-0.14-2.29-0.22-3.27,0.31
			c-0.68,0.37-1.18,1-1.71,1.57c-3.04,3.24-7.59,4.56-11.98,5.27c-4.39,0.71-8.92,0.98-13.02,2.67c-0.99,0.41-2.04,1-2.4,2.01
			c-0.14,0.4-0.17,0.84-0.29,1.25c-0.35,1.14-1.41,1.88-2.33,2.63c-1.57,1.28-2.91,2.84-3.93,4.59c-0.65,1.11-1.07,2.75-0.02,3.49
			c0.59,0.42,1.47,0.36,1.98,0.89c0.7,0.74,0.15,1.93,0.03,2.94c-0.13,1.13,0.41,2.32,1.34,2.96c0,0,6.35,48.42,6.57,48.55
			c0.09,0.92,0.64,1.78,1.44,2.24c0.8,0.46,1.82,0.5,2.66,0.1l7.49-22.06l5.91-15.38l13.11-13.04L281.07,153.85z"></path><path class="st1" d="M269.95,132.63c4.67,1.66,8.42,5.72,9.71,10.51c0.82,3.06,0.69,6.3,1.4,9.39l-0.19,6.46l-2.02,25.3l6.99,7.45
			c0,0-8-2.61-7.97-2.32c-1.71,6.21-3.44,12.48-6.45,18.17c-1.14,2.15-2.54,4.29-4.66,5.49c-1.82,1.03-4.03,1.26-6.1,0.92
			s-4.01-1.22-5.82-2.29c0,0,0.05,14.49-0.1,14.66c-2.84,2.35-6.66,3.19-10.34,3.22c-6.45,0.06-12.89-2.21-17.87-6.3
			c0,0-0.32-24.65,0.11-24.76c0.63-0.06,1.27-0.12,1.9-0.17c0.14-0.01,0.3-0.04,0.39-0.15c0.07-0.09,0.07-0.22,0.06-0.33
			c-0.02-0.64-0.05-1.27-0.04-2.5c0.18-3.44,0.52-6.9,1.56-10.18c1.04-3.28,2.82-6.4,5.63-8.81c-2.38-0.41-4.24-2.41-5.12-4.66
			c-0.87-2.25-0.92-4.72-0.85-7.14c0.06-2.16,0.22-4.4,1.3-6.27c0.42-0.72,0.95-1.37,1.49-2.01c0.64-0.76,1.35-1.57,2.31-1.81
			c0.99-0.25,2.06,0.18,2.81,0.87s1.24,1.62,1.68,2.54c0.43,0.92,0.83,1.88,1.45,2.69c0.34,0.45,0.95,0.88,1.42,0.57
			c0.21-0.14,0.31-0.38,0.4-0.62c1.06-2.72,2.04-5.47,3.2-8.5c6.84-2.17,12.85-6.49,17.86-11.64
			C266.2,138.26,268.16,135.92,269.95,132.63z"></path><ellipse class="st2" cx="261.21" cy="164.67" rx="2" ry="3.5"></ellipse><ellipse class="st2" cx="275.63" cy="163.61" rx="1.7" ry="2.98"></ellipse></g><g id="line"><path class="st2" d="M278.59,185.19c-0.02,0-0.03,0-0.05,0c-0.28-0.02-0.48-0.27-0.45-0.54l0.13-1.45
			c0.46-5.12,0.93-10.23,1.39-15.35c0.59-6.65,1.27-14.2,0.26-21.42c-0.33-2.38-0.94-5.42-2.64-7.91c-1.5-2.18-3.88-3.97-7.07-5.32
			c-0.25-0.11-0.37-0.4-0.27-0.66s0.4-0.37,0.66-0.27c3.38,1.43,5.9,3.34,7.51,5.68c1.82,2.66,2.45,5.85,2.8,8.33
			c1.02,7.33,0.34,14.94-0.26,21.64c-0.46,5.12-0.92,10.23-1.39,15.35l-0.13,1.45C279.06,184.99,278.85,185.19,278.59,185.19z"></path><path class="st2" d="M287.4,193.56c-0.07,0-0.13-0.01-0.2-0.04l-22.89-9.9c-0.25-0.11-0.37-0.4-0.26-0.66
			c0.11-0.25,0.4-0.37,0.66-0.26l19.7,8.52c-4.13-3.59-7.22-7.03-9.57-10.66c-2.48-3.83-5.37-9.89-5.07-16.97
			c0.01-0.28,0.21-0.51,0.52-0.48c0.28,0.01,0.49,0.24,0.48,0.52c-0.29,6.82,2.51,12.68,4.91,16.39c2.78,4.28,6.6,8.3,12.03,12.65
			c0.2,0.16,0.25,0.43,0.12,0.65C287.74,193.47,287.57,193.56,287.4,193.56z"></path><path class="st2" d="M262.98,214.53c-0.35,0-0.7-0.02-1.07-0.06c-4.76-0.48-8.79-3.63-12.2-6.54c-3.17-2.7-6.51-5.69-9.4-9.17
			c-0.18-0.21-0.15-0.53,0.07-0.7c0.21-0.18,0.53-0.15,0.7,0.07c2.84,3.43,6.14,6.37,9.28,9.05c3.3,2.81,7.19,5.85,11.66,6.3
			c1.27,0.13,2.37,0.02,3.27-0.34c0.8-0.3,1.58-0.84,2.47-1.68c2.75-2.61,4.39-6.1,5.64-9.18c1.66-4.07,2.95-8.37,3.84-12.77
			c0.05-0.27,0.32-0.45,0.59-0.39c0.27,0.06,0.45,0.32,0.39,0.59c-0.91,4.47-2.22,8.82-3.9,12.95c-1.21,2.98-2.98,6.76-5.88,9.52
			c-0.99,0.94-1.88,1.53-2.8,1.88C264.86,214.38,263.97,214.53,262.98,214.53z"></path><path class="st2" d="M254.81,226.41c-0.28,0-0.5-0.22-0.5-0.5v-14.15c0-0.28,0.22-0.5,0.5-0.5s0.5,0.22,0.5,0.5v14.15
			C255.31,226.19,255.09,226.41,254.81,226.41z"></path><path class="st2" d="M244.22,229.83c-6.32,0-12.65-1.98-17.8-5.65c-0.37-0.22-0.67-1.57-0.67-25.56c0-0.28,0.22-0.5,0.5-0.5
			s0.5,0.22,0.5,0.5c0,9.22,0.1,23.16,0.36,24.82c5.93,4.19,13.45,6.07,20.66,5.17c2.74-0.34,4.68-1.04,6.08-2.21
			c0.21-0.18,0.53-0.15,0.7,0.07c0.18,0.21,0.15,0.53-0.07,0.7c-1.56,1.29-3.66,2.07-6.6,2.43
			C246.67,229.76,245.44,229.83,244.22,229.83z"></path><path class="st2" d="M188.56,235.89c-0.2,0-0.39-0.12-0.46-0.31c-0.1-0.26,0.02-0.55,0.28-0.65l25.51-10.25
			c1.14-0.45,2.13-0.88,2.79-1.65c0.12-0.14,0.22-0.28,0.33-0.42c0.28-0.38,0.59-0.8,1.08-1.06c0.45-0.24,0.97-0.29,1.42-0.33
			c0.5-0.05,0.93-0.09,1.16-0.36c0.16-0.19,0.21-0.49,0.27-0.84c0.04-0.27,0.09-0.55,0.2-0.83c0.29-0.75,1.03-1.24,1.94-1.3
			c0.91-0.05,1.71,0.35,2.09,1.05c0.13,0.24,0.04,0.55-0.2,0.68c-0.24,0.13-0.55,0.04-0.68-0.2c-0.23-0.43-0.74-0.55-1.15-0.53
			c-0.38,0.02-0.89,0.21-1.07,0.66c-0.07,0.18-0.11,0.4-0.14,0.63c-0.07,0.43-0.15,0.92-0.49,1.33c-0.49,0.58-1.21,0.65-1.83,0.71
			c-0.39,0.04-0.77,0.07-1.04,0.22c-0.29,0.15-0.51,0.45-0.74,0.77c-0.12,0.16-0.24,0.33-0.37,0.48c-0.8,0.94-1.91,1.43-3.17,1.93
			l-25.51,10.25C188.69,235.88,188.62,235.89,188.56,235.89z"></path><path class="st2" d="M321.96,263.79c-0.14,0-0.28-0.06-0.38-0.17l-15.2-17.51c-5.73-6.6-11.66-13.42-19.37-17.8
			c-5.84-3.32-12.42-5.07-18.78-6.75c-1.94-0.51-3.93-1.04-5.91-1.12c-0.46-0.02-0.92-0.02-1.39-0.02c-1.92,0-3.9-0.01-5.44-1.25
			c-0.22-0.17-0.25-0.49-0.08-0.7c0.17-0.22,0.49-0.25,0.7-0.08c1.26,1.02,2.99,1.02,4.81,1.03c0.48,0,0.96,0,1.43,0.02
			c2.08,0.09,4.12,0.63,6.09,1.15c6.45,1.71,13.09,3.47,19.05,6.86c7.86,4.46,13.84,11.35,19.63,18.02l15.2,17.51
			c0.18,0.21,0.16,0.52-0.05,0.71C322.19,263.75,322.08,263.79,321.96,263.79z"></path><path class="st2" d="M289.36,286.38c-0.28,0-0.5-0.22-0.5-0.5v-30.25c0-0.28,0.22-0.5,0.5-0.5s0.5,0.22,0.5,0.5v30.25
			C289.86,286.16,289.64,286.38,289.36,286.38z"></path><path class="st2" d="M296.56,283.25c-0.12,0-0.25-0.05-0.35-0.14l-7.01-6.73c-0.2-0.19-0.21-0.51-0.01-0.71
			c0.19-0.2,0.51-0.21,0.71-0.01l7.01,6.73c0.2,0.19,0.21,0.51,0.01,0.71C296.82,283.2,296.69,283.25,296.56,283.25z"></path><path class="st2" d="M256.94,158.36c-0.08,0-0.16-0.02-0.23-0.06c-0.24-0.13-0.34-0.43-0.21-0.68c0.4-0.76,1.21-1.09,1.78-1.27
			c2.46-0.78,5.2-0.4,7.35,1.01c0.23,0.15,0.29,0.46,0.14,0.69c-0.15,0.23-0.46,0.29-0.69,0.14c-1.9-1.25-4.33-1.58-6.49-0.89
			c-0.64,0.21-1.02,0.46-1.2,0.79C257.29,158.26,257.12,158.36,256.94,158.36z"></path><path class="st2" d="M272.15,158.35c-0.12,0-0.24-0.04-0.33-0.13c-0.21-0.19-0.22-0.5-0.04-0.71c1.66-1.83,4.63-2.31,6.78-1.09
			c0.24,0.14,0.32,0.44,0.19,0.68c-0.14,0.24-0.44,0.32-0.68,0.19c-1.76-1-4.19-0.61-5.54,0.89
			C272.42,158.29,272.29,158.35,272.15,158.35z"></path><path class="st2" d="M257.33,191.78c-0.34,0-0.67-0.03-1-0.09c-1.72-0.31-3.14-1.4-3.72-2.85c-0.29-0.74-0.38-1.58-0.28-2.58
			c0.18-1.82,1-3.23,2.24-3.87c0.23-0.12,0.52-0.04,0.66,0.19c1.64,2.76,3.9,5.12,6.53,6.84c0.14,0.09,0.23,0.26,0.23,0.43
			s-0.09,0.33-0.24,0.42C260.04,191.3,258.66,191.78,257.33,191.78z M254.64,183.54c-0.71,0.57-1.19,1.59-1.31,2.83
			c-0.08,0.83-0.01,1.52,0.22,2.11c0.44,1.11,1.6,1.98,2.96,2.23c1.23,0.22,2.46-0.05,4.04-0.9
			C258.21,188.15,256.19,186,254.64,183.54z"></path><path class="st2" d="M233.25,155.42c-0.24,0-0.46-0.18-0.49-0.43c-0.04-0.27,0.15-0.53,0.42-0.57c10.9-1.64,19.35-4.86,25.84-9.83
			c4.25-3.25,7.83-7.47,10.36-12.21c0.13-0.24,0.44-0.33,0.68-0.21c0.24,0.13,0.34,0.43,0.21,0.68c-2.6,4.87-6.28,9.2-10.64,12.53
			c-6.63,5.08-15.23,8.36-26.3,10.03C233.3,155.42,233.27,155.42,233.25,155.42z"></path><path class="st2" d="M242.23,161.98c-0.09,0-0.18-0.01-0.27-0.03c-0.42-0.1-0.71-0.4-0.91-0.64c-0.64-0.78-1.09-1.68-1.53-2.54
			c-0.17-0.34-0.34-0.68-0.53-1.01c-0.77-1.38-1.59-2.22-2.51-2.59c-0.26-0.1-0.38-0.39-0.28-0.65c0.1-0.26,0.39-0.38,0.65-0.28
			c1.15,0.45,2.14,1.44,3.02,3.03c0.19,0.34,0.37,0.69,0.54,1.04c0.43,0.86,0.84,1.67,1.42,2.37c0.09,0.12,0.23,0.27,0.36,0.3
			c0.2,0.05,0.49-0.34,0.67-0.89l2.94-8.52c0.09-0.26,0.37-0.4,0.64-0.31c0.26,0.09,0.4,0.37,0.31,0.64l-2.94,8.52
			C243.46,161.41,242.88,161.98,242.23,161.98z"></path><path class="st2" d="M237.36,177.39c-1.33,0-2.73-0.45-3.91-1.33c-1.65-1.24-2.89-3.28-3.59-5.9c-1.54-5.79,0.15-12.09,4.21-15.67
			c0.21-0.18,0.52-0.16,0.71,0.04c0.18,0.21,0.16,0.52-0.04,0.71c-3.78,3.34-5.35,9.24-3.91,14.67c0.65,2.4,1.76,4.26,3.23,5.36
			c1.5,1.12,3.94,1.64,5.69,0.44c0.23-0.16,0.54-0.1,0.7,0.13c0.16,0.23,0.1,0.54-0.13,0.7
			C239.45,177.11,238.42,177.39,237.36,177.39z"></path><path class="st2" d="M238.87,169.22c-0.26,0-0.48-0.2-0.5-0.46c-0.13-1.55-0.36-3.35-1.06-5.01c-0.72-1.69-1.86-2.97-3.21-3.62
			c-0.25-0.12-0.35-0.42-0.23-0.67c0.12-0.25,0.42-0.35,0.67-0.23c1.56,0.76,2.87,2.22,3.69,4.13c0.76,1.79,1,3.69,1.14,5.31
			c0.02,0.28-0.18,0.52-0.46,0.54C238.9,169.22,238.88,169.22,238.87,169.22z"></path><path class="st2" d="M236,170.67c-0.1,0-0.2-0.03-0.28-0.09c-1.11-0.77-1.56-2.41-1.06-3.81c0.41-1.14,1.37-2.13,2.71-2.78
			c0.25-0.12,0.55-0.02,0.67,0.23c0.12,0.25,0.02,0.55-0.23,0.67c-0.64,0.31-1.78,1.01-2.21,2.22c-0.35,0.98-0.05,2.14,0.68,2.65
			c0.23,0.16,0.28,0.47,0.13,0.7C236.31,170.59,236.16,170.67,236,170.67z"></path><path class="st2" d="M228.61,199.08c-0.09,0-0.17-0.01-0.26-0.02l-1.86-0.17c-0.27-0.03-0.48-0.27-0.45-0.55
			c0.03-0.27,0.27-0.48,0.55-0.45l1.87,0.17c0.13,0.02,0.19,0.01,0.2,0.01c-0.01-0.01,0.02-0.09,0.01-0.32
			c-0.24-4.6-0.01-8.04,0.74-11.17c0.97-4.03,2.85-7.42,5.46-9.79c0.2-0.18,0.52-0.17,0.71,0.03c0.19,0.2,0.17,0.52-0.03,0.71
			c-3.1,2.83-4.52,6.61-5.16,9.29c-0.73,3.03-0.95,6.39-0.72,10.88c0.04,0.6-0.12,1.02-0.49,1.24
			C228.99,199.05,228.79,199.08,228.61,199.08z"></path></g></g><g id="screen"><g id="colors"><path class="st0" d="M151.04,218.06h-32.59v-29.08V63.52h263.06V218.5h-32.22c0,0,0.06-2.89-0.02-3.23
			c1.39-5.15,2.17-10.46,2.32-15.79c0.11-3.87-0.11-7.74-0.39-11.61c-0.7-9.7-1.79-19.56-6.07-28.79
			c-2.16-5.09-4.51-10.1-7.03-15.02c-1.91-3.71-3.92-7.38-6.44-10.71c-1.81-2.38-3.85-4.57-5.9-6.76
			c-5.64-6.02-11.35-12.1-18.48-16.52c-17.62-11.58-38.65-17.89-59.82-17.68c-6.22,0.12-12.4,1.03-18.51,2.19
			c-5.96,1.14-11.91,2.52-17.56,4.74c-12.05,4.72-22.31,13.01-32.56,21.39c-5.61,5.79-10.73,12.05-15.3,18.69
			c-2.36,3.43-4.58,6.98-6.13,10.83c-1.52,3.79-2.38,7.81-3.76,11.65c-1.45,4.02-3.49,7.94-3.8,12.91
			c-1.82,4.89-1.93,10.22-2.02,15.44C147.65,199.56,147.54,209.15,151.04,218.06z"></path><polygon class="st0" points="129.51,401.99 129.51,383.24 140.04,383.24 142.27,376.99 150.75,376.99 153.28,383.24 
			163.76,383.24 163.76,401.99 		"></polygon><circle class="st3" cx="146.63" cy="392.44" r="7"></circle><path class="st0" d="M214.95,405.85h33.95c0,0,0.06-0.62,0.01-0.82c-1.36-3.34-2.87-6.65-5.09-9.48
			c-2.23-2.83-5.25-5.16-8.76-5.96c-3.5-0.79-7.26,0.02-10.36,1.84c-3.1,1.81-5.58,4.57-7.46,7.63
			C216.02,401.03,215.02,403.22,214.95,405.85z"></path><circle class="st0" cx="231.94" cy="380.69" r="6.88"></circle><path class="st0" d="M301.22,388.06c0-6.6,6.94-11.95,15.5-11.95s15.5,5.35,15.5,11.95c0,2.68-1.14,5.15-3.08,7.15
			c-0.03,0.03-0.1,0.1-0.1,0.1l3.99,8.2l-12.37-3.89c0,0-0.08,0.02-0.12,0.02c-1.22,0.24-2.51,0.37-3.83,0.37
			C308.16,400.01,301.22,394.66,301.22,388.06z"></path></g><g id="line-1"><path class="st4" d="M249.78,296.89c-23.16,0-45.02-7.52-63.23-21.75c-0.44-0.34-0.51-0.97-0.17-1.4c0.34-0.43,0.97-0.51,1.4-0.17
			c17.85,13.95,39.29,21.33,61.99,21.33c55.55,0,100.75-45.2,100.75-100.75c0-55.55-45.2-100.75-100.75-100.75
			c-55.55,0-100.75,45.2-100.75,100.75c0,15.48,3.42,30.34,10.18,44.17c0.24,0.5,0.04,1.1-0.46,1.34c-0.5,0.24-1.1,0.04-1.34-0.46
			c-6.89-14.1-10.38-29.26-10.38-45.05c0-56.66,46.09-102.75,102.75-102.75s102.75,46.09,102.75,102.75
			C352.53,250.8,306.44,296.89,249.78,296.89z"></path><path class="st4" d="M380.47,219.52h-31.45c-0.55,0-1-0.45-1-1s0.45-1,1-1h31.45c0.55,0,1,0.45,1,1S381.02,219.52,380.47,219.52z"></path><path class="st4" d="M150.36,219.52h-30.92c-0.55,0-1-0.45-1-1s0.45-1,1-1h30.92c0.55,0,1,0.45,1,1S150.91,219.52,150.36,219.52z"></path><path class="st4" d="M172.86,280.29c-12.96,0-23.5-10.54-23.5-23.5s10.54-23.5,23.5-23.5s23.5,10.54,23.5,23.5
			S185.82,280.29,172.86,280.29z M172.86,235.29c-11.85,0-21.5,9.65-21.5,21.5c0,11.86,9.65,21.5,21.5,21.5s21.5-9.64,21.5-21.5
			C194.36,244.94,184.71,235.29,172.86,235.29z"></path><path class="st4" d="M119.3,191.31c-0.2,0-0.4-0.06-0.57-0.18c-0.45-0.32-0.56-0.94-0.25-1.39c3.34-4.8,7.35-10.23,12.71-14
			c5.88-4.14,12.8-5.55,18.51-3.78c0.53,0.16,0.82,0.72,0.66,1.25c-0.16,0.53-0.72,0.82-1.25,0.66c-5.12-1.59-11.39-0.28-16.77,3.5
			c-5.09,3.58-8.97,8.85-12.21,13.5C119.93,191.16,119.62,191.31,119.3,191.31z"></path><path class="st4" d="M119.47,170.82c-0.15,0-0.31-0.03-0.45-0.11c-0.49-0.25-0.69-0.85-0.44-1.34c4.62-9.13,9.99-18,15.97-26.34
			c2.23-3.1,4.68-6.32,7.96-8.58c1.77-1.22,4.27-2,5.99-0.54c1.4,1.19,1.35,2.98,1.31,4.55c-0.03,1.22-0.06,2.38,0.56,3
			c0.48,0.48,1.36,0.64,2.63,0.46c0.22-0.03,0.43-0.07,0.65-0.1c1.05-0.17,2.23-0.36,3.41-0.02c1.78,0.5,3.13,2.23,3.19,4.1
			c0.02,0.55-0.41,1.02-0.96,1.03c-0.56,0.03-1.02-0.41-1.03-0.96c-0.04-1.01-0.78-1.97-1.74-2.24c-0.75-0.22-1.63-0.08-2.55,0.07
			c-0.23,0.04-0.46,0.07-0.69,0.11c-1.92,0.27-3.37-0.07-4.32-1.02c-1.23-1.23-1.19-2.95-1.15-4.47c0.04-1.5,0.02-2.45-0.6-2.98
			c-0.86-0.73-2.45-0.1-3.55,0.66c-3.01,2.08-5.34,5.14-7.47,8.1c-5.91,8.26-11.23,17.04-15.81,26.08
			C120.19,170.62,119.83,170.82,119.47,170.82z"></path><path class="st4" d="M139.29,107.02c-1.76,0-3.53-0.47-5.14-0.98c-5.51-1.77-10.78-4.29-15.65-7.46c-0.46-0.3-0.59-0.92-0.29-1.38
			c0.3-0.46,0.92-0.59,1.38-0.29c4.72,3.08,9.83,5.52,15.17,7.24c2.22,0.72,4.77,1.33,6.85,0.46c1.53-0.64,2.66-1.98,3.85-3.4
			c0.61-0.73,1.25-1.48,1.95-2.16c2.62-2.51,6.3-4.06,11.25-4.75c1.79-0.25,3.62-0.38,5.38-0.51c2.09-0.15,4.25-0.31,6.32-0.66
			c2.42-0.41,8.23-1.87,9.72-6.44c1.39-4.25-1.76-8.82-4.26-11.89c-2.71-3.32-5.66-6.54-8.76-9.58c-0.39-0.39-0.4-1.02-0.02-1.41
			c0.39-0.39,1.02-0.4,1.41-0.02c3.16,3.09,6.16,6.37,8.92,9.74c2.79,3.44,6.3,8.6,4.61,13.77c-1.83,5.61-8.5,7.32-11.28,7.79
			c-2.17,0.37-4.38,0.53-6.51,0.68c-1.73,0.12-3.52,0.25-5.25,0.49c-4.52,0.63-7.84,2.01-10.15,4.21c-0.63,0.6-1.2,1.28-1.8,2
			c-1.29,1.54-2.63,3.13-4.61,3.96C141.38,106.85,140.34,107.02,139.29,107.02z"></path><path class="st4" d="M119.17,146.73c-0.14,0-0.28-0.03-0.41-0.09c-0.5-0.23-0.72-0.82-0.49-1.32
			c4.67-10.23,13.88-18.28,24.63-21.53c0.68-0.21,1.37-0.4,2.07-0.6c3.93-1.1,8-2.25,9.87-5.48c0.94-1.63,1.2-3.61,1.48-5.71
			c0.37-2.78,0.75-5.65,2.83-7.75c2.62-2.63,6.55-2.67,10.01-2.71l0.1,0c4.97-0.07,9.96-0.56,14.83-1.45
			c2.68-0.5,5.35-1.22,6.78-3.18c0.99-1.36,1.33-3.32,0.92-5.36c-0.4-2.02-1.44-3.94-2.38-5.59c-4.37-7.63-9.81-14.53-16.18-20.53
			c-0.4-0.38-0.42-1.01-0.04-1.41c0.38-0.4,1.01-0.42,1.41-0.04c6.51,6.13,12.08,13.19,16.54,20.99c1.02,1.79,2.14,3.88,2.6,6.19
			c0.52,2.59,0.06,5.12-1.26,6.94c-1.84,2.52-4.95,3.39-8.04,3.96c-4.98,0.92-10.08,1.42-15.17,1.49l-0.11,0
			c-3.24,0.04-6.58,0.08-8.62,2.12c-1.61,1.62-1.92,4.04-2.26,6.6c-0.29,2.2-0.59,4.48-1.73,6.45c-2.27,3.94-6.94,5.25-11.06,6.4
			c-0.69,0.19-1.37,0.38-2.04,0.59c-10.21,3.09-18.95,10.73-23.39,20.45C119.91,146.51,119.55,146.73,119.17,146.73z"></path><path class="st4" d="M161.52,86.26c-0.36,0-0.74-0.02-1.13-0.07c-2.2-0.26-4.68-1.24-6.98-2.75c-2.31-1.51-4.19-3.4-5.3-5.31
			c-1.24-2.13-1.4-4.08-0.47-5.5l0,0c1.81-2.75,7.17-2.31,12.22,1c5.04,3.31,7.58,8.06,5.77,10.81
			C164.84,85.63,163.4,86.26,161.52,86.26z M149.31,73.72L149.31,73.72c-0.49,0.74-0.3,1.98,0.53,3.4c0.96,1.65,2.62,3.3,4.67,4.65
			c2.05,1.35,4.23,2.21,6.12,2.44c1.63,0.19,2.84-0.12,3.33-0.86c1-1.53-0.88-5.21-5.2-8.04C154.44,72.46,150.31,72.19,149.31,73.72
			z"></path><path class="st4" d="M172.8,271.96c-0.55,0-1-0.45-1-1v-25.72c0-0.55,0.45-1,1-1s1,0.45,1,1v25.72
			C173.8,271.51,173.35,271.96,172.8,271.96z"></path><path class="st4" d="M185.61,258.85h-25.04c-0.55,0-1-0.45-1-1s0.45-1,1-1h25.04c0.55,0,1,0.45,1,1S186.16,258.85,185.61,258.85z"></path><path class="st4" d="M263.7,93.23c-0.21,0-0.42-0.07-0.6-0.2c-9.08-6.84-17.38-12.51-27.04-12.69c-2.86-0.05-5.82,0.42-8.68,0.88
			c-3.86,0.62-7.85,1.27-11.84,0.67c-4.4-0.67-8.91-2.92-13.04-6.51c-3.69-3.21-6.68-7.03-9.57-10.73c-0.34-0.43-0.26-1.06,0.17-1.4
			c0.43-0.34,1.06-0.26,1.4,0.17c2.83,3.62,5.77,7.36,9.31,10.45c3.84,3.34,8,5.43,12.02,6.04c3.68,0.55,7.34-0.04,11.22-0.66
			c2.94-0.47,5.99-0.96,9.03-0.91c11.09,0.2,20.98,7.65,28.2,13.09c0.44,0.33,0.53,0.96,0.2,1.4C264.3,93.09,264,93.23,263.7,93.23z
			"></path><path class="st4" d="M301.92,104.24c-2.86,0-5.75-0.43-8.47-1.26c-0.53-0.16-0.83-0.72-0.66-1.25c0.16-0.53,0.72-0.83,1.25-0.67
			c3.14,0.96,6.54,1.34,9.8,1.1c1.05-0.07,2.51-0.27,3.19-1.16c0.31-0.4,0.49-0.98,0.56-1.79c0.1-1.14-0.05-2.3-0.21-3.52
			c-0.08-0.65-0.17-1.29-0.21-1.94c-0.2-2.61,0.31-4.65,1.5-6.07c1.8-2.15,4.77-2.49,7.16-2.56c2-0.05,4.03,0.02,6,0.09
			c3.1,0.11,6.31,0.23,9.4-0.16c2.33-0.3,4.08-0.82,5.5-1.65c1.7-0.99,2.9-2.48,3.29-4.08c0.47-1.89-0.1-4.16-1.73-6.92
			c-1.66-2.8-3.71-5.32-6.1-7.5c-0.41-0.37-0.44-1-0.07-1.41c0.37-0.41,1.01-0.44,1.41-0.07c2.54,2.31,4.72,4.99,6.48,7.96
			c1.91,3.24,2.55,6,1.95,8.42c-0.52,2.12-2.06,4.06-4.23,5.32c-1.66,0.97-3.65,1.58-6.26,1.91c-3.25,0.4-6.54,0.29-9.72,0.17
			c-1.93-0.07-3.93-0.14-5.87-0.09c-1.97,0.05-4.39,0.31-5.68,1.84c-0.85,1.01-1.19,2.56-1.04,4.63c0.05,0.61,0.12,1.22,0.2,1.83
			c0.16,1.28,0.33,2.6,0.22,3.95c-0.1,1.2-0.42,2.12-0.96,2.83c-1.17,1.53-3.21,1.84-4.63,1.94
			C303.3,104.22,302.61,104.24,301.92,104.24z"></path><path class="st4" d="M333.68,135.03c-0.5,0-0.93-0.37-0.99-0.88c-0.82-6.94-0.03-14.12,2.31-20.76c1.58-4.5,3.87-8.74,6.08-12.83
			c1.55-2.87,3.15-5.84,4.48-8.86c2.68-6.05,5.17-14.87,1.79-22.49c-0.87-1.95-1.94-3.16-3.2-3.6c-0.52-0.18-0.8-0.75-0.62-1.27
			s0.75-0.8,1.27-0.62c1.81,0.62,3.28,2.2,4.38,4.68c3.67,8.29,1.05,17.69-1.79,24.11c-1.36,3.08-2.98,6.09-4.55,9
			c-2.17,4.03-4.42,8.2-5.95,12.55c-2.24,6.35-3,13.22-2.21,19.86c0.07,0.55-0.33,1.05-0.88,1.11
			C333.76,135.03,333.72,135.03,333.68,135.03z"></path><path class="st4" d="M380.64,118.48c-0.07,0-0.13-0.01-0.2-0.02c-2.62-0.54-4.96-2.14-6.43-4.4c-0.36-0.56-0.67-1.15-0.96-1.72
			c-0.47-0.91-0.91-1.78-1.55-2.42c-0.89-0.89-2.14-1.36-3.47-1.86c-0.66-0.25-1.35-0.51-2.01-0.83c-4.42-2.15-7.17-7.06-6.7-11.95
			c0.23-2.35,1.14-4.51,2.01-6.59c0.43-1.03,0.88-2.09,1.22-3.15c2.26-6.9,0.39-15.03-4.66-20.25c-0.38-0.4-0.37-1.03,0.02-1.41
			c0.4-0.38,1.03-0.37,1.41,0.02c5.55,5.74,7.61,14.69,5.12,22.27c-0.37,1.13-0.83,2.23-1.28,3.3c-0.85,2.04-1.66,3.96-1.86,6.01
			c-0.39,4,1.96,8.19,5.58,9.95c0.58,0.28,1.19,0.51,1.84,0.76c1.47,0.55,2.98,1.12,4.18,2.32c0.87,0.87,1.4,1.91,1.92,2.92
			c0.28,0.55,0.54,1.06,0.85,1.54c1.17,1.81,3.05,3.1,5.15,3.52c0.54,0.11,0.89,0.64,0.78,1.18
			C381.52,118.15,381.11,118.48,380.64,118.48z"></path><path class="st4" d="M340.72,149.3c-0.5,0-0.94-0.38-0.99-0.89c-0.85-7.72-1.33-15.18,2.12-21.46c0.94-1.7,1.94-2.84,3.14-3.56
			c1.63-0.99,3.54-1.13,4.84-1.15c0.13,0,0.26,0,0.39,0c7.59,0,14,3.73,18.07,6.89c5.09,3.94,9.09,8.81,13.42,14.3
			c0.34,0.43,0.27,1.06-0.17,1.4c-0.43,0.34-1.06,0.27-1.4-0.17c-4.25-5.39-8.17-10.15-13.08-13.96c-3.89-3.02-10-6.58-17.21-6.47
			c-1.69,0.02-2.91,0.29-3.83,0.85c-0.89,0.54-1.66,1.44-2.43,2.82c-3.17,5.77-2.7,12.88-1.88,20.28c0.06,0.55-0.34,1.04-0.88,1.1
			C340.79,149.3,340.75,149.3,340.72,149.3z"></path><path class="st4" d="M380.99,176.57c-3.48,0-6.27-2.45-8.54-4.87l-0.22-0.23c-2.04-2.17-4.15-4.41-6.86-4.86
			c-1.77-0.29-3.63,0.22-5.59,0.75c-2.48,0.68-5.04,1.39-7.59,0.42c-3.08-1.17-4.77-4.42-5.89-6.57c-0.25-0.49-0.06-1.09,0.42-1.35
			c0.49-0.26,1.09-0.06,1.35,0.43c1.3,2.49,2.64,4.8,4.83,5.63c1.94,0.73,4.08,0.14,6.35-0.48c2.08-0.57,4.24-1.16,6.45-0.8
			c3.37,0.56,5.82,3.16,7.99,5.46l0.22,0.23c2.03,2.15,4.48,4.35,7.28,4.24c0.6-0.02,1.02,0.41,1.03,0.96
			c0.02,0.55-0.41,1.02-0.96,1.03C381.16,176.57,381.07,176.57,380.99,176.57z"></path><path class="st4" d="M381,209.67c-0.27,0-0.55-0.11-0.74-0.33c-4.78-5.32-11.59-8.97-18.68-10c-2.16-0.32-3.82-0.29-5.22,0.11
			c-1.7,0.48-3.03,1.58-3.56,2.92c-0.21,0.51-0.79,0.76-1.3,0.56c-0.51-0.2-0.76-0.79-0.56-1.3c0.76-1.91,2.58-3.45,4.88-4.1
			c2.22-0.63,4.52-0.4,6.06-0.17c7.54,1.1,14.78,4.97,19.88,10.64c0.37,0.41,0.33,1.04-0.08,1.41
			C381.48,209.59,381.24,209.67,381,209.67z"></path><path class="st4" d="M381.29,206.09c-0.29,0-0.58-0.13-0.78-0.37c-7.63-9.42-17.13-21.15-29.87-26.05
			c-0.52-0.2-0.77-0.78-0.58-1.29s0.78-0.77,1.29-0.57c13.24,5.09,22.93,17.05,30.71,26.65c0.35,0.43,0.28,1.06-0.15,1.41
			C381.73,206.02,381.51,206.09,381.29,206.09z"></path><path class="st4" d="M294.42,74.58c-0.63,0-1.24-0.04-1.82-0.09c-9.39-0.81-18.11-5.39-25.8-9.43c-0.49-0.26-0.68-0.86-0.42-1.35
			c0.26-0.49,0.86-0.68,1.35-0.42c7.52,3.95,16.05,8.43,25.04,9.21c1.28,0.11,2.78,0.17,4.12-0.24c1.3-0.39,2.34-1.22,2.78-2.22
			c0.55-1.26,0.31-2.9-0.76-5.14c-0.24-0.5-0.03-1.1,0.47-1.33c0.5-0.24,1.09-0.02,1.33,0.47c0.84,1.77,1.83,4.39,0.78,6.8
			c-0.68,1.56-2.16,2.78-4.04,3.34C296.46,74.49,295.41,74.58,294.42,74.58z"></path><path class="st4" d="M381.55,437.48h-263c-0.55,0-1-0.45-1-1V63.98c0-0.55,0.45-1,1-1h263c0.55,0,1,0.45,1,1v372.5
			C382.55,437.03,382.1,437.48,381.55,437.48z M119.55,435.48h261V64.98h-261V435.48z"></path></g><g id="line-2"><path class="st0" d="M169.96,351.09c-1.02,0-1.87-0.37-2.48-1.1c-1.09-1.33-0.73-3.09-0.29-4.49c1.67-5.3,3.96-10.43,6.78-15.26
			c-10.12,6.37-21.41,10.88-33.13,13.15c-0.54,0.11-1.07-0.25-1.17-0.79c-0.1-0.54,0.25-1.07,0.79-1.17
			c12.9-2.5,25.27-7.78,36.07-15.28c4-5.96,8.83-11.37,14.3-15.93c0.2-0.16,0.45-0.24,0.7-0.23c0.83,0.05,1.47,0.51,1.76,1.25
			c0.52,1.33-0.24,3.28-1.25,4.32c-4.28,4.44-9,8.46-14.06,12.01c-3.81,5.74-6.84,12.01-8.89,18.53c-0.26,0.84-0.56,2.02-0.07,2.62
			c0.67,0.81,2.4,0.17,3.68-0.63l38.34-23.5c0.37-0.23,0.85-0.19,1.18,0.1c0.33,0.29,0.43,0.76,0.26,1.16l-0.43,0.96
			c-1.57,3.54-3.14,7.08-4.7,10.61c-0.29,0.66-0.38,1.08-0.27,1.25c0.09,0.12,0.44,0.24,1.01,0.18c1.69-0.15,3.25-0.9,4.91-1.7
			c1.37-0.66,2.79-1.34,4.34-1.7c2.09-0.48,4.21-0.32,6.26-0.17c2.2,0.16,4.28,0.31,6.21-0.29c0.94-0.29,1.85-0.76,2.81-1.25
			c1.72-0.88,3.49-1.79,5.56-1.7c1.15,0.05,2.2,0.41,3.21,0.76c0.58,0.2,1.14,0.39,1.69,0.52c2.71,0.62,5.62-0.29,7.85-1.16
			c4.91-1.89,9.49-4.61,13.53-7.97c2.26-4.46,5.42-8.97,10.19-11.47c0.4-0.21,0.89-0.13,1.2,0.21c0.31,0.33,0.35,0.83,0.11,1.21
			c-2.71,4.25-6.06,8.07-9.9,11.31c-0.65,1.31-1.23,2.62-1.74,3.86c-0.4,0.96-0.79,1.94-1.18,2.91c-0.95,2.37-1.91,4.77-3.05,7.08
			c5.34-4.47,11.4-8.09,17.87-10.64c0.31-0.12,0.67-0.08,0.95,0.12c0.28,0.2,0.43,0.52,0.42,0.86l-0.07,1.42
			c6.3-1.09,12.06-1.88,17.87-1.24c1.32,0.14,2.65,0.36,3.93,0.58c1.52,0.25,3.09,0.52,4.62,0.64c10.33,0.87,21.17-4.81,26.35-13.79
			c0.23-0.4,0.69-0.59,1.14-0.46c0.44,0.12,0.74,0.53,0.73,0.98c-0.11,5.04-0.47,10.08-1.09,15.08c0.3-0.2,0.62-0.39,0.94-0.55
			c3.94-2,8.62-1.65,12.67-1.04c0.55,0.08,0.92,0.59,0.84,1.14c-0.08,0.55-0.59,0.92-1.14,0.84c-3.93-0.59-8.04-0.9-11.47,0.84
			c-0.83,0.42-1.6,1.02-2.24,1.73c-0.38,2.62-0.83,5.22-1.35,7.8c-0.08,0.41-0.41,0.73-0.83,0.79c-0.42,0.06-0.82-0.14-1.03-0.5
			c-0.91-1.65-1.08-3.65-0.47-5.64c0.36-1.17,0.98-2.3,1.78-3.29c0.64-4.55,1.07-9.14,1.28-13.73
			c-6.08,7.99-16.23,12.66-26.27,11.81c-1.62-0.13-3.23-0.4-4.79-0.66c-1.25-0.21-2.55-0.43-3.81-0.56
			c-5.93-0.65-11.9,0.27-18.54,1.44c-0.3,0.06-0.61-0.03-0.83-0.23c-0.23-0.2-0.35-0.49-0.34-0.8l0.05-1.11
			c-8.28,3.5-15.81,8.83-21.89,15.48c-0.1,0.12-0.21,0.24-0.32,0.35c-0.38,0.4-1,0.43-1.41,0.06c-0.41-0.37-0.44-1-0.07-1.41
			c0.1-0.11,0.2-0.23,0.31-0.34c3.44-3.87,5.46-8.91,7.41-13.78c0.39-0.98,0.79-1.96,1.19-2.94c0.06-0.15,0.12-0.3,0.19-0.45
			c-3.41,2.42-7.11,4.43-11.02,5.93c-2.5,0.96-5.77,1.98-9.01,1.24c-0.66-0.15-1.29-0.37-1.9-0.58c-0.92-0.32-1.78-0.61-2.64-0.65
			c-1.55-0.06-3.01,0.69-4.56,1.49c-1,0.51-2.02,1.04-3.13,1.38c-2.3,0.71-4.66,0.54-6.95,0.37c-1.99-0.14-3.87-0.28-5.66,0.13
			c-1.33,0.31-2.59,0.91-3.93,1.55c-1.75,0.84-3.55,1.71-5.59,1.89c-1.3,0.13-2.31-0.25-2.86-1.06c-0.78-1.16-0.18-2.52,0.1-3.17
			c1.28-2.88,2.56-5.76,3.83-8.64l-35.6,21.82C172.37,350.66,171.07,351.09,169.96,351.09z M191.47,312.31
			c-3.41,2.92-6.56,6.18-9.4,9.7c3.01-2.43,5.87-5.04,8.55-7.83C191.15,313.64,191.43,312.81,191.47,312.31z"></path><path class="st0" d="M175.51,393.19c-0.31,0-0.61-0.06-0.88-0.21c-0.4-0.22-0.65-0.58-0.73-1.03c-0.11-0.59,0.19-1.07,0.35-1.32
			l1.08-1.65c-1.9,0.96-3.8,1.96-5.68,2.99c-0.48,0.26-1.09,0.09-1.36-0.4c-0.27-0.48-0.09-1.09,0.4-1.36
			c2.98-1.64,6.02-3.2,9.04-4.63c0.4-0.19,0.89-0.09,1.18,0.24c0.29,0.34,0.33,0.83,0.08,1.21l-2.47,3.78l6.62-2.9
			c0.3-0.13,0.64-0.11,0.92,0.06c0.28,0.17,0.46,0.46,0.48,0.79l0.09,1.2c0.85-0.11,1.7-0.42,2.6-0.75
			c1.05-0.38,2.13-0.77,3.31-0.89c0.99-0.1,1.98,0.01,2.94,0.11c1.45,0.16,2.82,0.3,3.85-0.33c0.47-0.29,1.09-0.15,1.38,0.32
			c0.29,0.47,0.15,1.09-0.32,1.38c-1.61,1-3.39,0.81-5.12,0.62c-0.9-0.1-1.74-0.19-2.53-0.11c-0.93,0.09-1.84,0.42-2.82,0.78
			c-1.34,0.49-2.73,0.99-4.27,0.9c-0.5-0.03-0.9-0.43-0.93-0.93l-0.06-0.75l-6,2.62C176.33,393.09,175.92,393.19,175.51,393.19z
			 M175.86,391.85L175.86,391.85L175.86,391.85z"></path><path class="st0" d="M260.84,392.53c-0.41,0-0.82-0.04-1.25-0.13c-0.33-0.07-0.6-0.31-0.72-0.62c-0.12-0.32-0.07-0.67,0.13-0.94
			c0.18-0.25,0.36-0.49,0.55-0.73c-1.24,0.68-2.51,1.33-3.8,1.93c-0.5,0.23-1.1,0.02-1.33-0.48c-0.23-0.5-0.02-1.09,0.48-1.33
			c3.9-1.82,7.6-4.04,11.03-6.62c0.38-0.31,0.77-0.6,1.16-0.9c0.44-0.32,1.06-0.24,1.39,0.2s0.25,1.05-0.17,1.39
			c-0.38,0.3-0.76,0.6-1.15,0.89c-1.95,1.56-3.72,3.31-5.3,5.23c1.04-0.23,2.11-0.77,3.21-1.33c1.66-0.84,3.37-1.71,5.3-1.73
			c0.34-0.01,0.7,0.19,0.88,0.5s0.18,0.7-0.01,1.01l-0.87,1.46c0.3-0.01,0.61-0.04,0.91-0.06l10.67-0.86
			c0.54-0.04,1.03,0.36,1.08,0.92c0.04,0.55-0.37,1.03-0.92,1.08l-10.67,0.86c-0.91,0.07-1.94,0.15-2.96-0.03
			c-0.32-0.06-0.6-0.27-0.73-0.57s-0.12-0.64,0.05-0.93l0.58-0.96c-0.79,0.29-1.59,0.69-2.41,1.1
			C264.35,391.68,262.68,392.53,260.84,392.53z"></path><path class="st0" d="M356.53,397.74c-0.02,0-0.03,0-0.05,0c-0.54-0.03-0.96-0.47-0.95-1.01c0.02-2.03,0.51-3.92,1.31-5.76
			l-4.23,1.22c-0.42,0.12-0.92,0.25-1.47,0.19c-0.23-0.03-0.43-0.09-0.63-0.15l-0.19-0.06c-0.25-0.07-0.49-0.09-0.76-0.08
			c-0.64,0.04-1.32,0.37-2.04,0.71c-1.08,0.51-2.29,1.09-3.67,0.79c-0.26-0.05-0.49-0.21-0.64-0.44c-0.15-0.23-0.19-0.5-0.13-0.76
			c0.08-0.36,0.19-0.71,0.31-1.06c-0.93,0.5-1.89,0.97-2.85,1.4c-0.5,0.23-1.1,0-1.32-0.5c-0.23-0.5,0-1.1,0.5-1.32
			c2.03-0.92,4-1.98,5.88-3.19c0.98-1.04,2.17-1.88,3.5-2.43c0.46-0.19,1-0.01,1.25,0.43c0.25,0.43,0.14,0.99-0.26,1.29
			c-1.04,0.8-2.1,1.55-3.2,2.26c-0.59,0.66-1.07,1.42-1.42,2.23c0.38-0.13,0.78-0.32,1.21-0.52c0.82-0.39,1.74-0.82,2.77-0.89
			c0.5-0.02,0.97,0.02,1.41,0.15c0.07,0.02,0.17,0.05,0.25,0.08c0.09,0.03,0.19,0.06,0.28,0.08c0.15,0.01,0.4-0.06,0.67-0.13
			l5.08-1.47c0.31-0.09,0.6-0.18,0.78-0.3c0.21-0.14,0.4-0.39,0.58-0.67c0.74-1.23,1.58-2.45,2.46-3.71
			c0.31-0.45,0.93-0.56,1.38-0.25c0.45,0.31,0.57,0.93,0.27,1.38c-0.48,0.71-0.95,1.43-1.42,2.14l-0.94,1.42
			c-0.01,0.02-0.03,0.04-0.04,0.07c-0.01,0.01-0.02,0.03-0.02,0.04c0.24-0.01,0.45,0.02,0.62,0.06c0.45,0.11,0.77,0.35,1.04,0.54
			c0.07,0.05,0.14,0.1,0.21,0.14c0.61,0.38,1.57,0.24,2.05-0.32c0.36-0.42,0.99-0.47,1.41-0.11c0.42,0.36,0.47,0.99,0.11,1.41
			c-1.13,1.31-3.17,1.62-4.64,0.71c-0.11-0.07-0.2-0.14-0.3-0.21c-0.13-0.09-0.29-0.2-0.36-0.22c-0.06-0.02-0.39,0.12-0.8,0.67
			c-1.11,1.51-1.82,3.37-1.98,5.23C357.48,397.35,357.05,397.74,356.53,397.74z"></path></g></g></svg>