<svg transform="scale(1)" version="1.1" id="_x30_112_x5F_hiring" xmlns="http://www.w3.org/2000/svg" xmlns:xlink="http://www.w3.org/1999/xlink" x="0px" y="0px" width="500px" height="500px" viewBox="0 0 500 500" xml:space="preserve" class="show_show__wrapper__graphic__5Waiy "><title>React</title><style type="text/css">
	.st0{fill:#F8F9FA;}
	.st1{fill:#495057;}
	.st2{fill:#495057;}
	.st3{fill:#343A40;}
	.st4{fill:#212529;}
</style><g id="character-1"><g id="colors_1_"><path class="st0" d="M356.56,237.93c1.36-1.29,2.04-3.12,2.62-4.9c1.71-5.29,2.91-10.75,3.75-16.28
			c-0.88-2.48-0.08-5.47,2.21-7.03c-1.24-1.33-1.92-3.1-2.23-4.9c-0.31-1.79-0.28-3.62-0.27-5.44c0.01-1.96,0.02-4.01,0.94-5.74
			c0.93-1.73,3.12-2.95,4.89-2.11c1.59,0.76,2.14,2.71,2.51,4.43c0.13,0.59,0.26,1.19,0.71,2.38c0.59-2.56,1.33-5.35,3.48-6.86
			c0.6-0.42,1.27-0.71,1.88-1.11c1-0.65,1.8-1.55,2.56-2.47c3.58-4.38,6.46-9.62,11.36-12.42c4.23-2.41,9.32-2.63,14.38-2.83
			c1.45,0.38,3.06-0.35,4.47,0.18c0.79,0.29,1.39,0.94,1.86,1.63c1.73,2.5,2.12,5.68,2.3,8.71c0.14,2.42,0.17,4.84,0.16,7.61
			c-9.94,4.36-21.25,4.08-32.05,3.01c-0.42-0.04-0.85-0.08-1.24,0.05c-0.42,0.14-0.75,0.47-1.02,0.81
			c-1.72,2.13-1.87,5.09-1.77,7.82c0.04,1.08,0.11,2.17,0.48,3.18c0.37,1.01,1.08,1.95,2.07,2.35c0,0,5.54,2.21,5.61,2.02
			c8.1,3.16,17.04,3.25,25.19,5.14c-0.35,2.46-0.91,4.89-1.68,7.25l3.39,2.74c0,0-3.8-0.23-3.9-0.15c-0.99,3.14-2.14,6.23-3.46,9.25
			c-0.1,0.23-0.23,0.49-0.86,0.93c-0.94,2.11-2.28,4.05-3.92,5.68c0,0-10.25-1.93-10.24-1.92c-1.89,6.61-4.39,13.05-7.45,19.2
			c-0.24,0.47-0.49,0.97-0.93,1.27c-0.49,0.35-1.12,0.4-1.72,0.42c-5.92,0.19-11.88-1.88-16.4-5.69
			C359.69,250.34,356.63,244.82,356.56,237.93z"></path><path class="st0" d="M434.46,184.22c-2.15-0.67-4.43-0.77-6.68-0.87c-1.24-0.05-2.5-0.11-3.73,0.12
			c-3.48,0.66-6.08,3.48-8.42,6.14c-0.53,0.6-1.1,1.44-0.71,2.14c0.29,0.52,0.98,0.67,1.57,0.59c0.14-0.02,0.29-0.05,0.41,0.03
			c0.23,0.14,0.15,0.48,0.18,0.75c0.06,0.53,0.64,0.86,1.18,0.87c0.53,0.01,1.04-0.21,1.56-0.34s1.12-0.14,1.53,0.21
			c0.18,0.16,0.3,0.38,0.48,0.55c0.29,0.27,0.69,0.38,1.08,0.43c0.71,0.1,1.43,0.04,2.12-0.16c0.52-0.15,1.04-0.39,1.58-0.38
			c0.42,0.01,0.83,0.17,1.24,0.23c1.96,0.29,3.82-1.61,5.75-1.14c0.86,0.21,1.55,0.87,2.09,1.58c1.04,1.33,1.76,2.88,2.19,4.51
			c0.11,0.42,0.22,0.89,0.56,1.16c0.37,0.3,0.9,0.28,1.37,0.24c0.73-0.05,1.46-0.11,2.19-0.16c0.34-0.03,0.7-0.05,1-0.22
			c0.34-0.18,0.57-0.52,0.76-0.85c1.03-1.82,1.22-3.99,1.14-6.08c-0.04-1.07-0.16-2.15-0.6-3.12c-0.64-1.4-1.89-2.42-3.18-3.25
			C439.1,185.91,436.87,184.97,434.46,184.22z"></path><path class="st1" d="M414.56,190.53c-4.96,2.54-10.57,3.56-16.13,3.82c-5.56,0.26-11.13-0.21-16.69-0.48
			c-0.57-0.03-1.19-0.04-1.67,0.27c-0.52,0.34-0.75,0.97-0.95,1.55c-0.71,2.09-1.43,4.23-1.44,6.44s0.83,4.54,2.66,5.78l11.57,3.78
			l19.59,3.32c0,0,9.16,0.79,9.43,0.68c0.79,0.14,1.61,0.16,2.38-0.04c1.38-0.37,2.49-1.44,3.22-2.67s1.12-2.63,1.5-4.01
			c0,0,0.17-2.59,0.19-2.89c0.53,0.79,0.88,1.68,1.3,2.53s0.91,1.69,1.65,2.29c0.74,0.6,1.76,0.91,2.66,0.59
			c0.64-0.22,1.13-0.73,1.6-1.21c0.71-0.74,1.43-1.51,1.78-2.46c0,0,1.04-7.37,0.86-7.45c-0.5-1.87-1.02-3.8-2.21-5.33
			c-0.56-0.72-1.3-1.35-2.19-1.57c-1.57-0.38-3.11,0.58-4.69,0.88c-0.42,0.08-0.86,0.11-1.28,0.02c-0.29-0.07-0.57-0.2-0.87-0.26
			c-0.68-0.12-1.35,0.19-2,0.43c-1.09,0.4-2.47,0.57-3.28-0.27c-0.19-0.2-0.35-0.45-0.61-0.54c-0.17-0.06-0.36-0.04-0.54-0.02
			c-0.55,0.06-1.1,0.13-1.65,0.19c-0.69,0.08-1.59,0.03-1.81-0.62c-0.09-0.26-0.04-0.57-0.22-0.77c-0.24-0.27-0.66-0.15-1.02-0.17
			C414.94,192.27,414.36,191.36,414.56,190.53z"></path><path class="st2" d="M362.21,217.41c-2.17,0.55-4.96,0.64-6.09-1.29c-0.55-0.94-0.51-2.1-0.67-3.17
			c-0.25-1.67-1.02-3.22-1.77-4.73c-1.34-2.69-2.69-5.38-4.34-7.89c-1.49-2.26-3.24-4.4-4.05-6.98c-1.71-5.47,1.21-11.18,2.19-16.83
			c0.46-2.64,0.52-5.46,1.93-7.73c2.23-3.59,7.01-4.61,10.04-7.56c1.95-1.91,3.24-4.67,5.78-5.68c1.33-0.53,2.82-0.49,4.24-0.66
			c4.39-0.52,8.23-3.05,12.19-5.01s8.66-3.41,12.73-1.67c1.47,0.63,2.75,1.64,4.16,2.4c3.73,2.03,8.32,2.31,11.51,5.24
			c1.59-0.13,3.23-0.17,4.75,0.33s2.9,1.65,3.31,3.19c0.6,2.3-1.04,4.65-0.81,7.01c0.14,1.42,0.95,2.68,1.29,4.07
			c0.48,1.91,0.05,3.93-0.61,5.78c-0.98,2.75-2.46,5.31-4.66,7.47c0.06-1.92,0.12-3.87-0.38-5.73c-0.5-1.85-1.66-3.63-3.41-4.41
			c-1.33-0.59-2.85-0.55-4.31-0.5c-3.72,0.13-7.47,0.26-11.06,1.26c-3.58,1-7.02,2.97-9.41,6.69c-1.24,1.62-2.47,3.23-3.71,4.85
			c-1.06,1.38-2.14,2.78-3.59,3.74c-0.93,0.62-2,1.04-2.83,1.79c-1.73,1.57-2.05,4.25-3.85,6.11c-0.28-1.86-0.65-3.9-2.11-5.09
			c-1.64-1.33-4.39-0.93-5.57,0.82c-0.73,1.07-0.86,2.43-0.94,3.72c-0.27,4.45,0.02,9.38,3.07,12.64c-1.18,0.55-1.97,1.72-2.36,2.96
			C362.48,213.79,362.44,215.11,362.21,217.41z"></path><path class="st3" d="M306.99,378.95c-3.13-11.59-2.67-23.81-2.05-35.79c1.09-21.04,2.69-42.44,10.33-62.07
			c7.64-19.63,22.29-37.56,42.04-44.08c-0.11,2.17,0.72,4.28,1.74,6.2c3.4,6.39,9.13,11.5,15.86,14.16
			c2.45,0.97,5.14,1.62,7.71,1.05l7.47-19.51c0,0,1.63,0.59,1.73,0.78c1.59,0.52,3.24,0.84,4.91,0.94c1.85,0.12,3.85-0.09,5.26-1.29
			c0.53-0.45,0.94-1.02,1.33-1.59c1.01-1.45,1.97-2.95,2.85-4.49l31.59-7.47c0,0,1.32-0.46,1.23-0.56
			c0.82-3.29,1.65-6.65,1.48-10.04c-0.15-3.02-1.12-6-2.76-8.48c0.39-2.13,0.62-4.29,0.76-6.38c0.73,0.22,1.46,0.44,2.21,0.52
			s1.54,0.02,2.23-0.31c0.73-0.35,1.31-0.99,1.59-1.74c0.22-0.57,0.27-1.2,0.32-1.81c0.18-2.39,0.25-4.88-0.5-7.08
			c4.8,3.34,8.04,8.49,10.56,13.77c2.78,5.83,4.84,12,6.16,18.61c0.77,5.79,0.31,11.74-1.36,17.34c-0.61,2.05-1.58,4.27-3.57,5.07
			c0,0-45.8,17.72-45.59,18.47c-7.53,38.14-9.88,77.29-6.97,116.05L306.99,378.95z"></path></g><g id="line_3_"><path class="st0" d="M338.43,268.64c-0.09,0-0.17-0.02-0.25-0.07c-0.24-0.14-0.32-0.45-0.18-0.68
			c4.51-7.65,9.56-15.06,15.01-22.01c0.17-0.22,0.48-0.26,0.7-0.08c0.22,0.17,0.25,0.48,0.08,0.7c-5.42,6.92-10.45,14.29-14.93,21.9
			C338.77,268.55,338.61,268.64,338.43,268.64z"></path><path class="st0" d="M379.6,262.06c-4.28,0-8.83-1.51-12.83-4.4c-5.48-3.97-9.28-9.72-12.57-15.34c-0.14-0.24-0.06-0.54,0.18-0.68
			c0.24-0.14,0.54-0.06,0.68,0.18c3.24,5.53,6.96,11.18,12.29,15.04c5.78,4.18,12.75,5.35,18.17,3.05c0.25-0.1,0.55,0.01,0.66,0.27
			c0.11,0.25-0.01,0.55-0.27,0.66C383.96,261.65,381.81,262.06,379.6,262.06z"></path><path class="st0" d="M352.15,297.82c-0.18,0-0.35-0.09-0.44-0.26c-3.48-6.32-6.74-11.92-11.39-16.43
			c-5.29-5.15-11.75-7.87-17.73-7.42c-0.25,0.02-0.51-0.19-0.54-0.46c-0.02-0.28,0.19-0.51,0.46-0.54c6.25-0.46,13,2.35,18.5,7.7
			c4.75,4.61,8.05,10.28,11.57,16.67c0.13,0.24,0.05,0.55-0.2,0.68C352.32,297.8,352.24,297.82,352.15,297.82z"></path><path class="st0" d="M344.77,375.88c-0.26,0-0.48-0.21-0.5-0.47c-1.33-24.08,1.44-48.02,8.23-71.15c0.08-0.26,0.36-0.42,0.62-0.34
			c0.27,0.08,0.42,0.36,0.34,0.62c-6.76,23.02-9.51,46.85-8.19,70.81c0.02,0.28-0.2,0.51-0.47,0.53
			C344.79,375.88,344.78,375.88,344.77,375.88z"></path><path class="st0" d="M449.69,235.61c-0.18,0-0.35-0.09-0.44-0.26c-2.12-3.91-5.51-7.11-9.52-9c-0.25-0.12-0.36-0.42-0.24-0.67
			c0.12-0.25,0.41-0.36,0.67-0.24c4.21,1.98,7.75,5.32,9.98,9.42c0.13,0.24,0.04,0.55-0.2,0.68
			C449.86,235.59,449.78,235.61,449.69,235.61z"></path><path class="st4" d="M400.3,240.93c-4.91,0-9.76-1.12-14.45-3.32c-4.19-1.97-8.34-4.84-12.7-8.76c-0.21-0.18-0.22-0.5-0.04-0.71
			c0.19-0.21,0.5-0.22,0.71-0.04c4.29,3.86,8.36,6.67,12.46,8.6c4.77,2.24,9.7,3.33,14.71,3.22c1.93-2.73,6.6-11.22,7.12-13.47
			c0.06-0.27,0.33-0.44,0.6-0.37c0.27,0.06,0.44,0.33,0.37,0.6c-0.6,2.6-5.71,11.68-7.43,14.03c-0.09,0.12-0.23,0.2-0.39,0.2
			C400.94,240.92,400.62,240.93,400.3,240.93z"></path><path class="st4" d="M410.04,221.26c-0.06,0-0.12-0.01-0.18-0.03c-0.26-0.1-0.38-0.39-0.28-0.65l0.39-0.99
			c0.44-1.14,0.89-2.27,1.34-3.41c0.1-0.26,0.39-0.38,0.65-0.28c0.26,0.1,0.38,0.39,0.28,0.65c-0.45,1.13-0.89,2.27-1.33,3.4
			l-0.39,0.99C410.43,221.14,410.24,221.26,410.04,221.26z"></path><path class="st4" d="M416.01,226.77c-0.03,0-0.06,0-0.09-0.01c-5.32-0.99-10.63-2.38-15.79-4.14c-0.26-0.09-0.4-0.37-0.31-0.63
			c0.09-0.26,0.37-0.4,0.63-0.31c3.73,1.27,7.54,2.35,11.38,3.22c-3.75-2.33-6.63-6.02-7.88-10.3c-0.08-0.27,0.08-0.54,0.34-0.62
			c0.27-0.08,0.54,0.08,0.62,0.34c1.55,5.32,5.97,9.82,11.25,11.48c0.25,0.08,0.4,0.34,0.34,0.6
			C416.44,226.62,416.24,226.77,416.01,226.77z"></path><path class="st4" d="M419.78,216.54c-0.64,0-1.26-0.07-1.8-0.13c-8.28-0.9-16.56-2.22-24.62-3.92c-4.78-1.01-9.82-2.22-14.22-4.83
			c-0.07-0.04-0.13-0.1-0.17-0.17c-2.5-4.14-2.26-9.63,0.57-13.37c0.79-1.03,2.2-0.98,3.46-0.78c8.22,1.23,16.51,0.96,24.64-0.81
			c1.72-0.38,3.7-0.87,5.33-1.94c0.23-0.15,0.54-0.09,0.69,0.14c0.15,0.23,0.09,0.54-0.14,0.69c-1.78,1.17-3.86,1.68-5.67,2.08
			c-8.24,1.8-16.65,2.07-25,0.83c-0.98-0.15-2.05-0.22-2.52,0.4c-2.57,3.38-2.8,8.36-0.57,12.14c4.25,2.49,9.15,3.66,13.81,4.65
			c8.02,1.69,16.27,3,24.52,3.9c1.07,0.12,1.97,0.19,2.84,0.02c0.27-0.05,0.53,0.12,0.59,0.39c0.05,0.27-0.12,0.53-0.39,0.59
			C420.68,216.5,420.22,216.54,419.78,216.54z"></path><path class="st4" d="M393.11,210.97c-0.21,0-0.4-0.13-0.47-0.34c-0.89-2.56-1.27-5.36-1.1-8.1c0.11-1.54,0.5-3.71,2.76-4.77
			c0.06-0.03,0.12-0.04,0.18-0.05c6.29-0.36,14.11-0.81,19.97-4.77c0.23-0.16,0.54-0.1,0.69,0.13c0.15,0.23,0.09,0.54-0.13,0.69
			c-6.05,4.1-13.98,4.58-20.37,4.94c-1.31,0.66-1.96,1.86-2.1,3.89c-0.17,2.6,0.2,5.26,1.04,7.7c0.09,0.26-0.05,0.55-0.31,0.64
			C393.22,210.96,393.17,210.97,393.11,210.97z"></path><path class="st4" d="M423.2,195.36c-0.03,0-0.06,0-0.09,0c-0.96-0.02-1.69-0.35-2.03-0.95c-0.08-0.13-0.13-0.27-0.17-0.42
			c-0.86,0.38-1.84,0.57-2.8,0.52c-0.41-0.02-0.92-0.1-1.3-0.48c-0.29-0.29-0.44-0.68-0.44-1.14c0-0.06,0-0.12,0.01-0.18
			c-0.86,0.11-1.56-0.13-1.94-0.69c-0.21-0.29-0.31-0.68-0.28-1.13c0.08-1.11,0.94-1.92,1.73-2.59l5.62-4.75
			c0.21-0.18,0.53-0.15,0.7,0.06c0.18,0.21,0.15,0.53-0.06,0.7l-5.62,4.75c-0.67,0.56-1.32,1.17-1.37,1.9
			c-0.01,0.2,0.02,0.38,0.1,0.49c0.28,0.41,1.04,0.33,1.61,0.13c0.18-0.06,0.37-0.02,0.51,0.11c0.13,0.13,0.19,0.32,0.13,0.5
			c-0.08,0.28-0.13,0.5-0.13,0.7c0,0.13,0.03,0.32,0.14,0.44c0.14,0.14,0.42,0.17,0.65,0.18c1.08,0.05,2.19-0.25,3.05-0.83
			c0.19-0.13,0.44-0.11,0.61,0.04c0.17,0.15,0.21,0.4,0.11,0.61c-0.09,0.17-0.09,0.41,0.01,0.57c0.23,0.4,0.91,0.45,1.19,0.46
			c1.31,0.04,2.6-0.5,3.81-1.05c0.18-0.08,0.4-0.05,0.55,0.08s0.2,0.35,0.13,0.54c0.13,0.04,0.33,0.05,0.4,0.05
			c0.82,0.04,1.68-0.23,2.39-0.5c2.03-0.77,3.88-1.86,5.51-3.23c0.21-0.18,0.53-0.15,0.7,0.06c0.18,0.21,0.15,0.53-0.06,0.7
			c-1.72,1.45-3.67,2.6-5.81,3.41c-0.81,0.3-1.79,0.61-2.79,0.56c-0.26-0.01-0.58-0.05-0.88-0.24c-0.11-0.08-0.21-0.17-0.29-0.28
			C425.68,194.95,424.47,195.36,423.2,195.36z"></path><path class="st4" d="M438.03,189c-0.11,0-0.22-0.03-0.31-0.11c-3.5-2.73-7.67-4.51-12.06-5.14c-0.27-0.04-0.46-0.29-0.42-0.57
			c0.04-0.27,0.3-0.47,0.57-0.42c4.56,0.65,8.9,2.5,12.54,5.34c0.22,0.17,0.26,0.48,0.09,0.7C438.33,188.94,438.18,189,438.03,189z"></path><path class="st4" d="M441.33,201.33c-0.39,0-0.79-0.03-1.18-0.05c-0.55-0.04-1.06-0.07-1.56-0.04c-0.25,0.02-0.51-0.19-0.53-0.46
			c-0.02-0.28,0.19-0.51,0.46-0.53c0.56-0.04,1.14,0,1.69,0.04c1.16,0.08,2.25,0.15,3-0.48c0.62-0.52,0.85-1.4,1.02-2.28
			c0.64-3.4,0.27-6.06-1.08-7.92c-0.62-0.85-1.51-1.61-2.78-2.4c-2.13-1.32-4.55-2.26-7-2.71c-0.27-0.05-0.45-0.31-0.4-0.58
			c0.05-0.27,0.32-0.45,0.58-0.4c2.57,0.48,5.11,1.46,7.34,2.85c1.38,0.86,2.36,1.7,3.06,2.66c1.53,2.09,1.95,5.02,1.26,8.7
			c-0.2,1.06-0.5,2.14-1.36,2.86C443.11,201.19,442.23,201.33,441.33,201.33z"></path><path class="st4" d="M394.2,225.41c-0.13,0-0.27-0.05-0.37-0.16c-0.83-0.9-1.54-1.92-2.13-3.04l-0.1-0.19
			c-0.18-0.35-0.36-0.68-0.6-0.92c-0.16-0.16-0.34-0.26-0.51-0.27c-0.32-0.01-0.61,0.33-0.79,0.65c-0.33,0.57-0.49,1.26-0.45,1.93
			c0.02,0.28-0.19,0.51-0.47,0.53c-0.27,0.01-0.51-0.19-0.53-0.47c-0.06-0.86,0.15-1.75,0.58-2.49c0.43-0.75,1.07-1.18,1.71-1.15
			c0.43,0.03,0.83,0.22,1.17,0.57c0.35,0.36,0.56,0.76,0.77,1.16l0.1,0.19c0.55,1.04,1.22,1.99,1.99,2.83
			c0.19,0.2,0.17,0.52-0.03,0.71C394.45,225.37,394.33,225.41,394.2,225.41z"></path><path class="st4" d="M367.88,211.06c-1.28,0-2.61-0.63-3.58-1.75c-1.14-1.3-1.62-2.97-1.92-4.29c-0.6-2.6-0.78-5.26-0.53-7.9
			c0.11-1.23,0.34-2.82,1.16-4.16c0.89-1.45,2.36-2.32,3.78-2.32c1.59,0.01,3.16,1.14,3.99,2.87c0.39,0.82,0.6,1.69,0.71,2.57
			c0.01-0.04,0.03-0.08,0.04-0.12c0.69-2.06,1.4-4.19,3.28-5.39c0.44-0.28,0.91-0.48,1.37-0.67c0.38-0.16,0.75-0.32,1.08-0.51
			c1.48-0.84,2.38-2.34,3.33-3.92c0.45-0.75,0.91-1.52,1.44-2.22c0.58-0.77,1.26-1.47,1.91-2.15c0.41-0.42,0.81-0.84,1.2-1.28
			c0.33-0.37,0.64-0.76,0.95-1.15c0.71-0.88,1.45-1.79,2.36-2.54c2.03-1.66,4.67-2.28,7.21-2.72c4.89-0.84,9.85-1.2,14.75-1.09
			c0.28,0.01,0.49,0.24,0.49,0.51c-0.01,0.27-0.23,0.49-0.5,0.49c0,0-0.01,0-0.01,0c-4.82-0.12-9.72,0.24-14.55,1.07
			c-2.41,0.41-4.9,0.99-6.75,2.5c-0.83,0.68-1.5,1.51-2.21,2.39c-0.32,0.4-0.64,0.8-0.98,1.18c-0.4,0.45-0.81,0.88-1.23,1.31
			c-0.63,0.65-1.29,1.33-1.83,2.06c-0.5,0.66-0.95,1.41-1.38,2.13c-0.98,1.62-1.98,3.3-3.69,4.27c-0.39,0.22-0.79,0.4-1.19,0.56
			c-0.44,0.19-0.85,0.36-1.22,0.6c-1.58,1.01-2.21,2.88-2.87,4.86c-0.28,0.85-0.58,1.73-0.96,2.54c-0.1,0.22-0.34,0.33-0.57,0.28
			c-0.23-0.05-0.39-0.26-0.39-0.5c0.04-1.58-0.01-3.23-0.69-4.64c-0.55-1.14-1.72-2.3-3.1-2.31c-0.01,0-0.03,0-0.04,0
			c-1.29,0-2.33,0.95-2.88,1.84c-0.71,1.16-0.92,2.6-1.02,3.72c-0.24,2.53-0.06,5.08,0.51,7.58c0.27,1.2,0.71,2.72,1.7,3.85
			c0.79,0.91,2.18,1.67,3.51,1.32c0.27-0.07,0.54,0.09,0.61,0.36c0.07,0.27-0.09,0.54-0.36,0.61
			C368.52,211.03,368.2,211.06,367.88,211.06z"></path><path class="st4" d="M413.75,184.98c-0.26,0-0.48-0.21-0.5-0.47l-0.34-5.54c-0.06-1.01-0.19-2.13-0.93-2.64
			c-0.23-0.16-0.29-0.47-0.13-0.7c0.16-0.23,0.47-0.28,0.69-0.13c1.06,0.73,1.28,2.06,1.37,3.4l0.34,5.54
			c0.02,0.28-0.19,0.51-0.47,0.53C413.77,184.98,413.76,184.98,413.75,184.98z"></path><path class="st4" d="M381.63,259.15c-0.09,0-0.17-0.01-0.23-0.01c-10.02-0.96-19.09-7.55-23.12-16.79
			c-0.64-1.46-1.46-3.67-1.11-5.92c0.01-0.05,0.02-0.09,0.04-0.14c2.6-5.47,4.2-11.87,4.6-18.51c0.22-1.02,0.2-1.88,0.17-2.71
			c-0.02-0.64-0.04-1.25,0.05-1.87c0.2-1.47,0.98-2.83,2.14-3.74c0.22-0.17,0.53-0.13,0.7,0.09c0.17,0.22,0.13,0.53-0.08,0.7
			c-0.96,0.75-1.6,1.87-1.76,3.08c-0.07,0.54-0.06,1.11-0.04,1.7c0.03,0.85,0.06,1.81-0.18,2.88c-0.4,6.66-2.01,13.16-4.65,18.73
			c-0.28,1.96,0.46,3.96,1.04,5.29c3.82,8.77,12.79,15.28,22.3,16.19c0.27,0.03,0.46-0.03,0.5-0.06c0.02-0.28,0.23-0.46,0.52-0.44
			c0.28,0.02,0.47,0.29,0.45,0.56c-0.02,0.25-0.13,0.47-0.33,0.63C382.34,259.1,381.92,259.15,381.63,259.15z"></path><path class="st4" d="M422.64,216.54c-3.3,0-5.88-4.58-5.88-10.43s2.58-10.43,5.88-10.43s5.88,4.58,5.88,10.43
			S425.94,216.54,422.64,216.54z M422.64,196.68c-2.65,0-4.88,4.32-4.88,9.43c0,5.11,2.23,9.43,4.88,9.43s4.88-4.32,4.88-9.43
			C427.52,201,425.29,196.68,422.64,196.68z"></path><path class="st4" d="M419.65,202.15c-0.13,0-0.26-0.05-0.35-0.15c-0.2-0.2-0.2-0.51,0-0.71c1.07-1.07,2.84-1.37,4.19-0.69
			c0.25,0.12,0.35,0.42,0.23,0.67c-0.12,0.25-0.42,0.35-0.67,0.23c-0.98-0.48-2.26-0.27-3.04,0.51
			C419.91,202.1,419.78,202.15,419.65,202.15z"></path><path class="st4" d="M430.95,199.44c-0.11,0-0.21-0.03-0.31-0.1c-0.22-0.17-0.26-0.48-0.09-0.7c0.9-1.16,2.47-1.74,3.91-1.44
			c0.27,0.06,0.44,0.32,0.39,0.59c-0.06,0.27-0.33,0.44-0.59,0.39c-1.06-0.22-2.25,0.22-2.91,1.08
			C431.25,199.38,431.1,199.44,430.95,199.44z"></path><path class="st4" d="M433.05,212.05c-3.07,0-5.47-4.21-5.47-9.59c0-5.38,2.4-9.59,5.47-9.59s5.47,4.21,5.47,9.59
			C438.52,207.84,436.12,212.05,433.05,212.05z M433.05,193.87c-2.42,0-4.47,3.93-4.47,8.59s2.05,8.59,4.47,8.59
			c2.42,0,4.47-3.93,4.47-8.59S435.48,193.87,433.05,193.87z"></path><ellipse class="st4" cx="422.14" cy="206.06" rx="1.12" ry="2"></ellipse><path class="st4" d="M422.14,208.56c-0.92,0-1.62-1.07-1.62-2.5s0.7-2.5,1.62-2.5s1.62,1.07,1.62,2.5S423.07,208.56,422.14,208.56
			z M422.14,204.56c-0.22,0-0.62,0.57-0.62,1.5s0.4,1.5,0.62,1.5s0.62-0.57,0.62-1.5S422.36,204.56,422.14,204.56z"></path><ellipse class="st4" cx="433.46" cy="202.46" rx="1.12" ry="2"></ellipse><path class="st4" d="M433.46,204.96c-0.92,0-1.62-1.07-1.62-2.5s0.7-2.5,1.62-2.5c0.92,0,1.62,1.07,1.62,2.5
			S434.39,204.96,433.46,204.96z M433.46,200.96c-0.22,0-0.62,0.57-0.62,1.5s0.4,1.5,0.62,1.5s0.62-0.57,0.62-1.5
			S433.68,200.96,433.46,200.96z"></path></g></g><g id="character-2"><g id="colors"><path class="st2" d="M113.13,378.29h81.57c0,0,2.66-14.74,2.93-15.04c3.31-23.81,0.48-47.99-2.35-71.85
			c-0.77-6.48-1.54-12.97-2.99-19.33c-1.23-5.41-2.96-10.7-5.15-15.8c-1.63-3.8-3.6-7.59-6.76-10.25c-3.26-2.74-7.5-4.04-11.71-4.71
			c-6.99-1.13-14.82-0.49-20.25,4.23c-0.18-1.16-0.19-4.04-0.86-8.76c-14.98,6.96-12.66,16-14.32-1.48
			c-13.84,1.19-20.61,9.63-26.13,18c-5.52,8.37-8.78,17.99-11.98,27.49c0,0-0.4-22.72-0.59-23.01c0.05-1.72-1.05-3.42-2.69-3.64
			c0.19,2.59-0.1,5.22-1.24,7.97c-2.89,2.13-6.31,3.51-10.4,3.69c-1.34-1.36-3.62-1.13-5.26-2.1c-1.09-0.64-1.87-1.79-2.96-2.03
			c-1.57,0.71-2.7,2.29-2.88,4c0,0,1.38,63.24,1.57,63.05c0.13,6.28,1.93,12.73,6.15,17.38s11.13,7.12,17.05,5.02
			c4.7-1.66,8.08-5.76,10.95-9.84c2.76-3.93,5.29-8.02,7.5-12.17C115.9,344.75,116.12,361.16,113.13,378.29z"></path><path class="st0" d="M107.03,174.57c-0.73,0.37-1.2,1.13-1.4,1.92s-0.19,1.62-0.16,2.43c0.26,6.52,1.18,13,2.92,19.21
			c-1.96,2.12-4.23,3.96-6.72,5.43c-0.6,0.35-1.22,0.7-1.64,1.26c0.37,0.01,0.75,0.02,1.12,0.03c0,0,8.22-1.6,8.33-1.67
			c0.17,2.11,0.63,4.2,1.65,6.25c1.09,3.7,2.19,7.42,3.97,10.83s4.3,6.55,7.66,8.43c0,0,7.4-3.37,7.53-3.44
			c0.49-0.22,0.98-0.44,1.46-0.66c0,0,1.53,10.44,1.72,10.11c-0.49,3.49,0.32,7.16,2.14,10.22c3.62-3.36,7.48-6.85,12.56-7.96
			c0.97-2.49,1.43-5.21,2.85-7.47c0.62-0.98,1.41-1.86,2.45-2.82c-1.64,0.25-3.1-1.01-4.21-2.25c-2.52-2.83-4.66-6.19-5.09-9.95
			c-0.38-3.35,0.61-6.68,1.24-9.99s0.83-6.96-0.96-9.66c0.73-3.27,0.99-6.64,0.78-9.99c-0.1-1.57-0.31-3.16-0.93-4.61
			c-0.3-0.7-0.71-1.39-1.32-1.85c-0.61-0.47-1.44-0.69-2.16-0.44c-1.48,0.52-2.13,2.8-3.85,2.89c-0.32-2.25-2-4.11-3.97-5.24
			s-4.22-1.63-6.44-2.12c-2.29-0.5-4.58-1.01-6.87-1.51c-3.3-0.73-6.83-1.59-9.1-4.12C110.88,170.48,109.31,173.4,107.03,174.57z"></path><path class="st0" d="M86.84,242.93c2.12,1.78,3.39,4.4,4.04,7.09c0.64,2.69,0.71,5.48,0.77,8.25c0.03,1.24,0.03,2.59-0.9,3.73
			c-1.96,0.89-3.95,1.7-5.98,2.42c-1.61,0.57-3.3,1.1-5,0.96c-1.1-0.09-2.17-0.45-3.2-0.85c-1.27-0.49-2.54-1.05-3.57-1.94
			s-1.81-2.15-1.84-3.51c-0.03-1.5,0.82-2.93,0.68-4.43c-0.04-0.47-0.19-0.94-0.17-1.41c0.04-0.92,0.68-1.7,1.01-2.56
			c0.4-1.04,0.34-2.19,0.67-3.26c0.63-2.04,2.81-3.49,5.07-3.05c0.75,1.13,2.14,1.69,3.5,1.78s2.69-0.25,4.01-0.58
			c0.24-0.06,0.49-0.13,0.67-0.3C87.24,244.67,86.56,243.28,86.84,242.93z"></path><path class="st1" d="M77.45,237.15c0.79,1.2,1.2,2.64,1.24,4.08c0.04,1.49-0.23,3.22,0.84,4.25c0.38,0.37,0.89,0.58,1.41,0.72
			c1.62,0.43,3.43,0.1,4.8-0.86c0.27-0.19,0.53-0.41,0.7-0.7s0.22-0.64,0.27-0.97c0.23-1.52,0.48-3.06,1.09-4.47
			s1.62-2.71,3.37-3.03c0.41-0.53,1.22-0.55,1.87-0.36s1.26,0.53,1.94,0.55c1.55,0.04,2.58-1.59,3.09-3.06
			c1.69-4.93,1.18-10.57-1.37-15.11c-0.56-0.99-1.23-1.96-2.15-2.63c-1.86-1.35-4.35-1.3-6.64-1.3
			c-15.24,0.05-30.47-4.39-43.2-12.14c-1.16-0.76-2.7,0.25-3.47,1.41c-1.36,2.03-1.75,4.55-2.01,6.99
			c-1.16,10.78-0.57,21.75,1.73,32.35c0.78,3.59,1.77,7.17,3.39,10.46c0.49,1,1.17,2.07,2.27,2.31c1.05,0.23,2.08-0.4,2.95-1.05
			c5.16-3.84,9.24-9.13,14.88-12.21l10.07-4.68L77.45,237.15z"></path><path class="st3" d="M107.87,173.64c-1.18,1.11-2.06,2.54-2.58,4.06c-0.18-3.75-0.09-7.63,1.39-11.09
			c2.01-4.7,6.4-8.07,11.19-9.89s9.97-2.24,15.07-2.46c2.7-0.12,5.42-0.18,8.11,0.18c3.39,0.44,6.69,1.55,9.66,3.23
			c7.84,4.44,13.05,12.85,14.69,21.66c0.62-0.84,1.76-1.19,2.79-1.06s1.98,0.66,2.81,1.29c3.43,2.61,5.19,6.9,5.91,11.14
			s0.55,8.59,0.93,12.88c0.16,1.78,0.62,3.86,2.26,4.58c0.97,0.43,2.09,0.24,3.15,0.22c3.85-0.07,7.48,2.34,9.53,5.6
			c2.04,3.27,2.66,7.27,2.43,11.11c-0.23,3.85-1.24,7.6-1.75,11.01c2.99-0.4,5.92,1.63,7.36,4.29s1.67,5.79,1.55,8.81
			c-0.32,8.72-3.37,17.52-9.51,23.69c-1.43-5.15-2.86-10.33-5.07-15.21c-2.21-4.87-5.23-9.47-9.5-12.92
			c-8.97-5.29-20.83-5.24-29.7,0.02c-2.03-6.1-0.31-13.29,4.26-18.07c-3.22-1.22-5.77-3.91-7.16-7.05s-1.7-6.7-1.26-10.11
			c0.33-2.53,1.05-5,1.3-7.54s-0.04-5.26-1.33-7.46c1.13-4.65,1.82-9.7-0.09-14.09c-0.41-0.94-0.97-1.87-1.85-2.42
			s-2.13-0.58-2.86,0.15c-0.46,0.46-0.64,1.12-0.94,1.69c-0.3,0.58-0.86,1.13-1.75,1.23c-1.12-3.24-4.15-5.5-7.36-6.69
			c-3.21-1.19-6.67-1.52-10.04-2.15c-3.37-0.63-6.81-1.65-9.42-3.82C109.94,170.42,109.21,172.38,107.87,173.64z"></path></g><g id="line_2_"><path class="st0" d="M110.33,325.05c-0.22,0-0.42-0.14-0.48-0.36c-0.67-2.34-1.44-4.7-2.18-6.98c-1-3.07-2.04-6.24-2.85-9.43
			c-1.69-6.62-2.06-12.24-1.15-17.18c1.08-5.84,4.01-11.13,6.84-16.25c0.55-1,1.11-2,1.64-3c1.83-3.4,3.54-6.94,5.08-10.51
			c0.11-0.25,0.4-0.37,0.66-0.26c0.25,0.11,0.37,0.4,0.26,0.66c-1.55,3.6-3.28,7.16-5.12,10.59c-0.54,1.01-1.09,2.01-1.65,3.01
			c-2.79,5.05-5.68,10.27-6.73,15.95c-0.89,4.8-0.52,10.28,1.13,16.76c0.8,3.16,1.83,6.31,2.83,9.36c0.75,2.29,1.52,4.66,2.2,7.01
			c0.08,0.27-0.08,0.54-0.34,0.62C110.43,325.05,110.38,325.05,110.33,325.05z"></path><path class="st0" d="M98.45,329.58c-0.2,0-0.39-0.12-0.47-0.32c-0.4-1.05-0.58-2.15-0.54-3.25c0.03-0.86,0.2-1.71,0.36-2.53
			c0.23-1.16,0.45-2.26,0.29-3.35c-0.12-0.85-0.46-1.66-0.81-2.52c-0.44-1.06-0.9-2.16-0.92-3.36c-0.35-9.69-0.84-20.15-1.46-31.07
			c-0.02-0.28,0.19-0.51,0.47-0.53c0.27-0.04,0.51,0.2,0.53,0.47c0.62,10.93,1.11,21.39,1.46,31.1c0.02,1.02,0.42,1.98,0.85,3
			c0.37,0.88,0.74,1.79,0.88,2.76c0.18,1.26-0.07,2.49-0.3,3.68c-0.16,0.82-0.31,1.59-0.34,2.37c-0.04,0.95,0.13,1.94,0.48,2.85
			c0.1,0.26-0.03,0.55-0.29,0.65C98.57,329.57,98.51,329.58,98.45,329.58z"></path><path class="st0" d="M102.32,325.48c-0.11,0-0.22-0.03-0.31-0.11c-0.61-0.47-0.88-1.36-0.72-2.37c0.04-0.28,0.11-0.55,0.18-0.82
			c0.1-0.39,0.2-0.76,0.2-1.13c0.02-1.27-0.99-2.38-2.03-3.41c-0.2-0.19-0.2-0.51,0-0.71c0.19-0.2,0.51-0.2,0.71,0
			c1.14,1.13,2.35,2.47,2.33,4.13c-0.01,0.49-0.12,0.93-0.23,1.36c-0.06,0.24-0.12,0.48-0.16,0.73c-0.08,0.49-0.03,1.12,0.34,1.42
			c0.22,0.17,0.26,0.48,0.09,0.7C102.62,325.42,102.47,325.48,102.32,325.48z"></path><path class="st0" d="M134.97,260.91c-0.21,0-0.4-0.13-0.47-0.33c-1.55-4.23-2.18-8.77-1.87-13.52c-3.32,0.84-6.4,2.71-8.94,5.46
			c-0.15,0.17-0.4,0.21-0.6,0.1c-0.2-0.11-0.3-0.34-0.25-0.56c1.3-5.25,3.85-10.41,7.59-15.34c0.17-0.22,0.48-0.26,0.7-0.1
			c0.22,0.17,0.26,0.48,0.1,0.7c-3.23,4.26-5.55,8.68-6.92,13.18c2.58-2.34,5.58-3.91,8.78-4.58c0.15-0.03,0.31,0.01,0.43,0.11
			c0.12,0.1,0.18,0.26,0.17,0.42c-0.36,4.32,0.07,8.48,1.28,12.36c1.44-3.94,3.96-7.44,6.22-10.58c1.17-1.62,2.62-3.65,4.66-4.79
			c0.24-0.13,0.55-0.05,0.68,0.19c0.14,0.24,0.05,0.55-0.19,0.68c-1.85,1.04-3.17,2.88-4.34,4.51c-2.48,3.45-5.3,7.35-6.54,11.72
			c-0.06,0.21-0.25,0.35-0.46,0.36C134.99,260.91,134.98,260.91,134.97,260.91z"></path><path class="st0" d="M161.67,271.09c-0.01,0-0.02,0-0.03,0c-0.28-0.02-0.48-0.26-0.47-0.53c0.56-8.7,4.89-17.25,11.58-22.86
			c0.21-0.18,0.53-0.15,0.7,0.06c0.18,0.21,0.15,0.53-0.06,0.7c-6.48,5.44-10.68,13.73-11.22,22.16
			C162.15,270.89,161.93,271.09,161.67,271.09z"></path><path class="st0" d="M168.57,373.56c-0.03,0-0.06,0-0.09-0.01c-0.27-0.05-0.45-0.31-0.4-0.58c5.76-30.66,3.38-62.43-6.88-91.87
			c-0.09-0.26,0.05-0.55,0.31-0.64c0.26-0.09,0.55,0.05,0.64,0.31c10.32,29.61,12.71,61.55,6.92,92.39
			C169.02,373.39,168.81,373.56,168.57,373.56z"></path><path class="st4" d="M97.23,206.43c-0.21,0-0.41-0.14-0.48-0.35c-0.08-0.25,0.04-0.51,0.28-0.61c5.13-2.19,9.16-5.15,11.96-8.79
			c3.22-4.18,4.67-9.25,3.97-13.9c-0.04-0.27,0.15-0.53,0.42-0.57c0.28-0.03,0.53,0.15,0.57,0.42c0.73,4.92-0.79,10.26-4.17,14.66
			c-2.16,2.81-5.01,5.22-8.5,7.2l16.85-3.87c0.27-0.06,0.54,0.11,0.6,0.38s-0.11,0.54-0.38,0.6l-21.02,4.83
			C97.31,206.43,97.27,206.43,97.23,206.43z"></path><path class="st4" d="M107.99,197.51c-0.22,0-0.42-0.15-0.48-0.37c-1.75-6.68-2.65-13.55-2.68-20.42c0-0.28,0.24-0.49,0.5-0.5
			c0.28,0,0.5,0.22,0.5,0.5c0.03,6.79,0.92,13.58,2.64,20.18c0.07,0.27-0.09,0.54-0.36,0.61
			C108.08,197.51,108.04,197.51,107.99,197.51z"></path><path class="st4" d="M122.71,229.17c-0.1,0-0.2-0.03-0.28-0.09c-3.44-2.32-6.59-6.18-8.89-10.89c-2.18-4.46-3.41-9.21-4.48-13.7
			c-0.06-0.27,0.1-0.54,0.37-0.6c0.27-0.06,0.54,0.1,0.6,0.37c1.06,4.44,2.27,9.13,4.4,13.5c2.18,4.46,5.14,8.13,8.36,10.36
			c2.67-0.78,5.19-1.96,7.49-3.51c0.23-0.16,0.54-0.09,0.69,0.14c0.15,0.23,0.09,0.54-0.14,0.69c-2.46,1.65-5.15,2.9-8,3.71
			C122.81,229.17,122.76,229.17,122.71,229.17z"></path><path class="st4" d="M133.46,234.36c-0.24,0-0.45-0.17-0.49-0.41l-1.58-8.47c-0.05-0.27,0.13-0.53,0.4-0.58
			c0.27-0.05,0.53,0.13,0.58,0.4l1.58,8.47c0.05,0.27-0.13,0.53-0.4,0.58C133.53,234.36,133.49,234.36,133.46,234.36z"></path><path class="st4" d="M137.05,181.35c-0.18,0-0.35-0.09-0.44-0.26c-0.7-1.26-1.68-2.87-3.06-4.11c-3-2.7-7.3-3.3-11.46-3.87
			l-0.33-0.05c-4.1-0.57-8.23-1.47-11.04-4.07c-0.08,0.99-0.41,1.98-0.96,2.89c-0.74,1.23-1.81,2.23-2.75,3.1
			c-0.2,0.19-0.52,0.18-0.71-0.03c-0.19-0.2-0.18-0.52,0.03-0.71c0.89-0.83,1.9-1.77,2.57-2.88c0.67-1.12,0.96-2.42,0.78-3.59
			c-0.03-0.22,0.09-0.44,0.29-0.53c0.21-0.09,0.45-0.04,0.59,0.14c2.69,3.25,7.25,4.12,11.32,4.68l0.33,0.05
			c4.31,0.59,8.76,1.21,11.99,4.12c1.49,1.34,2.52,3.04,3.26,4.37c0.13,0.24,0.05,0.55-0.19,0.68
			C137.22,181.33,137.14,181.35,137.05,181.35z"></path><path class="st4" d="M111.32,178.37c-0.12,0-0.23-0.04-0.33-0.12c-1.19-1.04-3.12-1.12-4.4-0.18c-0.22,0.16-0.54,0.11-0.7-0.11
			c-0.16-0.22-0.11-0.54,0.11-0.7c1.66-1.22,4.09-1.12,5.64,0.24c0.21,0.18,0.23,0.5,0.05,0.71
			C111.6,178.31,111.46,178.37,111.32,178.37z"></path><path class="st4" d="M114.59,178.07c-0.08,0-0.17-0.02-0.25-0.07c-0.24-0.14-0.32-0.44-0.18-0.68c0.84-1.44,2.65-2.26,4.63-2.07
			c1.67,0.16,3.15,0.91,4.64,1.73c0.24,0.13,0.33,0.44,0.2,0.68c-0.13,0.24-0.44,0.33-0.68,0.2c-1.4-0.77-2.77-1.47-4.26-1.61
			c-1.3-0.12-2.94,0.32-3.67,1.57C114.93,177.98,114.77,178.07,114.59,178.07z"></path><g><ellipse class="st4" cx="118.46" cy="183.1" rx="1" ry="2.25"></ellipse><path class="st4" d="M118.46,185.85c-0.98,0-1.5-1.38-1.5-2.75s0.52-2.75,1.5-2.75s1.5,1.38,1.5,2.75
				S119.45,185.85,118.46,185.85z M118.46,181.35c-0.15,0.07-0.5,0.67-0.5,1.75c0,1.1,0.37,1.71,0.51,1.75
				c0.12-0.05,0.49-0.65,0.49-1.75C118.96,182.03,118.61,181.43,118.46,181.35z"></path></g><g><ellipse class="st4" cx="109.46" cy="183.1" rx="1" ry="2.25"></ellipse><path class="st4" d="M109.46,185.85c-0.98,0-1.5-1.38-1.5-2.75s0.52-2.75,1.5-2.75s1.5,1.38,1.5,2.75
				S110.45,185.85,109.46,185.85z M109.46,181.35c-0.15,0.07-0.5,0.67-0.5,1.75c0,1.1,0.37,1.71,0.51,1.75
				c0.12-0.05,0.49-0.65,0.49-1.75C109.96,182.03,109.61,181.43,109.46,181.35z"></path></g><path class="st4" d="M120.45,213.75c-0.08,0-0.17-0.02-0.24-0.06c-0.24-0.13-0.33-0.44-0.19-0.68c0.59-1.06,1.09-2.02,1.21-3.06
			c0.1-0.91-0.18-2.07-1.03-2.59c-0.72-0.44-1.8-0.28-2.35,0.35c-0.18,0.21-0.5,0.23-0.71,0.05c-0.21-0.18-0.23-0.5-0.05-0.71
			c0.89-1.01,2.48-1.25,3.63-0.55c1.08,0.66,1.67,2.05,1.51,3.55c-0.14,1.22-0.71,2.32-1.33,3.44
			C120.8,213.66,120.63,213.75,120.45,213.75z"></path><path class="st4" d="M138.85,193.72c-0.22,0-0.43-0.15-0.48-0.38c-1.02-3.97-0.22-8.33,2.15-11.68c0.16-0.23,0.47-0.28,0.7-0.12
			c0.23,0.16,0.28,0.47,0.12,0.7c-2.19,3.11-2.94,7.17-1.99,10.86c0.07,0.27-0.09,0.54-0.36,0.61
			C138.94,193.72,138.9,193.72,138.85,193.72z"></path><path class="st4" d="M140.44,192.31c-0.09,0-0.18-0.02-0.26-0.07c-0.24-0.14-0.31-0.45-0.17-0.69c0.68-1.13,0.28-2.81-0.83-3.52
			c-0.23-0.15-0.3-0.46-0.15-0.69c0.15-0.23,0.46-0.3,0.69-0.15c1.57,1.01,2.1,3.28,1.15,4.88
			C140.78,192.23,140.61,192.31,140.44,192.31z"></path><path class="st4" d="M141.13,198.11c-0.16,0-0.32-0.08-0.41-0.22c-0.15-0.23-0.09-0.54,0.13-0.69c1.66-1.13,2.94-2.99,3.6-5.24
			c0.55-1.88,0.69-4.03,0.43-6.58c-0.26-2.67-0.89-4.77-1.91-6.43c-0.39-0.63-0.76-0.99-1.16-1.12c-0.58-0.19-1.24,0.14-1.63,0.54
			c-0.49,0.5-0.8,1.2-1.1,1.87c-0.11,0.25-0.41,0.37-0.66,0.25c-0.25-0.11-0.37-0.41-0.25-0.66c0.34-0.76,0.69-1.54,1.3-2.17
			c0.75-0.76,1.79-1.07,2.65-0.8c0.84,0.27,1.37,1.01,1.7,1.54c1.1,1.79,1.77,4.03,2.05,6.85c0.27,2.68,0.12,4.96-0.47,6.96
			c-0.72,2.47-2.14,4.53-4,5.78C141.33,198.08,141.23,198.11,141.13,198.11z"></path><path class="st4" d="M132.1,224.23c-0.06,0-0.13-0.01-0.19-0.04c-0.26-0.1-0.38-0.4-0.28-0.65c0.23-0.58,0.71-0.97,1.18-1.31
			c0.4-0.29,0.81-0.56,1.23-0.82c0.61-0.4,1.2-0.78,1.74-1.22c1.03-0.83,1.68-1.72,1.94-2.63c0.08-0.27,0.35-0.42,0.62-0.34
			c0.27,0.08,0.42,0.35,0.34,0.62c-0.32,1.11-1.08,2.17-2.28,3.13c-0.58,0.47-1.21,0.88-1.82,1.28c-0.4,0.26-0.8,0.52-1.19,0.8
			c-0.41,0.29-0.71,0.55-0.84,0.87C132.49,224.11,132.3,224.23,132.1,224.23z"></path><path class="st4" d="M152.71,227.21c-0.07,0-0.15-0.02-0.22-0.05c-4.15-2.05-7.25-5.97-8.28-10.48c-0.9-3.94-0.23-8.01,0.48-11.52
			c0.64-3.19,1.36-6.8-0.42-9.46c-0.15-0.23-0.09-0.54,0.14-0.69c0.23-0.15,0.54-0.09,0.69,0.14c2,3.01,1.2,7,0.56,10.21
			c-0.68,3.4-1.34,7.35-0.48,11.1c0.96,4.22,3.86,7.88,7.74,9.8c0.25,0.12,0.35,0.42,0.23,0.67
			C153.08,227.11,152.9,227.21,152.71,227.21z"></path><path class="st4" d="M192.49,272.93c-0.22,0-0.42-0.14-0.48-0.36c-1.39-4.76-2.83-9.69-4.86-14.33
			c-2.27-5.19-4.93-9.27-8.14-12.46c-8.79-5.72-21.09-5.96-29.94-0.58c-0.12,0.08-0.27,0.09-0.41,0.05
			c-0.14-0.04-0.25-0.15-0.31-0.28c-1.62-3.81-1.58-8.29,0.11-12.29c1.62-3.87,4.75-7.11,8.57-8.88c0.25-0.12,0.55-0.01,0.66,0.24
			c0.12,0.25,0.01,0.55-0.24,0.66c-3.6,1.67-6.54,4.72-8.07,8.36c-1.51,3.57-1.62,7.54-0.32,10.98c9.27-5.36,21.47-5.01,30.55,0.93
			c0.03,0.02,0.05,0.04,0.08,0.06c3.32,3.29,6.06,7.48,8.39,12.8c2.05,4.7,3.5,9.66,4.9,14.45c0.08,0.27-0.07,0.54-0.34,0.62
			C192.59,272.92,192.54,272.93,192.49,272.93z"></path><path class="st4" d="M135.23,245.98c-0.03,0-0.06,0-0.09-0.01c-0.16-0.03-0.3-0.14-0.37-0.29c-1.37-3.07-2.06-6.53-2.03-10.29
			c0-0.28,0.23-0.48,0.5-0.5c0.28,0,0.5,0.23,0.5,0.5c-0.02,3.34,0.54,6.42,1.65,9.19c2.86-2.96,6.38-6.41,10.81-7.68
			c0.27-0.08,0.54,0.08,0.62,0.34c0.08,0.27-0.08,0.54-0.34,0.62c-4.45,1.28-7.87,4.83-10.89,7.96
			C135.5,245.93,135.37,245.98,135.23,245.98z"></path><path class="st4" d="M82.1,246.67c-0.11,0-0.22,0-0.33,0c-0.7-0.02-1.53-0.08-2.31-0.4c-0.87-0.35-1.52-1-1.78-1.79
			c-0.09-0.26,0.05-0.55,0.32-0.63c0.26-0.09,0.55,0.05,0.63,0.32c0.17,0.5,0.62,0.94,1.2,1.17c0.63,0.26,1.34,0.31,1.96,0.32
			c1.44,0.03,2.89-0.14,4.31-0.5c0.27-0.07,0.54,0.09,0.61,0.36c0.07,0.27-0.09,0.54-0.36,0.61
			C84.95,246.48,83.52,246.67,82.1,246.67z"></path><path class="st4" d="M85.36,263.71c-0.09,0-0.19-0.03-0.27-0.08c-1.98-1.29-2.34-3.82-2.66-6.04l-0.05-0.32
			c-0.06-0.4-0.12-0.76-0.27-1.05c-0.54-1.06-2.07-1.22-3.36-1.25c-1.72-0.02-3.44-0.23-4.29-1.6c-0.51-0.8-0.52-1.76-0.49-2.6
			c0.02-0.83,0.14-1.67,0.8-2.19c0.37-0.29,0.81-0.39,1.26-0.48l6.26-1.23c0.27-0.06,0.53,0.12,0.59,0.39
			c0.05,0.27-0.12,0.53-0.39,0.59l-6.26,1.23c-0.34,0.06-0.63,0.13-0.83,0.28c-0.34,0.27-0.4,0.85-0.42,1.44
			c-0.03,0.72-0.02,1.47,0.33,2.04c0.6,0.97,2.02,1.12,3.46,1.14c1.56,0.03,3.45,0.27,4.23,1.79c0.22,0.43,0.3,0.89,0.37,1.36
			l0.05,0.32c0.3,2.11,0.61,4.3,2.21,5.34c0.23,0.15,0.3,0.46,0.14,0.69C85.69,263.63,85.53,263.71,85.36,263.71z"></path><path class="st4" d="M71.8,261.11c-0.15,0-0.3-0.07-0.4-0.2c-0.82-1.09-1.03-2.62-0.55-3.89c0.04-0.11,0.09-0.21,0.13-0.31
			c0.1-0.23,0.19-0.44,0.21-0.63c0.02-0.25-0.07-0.53-0.16-0.83c-0.04-0.13-0.08-0.26-0.12-0.39c-0.37-1.4,0.03-3,1.02-4.07
			l0.09-0.09c0.12-0.12,0.22-0.23,0.26-0.33c0.04-0.11,0.02-0.29-0.01-0.48l-0.02-0.14c-0.23-2.01,0.77-4.07,2.49-5.13
			c0.24-0.14,0.54-0.07,0.69,0.17c0.14,0.24,0.07,0.54-0.17,0.69c-1.37,0.84-2.2,2.55-2.01,4.17l0.02,0.13
			c0.03,0.27,0.07,0.62-0.05,0.96c-0.12,0.3-0.32,0.5-0.48,0.67l-0.08,0.08c-0.76,0.82-1.07,2.05-0.78,3.13
			c0.03,0.12,0.07,0.23,0.1,0.34c0.11,0.36,0.24,0.76,0.2,1.21c-0.03,0.36-0.17,0.67-0.29,0.95c-0.04,0.09-0.08,0.18-0.11,0.27
			c-0.37,0.95-0.2,2.1,0.41,2.93c0.17,0.22,0.12,0.53-0.1,0.7C72.01,261.08,71.91,261.11,71.8,261.11z"></path><path class="st4" d="M79.95,265.97c-0.03,0-0.06,0-0.09-0.01c-2.83-0.55-5.52-1.77-7.77-3.53c-0.22-0.17-0.26-0.48-0.09-0.7
			c0.17-0.22,0.48-0.26,0.7-0.09c2.11,1.65,4.62,2.79,7.27,3.32c3.55-0.48,7.06-1.57,10.43-3.25c1.95-5.54,1.16-11.79-2.12-16.77
			c-0.15-0.23-0.09-0.54,0.14-0.69c0.23-0.15,0.54-0.09,0.69,0.14c3.5,5.29,4.31,11.97,2.16,17.85c-0.04,0.12-0.13,0.22-0.24,0.28
			c-3.55,1.79-7.25,2.95-11.01,3.45C80,265.97,79.98,265.97,79.95,265.97z M90.8,262.07L90.8,262.07L90.8,262.07z"></path><path class="st4" d="M50.41,254.84c-0.12,0-0.24-0.04-0.33-0.13c-0.21-0.18-0.23-0.5-0.04-0.71c5.5-6.21,11.66-10.99,18.32-14.21
			c7.33-3.54,15.21-5.03,22.78-4.31c0.46-0.4,1.13-0.43,1.65-0.32c0.29,0.07,0.56,0.18,0.82,0.28c0.19,0.08,0.39,0.16,0.59,0.21
			c0.79,0.21,1.74-0.12,2.24-0.78c0.17-0.22,0.48-0.27,0.7-0.1c0.22,0.17,0.26,0.48,0.1,0.7c-0.74,0.98-2.1,1.45-3.29,1.14
			c-0.24-0.07-0.47-0.16-0.7-0.25c-0.22-0.09-0.44-0.18-0.66-0.23c-0.29-0.07-0.67-0.04-0.82,0.16c-0.11,0.14-0.28,0.21-0.45,0.2
			c-7.47-0.76-15.25,0.69-22.49,4.19c-6.53,3.16-12.59,7.86-18,13.97C50.69,254.79,50.55,254.84,50.41,254.84z"></path><path class="st4" d="M98.19,233.05c-0.04,0-0.08,0-0.12-0.01c-0.27-0.07-0.43-0.34-0.37-0.6c1.05-4.26,0.67-8.82-1.07-12.85
			c-0.6-1.37-1.18-2.3-1.89-3.02c-0.87-0.89-1.93-1.41-2.97-1.47c-9.73-0.42-17.5-1.39-24.44-3.07
			c-8.92-2.16-16.48-5.54-22.49-10.05c-0.22-0.17-0.27-0.48-0.1-0.7c0.17-0.22,0.48-0.26,0.7-0.1c5.9,4.42,13.34,7.75,22.13,9.87
			c6.88,1.66,14.58,2.63,24.25,3.05c1.3,0.07,2.59,0.7,3.64,1.77c1.04,1.05,1.69,2.4,2.09,3.32c1.83,4.23,2.23,9.02,1.13,13.49
			C98.61,232.9,98.41,233.05,98.19,233.05z"></path><path class="st4" d="M89.83,234.1c-0.07,0-0.13-0.01-0.2-0.04c-0.25-0.11-0.37-0.4-0.26-0.66c1.04-2.4,1.43-5.28,1.14-8.57
			c-0.26-2.96-1.02-5.88-1.77-8.71c-0.07-0.27,0.09-0.54,0.36-0.61c0.27-0.07,0.54,0.09,0.61,0.36c0.75,2.87,1.53,5.83,1.79,8.87
			c0.3,3.45-0.11,6.5-1.22,9.05C90.21,233.99,90.03,234.1,89.83,234.1z"></path><path class="st4" d="M78.93,244.48c-0.27,0-0.5-0.22-0.5-0.49l-0.03-2.3c-0.02-1.36-0.1-2.65-0.88-3.46
			c-0.19-0.2-0.18-0.52,0.01-0.71c0.2-0.19,0.52-0.18,0.71,0.01c1.12,1.16,1.14,2.95,1.16,4.14l0.03,2.3
			C79.44,244.25,79.22,244.48,78.93,244.48C78.94,244.48,78.94,244.48,78.93,244.48z"></path><path class="st4" d="M86.3,244.95c-0.02,0-0.04,0-0.06,0c-0.27-0.03-0.47-0.28-0.44-0.56c0.32-2.59,1.21-5.12,2.58-7.32
			c0.15-0.23,0.45-0.31,0.69-0.16c0.23,0.15,0.31,0.45,0.16,0.69c-1.29,2.08-2.14,4.47-2.44,6.92
			C86.77,244.77,86.55,244.95,86.3,244.95z"></path><path class="st4" d="M47.39,256.61c-2.5,0-4.43-4.32-5.61-7.98c-1.64-5.09-2.84-11.92-3.38-19.23
			c-0.54-7.31-0.36-14.25,0.51-19.52c0.64-3.88,1.95-8.55,4.53-8.74l0,0c4.66-0.36,8.16,13.76,9.16,27.21
			c0.54,7.31,0.36,14.25-0.51,19.52c-0.64,3.88-1.95,8.55-4.53,8.74C47.5,256.61,47.45,256.61,47.39,256.61z M43.6,202.13
			c-0.03,0-0.06,0-0.08,0c-1.47,0.11-2.82,3.06-3.62,7.91c-0.86,5.2-1.04,12.05-0.5,19.28c0.54,7.24,1.72,13.98,3.34,19
			c1.5,4.67,3.27,7.44,4.75,7.29c1.47-0.11,2.82-3.06,3.62-7.91c0.86-5.2,1.04-12.05,0.5-19.28
			C50.45,212.82,46.48,202.13,43.6,202.13z M43.48,201.64L43.48,201.64L43.48,201.64z"></path><path class="st4" d="M49.18,234.31c-2.19,0-4.22-1.24-5.02-3.1c-0.27-0.65-0.42-1.36-0.43-2.12c-0.02-1.32,0.37-2.58,1.11-3.54
			c0.81-1.06,2.05-1.73,3.3-1.79c0.27-0.02,0.51,0.2,0.53,0.47c0.01,0.28-0.2,0.51-0.47,0.53c-0.97,0.05-1.92,0.58-2.56,1.41
			c-0.6,0.78-0.93,1.82-0.91,2.92c0.01,0.63,0.13,1.22,0.35,1.74c0.67,1.55,2.53,2.59,4.39,2.49c0.27-0.01,0.51,0.19,0.53,0.47
			c0.02,0.28-0.19,0.51-0.47,0.53C49.41,234.31,49.29,234.31,49.18,234.31z"></path></g></g><g id="who"><g id="line"><path class="st2" d="M198.05,217.1c-0.04,0-0.07,0-0.11-0.01c-0.55-0.06-0.94-0.56-0.88-1.1l0.5-4.6
			c0.04-0.39,0.31-0.72,0.69-0.84l34.69-11.07c0.52-0.17,1.09,0.12,1.26,0.65c0.17,0.53-0.12,1.09-0.65,1.26l-34.07,10.87
			l-0.43,3.96C198.98,216.72,198.55,217.1,198.05,217.1z"></path><path class="st2" d="M244.14,219.21c-0.44,0-0.83-0.29-0.96-0.71c-2.45-8.05-5.38-15.44-8.69-21.96
			c-0.11-0.21-0.14-0.45-0.08-0.68c1.15-4.92,2.89-9.16,5.33-12.98c0.08-0.13,0.2-0.24,0.33-0.32c4.98-2.95,11.1-2.78,16.46-2.4
			c4.44,0.32,10.19,0.86,15.33,2.17c0.21,0.05,0.4,0.17,0.54,0.34c2.75,3.44,4.85,6.71,6.42,10c0.09,0.18,0.12,0.39,0.08,0.59
			c-1.24,7.68-2.19,15.42-2.9,23.67c-0.04,0.41-0.31,0.75-0.71,0.87c-0.39,0.12-0.82-0.01-1.07-0.33c-1.56-1.95-2.55-4.26-3.51-6.49
			c-1.04-2.43-2.04-4.74-3.67-6.49c-0.38,1.05-0.62,2.14-0.74,3.25c-0.06,0.55-0.54,0.96-1.1,0.89c-0.55-0.06-0.95-0.55-0.89-1.1
			c0.18-1.81,0.67-3.55,1.45-5.19c0.13-0.28,0.38-0.48,0.68-0.54c0.29-0.07,0.61,0,0.85,0.19c2.64,2.12,3.97,5.21,5.25,8.19
			c0.53,1.24,1.08,2.51,1.72,3.69c0.67-7.12,1.53-13.9,2.61-20.62c-1.45-2.98-3.36-5.95-5.83-9.07c-4.91-1.21-10.4-1.72-14.66-2.03
			c-4.97-0.36-10.64-0.52-15.09,2c-2.19,3.48-3.78,7.35-4.86,11.8c2.77,5.49,5.27,11.58,7.45,18.14l2.07-11.12
			c0.1-0.55,0.43-1.22,1.05-1.5c0.4-0.18,0.85-0.15,1.23,0.07c0.23,0.14,0.4,0.37,0.46,0.63c0.41,1.75,0.92,3.55,1.52,5.35
			c0.17,0.52-0.11,1.09-0.64,1.26c-0.53,0.17-1.09-0.11-1.26-0.64c-0.29-0.87-0.55-1.74-0.8-2.6l-2.39,12.82
			c-0.08,0.45-0.47,0.79-0.93,0.82C244.18,219.21,244.16,219.21,244.14,219.21z"></path><path class="st2" d="M245.31,193.74c-0.35,0-0.69-0.19-0.88-0.52c-0.27-0.48-0.09-1.09,0.39-1.36c6.73-3.71,15.13-3.8,21.94-0.24
			c0.49,0.26,0.68,0.86,0.42,1.35c-0.26,0.49-0.86,0.68-1.35,0.42c-6.12-3.2-13.99-3.12-20.04,0.22
			C245.63,193.7,245.47,193.74,245.31,193.74z"></path><path class="st2" d="M268.64,201.3c-0.11,0-0.23-0.02-0.34-0.06c-0.52-0.19-0.79-0.76-0.6-1.28c1.47-4.09,2.43-8.36,2.86-12.68
			c0.05-0.55,0.53-0.95,1.09-0.9c0.55,0.05,0.95,0.54,0.9,1.09c-0.44,4.48-1.44,8.91-2.96,13.16
			C269.44,201.05,269.05,201.3,268.64,201.3z"></path><path class="st2" d="M244.46,197.75c-0.4,0-0.78-0.24-0.93-0.64c-1.11-2.84-2.21-5.67-3.3-8.49l-0.1-0.25
			c-0.2-0.51,0.06-1.09,0.57-1.29c0.51-0.2,1.09,0.05,1.29,0.57l0.1,0.25c1.1,2.83,2.2,5.65,3.3,8.49c0.2,0.51-0.05,1.09-0.57,1.3
			C244.71,197.73,244.59,197.75,244.46,197.75z"></path><path class="st2" d="M259.96,210.82c-3.75,0-7.48-0.43-11.14-1.28c-0.54-0.12-0.87-0.66-0.75-1.2c0.12-0.54,0.66-0.88,1.2-0.75
			c5.39,1.26,10.92,1.55,16.44,0.88c0.55-0.07,1.05,0.32,1.11,0.87c0.07,0.55-0.32,1.05-0.87,1.11
			C263.96,210.7,261.96,210.82,259.96,210.82z"></path><path class="st2" d="M253.8,215.94c-2.08,0-4.17-0.23-6.2-0.81c-0.53-0.15-0.84-0.71-0.69-1.24c0.15-0.53,0.7-0.84,1.24-0.69
			c5.92,1.69,12.3,0.16,17.94-1.19c0.54-0.13,1.08,0.2,1.21,0.74c0.13,0.54-0.2,1.08-0.74,1.21
			C262.74,214.88,258.29,215.94,253.8,215.94z"></path><path class="st2" d="M337.03,242.82c-0.43,0-0.83-0.28-0.96-0.72c-2.6-8.85-5.84-19.85-13.61-26.69
			c-14.1-4.9-27.53-10.47-41.03-17.03c-0.5-0.24-0.7-0.84-0.46-1.34c0.24-0.5,0.84-0.7,1.34-0.46c13.49,6.55,26.9,12.12,40.99,17
			c0.12,0.04,0.23,0.11,0.33,0.19c8.32,7.22,11.67,18.61,14.36,27.76c0.16,0.53-0.15,1.09-0.68,1.24
			C337.22,242.81,337.13,242.82,337.03,242.82z"></path><path class="st2" d="M316.01,262.2c-0.55,0-1-0.45-1-1v-27.36c0-0.55,0.45-1,1-1s1,0.45,1,1v27.36
			C317.01,261.75,316.57,262.2,316.01,262.2z"></path><path class="st2" d="M213.07,292.08c-0.53,0-0.97-0.42-1-0.95l-2.22-48.19c-0.03-0.55,0.4-1.02,0.95-1.04
			c0.54-0.02,1.02,0.4,1.04,0.95l2.22,48.19c0.03,0.55-0.4,1.02-0.95,1.04C213.1,292.08,213.09,292.08,213.07,292.08z"></path><path class="st2" d="M247.5,325.66c-0.09,0-0.18-0.01-0.27-0.04c-0.53-0.15-0.84-0.7-0.69-1.23c1.23-4.39,4.56-7.82,7.67-10.6
			c0.49-0.43,0.98-0.87,1.47-1.3c2.62-2.29,5.33-4.66,7.11-7.59c1.89-3.1,2.8-7.67,0.57-10.9c-1.98-2.88-5.57-3.82-9.36-4.81
			c-1.58-0.41-3.21-0.84-4.73-1.42c-1.1-0.41-2.47-1.05-3.24-2.35c-1.12-1.9-0.41-4.16,0.22-5.7c3.28-7.96,9.39-14.42,14.34-19.16
			c9.62-9.2,20.36-17.16,31.93-23.66c0.48-0.27,1.09-0.1,1.36,0.38c0.27,0.48,0.1,1.09-0.38,1.36
			c-11.42,6.42-22.03,14.28-31.53,23.36c-4.81,4.6-10.74,10.86-13.88,18.48c-0.74,1.81-0.85,3.06-0.34,3.92
			c0.45,0.76,1.43,1.2,2.23,1.5c1.43,0.54,3.01,0.96,4.53,1.36c3.98,1.04,8.09,2.12,10.5,5.61c2.92,4.24,1.55,9.69-0.51,13.08
			c-1.94,3.19-4.77,5.66-7.5,8.05c-0.49,0.43-0.97,0.85-1.46,1.28c-2.88,2.58-5.98,5.75-7.07,9.64
			C248.34,325.37,247.94,325.66,247.5,325.66z"></path><path class="st2" d="M262.04,350.6c-5.63,0-11.32-0.26-16.98-1.13c-11.07-1.7-20.54-5.75-27.38-11.71
			c-0.42-0.36-0.46-0.99-0.1-1.41c0.36-0.42,0.99-0.46,1.41-0.1c6.55,5.71,15.67,9.59,26.37,11.24c9.79,1.5,19.74,1.15,29.36,0.81
			c5.57-0.2,11.88-0.42,17.15-2.97c0.5-0.24,1.1-0.03,1.34,0.46c0.24,0.5,0.03,1.09-0.46,1.34c-5.65,2.74-12.19,2.97-17.95,3.17
			C270.6,350.45,266.33,350.6,262.04,350.6z"></path><path class="st2" d="M212.96,360.06c-0.07,0-0.13-0.01-0.2-0.02c-0.54-0.11-0.89-0.64-0.78-1.18c1.06-5.22,1.8-10.6,2.21-15.98
			c0.04-0.55,0.51-0.96,1.07-0.92c0.55,0.04,0.96,0.52,0.92,1.07c-0.41,5.46-1.17,10.92-2.25,16.22
			C213.84,359.74,213.42,360.06,212.96,360.06z"></path><path class="st2" d="M299.46,361.99c-0.4,0-0.78-0.24-0.93-0.64l-1.46-3.77c-0.53-1.35-1.05-2.7-1.58-4.05
			c-0.2-0.51,0.06-1.09,0.57-1.29c0.51-0.2,1.09,0.06,1.29,0.57c0.52,1.35,1.05,2.7,1.57,4.05l1.47,3.77
			c0.2,0.52-0.06,1.09-0.57,1.29C299.71,361.97,299.58,361.99,299.46,361.99z"></path></g><g id="color"><path class="st3" d="M237.9,129.91c0.33,2.23,0.93,4.42,2.29,6.48c1.39-4.29,3.95-8.43,7.93-10.55s9.54-1.61,12.28,1.97
			c2.2,2.87,2.16,6.93,1.13,10.4s-2.9,6.63-4.12,10.04c-1.22,3.41-1.72,7.35-0.02,10.55c0,0,2.35-0.62,2.42-0.67
			c-0.67-4.32,1.2-8.66,3.7-12.25c1.09-1.57,2.32-3.07,3.08-4.83c0.9-2.1,1.07-4.45,0.94-6.73c-0.27-4.39-1.86-9.01-5.49-11.48
			c-2.02-1.38-4.49-1.97-6.93-2.07C248.33,120.5,241.54,124.13,237.9,129.91z"></path><circle class="st3" cx="260.11" cy="166.73" r="3.06"></circle></g></g><path class="st4" d="M435.37,380.24H87.47c-0.55,0-1-0.45-1-1s0.45-1,1-1h347.9c0.55,0,1,0.45,1,1S435.93,380.24,435.37,380.24z"></path></svg>