<svg transform="scale(1)" id="_0316_decision" xmlns="http://www.w3.org/2000/svg" xmlns:xlink="http://www.w3.org/1999/xlink" viewBox="0 0 500 500" class="show_show__wrapper__graphic__5Waiy "><title>React</title><defs><style>.cls-1{fill:url(#linear-gradient);}.cls-1,.cls-2,.cls-3,.cls-4,.cls-5,.cls-6,.cls-7,.cls-8,.cls-9,.cls-10,.cls-11,.cls-12,.cls-13,.cls-14,.cls-15,.cls-16,.cls-17,.cls-18,.cls-19,.cls-20,.cls-21,.cls-22,.cls-23{stroke-width:0px;}.cls-2{isolation:isolate;opacity:.18;}.cls-2,.cls-23{fill:#000000;}.cls-3{fill:url(#linear-gradient-11);}.cls-4{fill:url(#linear-gradient-12);}.cls-5{fill:url(#linear-gradient-13);}.cls-6{fill:url(#linear-gradient-10);}.cls-7{fill:url(#linear-gradient-17);}.cls-8{fill:url(#linear-gradient-16);}.cls-9{fill:url(#linear-gradient-15);}.cls-10{fill:url(#linear-gradient-14);}.cls-11{fill:url(#linear-gradient-4);}.cls-12{fill:url(#linear-gradient-2);}.cls-13{fill:url(#linear-gradient-3);}.cls-14{fill:url(#linear-gradient-8);}.cls-15{fill:url(#linear-gradient-9);}.cls-16{fill:url(#linear-gradient-7);}.cls-17{fill:url(#linear-gradient-5);}.cls-18{fill:url(#linear-gradient-6);}.cls-19{fill:#343A40;}.cls-20{fill:#495057;}.cls-21{fill:#F8F9FA;}.cls-22{fill:#E9ECEF;}</style><linearGradient id="linear-gradient" x1="4078.1" y1="2852.21" x2="4273.03" y2="2830.72" gradientTransform="translate(4550.23 3067.63) rotate(-180)" gradientUnits="userSpaceOnUse"><stop offset="0" stop-color="#231f20" stop-opacity="0" style="stop-color: rgb(33, 37, 41);"></stop><stop offset="1" stop-color="#231f20" style="stop-color: rgb(33, 37, 41);"></stop></linearGradient><linearGradient id="linear-gradient-2" x1="918.64" y1="2846.37" x2="918.64" y2="2771.52" gradientTransform="translate(-493.9 3067.63) scale(1 -1)" xlink:href="#linear-gradient"></linearGradient><linearGradient id="linear-gradient-3" x1="4205.6" y1="2836.63" x2="4204.42" y2="2818.42" gradientTransform="translate(4625.62 3067.63) rotate(-180)" xlink:href="#linear-gradient"></linearGradient><linearGradient id="linear-gradient-4" x1="4199.68" y1="2839.6" x2="4198.25" y2="2819.58" gradientTransform="translate(4625.62 3067.63) rotate(-180)" xlink:href="#linear-gradient"></linearGradient><linearGradient id="linear-gradient-5" x1="4194.76" y1="2844.15" x2="4192.17" y2="2804.12" gradientTransform="translate(4625.62 3067.63) rotate(-180)" xlink:href="#linear-gradient"></linearGradient><linearGradient id="linear-gradient-6" x1="4194.73" y1="2839.95" x2="4192.79" y2="2810.21" gradientTransform="translate(4625.62 3067.63) rotate(-180)" xlink:href="#linear-gradient"></linearGradient><linearGradient id="linear-gradient-7" x1="537.88" y1="2878.52" x2="732.82" y2="2857.05" gradientTransform="translate(-471 3093.94) scale(1 -1)" xlink:href="#linear-gradient"></linearGradient><linearGradient id="linear-gradient-8" x1="609.43" y1="2849.52" x2="619.13" y2="2780.9" gradientTransform="translate(-493.9 3067.63) scale(1 -1)" xlink:href="#linear-gradient"></linearGradient><linearGradient id="linear-gradient-9" x1="595.75" y1="2862.94" x2="594.57" y2="2844.74" gradientTransform="translate(-471 3093.94) scale(1 -1)" xlink:href="#linear-gradient"></linearGradient><linearGradient id="linear-gradient-10" x1="612.73" y1="2839.6" x2="611.31" y2="2819.58" gradientTransform="translate(-493.9 3067.63) scale(1 -1)" xlink:href="#linear-gradient"></linearGradient><linearGradient id="linear-gradient-11" x1="584.93" y1="2870.47" x2="582.32" y2="2830.43" gradientTransform="translate(-471 3093.94) scale(1 -1)" xlink:href="#linear-gradient"></linearGradient><linearGradient id="linear-gradient-12" x1="584.87" y1="2866.26" x2="582.95" y2="2836.53" gradientTransform="translate(-471 3093.94) scale(1 -1)" xlink:href="#linear-gradient"></linearGradient><linearGradient id="linear-gradient-13" x1="713.1" y1="2843.28" x2="767.17" y2="2845.37" gradientTransform="translate(-493.9 3067.63) scale(1 -1)" xlink:href="#linear-gradient"></linearGradient><linearGradient id="linear-gradient-14" x1="703.33" y1="2846.69" x2="736.08" y2="2835.51" gradientTransform="translate(-493.9 3067.63) scale(1 -1)" xlink:href="#linear-gradient"></linearGradient><linearGradient id="linear-gradient-15" x1="779.23" y1="2876.73" x2="712.69" y2="2887.82" gradientTransform="translate(-493.9 3067.63) scale(1 -1)" xlink:href="#linear-gradient"></linearGradient><linearGradient id="linear-gradient-16" x1="803.38" y1="2856.45" x2="747.75" y2="2841.9" gradientTransform="translate(-493.9 3067.63) scale(1 -1)" xlink:href="#linear-gradient"></linearGradient><linearGradient id="linear-gradient-17" x1="742.25" y1="2468.85" x2="745.38" y2="2687.2" gradientTransform="translate(-493.9 3067.63) scale(1 -1)" xlink:href="#linear-gradient"></linearGradient></defs><g id="background"><path class="cls-2" d="M163.31,105.27c-31.07,18.21-54.47,47.09-65.85,81.27-8.04,24.46-9.86,51.47-23.74,73.16-7.58,11.86-18.4,21.42-25.67,33.48-9.9,16.41-12.48,36.33-12.27,55.52.26,22.34,4.29,45.34,16.62,63.97,13.26,20.04,34.83,33.11,57.02,42.34,50.71,21.1,106.65,25.13,161.56,27.66,19.92.93,40.08,1.68,59.77-1.77,35.49-6.21,67.08-25.55,97.72-44.54,14.16-8.77,28.77-17.97,37.97-31.84,9.48-14.29,12.17-32.16,11.38-49.28-1.44-29.64-12.4-58.02-31.26-80.94-16.01-19.35-37.13-33.99-52.74-53.7-19.51-24.54-29.3-55.33-46.09-81.83-37.97-59.89-126.25-67.3-184.41-33.5Z"></path></g><g id="door_2"><rect class="cls-23" x="305.91" y="52.29" width="148.68" height="339.99"></rect><rect class="cls-23" x="297.06" y="381.89" width="172.6" height="13.51"></rect><rect class="cls-1" x="321.49" y="66.86" width="119.92" height="317.12"></rect><path class="cls-12" d="M419.38,244.87c.39.26.71.6.96,1,.16.52.23,1.06.2,1.61.18,2.05,2.19,3.39,4.06,4.25,1.92.9,3.91,1.64,5.95,2.22,1.27-1.42,2.01-3.25,2.09-5.16.06-1.89-.15-3.78-.63-5.61-.1-.78-.42-1.51-.94-2.1-.5-.41-1.09-.69-1.72-.82-1.82-.53-3.63-.98-5.47-1.38-1.59-.34-3.86-1.17-5.47-.88-3.39.61-.45,5.65.98,6.88Z"></path><path class="cls-13" d="M424.01,241.66h-3.07c-2.43,0-4.39-1.97-4.39-4.39h0v-.3c0-2.43,1.97-4.39,4.39-4.39h3.07v9.09h0Z"></path><path class="cls-23" d="M431.74,226.97l-5.86,1.84c-2.42.75-4.23,2.78-4.69,5.27-.55,2.56-.52,5.22.09,7.77.58,1.86,2.08,3.29,3.97,3.79l6.49,1.77v-20.44Z"></path><path class="cls-11" d="M431.74,226.97l-5.86,1.84c-2.42.75-4.23,2.78-4.69,5.27-.55,2.56-.52,5.22.09,7.77.58,1.86,2.08,3.29,3.97,3.79l6.49,1.77v-20.44Z"></path><ellipse class="cls-23" cx="431.74" cy="237.18" rx="5.37" ry="10.22"></ellipse><ellipse class="cls-17" cx="431.74" cy="237.18" rx="5.37" ry="10.22"></ellipse><ellipse class="cls-18" cx="431.56" cy="237.86" rx="4" ry="7.59"></ellipse></g><g id="door_1"><rect class="cls-23" x="84.44" y="52.29" width="148.68" height="339.99"></rect><rect class="cls-23" x="69.37" y="381.89" width="172.6" height="13.51"></rect><rect class="cls-16" x="97.61" y="66.84" width="119.92" height="317.12"></rect><path class="cls-14" d="M124.75,247.15c.07.46.07.92,0,1.38-.3.7-.85,1.25-1.55,1.56-3.12,1.84-6.38,3.74-9.99,4.01-.31.06-.64.02-.93-.12-.5-.28-.6-.95-.63-1.52l-.48-7.16c-.1-.67-.03-1.35.19-1.98.33-.63.83-1.16,1.44-1.54,2.98-1.93,6.17-3.5,9.52-4.69,1.7-.68,4.91,1.45,5.1,3.35.23,2.37-2.67,4.22-2.67,6.7Z"></path><path class="cls-15" d="M120.76,232.55h3.07c2.43,0,4.39,1.97,4.39,4.39v.3c0,2.43-1.97,4.39-4.39,4.39h-3.07v-9.09h0Z"></path><path class="cls-23" d="M113.03,226.97l5.86,1.84c2.42.76,4.22,2.79,4.69,5.27.55,2.56.52,5.22-.09,7.77-.59,1.86-2.09,3.29-3.98,3.79l-6.48,1.77v-20.44Z"></path><path class="cls-6" d="M113.03,226.97l5.86,1.84c2.42.76,4.22,2.79,4.69,5.27.55,2.56.52,5.22-.09,7.77-.59,1.86-2.09,3.29-3.98,3.79l-6.48,1.77v-20.44Z"></path><ellipse class="cls-23" cx="113.03" cy="237.18" rx="5.37" ry="10.22"></ellipse><ellipse class="cls-3" cx="113.03" cy="237.18" rx="5.37" ry="10.22"></ellipse><ellipse class="cls-4" cx="113.21" cy="237.86" rx="4" ry="7.59"></ellipse></g><g id="character"><path class="cls-21" d="M270.28,417.94c1.04,5.09,2.34,10.13,2.99,15.24.51,3.97.65,7.97.4,11.97-.15.85-.01,1.73.38,2.51.7,1.05,2.17,1.17,3.43,1.17s2.65-.08,3.38-1.07c.36-.57.56-1.23.59-1.91,3.22-26.36-2.16-53.06-.82-79.58.12-2.34,0-5.09-1.9-6.32-3.08-1.95-7.92,1.03-9.75,3.6-1.61,2.23-4.17.14-4.34,2.73-.64,10.01,2.14,24.87,3.12,34.87.55,5.64,1.39,11.24,2.53,16.79Z"></path><path class="cls-21" d="M235.28,388.66l-3.74,10.43c-1.55,4.32-5.45,9.21-7.03,13.55-.39.78-.48,1.67-.27,2.52.4,1.02,3.59,4.37,4.69,4.42,2.77.13,32.3-49.32,33.1-52.17.34-1.04.28-2.16-.18-3.15-.47-.79-1.16-1.42-1.98-1.82-4.98-2.75-12.32-.45-15.34,4.25-4.2,6.59-6.63,14.64-9.25,21.96Z"></path><path class="cls-19" d="M275.66,444.02c-.84-.24-1.73-.22-2.55.07-.82.68-1.24,1.73-1.11,2.79-.07,2.6.16,5.2.69,7.75.05.37.19.72.41,1.02.18.19.39.35.63.46,2.34,1.07,5.01,1.14,7.4.19,2.36-.97,4.49-2.42,6.27-4.24,1.5-1.44,2.99-3.38,2.51-5.4-.64-2.71-3.86-3.16-6.08-3.82-2.8-.82-5.25,1.56-8.16,1.2Z"></path><path class="cls-19" d="M218.59,418.45c-.31.33-.54.74-.67,1.17-.1.53-.04,1.07.19,1.56.66,1.57,1.54,3.04,2.63,4.35,3.58,4.71,7.46,9.17,11.61,13.37.45.57,1.1.96,1.82,1.08,1.29,0,1.99-1.46,2.19-2.73.39-2.52.14-5.1-.73-7.5-.86-2.34-2.29-4.47-3.07-6.84-.49-1.51-.72-3.1-.67-4.69.06-2.07-.06-3.19-1.88-4.34-1.24-.77-2.48-2.52-3.82-3.01-1.66-.6-2.68,1.39-3.52,2.51l-4.09,5.07Z"></path><path class="cls-20" d="M226.04,266.33c-2.64,5.86-5.31,11.72-6.04,18.12-1.55,13.58,5.93,26.35,9.27,39.6,2.68,10.67,2.7,21.88,5.54,32.51.5,2.2,1.38,4.31,2.6,6.21,3.81,5.46,11.36,6.6,18.01,6.48,6.84-.12,13.64-1.05,20.26-2.78,3.46-.9,7.23-2.34,8.72-5.58.67-1.81.92-3.75.75-5.67-.32-20.78-.64-41.66-4.24-62.12-.91-5.25-2.05-10.47-2.66-15.76-.95-8.34-.64-16.81-2.12-25.01-.13-1.1-.53-2.15-1.17-3.05-1.11-1.07-2.55-1.72-4.08-1.86-10.03-1.86-20.32-1.93-30.38-.21-4.42.74-5.79.69-7.91,4.69-2.45,4.61-4.38,9.63-6.56,14.43Z"></path><path class="cls-21" d="M284.2,263.66c3.63,7.7,8.49,14.76,13.02,21.96,2.45,3.89,4.84,7.92,5.86,12.4.52,2.22.8,4.69,2.47,6.26.25.27.59.44.95.5.88.08,1.44-.87,1.78-1.68,1.61-3.82,3.15-7.77,3.23-11.92.08-4.15-1.63-8.56-5.22-10.63.68-.62.53-1.72.28-2.61-3.11-11.25-13.1-20.39-13.28-32.05,0-1.95.23-3.89,0-5.86-.08-1.96-.96-3.81-2.45-5.1-5.02-3.77-12.81.54-12.47,6.49.49,7.72,2.47,15.26,5.81,22.23Z"></path><path class="cls-21" d="M272.9,154.1c.51,3.55.66,7.14.46,10.72-.2,3.52-.88,7.17-3.42,9.52-1,.74-1.94,1.55-2.81,2.44-1.48,1.84-1.36,4.43-1.38,6.79-.02,2.36-.43,5.06-2.44,6.31s-4.75.35-6.28-1.41c-1.41-1.88-2.25-4.13-2.43-6.47-.81-6.15-.46-12.4,1.03-18.42.82-4.05,2.51-7.86,4.97-11.18,1.73-2.17,5.07-5.37,7.98-5.75,3.26-.42,3.97,5.07,4.32,7.47Z"></path><path class="cls-23" d="M270.95,185.19c2.38.98,4.52,2.48,6.26,4.38,6.37,6.68,9.42,15.87,8.31,25.03-1.51,11.59-9.6,21.83-9.68,33.52,0,1.36,1.17,10.1.39,11.18-.45.5-1,.89-1.62,1.17-5.26,2.82-26.77,1.17-30.47,1.39-1.71.09-8.67-.75-10.24-1.45-1.48-.79-2.74-1.95-3.66-3.36-1.51-1.99,3.09-7.49,2.06-9.77-2.78-6.13-2.8-13.09-4.09-19.69-1.29-6.6-3.89-12.89-6.31-19.16-.53-1.14-.81-2.39-.83-3.64.2-1.47.75-2.88,1.61-4.09,2.73-4.58,5.64-9.38,10.17-12.13,4.54-2.75,10.18-3.23,15.46-3.39,2.44.04,4.88-.17,7.28-.63,1.81-.51,3.69-.76,5.57-.75,3.32-.06,6.63.41,9.8,1.39Z"></path><path class="cls-5" d="M265.74,183.56c2.4.9,9.67,4.17,11.46,6.01,6.37,6.68,9.42,15.87,8.31,25.03-1.51,11.59-9.6,21.83-9.68,33.52,0,1.36,1.17,10.1.39,11.18-.45.5-1,.89-1.62,1.17-5.26,2.82-26.77,1.17-30.47,1.39-1.71.09-8.67-.75-10.24-1.45-1.48-.79-2.74-1.95-3.66-3.36-1.51-1.99,3.09-7.49,2.06-9.77-2.78-6.13-2.8-13.09-4.09-19.69-1.29-6.6-3.89-12.89-6.31-19.16-.53-1.14-.81-2.39-.83-3.64.2-1.47.75-2.88,1.61-4.09,2.73-4.58,5.64-9.38,10.17-12.13,4.54-2.75,10.18-3.23,15.46-3.39,2.44.04,4.88-.17,7.28-.63,1.81-.51,3.69-.76,5.57-.75,3.27.14,1.56-1.37,4.59-.23Z"></path><path class="cls-21" d="M203.92,271.18c-1.27,4.53-2.06,9.19-2.34,13.89-.28,4.73.66,9.45,2.74,13.7.77,1.5,2.14,3.09,3.82,2.8,1.68-.29,2.34-2.19,2.7-3.82.38-1.96.59-3.95.61-5.95-.14-1.53.05-3.07.57-4.51.45-.93,1.17-1.66,1.68-2.55,1.17-1.98.97-4.39,1.08-6.68.48-10.92,7.34-20.52,9.69-31.21.44-1.65.54-3.37.28-5.05-.29-1.7-1.41-3.15-2.99-3.86-7.31-2.77-9.07,6.08-10.81,10.75-2.74,7.37-5.09,14.88-7.03,22.5Z"></path><path class="cls-23" d="M214.02,234.33c-.25,1.16-.21,2.37.11,3.52.68,1.4,1.78,2.56,3.14,3.32,2.61,1.8,5.54,3.7,8.7,3.33l5.64-19.12c.95-3.19,1.9-6.53,1.23-9.79-1.08-5.3-9.01-11.58-13.1-5.58-4.2,6.18-4.76,17.11-5.71,24.32Z"></path><path class="cls-10" d="M214.02,234.33c-.25,1.16-.21,2.37.11,3.52.68,1.4,1.78,2.56,3.14,3.32,2.61,1.8,5.54,3.7,8.7,3.33l5.64-19.12c.95-3.19,1.9-6.53,1.23-9.79-1.08-5.3-9.01-11.58-13.1-5.58-4.2,6.18-4.76,17.11-5.71,24.32Z"></path><path class="cls-22" d="M239.81,143.8c-1.25,3.23-1.37,6.77-1.82,10.21-.83,6.43-2.93,12.89-7.03,17.88-2,2.27-4.12,4.43-6.34,6.48-4.69,4.69-8.78,10.07-10.77,16.41-1.99,6.34-1.64,13.54,2.03,19.01,3.02,4.5,7.9,7.41,11.44,11.52,2.34,2.79,4.22,6.2,7.36,8.09,2.9,1.61,6.3,2.03,9.5,1.17,3.16-.88,6.12-2.37,8.72-4.37,1.86-1.25,3.5-2.81,4.84-4.61,1.38-2.2,2.34-4.63,2.81-7.18,3.23-13.99,1.73-28.57,1.49-42.93-.08-5.32,0-10.86,2.51-15.58,1.48-2.85,3.73-5.22,5.37-7.97,9.53-16.11-23.38-25.6-30.11-8.13Z"></path><path class="cls-9" d="M239.81,143.8c-1.25,3.23-1.37,6.77-1.82,10.21-.83,6.43-2.93,12.89-7.03,17.88-2,2.27-4.12,4.43-6.34,6.48-4.69,4.69-8.78,10.07-10.77,16.41-1.99,6.34-1.64,13.54,2.03,19.01,3.02,4.5,7.9,7.41,11.44,11.52,2.34,2.79,4.22,6.2,7.36,8.09,2.9,1.61,6.3,2.03,9.5,1.17,3.16-.88,6.12-2.37,8.72-4.37,1.86-1.25,3.5-2.81,4.84-4.61,1.38-2.2,2.34-4.63,2.81-7.18,3.23-13.99,1.73-28.57,1.49-42.93-.08-5.32,0-10.86,2.51-15.58,1.48-2.85,3.73-5.22,5.37-7.97,9.53-16.11-23.38-25.6-30.11-8.13Z"></path><path class="cls-23" d="M288.69,207.8c2.65,7.45,3.64,15.4,4.18,23.3.28,4.13.42,8.39-.94,12.29-.19.75-.6,1.43-1.17,1.96-.57.38-1.24.6-1.92.66-1.48.22-2.98.32-4.48.28-1.66.06-3.31-.34-4.76-1.17-2.43-1.59-3.14-4.77-3.64-7.63l-4.91-27.4c-.8-4.44-3.05-19.87,5.25-19.44,5.94.29,10.74,12.47,12.39,17.16Z"></path><path class="cls-8" d="M288.69,207.8c2.65,7.45,3.64,15.4,4.18,23.3.28,4.13.42,8.39-.94,12.29-.19.75-.6,1.43-1.17,1.96-.57.38-1.24.6-1.92.66-1.48.22-2.98.32-4.48.28-1.66.06-3.31-.34-4.76-1.17-2.43-1.59-3.14-4.77-3.64-7.63l-4.91-27.4c-.8-4.44-3.05-19.87,5.25-19.44,5.94.29,10.74,12.47,12.39,17.16Z"></path><path class="cls-7" d="M225.57,421.64c-2.68.8-5.52,1.86-7.03,4.21-1.17,1.79-1.41,4.07-2.48,5.92-1.49,2.53-4.31,3.9-7.03,5.05-10.27,4.32-20.99,7.47-31.96,9.38-4.32.75-9.08,1.54-11.92,4.89-3.87,4.57-2,12.04,2.41,16.09,4.42,4.06,10.55,5.54,16.41,6.73,32.22,6.42,65.14,8.63,97.93,6.6,18.75-1.17,38.78-4.07,53.01-16.41,1.3-1.17,2.63-2.5,2.77-4.23.2-2.34-1.9-4.25-3.79-5.71-31.68-24.37-66.62-44.77-108.31-32.51Z"></path></g></svg>