<svg transform="scale(1)" id="_0075_job_interview" xmlns="http://www.w3.org/2000/svg" xmlns:xlink="http://www.w3.org/1999/xlink" viewBox="0 0 500 500" class="show_show__wrapper__graphic__5Waiy "><title>React</title><defs><style>.cls-1{fill:url(#linear-gradient);}.cls-1,.cls-2,.cls-3,.cls-4,.cls-5,.cls-6,.cls-7,.cls-8,.cls-9,.cls-10,.cls-11,.cls-12,.cls-13,.cls-14,.cls-15,.cls-16,.cls-17,.cls-18,.cls-19,.cls-20,.cls-21,.cls-22,.cls-23,.cls-24,.cls-25,.cls-26,.cls-27,.cls-28,.cls-29,.cls-30,.cls-31,.cls-32,.cls-33,.cls-34,.cls-35,.cls-36,.cls-37,.cls-38,.cls-39,.cls-40,.cls-41,.cls-42{stroke-width:0px;}.cls-2{opacity:.18;}.cls-2,.cls-30{isolation:isolate;}.cls-2,.cls-42{fill:#212529;}.cls-3{fill:url(#linear-gradient-33);}.cls-4{fill:url(#linear-gradient-29);}.cls-5{fill:url(#linear-gradient-32);}.cls-6{fill:url(#linear-gradient-30);}.cls-7{fill:url(#linear-gradient-31);}.cls-8{fill:url(#linear-gradient-36);}.cls-9{fill:url(#linear-gradient-34);}.cls-10{fill:url(#linear-gradient-37);}.cls-11{fill:url(#linear-gradient-35);}.cls-12{fill:url(#linear-gradient-28);}.cls-13{fill:url(#linear-gradient-25);}.cls-14{fill:url(#linear-gradient-11);}.cls-15{fill:url(#linear-gradient-12);}.cls-16{fill:url(#linear-gradient-10);}.cls-17{fill:url(#linear-gradient-17);}.cls-18{fill:url(#linear-gradient-16);}.cls-19{fill:url(#linear-gradient-19);}.cls-20{fill:url(#linear-gradient-15);}.cls-21{fill:url(#linear-gradient-23);}.cls-22{fill:url(#linear-gradient-21);}.cls-23{fill:url(#linear-gradient-18);}.cls-24{fill:url(#linear-gradient-14);}.cls-25{fill:url(#linear-gradient-22);}.cls-26{fill:url(#linear-gradient-20);}.cls-27{fill:url(#linear-gradient-27);}.cls-28{fill:url(#linear-gradient-24);}.cls-29{fill:url(#linear-gradient-26);}.cls-30{fill:url(#linear-gradient-13);opacity:.69;}.cls-31{fill:url(#linear-gradient-4);}.cls-32{fill:url(#linear-gradient-2);}.cls-33{fill:url(#linear-gradient-3);}.cls-34{fill:url(#linear-gradient-8);}.cls-35{fill:url(#linear-gradient-9);}.cls-36{fill:url(#linear-gradient-7);}.cls-37{fill:url(#linear-gradient-5);}.cls-38{fill:url(#linear-gradient-6);}.cls-39{fill:#343A40;}.cls-40{fill:#F8F9FA;}.cls-41{fill:#E9ECEF;}</style><linearGradient id="linear-gradient" x1="308.28" y1="3756.99" x2="309.02" y2="3582.04" gradientTransform="translate(-67.16 4073.68) scale(1 -1)" gradientUnits="userSpaceOnUse"><stop offset="0" stop-color="#231f20" stop-opacity="0" style="stop-color: rgb(52, 58, 64);"></stop><stop offset="1" stop-color="#231f20" style="stop-color: rgb(52, 58, 64);"></stop></linearGradient><linearGradient id="linear-gradient-2" x1="273.54" y1="3811.44" x2="305.66" y2="3664.68" gradientTransform="translate(-31 4081.54) scale(1 -1)" xlink:href="#linear-gradient"></linearGradient><linearGradient id="linear-gradient-3" x1="297.01" y1="3841.39" x2="294.56" y2="3738.47" gradientTransform="translate(-31 4081.54) scale(1 -1)" xlink:href="#linear-gradient"></linearGradient><linearGradient id="linear-gradient-4" x1="215.2" y1="3706.89" x2="210.29" y2="3648.32" xlink:href="#linear-gradient"></linearGradient><linearGradient id="linear-gradient-5" x1="153.35" y1="3723.48" x2="174.42" y2="3696.04" xlink:href="#linear-gradient"></linearGradient><linearGradient id="linear-gradient-6" x1="127.74" y1="3705.22" x2="129.53" y2="3674.99" gradientTransform="translate(-31 4081.54) scale(1 -1)" xlink:href="#linear-gradient"></linearGradient><linearGradient id="linear-gradient-7" x1="106.65" y1="3702.19" x2="105.01" y2="3655.8" gradientTransform="translate(-31 4081.54) scale(1 -1)" xlink:href="#linear-gradient"></linearGradient><linearGradient id="linear-gradient-8" x1="106.36" y1="3694.8" x2="105.49" y2="3670.08" gradientTransform="translate(-31 4081.54) scale(1 -1)" xlink:href="#linear-gradient"></linearGradient><linearGradient id="linear-gradient-9" x1="128.46" y1="3701.43" x2="126.83" y2="3655.03" gradientTransform="translate(-31 4081.54) scale(1 -1)" xlink:href="#linear-gradient"></linearGradient><linearGradient id="linear-gradient-10" x1="128.16" y1="3694.53" x2="127.3" y2="3670.02" gradientTransform="translate(-31 4081.54) scale(1 -1)" xlink:href="#linear-gradient"></linearGradient><linearGradient id="linear-gradient-11" x1="150.28" y1="3700.66" x2="148.65" y2="3654.27" gradientTransform="translate(-31 4081.54) scale(1 -1)" xlink:href="#linear-gradient"></linearGradient><linearGradient id="linear-gradient-12" x1="150.02" y1="3694.37" x2="149.11" y2="3668.73" gradientTransform="translate(-31 4081.54) scale(1 -1)" xlink:href="#linear-gradient"></linearGradient><linearGradient id="linear-gradient-13" x1="316.01" y1="3890.7" x2="325.32" y2="3891.68" gradientTransform="translate(-513.52 4012.59) rotate(6.62) scale(1 -1)" gradientUnits="userSpaceOnUse"><stop offset=".02" stop-color="#fff" stop-opacity="0"></stop><stop offset=".58" stop-color="#fff" stop-opacity=".39"></stop><stop offset=".68" stop-color="#fff" stop-opacity=".68"></stop><stop offset="1" stop-color="#fff"></stop></linearGradient><linearGradient id="linear-gradient-14" x1="285.99" y1="3878.54" x2="297.01" y2="3878.54" xlink:href="#linear-gradient"></linearGradient><linearGradient id="linear-gradient-15" x1="194.08" y1="3732.87" x2="224.4" y2="3732.87" xlink:href="#linear-gradient"></linearGradient><linearGradient id="linear-gradient-16" x1="197.62" y1="3827.77" x2="272.43" y2="3896.05" xlink:href="#linear-gradient"></linearGradient><linearGradient id="linear-gradient-17" x1="211.88" y1="3738.85" x2="111.1" y2="3945.87" xlink:href="#linear-gradient"></linearGradient><linearGradient id="linear-gradient-18" x1="106.77" y1="3816.31" x2="242.33" y2="3807.2" xlink:href="#linear-gradient"></linearGradient><linearGradient id="linear-gradient-19" x1="151.44" y1="3849.8" x2="201.45" y2="3866.58" xlink:href="#linear-gradient"></linearGradient><linearGradient id="linear-gradient-20" x1="144.1" y1="3794.34" x2="173.27" y2="3876.92" xlink:href="#linear-gradient"></linearGradient><linearGradient id="linear-gradient-21" x1="186.67" y1="3825.38" x2="212" y2="3821.04" xlink:href="#linear-gradient"></linearGradient><linearGradient id="linear-gradient-22" x1="166.8" y1="3721.16" x2="273.39" y2="3790.26" xlink:href="#linear-gradient"></linearGradient><linearGradient id="linear-gradient-23" x1="258.35" y1="3701.76" x2="201.74" y2="3678.24" xlink:href="#linear-gradient"></linearGradient><linearGradient id="linear-gradient-24" x1="254.02" y1="3696.5" x2="207.62" y2="3677.22" xlink:href="#linear-gradient"></linearGradient><linearGradient id="linear-gradient-25" x1="214.2" y1="3691.47" x2="211.34" y2="3657.32" xlink:href="#linear-gradient"></linearGradient><linearGradient id="linear-gradient-26" x1="447.4" y1="3723.48" x2="468.47" y2="3696.04" xlink:href="#linear-gradient"></linearGradient><linearGradient id="linear-gradient-27" x1="421.78" y1="3705.22" x2="423.58" y2="3674.99" gradientTransform="translate(-31 4081.54) scale(1 -1)" xlink:href="#linear-gradient"></linearGradient><linearGradient id="linear-gradient-28" x1="400.69" y1="3702.19" x2="399.06" y2="3655.8" gradientTransform="translate(-31 4081.54) scale(1 -1)" xlink:href="#linear-gradient"></linearGradient><linearGradient id="linear-gradient-29" x1="400.4" y1="3694.8" x2="399.53" y2="3670.08" gradientTransform="translate(-31 4081.54) scale(1 -1)" xlink:href="#linear-gradient"></linearGradient><linearGradient id="linear-gradient-30" x1="422.51" y1="3701.43" x2="420.87" y2="3655.03" gradientTransform="translate(-31 4081.54) scale(1 -1)" xlink:href="#linear-gradient"></linearGradient><linearGradient id="linear-gradient-31" x1="422.21" y1="3694.53" x2="421.35" y2="3670.02" gradientTransform="translate(-31 4081.54) scale(1 -1)" xlink:href="#linear-gradient"></linearGradient><linearGradient id="linear-gradient-32" x1="444.32" y1="3700.66" x2="442.69" y2="3654.27" gradientTransform="translate(-31 4081.54) scale(1 -1)" xlink:href="#linear-gradient"></linearGradient><linearGradient id="linear-gradient-33" x1="444.06" y1="3694.37" x2="443.16" y2="3668.73" gradientTransform="translate(-31 4081.54) scale(1 -1)" xlink:href="#linear-gradient"></linearGradient><linearGradient id="linear-gradient-34" x1="438.73" y1="3772.15" x2="531.44" y2="3772.15" xlink:href="#linear-gradient"></linearGradient><linearGradient id="linear-gradient-35" x1="375.99" y1="3786.96" x2="541.63" y2="3842.83" xlink:href="#linear-gradient"></linearGradient><linearGradient id="linear-gradient-36" x1="421.06" y1="3820.92" x2="467.62" y2="3794.27" xlink:href="#linear-gradient"></linearGradient><linearGradient id="linear-gradient-37" x1="384.6" y1="3883.35" x2="571.32" y2="3776.52" xlink:href="#linear-gradient"></linearGradient></defs><path class="cls-1" id="shadow" d="M53.18,395.03c-3.25,1.21-6.85,5.14-4.25,7.44.91.81,2.25.9,3.47.95,124.2,4.59,248.47,5.69,372.78,3.3,3.46-.07,7.58-.52,9.2-3.58,1.62-3.06-.61-7.13-3.8-8.65s-6.87-1.27-10.38-1.06c-15.19.92-30.44.4-45.54-1.54-4.8-.61-9.71-1.41-14-3.61-2.95-1.51-5.56-3.64-8.55-5.06-4.91-2.37-10.52-2.74-15.96-3.04-40.43-2.25-80.91-2.87-121.43-1.86-20.24.51-40.46,1.42-60.67,2.73-7.95.52-17.2-.11-24.7,2.76-7.5,2.87-13.39,6.07-21.52,7-18.1,2.07-37.11-2.2-54.65,4.21Z"></path><path class="cls-2" id="background" d="M154.81,61.8c16.8-7.22,35.94-3.13,54.22-2.96,25.59.18,52.21-7.49,76.06,1.66,14.19,5.39,25.59,16.27,36.56,26.8,16.45,15.84,33.24,32.12,43.6,52.48,4.25,8.44,7.49,17.61,13.67,24.72,11.49,13.05,30.2,15.93,46.29,22.54,29.68,12.28,52.48,40.39,57,72.15,4.52,31.77-9.92,65.79-36.63,83.47-23.41,15.49-52.74,17.93-80.75,19.93l-163.98,11.74c-36.81,2.61-74.5,5.22-109.89-5.31-31.27-9.22-61.88-31.07-73.13-62.75-13.31-37.25,6-74.5,22.63-107.39,10.44-20.64,22.97-38.73,37.77-56.46,21.06-25.08,45.95-67.47,76.58-80.6Z"></path><g id="table"><rect class="cls-42" x="150.11" y="260.48" width="230.89" height="18.1"></rect><rect class="cls-42" x="188.66" y="278.01" width="139.16" height="127.2"></rect><rect class="cls-32" x="188.66" y="278.5" width="139.16" height="126.71"></rect><rect class="cls-33" x="149.87" y="260.48" width="230.89" height="18.1"></rect></g><g id="character_2"><path class="cls-42" d="M131.61,391.11c-.06.84.13,1.68.52,2.43.58.82,1.36,1.48,2.26,1.92,5.8,3.2,11.82,6,18.02,8.35,1.48.52,3.04,1.13,4.61.95s3.13-1.31,3.31-2.87c.18-1.31-.7-2.52-1.48-3.56-4.18-5.57-8.5-11.14-12.97-16.54-.27-.36-.59-.68-.95-.95-.49-.24-1.02-.39-1.57-.44-2.96-.44-8.27-2.35-10.7.35-2.18,2.36-1.14,7.44-1.04,10.36Z"></path><path class="cls-31" d="M131.61,391.11c-.06.84.13,1.68.52,2.43.58.82,1.36,1.48,2.26,1.92,5.8,3.2,11.82,6,18.02,8.35,1.48.52,3.04,1.13,4.61.95s3.13-1.31,3.31-2.87c.18-1.31-.7-2.52-1.48-3.56-4.18-5.57-8.5-11.14-12.97-16.54-.27-.36-.59-.68-.95-.95-.49-.24-1.02-.39-1.57-.44-2.96-.44-8.27-2.35-10.7.35-2.18,2.36-1.14,7.44-1.04,10.36Z"></path><path class="cls-42" d="M96.59,340.55h0c2.74,0,4.96,2.21,4.97,4.95h0v43.61h-9.94v-43.6c0-2.74,2.22-4.96,4.96-4.96,0,0,0,0,.01,0Z"></path><rect class="cls-42" x="73.53" y="383.8" width="47.69" height="6.44" rx="3.22" ry="3.22"></rect><path class="cls-37" d="M96.59,340.55h0c2.74,0,4.97,1.98,4.97,4.43v38.89h-9.94v-38.89c0-2.45,2.23-4.43,4.97-4.43Z"></path><rect class="cls-38" x="73.53" y="383.8" width="47.69" height="6.44" rx="3.22" ry="3.22"></rect><circle class="cls-42" cx="75.09" cy="395.03" r="4.52"></circle><circle class="cls-42" cx="96.94" cy="395.03" r="4.52"></circle><circle class="cls-42" cx="118.78" cy="395.03" r="4.52"></circle><circle class="cls-36" cx="75.09" cy="395.03" r="4.52"></circle><circle class="cls-34" cx="75.06" cy="395.1" r="2.41"></circle><circle class="cls-35" cx="96.94" cy="395.03" r="4.52"></circle><circle class="cls-16" cx="96.88" cy="394.9" r="2.39"></circle><circle class="cls-14" cx="118.78" cy="395.03" r="4.52"></circle><circle class="cls-15" cx="118.74" cy="394.99" r="2.5"></circle><rect class="cls-40" x="216.64" y="151.42" width="42.21" height="65.44" transform="translate(-19.64 28.64) rotate(-6.62)"></rect><rect class="cls-42" x="216.64" y="151.42" width="42.21" height="65.44" transform="translate(-19.64 28.64) rotate(-6.62)"></rect><rect class="cls-30" x="216.64" y="151.42" width="42.21" height="65.44" transform="translate(-19.64 28.64) rotate(-6.62)"></rect><path class="cls-24" d="M228.13,180.75c.47-.02.93.13,1.3.41.54.49.49,1.36.26,2.05-.72,2.16-2.7,3.64-3.76,5.66-2.64,4.98.88,11.54-1.54,16.59-.96,1.98-2.71,3.47-4.83,4.09-.54-1.35-.78-2.8-.72-4.25-.05-5.69,1.23-24.92,9.29-24.55Z"></path><path class="cls-39" d="M55.51,168.93c-1.66-5.66-3.48-11.49-7.49-15.84-4-4.35-10.88-6.61-15.93-3.64-1.57,10.1-3.13,20.45-1.31,30.55,1.83,10.09,7.57,20.04,16.88,24.11-8.18,6.19-8.18,18.26-7.4,28.44,1.82,23.59,3.75,47.17,5.57,70.76.52,6.61,1.04,13.31,3.92,19.32,4.7,10.01,15.23,16.28,26.02,18.63,10.79,2.35,22.01,1.31,32.98.26,7.49-.7,15.23-1.57,21.5-5.66,6.27-4.09,10.62-12.27,7.75-19.15-3.9-9.4-16.71-10.01-26.98-10.35-9.59-.26-19.11-1.66-28.37-4.18-2.09-.52-4.25-1.21-5.92-2.7-2-1.82-2.87-4.52-3.56-7.05-6.27-22.11-7.05-46-5.14-68.89,1.71-19.15-7.05-36.42-12.54-54.61Z"></path><path class="cls-39" d="M128.09,318.27c2.09,20.89,2.09,41.95,2.09,62.92,5.86.42,11.74.54,17.61.35-.04-5.01.31-10.01,1.04-14.97.52-3.39,1.31-6.79,1.91-10.27,2.75-15.13,2.3-30.66-1.31-45.61-.51-2.32-1.21-4.59-2.09-6.79-.61-1.48-1.48-3.04-2.96-3.64s-3.39-.09-4.96.44c-3.13,1.04-6.35,2.09-9.49,3.22-2.17.7-6.35,1.31-7.39,3.57-1.04,2.09.52,3.57,2,4.78,2.33,1.84,3.28,2.77,3.54,5.99Z"></path><path class="cls-20" d="M128.09,318.27c2.09,20.89,2.09,41.95,2.09,62.92,5.86.42,11.74.54,17.61.35-.04-5.01.31-10.01,1.04-14.97.52-3.39,1.31-6.79,1.91-10.27,2.75-15.13,2.3-30.66-1.31-45.61-.51-2.32-1.21-4.59-2.09-6.79-.61-1.48-1.48-3.04-2.96-3.64s-3.39-.09-4.96.44c-3.13,1.04-6.35,2.09-9.49,3.22-2.17.7-6.35,1.31-7.39,3.57-1.04,2.09.52,3.57,2,4.78,2.33,1.84,3.28,2.77,3.54,5.99Z"></path><path class="cls-42" d="M102.24,180.42c-2.87-.44-5.83-.87-8.7-.61-1.85.24-3.68.64-5.46,1.21-3.83,1.04-7.57,2.26-10.96,4.35-5.4,3.39-9.05,8.88-12.36,14.36-4.23,6.92-7.95,14.13-11.14,21.58-2.17,5.22-4,10.79-3.56,16.45.17,1.82.52,3.64,1.57,5.14,1.1,1.51,2.49,2.78,4.09,3.74,2,1.4,3.92,2.79,5.92,4.18,1.57,1.14,3.57,2.26,5.22,1.31.78,17,1.04,33.85,1.82,50.74.09,2.43,2.09,6.88,4.44,7.66,1.66.52,1.82-2,3.22-2.96,9.99-6.81,18.17-16.01,28.04-23.15,9.87-7.14,22.19-12.36,33.85-9.22-1.31-16.62-2.43-33.33-3.39-49.96,12.88,3.48,23.76,12.62,36.73,15.84,1.74.44,3.57.78,5.31.44,1.91-.35,3.56-1.57,5.13-2.7,11.06-7.83,22.2-15.66,33.25-23.5.82-.44,1.46-1.15,1.82-2,.44-1.21-.26-2.43-.87-3.56-1.82-3.13-3.57-6.27-5.4-9.31-10.48,8.55-22.77,14.6-35.94,17.67-2,.43-4.09.87-6.07.26s-3.48-1.92-4.96-3.22c-7.05-6.27-13.75-13.05-21.32-18.62-7.57-5.57-16.19-10.18-25.59-11.58-4.86-.69-10.79-1.04-13.22-5.39-.5.26-.98.55-1.44.87Z"></path><path class="cls-42" d="M217.04,213.33c-.36.86-1,1.56-1.82,2-11.05,7.83-22.19,15.66-33.25,23.5-1.57,1.14-3.22,2.35-5.13,2.7-1.74.35-3.57,0-5.31-.44-12.97-3.22-23.84-12.36-36.73-15.84l2.19-32.25c7.07,5.38,20.13,16.23,26.8,22.15,1.48,1.31,3.04,2.7,4.96,3.22s4.09.17,6.07-.26c13.17-3.07,25.47-9.11,35.94-17.67,1.82,3.04,3.57,6.18,5.4,9.31.62,1.14,1.32,2.35.88,3.56Z"></path><path class="cls-18" d="M217.04,213.33c-.36.86-1,1.56-1.82,2-11.05,7.83-22.19,15.66-33.25,23.5-1.57,1.14-3.22,2.35-5.13,2.7-1.74.35-3.57,0-5.31-.44-12.97-3.22-23.84-12.36-36.73-15.84l2.19-32.25c7.07,5.38,20.13,16.23,26.8,22.15,1.48,1.31,3.04,2.7,4.96,3.22s4.09.17,6.07-.26c13.17-3.07,25.47-9.11,35.94-17.67,1.82,3.04,3.57,6.18,5.4,9.31.62,1.14,1.32,2.35.88,3.56Z"></path><path class="cls-17" d="M134.79,225.24c.96,16.62,2.09,33.33,3.39,49.96-11.66-3.13-24.02,2.09-33.85,9.22-9.84,7.13-18.01,16.34-28.02,23.15-1.4.96-1.57,3.48-3.22,2.96-2.35-.78-4.35-5.22-4.44-7.66-.78-16.88-1.04-33.76-1.82-50.74-1.65.96-3.64-.17-5.22-1.31-2-1.39-3.92-2.78-5.92-4.18-1.6-.96-2.99-2.23-4.09-3.74-1.04-1.48-1.4-3.31-1.57-5.14-.44-5.65,1.39-11.23,3.56-16.45,3.19-7.45,6.91-14.67,11.14-21.58,3.31-5.46,6.96-10.96,12.36-14.36,3.39-2.09,7.13-3.31,10.96-4.35,1.78-.57,3.61-.98,5.46-1.21,2.87-.26,5.83.17,8.7.61.45-.32.91-.61,1.4-.87,2.43,4.35,8.35,4.7,13.22,5.39,5.19.83,10.21,2.49,14.87,4.91,3.76,1.89,1.88.66,5.24,3.13.42.3-1.14,9.24-.73,9.56l-1.44,22.69Z"></path><path class="cls-23" d="M82.91,259.97v-4.91c-.01-.13.02-.27.09-.38.13-.12.31-.17.49-.15l18.94.24c.34-.04.68.07.93.31.13.23.17.49.12.75l-.21,2.91c.08.33-.12.65-.44.74-.1.03-.21.02-.32,0h-9.23c-2.77,0-6.55-.69-9.23,0-1.66.43-1.27.8-1.31,2.69-.04,1.46-.07,2.92-.09,4.38-.05,2.91-.07,5.83-.06,8.75,0,4.86.1,9.77.55,14.63.06.67,1.71,8.02,1.61,8.12l-11.29,11.54s-4.16-.53-4.44-7.66c-.28-7.13-2.51-50.56-2.51-50.56l8.75-18.32,10.13-22.54s-1.93,25.38-2.6,48.99"></path><path class="cls-40" d="M122.78,197.22c-3.9-14.89-7.61-11.83-13.74-10.85-6.13.98-6.54,8.24-6.54,8.24,1.64,9.16,1.82,31.04,1.64,45.92-.08,12.62-2.49,23.33-.49,35.77.18,1.21-2.43,3.25-1.21,3.77.73.26,1.53.26,2.26,0,5.83-1.4,10.44-6.27,16.36-7.22.7-.09,1.48-.26,1.74-.78.11-.22.17-.46.18-.7,1.65-13.22,3.22-26.45,4.86-39.77.44-3.83.96-7.75.44-11.66-.96-7.22-5.05-21.58-5.31-21.32"></path><path class="cls-19" d="M102.71,196.08c.46,3.38,2.2,6.12,4.54,8.6.13.17.32.29.53.33.19,0,.38-.08.53-.2,1.84-1.2,3.31-2.88,4.25-4.86.61,1.53.87,3.18.74,4.82-.28,3.76.33,7.71-.18,11.44-1.18,8.75-2.35,15.88-5.62,26.05,2.67,1.29,7.35-.94,8.45-3.7s.69-5.83.48-8.79c-.89-12.66,2.28-25.56-.27-38-.07-.74-.4-1.43-.94-1.95-.57-.35-1.24-.5-1.91-.45-2.68-.04-5.35.02-8.03.19-.69-.02-1.38.16-1.97.53-1.21.92-.8,4.5-.6,5.98Z"></path><path class="cls-40" d="M97.02,180.94c-.26.87.18,1.74.52,2.61,3.04,6.53,6.44,12.88,10.01,19.06,1.81-3.99,3.93-7.83,6.35-11.49.14-.24.35-.42.61-.52.29.02.55.19.7.44,2.26,2.35,4.61,4.7,7.57,6.18,1.48.69,3.13,1.31,4,2.7.96.08,1.14-1.31.96-2.26-.85-3.5-2.05-6.91-3.57-10.18-1.21-2.61-2.96-5.46-5.83-6-1.39-.26-2.87.08-4.25.08-4.25.09-6-2.7-9.31-4.61-2.71-1.66-6.88,1.13-7.76,4Z"></path><path class="cls-42" d="M113.91,199.31c.49.57.92,1.18,1.31,1.82.7,1.57,0,3.3-.52,4.96-1.13,3.48-1.48,7.22-1.74,10.96-.78,12.01-1.31,24.02-3.48,35.85-.29,1.19-.4,2.42-.35,3.64.21,1.26.65,2.47,1.31,3.56l3.13,6.27c2.2-3.21,3.9-6.73,5.05-10.44.29-.94.49-1.9.61-2.87.05-1.41-.13-2.82-.52-4.18-1.65-7.66-1.21-13.7-.74-22.19.87-6.44,2.05-13.58,2.48-20.04.08-1.65,0-3.57-1.21-4.78-.43-.35-.95-.7-1.04-1.21-.06-.35-.03-.71.09-1.04.26-1.04.61-2.09.87-3.13.11-.24.14-.52.08-.78-.08-.44-.61-.7-1.04-.87-1.72-.84-3.06-2.3-3.74-4.09.18.44-1.82,3.13-1.91,4-.1,1.64.39,3.26,1.38,4.57Z"></path><path class="cls-41" d="M212.51,196.52c-.09-1.39-.26-2.87.17-4.18.43-1.31,1.48-2.43,2.53-3.48,3.13-3.04,6.18-6.07,9.31-9.05.58,1.66.46,3.48-.35,5.05-.52,1.04-1.39,1.91-1.74,3.04-.18.65-.27,1.32-.26,2,0,3.48.61,7.05.17,10.53-.44,3.48-2.26,7.13-5.57,8.35-.27.11-.58.14-.87.09-.23-.06-.44-.18-.61-.35-1.89-1.48-3.26-3.52-3.92-5.83-.61-2.25,1.21-3.93,1.13-6.17Z"></path><path class="cls-42" d="M132.94,248.48c-2.09,3.92-2.33,4.78-8.13,8.69-.12.27-.3.5-.52.7-.19.07-.4.1-.61.09-5.83.26-11.66-.96-17.41-1.57-10.79-1.04-35.99-.56-43.6-4.96-4.44-1.4-13-7.77-12.91-12.39,0-3.31-.41-10.62,2.2-12.62.33-.25.5-2.85,1.06-2.9,1.14-1.98.44-2.56,4.76-11.13,10.76-21.39,19.32-27.01,24.07-28.74s6.13,22.55,5.4,25.98c-.73,3.43-11.95,23.43-11.95,23.43,0,0,6.27,1.78,10.78,2.95,14.88,3.92,30.46,4.78,45.86,5.57.26,1.31,1.61,5.67,1,6.88Z"></path><path class="cls-26" d="M132.82,246.52c-2.09,3.92-1.82,4.67-3.93,8.58-.17.26-4.94,2.27-5.16,2.77,0,.05-.04.08-.06.08-5.83.26-11.66-.96-17.41-1.57-10.79-1.04-35.99-.56-43.6-4.96-4.44-1.4-13-7.77-12.91-12.39,0-3.31-.41-10.62,2.2-12.62.33-.25.5-2.85,1.06-2.9,1.14-1.97.44-2.56,4.76-11.13,10.77-21.38,19.33-27,24.07-28.73s6.13,22.55,5.4,25.98c-.73,3.43-11.95,23.43-11.95,23.43,0,0,6.3,1.82,10.78,2.95,14.74,3.88,30.14,4.77,45.4,5.54h.46c.26,1.33,1.49,3.73.88,4.95Z"></path><path class="cls-22" d="M132.82,246.52c-2.09,3.92-1.75,4.13-3.84,8.05-.18.26-5.03,2.8-5.25,3.31-.26-.25-.5-.54-.71-.84-1.61-2.39-1.84-5.46-.61-8.06.66-1.27,1.56-2.4,2.63-3.35,1.85-1.76,4.03-3.13,6.41-4.06h.46c.29,1.33,1.51,3.73.9,4.95Z"></path><path class="cls-41" d="M139.06,246.06c1.21.52,2.35,1.13,3.48,1.74,6.17,3.3,12.36,6.68,17.84,10.96.61.52,1.31,1.13,1.31,1.91,0,1.04-1.13,1.66-2.17,2-4.64,1.45-9.63,1.33-14.19-.35-3.48-1.31-6.79-3.48-10.44-3.83-.87-.04-1.73-.12-2.59-.25-1.28-.34-2.48-.89-3.56-1.65-2.26-1.4-4.61-3.48-4.44-6.18.26-4.35,5.31-5.46,8.88-5.46,2,0,4,.69,5.91.52,3.13-.26,6.36.35,9.57.35.52-.06,1.04.06,1.48.35.47.49.58,1.22.26,1.82-.61,1.57-2.43,2.26-4.09,2.61-1.74.44-3.57.78-5.31.44-.95-.16-1.8-.69-2.35-1.48-.26-.42-.44-.9-.52-1.39-.11-.77.01-1.56.35-2.26"></path><path class="cls-39" d="M73.09,310.53c21.19,5.47,43.64,2.97,63.1-7.05-.26,3.82,15.05,59.5,18.1,69.82.28.9,1.15,1.48,2.09,1.39,4.52-.52,5.92,2.17,17.23-4.25-8.09-6.07-5.57-69.01-10.01-78.07-2.35-4.79-4.53-10.27-9.4-12.45-5.4-2.43-12.62.18-17.15-3.64,0,0-4.32-5.65-20.64.88-16.32,6.53-43.5,29.85-43.33,33.36Z"></path><path class="cls-25" d="M73.09,310.53c21.19,5.47,43.64,2.97,63.1-7.05-.26,3.82,15.05,59.5,18.1,69.82.28.9,1.15,1.48,2.09,1.39,4.52-.52,5.92,2.17,17.23-4.25-8.09-6.07-5.57-69.01-10.01-78.07-2.35-4.79-4.53-10.27-9.4-12.45-5.4-2.43-12.62.18-17.15-3.64,0,0-4.32-5.65-20.64.88-16.32,6.53-43.5,29.85-43.33,33.36Z"></path><path class="cls-42" d="M161.16,386.76c.19.56.56,1.05,1.04,1.4.5.21,1.03.33,1.57.35,8.18.09,16.01-2.87,23.68-5.74,2-.78,4.01-1.57,5.57-3.04,1.57-1.47,2.26-3.92,1.31-5.83-1.21-2.26-4.25-2.7-6.79-2.79-3.83-.17-7.66-.43-11.49-.61-.7-.06-1.4-.03-2.09.09-.87.27-1.72.62-2.53,1.04-2.04,1.11-4.2,1.99-6.44,2.61-1.57.44-3.92.44-5.22,1.66-2.8,2.57.16,8.08,1.38,10.86Z"></path><path class="cls-21" d="M161.16,386.76c.19.56.56,1.05,1.04,1.4.5.21,1.03.33,1.57.35,8.18.09,16.01-2.87,23.68-5.74,2-.78,4.01-1.57,5.57-3.04,1.57-1.47,2.26-3.92,1.31-5.83-1.21-2.26-4.25-2.7-6.79-2.79-3.83-.17-7.66-.43-11.49-.61-.7-.06-1.4-.03-2.09.09-.87.27-1.72.62-2.53,1.04-2.04,1.11-4.2,1.99-6.44,2.61-1.57.44-3.92.44-5.22,1.66-2.8,2.57.16,8.08,1.38,10.86Z"></path><path class="cls-41" d="M139.41,138.47c.08,3.64,1.13,7.83,4.35,9.4.69.35,1.57.61,2.09,1.31.69.96.17,2.43-.7,3.31-.87.88-2,1.39-2.96,2.17-1.92,1.57-2.7,4.09-3.04,6.53s-.52,4.86-1.39,7.14c-1.5,3.69-4.85,6.31-8.79,6.87-1.66.18-3.39,0-5.14.18s-3.48.78-4.44,2.17c-1.21,1.74-.87,4.35-2.35,5.74-1.48,1.39-4,1.04-6,.44-2.35-.61-4.86-1.4-6.18-3.39-.63-1.06-1.02-2.25-1.13-3.48-1.13-7.13.52-14.44-.52-21.49-.44-2.79-1.31-5.46-1.65-8.35-.53-3.57-.35-7.2.52-10.7,1.21-4.7,3.92-9.31,8.18-11.58,3.48-1.82,7.66-2,11.66-1.74,5.09.3,10.09,1.45,14.8,3.4,4.07,1.74,2.6,8.26,2.68,12.09Z"></path><path class="cls-39" d="M136.1,119.83c1.37.97,2.52,2.21,3.39,3.64.78,1.48.87,3.48-.26,4.79-.87,1.04-2.35,1.48-3.64,1.82-5.74,1.48-12.19,2.7-17.41-.18-.16-.1-.34-.15-.52-.17-.52,0-.87.61-.95,1.13-1.51,5.99-2.41,12.11-2.7,18.27-.69.26-1.21-.61-1.57-1.21-.4-.86-1.07-1.56-1.91-2-.87-.44-2-.44-2.61.26-.31.32-.55.71-.7,1.13-1.13,3.31.96,7.39,4.25,8.44-2.09,1.48-3.04,4.01-4.25,6.27-.71,1.41-1.58,2.72-2.61,3.92-.69.78-1.48,1.65-2.52,1.74-.96.02-1.87-.44-2.43-1.21-.52-.81-.93-1.69-1.21-2.61-.7-2.09-1.31-4.09-2-6.18-.8-2.28-1.47-4.61-2-6.96-.47-2.29-.8-4.61-1-6.94-.17-1.82-.35-3.56-.52-5.39-.24-1.59-.27-3.2-.08-4.79.26-2.26,1.31-4.35,2.43-6.44.71-1.45,1.62-2.8,2.7-4.01,1.12-1.16,2.64-1.85,4.25-1.91.4.04.81.04,1.21,0,.37-.15.7-.39.96-.7,3.21-2.74,7.13-4.52,11.31-5.14,3.94-.68,7.95-.8,11.92-.35,3.18.52,5.96,2.87,8.48,4.77Z"></path><path class="cls-41" d="M126.83,175.18s-8.66-2.94-11.43-.65-4.35,9.2-4.35,9.2c0,0,3.87,1.31,6-.44,2.13-1.74,1.37-5.42,3.77-6.64s6.01-1.47,6.01-1.47Z"></path><path class="cls-40" d="M131.68,243.55l2.28.65-.08.73s-4.57.41-5.96,2.37-4.66,4.98-.41,8.5l-1.88.74s-3.67-2.29-2.2-5.46c1.47-3.18,2.11-5.49,8.25-7.53Z"></path><path class="cls-40" d="M210.82,200.7l.94-.93s4.78,8.74,5.39,8.98-1.02,1.48-1.02,1.48c0,0-5.43-5.43-5.31-9.52Z"></path><path class="cls-28" d="M159.64,383.26s15.56-.86,21.81-4.29c6.25-3.43,6.99-2.57,6.99-2.57l-.12,5.39s-18.75,8.45-26.53,5.76l-2.15-4.29Z"></path><path class="cls-13" d="M131.59,388.79s6.86,5.56,11.44,7.02c4.58,1.47,11.68,6.29,13.48,5.63,1.14-.46,2.11-1.25,2.77-2.28,0,0,1.52,1.6,1.04,2.76-.47,1.16-1.7,4.67-7.25,1.74-5.55-2.94-18.14-7.19-20.26-9.56-1.25-1.46-1.71-3.45-1.23-5.31Z"></path></g><g id="character_1"><path class="cls-41" d="M396.4,192.99c3.51.58,14.46,1.82,15.68-1.47.61-1.55-1.62-8.77-1.63-10.45,0-3.75-3.13-5.14-4.51-8.62-.09-.29-.25-.55-.49-.74-.5-.21-1.08-.12-1.5.22-3.34,1.97-10.77,3.18-11.96,7.02,4.89,2.12,2.88,10.91,4.41,14.05Z"></path><path class="cls-41" d="M350.1,383.98c-6.25.97-12.61,1.03-18.88.17,1.57-3.82,3.13-7.83,2.96-12.01-.09-2.96-1.13-5.83-2-8.7-3.06-9.71-4.84-19.77-5.31-29.94-.09-2.61-.09-5.4,1.48-7.49,1.05-1.39,2.7-2.17,4.35-2.78,13.41-4.86,13.75,10.01,14.71,18.97,1.57,13.93,2.43,27.85,2.7,41.78Z"></path><path class="cls-42" d="M390.64,340.55h0c2.74,0,4.96,2.22,4.96,4.96v43.6h-9.92v-43.6c0-2.74,2.22-4.96,4.96-4.96Z"></path><rect class="cls-42" x="367.57" y="383.8" width="47.69" height="6.44" rx="3.22" ry="3.22"></rect><path class="cls-29" d="M390.64,340.55h0c2.74,0,4.96,1.98,4.96,4.43v38.89h-9.92v-38.89c0-2.45,2.22-4.43,4.96-4.43Z"></path><rect class="cls-27" x="367.57" y="383.8" width="47.69" height="6.44" rx="3.22" ry="3.22"></rect><circle class="cls-42" cx="369.14" cy="395.03" r="4.52"></circle><circle class="cls-42" cx="390.98" cy="395.03" r="4.52"></circle><circle class="cls-42" cx="412.83" cy="395.03" r="4.52"></circle><circle class="cls-12" cx="369.14" cy="395.03" r="4.52"></circle><circle class="cls-4" cx="369.11" cy="395.1" r="2.41"></circle><circle class="cls-6" cx="390.98" cy="395.03" r="4.52"></circle><circle class="cls-7" cx="390.93" cy="394.9" r="2.39"></circle><circle class="cls-5" cx="412.83" cy="395.03" r="4.52"></circle><circle class="cls-3" cx="412.78" cy="394.99" r="2.5"></circle><path class="cls-39" d="M367.16,313.83c-5.75,1.57-11.58,3.92-14.89,9.23-1.71,2.59-2.22,5.79-1.41,8.79,1.91,6.61,9.4,8.18,15.79,8.96,12.62,1.48,25.41,2.43,38.12,1.21,9.57-.96,19.76-3.48,25.85-10.88,2.26-2.7,3.83-5.92,5.22-9.23,6.07-15.14,6.68-31.85,7.29-48.21.09-2,.09-4,.09-6-.09-7.89-10.96-10.09-14.01-2.7-1.82,4.44-3.39,8.18-3.75,9.31-3.13,9.57-4.18,22.37-8.79,31.15-4.01,7.66-8.88,5.83-16.88,5.22-10.97-.83-22,.23-32.62,3.14Z"></path><path class="cls-9" d="M367.16,313.83c-5.75,1.57-11.58,3.92-14.89,9.23-1.71,2.59-2.22,5.79-1.41,8.79,1.91,6.61,9.4,8.18,15.79,8.96,12.62,1.48,25.41,2.43,38.12,1.21,9.57-.96,19.76-3.48,25.85-10.88,2.26-2.7,3.83-5.92,5.22-9.23,6.07-15.14,6.68-31.85,7.29-48.21.09-2,.09-4,.09-6-.09-7.89-10.96-10.09-14.01-2.7-1.82,4.44-3.39,8.18-3.75,9.31-3.13,9.57-4.18,22.37-8.79,31.15-4.01,7.66-8.88,5.83-16.88,5.22-10.97-.83-22,.23-32.62,3.14Z"></path><path class="cls-41" d="M376.56,165.1c.95,1.04,2.17,1.74,3.04,2.79,2.61,2.96,2.26,7.89,5.4,10.36,1.29.9,2.79,1.47,4.35,1.65,4.52.78,9.4.7,13.23-1.82,2.7-1.82,4.52-4.61,6-7.49,2.78-5.91,4-12.79,2.35-19.14-2.61-9.66-16.45-20.1-25.59-11.14-2.78,2.7-2.43,7.13-2.96,10.7-.44,2.87-1.04,5.46-3.13,7.75-1.91,1.82-5.48,3.13-2.69,6.34Z"></path><path class="cls-39" d="M377.69,146.74c.05.51.2,1.02.44,1.48.45.53,1.06.89,1.74,1.04,3.72,1.31,7.57,2.19,11.49,2.61.78-.87,1.66-1.74,2.43-2.61.26,1.02.35,2.08.26,3.13,2.46.77,4.96,1.41,7.49,1.92.87,9.57-1.82,19.06-4.53,28.28,9.37,3.3,19.33,4.63,29.24,3.92,3.14-10.61,5.23-21.86,3.31-32.79-1.92-10.93-8.18-21.58-18.1-26.45-7.83-3.83-17.24-3.57-25.15-.18-7.12,3.11-9.47,12.6-8.6,19.65Z"></path><path class="cls-42" d="M426.75,232.03c-1.21,15.14-2.43,30.2-3.64,45.34-.43,5.83-.95,11.75-2.61,17.41-2.83,9.37-8.78,17.48-16.87,22.99-8.27,5.57-18.1,8.01-27.76,10.36-14.36,3.48-23,1.12-28.89,10.93-24.29-7.6-27.05-23.52-26.71-30.22.35-6.44,4.57-9.97,14.09-13.42,15.97-7.98,22.62-9.57,33.85-15.23,13.05-6.61,19.75-21.41,23.07-35.68,3.32-14.27-3.49-30.16,2.51-43.48,3.48-7.74,14.27-18.27,21.86-9.4,7.47,8.97,12,29.97,11.11,40.42Z"></path><path class="cls-11" d="M426.75,232.03c-1.21,15.14-2.43,30.2-3.64,45.34-.43,5.83-.95,11.75-2.61,17.41-2.83,9.37-8.78,17.48-16.87,22.99-8.27,5.57-18.1,8.01-27.76,10.36-14.36,3.48-23,1.12-28.89,10.93-24.29-7.6-27.05-23.52-26.71-30.22.35-6.44,4.57-9.96,14.09-13.42,15.97-7.97,22.62-9.57,33.85-15.23.94-.48,1.85-1,2.73-1.57h10.06v-9.71c5.07-7.05,8.28-15.82,10.27-24.38,3.22-14.27-3.49-30.16,2.51-43.48,3.48-7.75,14.27-18.28,21.86-9.4,7.58,8.88,12.02,29.95,11.12,40.39Z"></path><path class="cls-8" d="M413.87,212.59s-1.48,51.95-10.29,60.77c-8.82,8.82-51,27.93-54.89,28.92-3.81.94-20.16,9.84-20.75,10.13l-.33-13.73,43.32-20.09h10.06v-9.71c4.94-9.71,14.26-31.76,14.26-31.76l18.61-24.52Z"></path><path class="cls-39" d="M333.57,379.8c-.43-.22-.92-.31-1.4-.26-.3.1-.58.22-.87.35-5.3,3.31-10.09,7.38-14.19,12.1-.17.26-.43.52-.43.78,0,.43.43.69.78.87,2.78,1.31,6,.96,8.96.26,4.53-1.02,8.88-2.72,12.9-5.05,2.61-1.48,5.22-2.36,7.22.43,1.31,1.82,2,5.14,4.96,2.79,2.96-2.35-.09-10.96-1.48-13.58-5.49,2.17-10.63,3.48-16.46,1.31Z"></path><path class="cls-42" d="M405.1,187.73c-1.74-.26-3.48-.52-5.13,0-1.55.53-2.96,1.43-4.09,2.61-7.75,7.05-7.83,23.33-11.49,33.16-3.65,9.84-5.05,14.79-14.8,18.36-4.78,1.74-17.84,1.91-20.1,6.44-.96,1.82-.96,3.92-.96,6,0,3.48.35,7.29,2.7,9.92,2.87,3.04,7.57,3.22,11.75,2.96,5.57-.35,11.23-.95,16.71-1.82,4.44-.69,8.88-1.65,12.7-3.92,4.53-2.61,7.92-6.68,10.62-11.14,7.75-12.79,9.75-28.11,11.49-42.9.44-3.92,2.53-11.14.7-14.97-1.57-3.39-6.79-4.18-10.1-4.71Z"></path><path class="cls-10" d="M405.1,187.73c-1.74-.26-3.48-.52-5.13,0-1.55.53-2.96,1.43-4.09,2.61-7.75,7.05-7.83,23.33-11.49,33.16-3.65,9.84-5.05,14.79-14.8,18.36-4.78,1.74-17.84,1.91-20.1,6.44-.96,1.82-.96,3.92-.96,6,0,3.48.35,7.29,2.7,9.92,2.87,3.04,7.57,3.22,11.75,2.96,5.57-.35,11.23-.95,16.71-1.82,4.44-.69,8.88-1.65,12.7-3.92,4.53-2.61,7.92-6.68,10.62-11.14,7.75-12.79,9.75-28.11,11.49-42.9.44-3.92,2.53-11.14.7-14.97-1.57-3.39-6.79-4.18-10.1-4.71Z"></path><path class="cls-41" d="M351.47,248.55c.35.02.68.14.96.35.23.33.32.73.26,1.13v5.46c0,1.57,0,3.4-1.13,4.61-.96,1.04-2.43,1.4-3.92,1.57-4.61.44-9.31-.43-14.01-.78-4.32-.33-8.66-.27-12.97.18-.5.12-1.02.06-1.48-.18-.95-.61-.35-2.09.35-3.04,1.21-1.57,2.43-3.22,3.74-4.79.62-.91,1.38-1.7,2.26-2.35,1.65-1.21,3.74-1.31,5.74-1.21,1.96-.09,3.91-.35,5.83-.78,4.75-.84,9.6-.89,14.36-.16Z"></path></g></svg>