<svg xmlns="http://www.w3.org/2000/svg" version="1.1" xmlns:xlink="http://www.w3.org/1999/xlink" width="1500" height="1500" viewBox="0 0 1500 1500"><rect width="1500" height="1500" x="0" y="0" id="background" stroke="transparent" fill="#5d0000"></rect><svg xml:space="preserve" width="1000" height="1000" data-version="2" data-id="lg_nRGAxDQMCHZAFznWi6" viewBox="0 0 564 394" x="250" y="250"><rect width="100%" height="100%" fill="transparent"></rect><path fill="#f2f2f2" d="M18.275 221.363H5.845q-.44 0-.44-.55l.22-75.57q0-.44.44-.44h13.42q.44 0 .77.44l10.01 14.52 10.01-14.52q.33-.44.77-.44h13.53q.44 0 .44.44l.22 75.57q0 .55-.44.55h-12.43q-.44 0-.44-.55l-.11-56.1-11.55 16.72-11.44-16.72-.11 56.1q0 .55-.44.55m82.17 0h-35.53q-.44 0-.44-.55l.11-75.57q0-.44.44-.44h35.31q.44 0 .44.55v12.32q0 .44-.44.44h-22.55v17.16h22.55q.44 0 .44.44l.11 12.43q0 .44-.44.44h-22.66v19.25h22.66q.44 0 .44.55v12.54q0 .44-.44.44m33.66 0h-12.43q-.44 0-.44-.55v-62.7h-14.3q-.55 0-.55-.55l.11-12.32q0-.44.44-.44h41.8q.55 0 .55.44v12.32q0 .55-.44.55h-14.41l.11 62.7q0 .55-.44.55m33.44 0h-12.43q-.44 0-.44-.55l.22-75.57q0-.44.44-.44h22.22q5.94 0 10.94 2.92 5.01 2.91 7.98 7.81 2.97 4.89 2.97 11.05 0 4.07-1.21 7.32-1.21 3.24-2.86 5.5-1.65 2.25-2.97 3.35 5.94 6.6 5.94 15.51l.11 22.55q0 .55-.55.55h-12.43q-.44 0-.44-.33v-22.77q0-3.96-2.81-6.87-2.8-2.92-6.87-2.92h-7.26l-.11 32.34q0 .55-.44.55m.55-63.36v17.27h9.46q3.41 0 6.05-2.53 2.64-2.53 2.64-6.16 0-3.52-2.59-6.05-2.58-2.53-6.1-2.53zm59.95 64.46q-5.94 0-10.84-3.02-4.89-3.03-7.86-8.03-2.97-5.01-2.97-11.06l.11-34.87q0-6.05 2.91-11 2.92-4.95 7.87-7.92 4.95-2.97 10.78-2.97 5.94 0 10.78 2.97 4.84 2.97 7.75 7.92 2.92 4.95 2.92 11l.11 34.87q0 6.05-2.92 11.06-2.91 5-7.81 8.03-4.89 3.02-10.83 3.02m0-13.31q3.3 0 5.77-2.69 2.48-2.7 2.48-6.11l-.11-34.87q0-3.63-2.31-6.16-2.31-2.53-5.83-2.53-3.41 0-5.83 2.48-2.42 2.47-2.42 6.21v34.87q0 3.63 2.42 6.22 2.42 2.58 5.83 2.58m42.79 12.21h-12.32q-.55 0-.55-.55l.22-75.57q0-.44.44-.44h21.12q10.12 0 16 6.16 5.89 6.16 5.89 16.72 0 7.81-3.08 13.53t-8.03 8.8q-4.95 3.08-10.78 3.08h-8.36v27.72q0 .55-.55.55m.55-63.36v21.78h8.36q3.52 0 6.1-3.35 2.59-3.36 2.59-8.75 0-4.29-2.31-7.04t-6.38-2.75zm58.08 64.46q-5.94 0-10.84-3.02-4.89-3.03-7.86-8.03-2.97-5.01-2.97-11.06l.11-34.87q0-6.05 2.91-11 2.92-4.95 7.87-7.92 4.95-2.97 10.78-2.97 5.94 0 10.78 2.97 4.84 2.97 7.75 7.92 2.92 4.95 2.92 11l.11 34.87q0 6.05-2.92 11.06-2.91 5-7.81 8.03-4.89 3.02-10.83 3.02m0-13.31q3.3 0 5.77-2.69 2.48-2.7 2.48-6.11l-.11-34.87q0-3.63-2.31-6.16-2.31-2.53-5.83-2.53-3.41 0-5.83 2.48-2.42 2.47-2.42 6.21v34.87q0 3.63 2.42 6.22 2.42 2.58 5.83 2.58m65.89 12.21h-35.53q-.44 0-.44-.55l.11-75.46q0-.55.55-.55h12.21q.55 0 .55.55l-.11 62.48h22.66q.55 0 .55.55v12.43q0 .55-.55.55m20.68 0h-12.43q-.55 0-.55-.55l.11-75.57q0-.44.44-.44h12.32q.44 0 .44.44l.11 75.57q0 .55-.44.55m33.55 0h-12.43q-.44 0-.44-.55v-62.7h-14.3q-.55 0-.55-.55l.11-12.32q0-.44.44-.44h41.8q.55 0 .55.44v12.32q0 .55-.44.55h-14.41l.11 62.7q0 .55-.44.55m16.83-.55 13.64-75.57q.11-.44.55-.44h15.95q.44 0 .55.44l13.09 75.57q.11.55-.44.55h-12.21q-.44 0-.55-.55l-1.21-8.03h-14.96l-1.21 8.03q-.11.55-.55.55h-12.21q-.44 0-.44-.55m21.56-50.71-4.95 30.91h10.56l-4.51-30.91-.66-4.07zm41.14 51.26h-11q-.88 0-.88-.77l-.11-74.91q0-.88.88-.88h9.9l18.59 43.34-.55-42.46q0-.88.99-.88h10.89q.66 0 .66.88l.11 75.02q0 .66-.55.66h-9.68l-19.03-40.48.77 39.6q0 .88-.99.88m-331.84 108q-5.94 0-10.78-2.97-4.84-2.97-7.76-7.97-2.91-5.01-2.91-11.17v-34.87q0-5.94 2.91-10.94 2.92-5.01 7.81-7.98 4.9-2.97 10.73-2.97 6.05 0 10.94 2.92 4.9 2.91 7.76 7.86 2.86 4.95 2.86 11.11v5.06q0 .44-.55.44h-12.32q-.44 0-.44-.44v-4.18q0-4.18-2.37-6.93-2.36-2.75-5.88-2.75-3.19 0-5.67 2.64-2.47 2.64-2.47 6.16v34.87q0 3.63 2.42 6.22 2.42 2.58 5.72 2.58 3.52 0 5.88-2.53 2.37-2.53 2.37-6.27v-5.39h-7.7q-.55 0-.55-.55v-12.32q0-.55.55-.55h20.57q.44 0 .44.55v18.26q0 6.16-2.92 11.17-2.91 5-7.75 7.97-4.84 2.97-10.89 2.97m42.24-1.1h-12.43q-.44 0-.44-.55l.22-75.57q0-.44.44-.44h22.22q5.94 0 10.94 2.92 5.01 2.91 7.98 7.81 2.97 4.89 2.97 11.05 0 4.07-1.21 7.32-1.21 3.24-2.86 5.5-1.65 2.25-2.97 3.35 5.94 6.6 5.94 15.51l.11 22.55q0 .55-.55.55h-12.43q-.44 0-.44-.33v-22.77q0-3.96-2.81-6.87-2.8-2.92-6.87-2.92h-7.26l-.11 32.34q0 .55-.44.55m.55-63.36v17.27h9.46q3.41 0 6.05-2.53 2.64-2.53 2.64-6.16 0-3.52-2.59-6.05-2.58-2.53-6.1-2.53zm52.58 63.36h-12.43q-.55 0-.55-.55l.11-75.57q0-.44.44-.44h12.32q.44 0 .44.44l.11 75.57q0 .55-.44.55m46.09 0h-35.53q-.44 0-.44-.55l.11-75.46q0-.55.55-.55h12.21q.55 0 .55.55l-.11 62.48h22.66q.55 0 .55.55v12.43q0 .55-.55.55m43.67 0h-35.53q-.44 0-.44-.55l.11-75.46q0-.55.55-.55h12.21q.55 0 .55.55l-.11 62.48h22.66q.55 0 .55.55v12.43q0 .55-.55.55"></path><path fill="orange" d="M156.05 361.313h5.59q4.15 0 6.06 1.62 1.91 1.62 1.91 4.64 0 1.36-.45 2.58-.44 1.23-1.44 2.16-.99.93-2.61 1.46-1.62.54-3.97.54h-2.6v8.42h-2.49zm5.36 2.13h-2.87v8.73h2.33q2.05 0 3.42-.44t2.05-1.43q.69-.99.69-2.63 0-2.14-1.36-3.19-1.36-1.04-4.26-1.04m19.61 2.94q.49 0 1.01.05.53.05.94.14l-.31 2.26q-.39-.1-.88-.16-.48-.06-.9-.06-.97 0-1.83.39-.86.38-1.5 1.11-.64.72-1.01 1.74t-.37 2.27v8.61h-2.44v-16.06h2.02l.26 2.96h.1q.5-.89 1.21-1.63.7-.74 1.63-1.18.93-.44 2.07-.44m11.15 0q2.05 0 3.52.91 1.46.91 2.24 2.54.77 1.63.77 3.82v1.51h-11.09q.05 2.82 1.41 4.3 1.36 1.48 3.84 1.48 1.52 0 2.69-.28 1.18-.27 2.43-.82v2.14q-1.21.54-2.4.79-1.2.25-2.82.25-2.32 0-4.04-.94-1.72-.95-2.67-2.78-.96-1.83-.96-4.48 0-2.59.88-4.49.87-1.9 2.46-2.92 1.59-1.03 3.74-1.03m-.03 1.99q-1.95 0-3.11 1.28-1.15 1.27-1.37 3.56h8.49q-.01-1.44-.44-2.53-.44-1.09-1.31-1.7-.88-.61-2.26-.61m28.13-1.99q2.65 0 3.99 1.39 1.35 1.38 1.35 4.44v10.52h-2.4v-10.4q0-1.95-.84-2.92-.85-.98-2.5-.98-2.33 0-3.38 1.35-1.06 1.35-1.06 3.97v8.98h-2.42v-10.4q0-1.3-.37-2.17-.37-.86-1.11-1.3-.74-.43-1.87-.43-1.6 0-2.56.66-.97.66-1.4 1.96-.43 1.29-.43 3.18v8.5h-2.44v-16.06h1.97l.36 2.28h.13q.49-.84 1.22-1.41t1.64-.87q.91-.29 1.93-.29 1.84 0 3.07.68 1.24.68 1.8 2.08h.13q.79-1.4 2.17-2.08 1.37-.68 3.02-.68m10.34.29h2.43v16.06h-2.43zm1.24-6q.6 0 1.03.39.44.39.44 1.21 0 .8-.44 1.2-.43.39-1.03.39-.63 0-1.05-.39-.41-.4-.41-1.2 0-.82.41-1.21.42-.39 1.05-.39m17.14 6h2.45v16.06h-2l-.35-2.26h-.13q-.5.84-1.29 1.41t-1.78.86q-.99.28-2.1.28-1.9 0-3.19-.61-1.29-.62-1.94-1.91-.66-1.29-.66-3.31v-10.52h2.47v10.35q0 2 .9 2.99.91.99 2.77.99 1.79 0 2.85-.67 1.06-.68 1.53-1.99t.47-3.21zm25.02-.29q2.65 0 4 1.39 1.35 1.38 1.35 4.44v10.52h-2.41v-10.4q0-1.95-.84-2.92-.84-.98-2.5-.98-2.32 0-3.38 1.35-1.05 1.35-1.05 3.97v8.98h-2.42v-10.4q0-1.3-.37-2.17-.38-.86-1.12-1.3-.74-.43-1.87-.43-1.59 0-2.56.66t-1.4 1.96q-.43 1.29-.43 3.18v8.5h-2.43v-16.06h1.96l.37 2.28h.13q.48-.84 1.22-1.41.73-.57 1.64-.87.9-.29 1.93-.29 1.83 0 3.07.68 1.24.68 1.79 2.08h.13q.8-1.4 2.17-2.08 1.38-.68 3.02-.68m37.08 5.61q0 2.64-.72 4.78t-2.13 3.62q-1.42 1.48-3.53 2.15l5.04 5.29h-3.56l-4.14-4.84q-.19 0-.39.02-.2.01-.39.01-2.49 0-4.34-.79-1.86-.79-3.08-2.25-1.22-1.47-1.83-3.51-.61-2.03-.61-4.51 0-3.28 1.09-5.75 1.08-2.48 3.29-3.86 2.2-1.37 5.52-1.37 3.18 0 5.36 1.36 2.17 1.36 3.29 3.83 1.13 2.47 1.13 5.82m-17.06 0q0 2.73.78 4.72.78 1.99 2.38 3.08 1.61 1.08 4.08 1.08 2.49 0 4.08-1.08 1.59-1.09 2.35-3.08t.76-4.72q0-4.14-1.73-6.48-1.74-2.34-5.42-2.34-2.49 0-4.1 1.07-1.61 1.07-2.39 3.04-.79 1.97-.79 4.71m32.26-5.32h2.45v16.06h-2l-.35-2.26h-.13q-.5.84-1.29 1.41t-1.78.86q-.99.28-2.1.28-1.9 0-3.19-.61-1.29-.62-1.94-1.91-.66-1.29-.66-3.31v-10.52h2.47v10.35q0 2 .9 2.99.91.99 2.77.99 1.79 0 2.85-.67 1.06-.68 1.53-1.99t.47-3.21zm13.59-.26q2.88 0 4.27 1.29 1.39 1.29 1.39 4.12v10.91h-1.77l-.47-2.37h-.12q-.67.88-1.41 1.47-.73.59-1.69.89-.96.3-2.35.3-1.46 0-2.6-.51-1.13-.51-1.79-1.55-.65-1.04-.65-2.64 0-2.4 1.91-3.69 1.9-1.29 5.8-1.41l2.77-.11v-.99q0-2.08-.9-2.91-.89-.84-2.52-.84-1.26 0-2.4.37t-2.17.86l-.74-1.84q1.08-.56 2.49-.95 1.4-.4 2.95-.4m3.26 9.89v-1.48l-2.45.1q-3 .12-4.23.98-1.23.87-1.23 2.45 0 1.38.83 2.04.84.65 2.21.65 2.14 0 3.5-1.18 1.37-1.19 1.37-3.56m9.85-16.36v22.79h-2.44v-22.79zm5.13 6.73h2.43v16.06h-2.43zm1.25-6q.6 0 1.03.39.43.39.43 1.21 0 .8-.43 1.2-.43.39-1.03.39-.63 0-1.05-.39-.42-.4-.42-1.2 0-.82.42-1.21t1.05-.39m11.51 20.36q.6 0 1.23-.1t1.03-.25v1.89q-.43.19-1.18.32-.76.13-1.48.13-1.27 0-2.31-.44-1.04-.45-1.66-1.52-.62-1.07-.62-2.96v-9.52h-2.29v-1.19l2.3-.95.97-3.49h1.46v3.72h4.7v1.91h-4.7v9.45q0 1.51.7 2.25.69.75 1.85.75m9.4 1.73-6.43-16.09h2.61l3.55 9.32q.3.82.57 1.58.26.75.47 1.44.2.69.32 1.33h.1q.21-.73.59-1.92.38-1.2.82-2.44l3.35-9.31h2.62l-6.98 18.42q-.56 1.48-1.3 2.58-.74 1.09-1.79 1.69-1.06.59-2.55.59-.69 0-1.22-.08t-.91-.18v-1.95q.33.07.79.13t.96.06q.9 0 1.57-.34.67-.35 1.15-1.01.48-.66.84-1.57z"></path><path fill="#f2f2f2" d="M359.657 30.008c-.917-1.236-12.277-12.246-13.742-15.307-1.448-3.044-5.76-5.3-6.227-5.497-.45-.197-.643-1.324-1.464-2.148-1.336-1.325-.58-1.754-.531-2.99-.837-.322-6.147 3.724-10.395 5.622-4.248 1.88-19.55 2.202-22.093 4.726-2.542 2.507-11.618 8.182-21.24 9.31-9.638 1.128-67.132-2.077-67.132-2.077-2.381-.125-2.124.107-5.615-1.02-3.492-1.128-7.515 3.67-7.692 5.191-.177 1.522-3.379 25.208-3.379 25.208s-1.496-.52-1.207 2.954c.483 5.603.065.913 0 20.893-.032 12.657 4.152 15.27 4.152 15.27.45-1.431 2.896-7.93 1.577-12.907-7.644-29.039.675-42.735 2.848-46.083-.724 1.916-2.173 7.197-4.635 16.579-3.218 12.245 4.506 34.159 3.766 34.982-.74.806-2.929 9.775-2.478 12.837.466 3.043-1.465 26.102-1.288 27.534.194 1.433 9.816 1.433 9.446 0-.37-1.432.998-22.343 2.092-23.864 1.126-1.522 1.384-2.453 6.517-12.335s10.362-9.077 15.85-4.584c5.502 4.476 20.258 10.796 24.007 7.95 3.765-2.865 22.64-7.842 25.939-8.666 3.298-.823 12.92.305 13.564 2.453.644 2.148 6.759 18.046 5.584 20.785-1.19 2.757.82 10.205.82 10.205s7.515.09 7.065 0c-.451-.09 1.287-2.56 0-6.015-1.288-3.474-2.478-8.361-1.931-9.99.547-1.63 2.381-13.356 2.381-13.356.917-.913 6.437-4.78 7.885-11.225 4.457-19.998 15.19-31.098 15.833-31.384.644-.286 10.54-7.555 14.933-5.908 4.393 1.611 7.691-5.926 6.79-7.161m-26.872.823-.853.036-.096-1.915.853-.072zm-.16-2.918-.87.09-.16-1.916.852-.107zm-.29-2.9-.853.107-.242-1.897.853-.144zm-.387-2.9-.852.16-.322-1.897.853-.18zm-.498-2.865-.853.197-.403-1.862.837-.25q.225.895.419 1.897m-.66-2.864-.837.286q-.29-1.074-.58-1.754l.79-.412q.321.77.627 1.88m-2.269-3.33q.611-.269 1.159.537l-.692.573q-.193-.233-.193-.197l-.885.358-.242-.931zm-1.673.59.209.95q-.805.214-1.722.411l-.16-.949q.9-.179 1.673-.411m-2.527.572.145.95-1.738.304-.112-.967zm-2.574.43.128.949-1.737.25-.097-.966zm-1.996 45.062-1.737.072-.017-.967 1.722-.072zm-.579-44.668.113.949-1.642.233-.193-.95zm-2.027 44.757-1.738.09-.032-.967 1.737-.071zm-.564-44.399.097.949-1.722.233-.112-.967zm-2.043 44.525-1.738.071-.032-.966 1.738-.072zm-.547-44.185.112.967-1.721.25-.129-.948zm-2.044 44.292-1.738.09-.048-.967 1.738-.09zm-.563-43.88.129.967q-.917.143-1.706.304l-.16-.949zm-2.06 44.023-1.737.09-.033-.967 1.738-.09zm-5.1-40.496.45.823q-.708.484-1.512.985l-.435-.841q.805-.484 1.497-.967m-.097 40.765-1.738.09-.048-.967 1.738-.09zm-2.156-39.333.418.86-1.56.895-.387-.878q.805-.43 1.529-.877m-1.352 42.61.048 1.933-.868.036-.049-1.952zm-.885-.95-.048-1.933.869-.018.032 1.933zm.966 3.85q0 .984.048 1.933l-.869.036-.064-1.934zm.08 2.918.048 1.933-.869.036-.048-1.933zm.08 2.9.081 1.934-.869.053-.064-1.951zm.13 2.9.112 1.934-.869.071-.113-1.951zm-1.208-14.644-.032-.824h-.096l-.032-1.951h.868l.033 1.754.965-.054.032.967zm.692-3.76-.869.018-.032-1.934.87-.018zm-.048-2.9h-.869l-.032-1.916.869-.018zm-.048-2.918-.87.017-.031-1.933h.869zm-.048-2.9h-.87l-.032-1.916.87-.018zm-.049-2.919h-.869l-.032-1.826.87-.125zm-.032-2.918-.869.018-.032-1.934.869-.018zm-.048-2.9h-.87l-.015-1.934h.869zm-.032-2.919-.87.018-.015-1.933.852-.018zm-.033-2.9h-.868l-.033-1.933h.87zm-.032-2.918h-.869l-.032-1.934h.885zm-.032-2.9h-.869l-.016-1.934.869-.018zm-.402-5.443.241.555h.113v.269l.016.035v1.648l-.869.017V23.67l-.724.358-.354-.895zm-.756 38.313-1.738.125-.049-.967 1.738-.107zm-1.61-37.15.322.896-1.609.716-.322-.895zm-.997 37.329-1.722.107-.064-.967 1.738-.107zm-1.416-36.29.29.913-1.658.627-.273-.913zm-1.175 36.45-1.738.126-.064-.967 1.738-.125zm-1.287-35.537.257.931-1.69.537-.224-.949zm-2.494.77.209.931q-.837.25-1.706.43l-.177-.95zm-1.432 35.144-1.722.143-.064-.967 1.737-.143zm-1.094-34.535.16.949q-.852.179-1.737.322l-.113-.949zm-1.497 34.767-1.738.144-.064-.967 1.738-.143zm-1.61-34.266.564-.072.097.967-.564.072-1.19.107-.065-.967zm-.997 34.481-1.738.143-.064-.948 1.738-.162zm-1.013-34.32.032.967-1.738.072-.032-.967zm-1.577 34.553-1.738.161-.065-.967 1.722-.179zm-1.03-34.5v.968h-1.738v-.95zm-1.593 34.697-1.722.179-.08-.967 1.737-.179zM275.34 27.59h1.738v.967h-1.738zm.161 34.929-1.738.179-.08-.95 1.738-.178zm-2.751-34.947 1.737.018v.967h-1.753zm.16 35.25-1.721.18-.08-.967 1.737-.179zm-2.783-35.286 1.754.036-.016.949-1.738-.018zm.209 35.573-1.738.18-.08-.95 1.721-.196zm-2.816-35.627 1.754.036-.032.967-1.738-.036zm-.644 46.37.853-.019v.68l-.016 1.29-.869-.072.032-1.217zm-.032-.968-.096-1.915.869-.072.096 1.952zm.805-10.437.096.949-.82.107.08.627-.869.125-.08-.644h-.049l-.096-.95h.032l-.032-.321.853-.144q0 .18.048.358zm-.338 4.583-.87.09-.192-1.916.853-.107zm-3.057-14.143q-.161-.806-.387-1.594l-.064-.268.837-.25.064.25.402 1.611zm1.062.716.386 1.898-.853.196-.37-1.88zm-1.11-14.197-.13 1.915-.868-.071q.048-.985.144-1.934zm-.773-1.074.225-1.934.853.143-.21 1.898zm.595 3.938-.048 1.916h-.869l.048-1.97zm-.032 2.865q0 .984.08 1.915l-.868.072q-.065-.949-.08-1.97zm.161 2.864q.113 1.003.29 1.862l-.853.197q-.177-.895-.29-1.951zm.885 14.77.113.949-1.738.233-.097-.967zm0-6.123.837-.197.322 1.916-.853.18zm1.32 2.686.273 1.898-.869.16q-.113-.948-.273-1.915zm-1.48-30.99.015-.95 1.738.037v.966h-.74l-.322 1.486-.853-.197.274-1.324zm-.339 2.291.853.18-.338 1.897-.853-.179zm.354 3.044-.273 1.898-.853-.144.273-1.933zm-2.607-6.374 1.738.054-.016.967-1.754-.054zm.274 36.791-1.722.233-.112-.967 1.721-.233zM259.7 27.269l1.738.053-.033.967-1.737-.054zm-1.931 10.92.21-.949q1.206.359 1.737.61l-.225.536.257.895q-.515.18-1.818.305l-.08-.967.965-.107zm2.092 25.297.112.967-1.721.25-.113-.966zm-2.784-36.307 1.754.054-.032.966-1.738-.053zm-.08 11.512.048.966-1.738.09-.032-.967zm-1.77-1.128.16-.967 1.722.43-.193.93zm2.043 26.317.129.949-1.722.269-.129-.95zm-2.8-36.79 1.754.053-.032.967-1.754-.054zm-.064 11.708.016.967-1.738.036v-.967zm-1.754-1.79.16-.95 1.723.359-.161.949zm2.043 27.284.13.949-1.723.286-.128-.949zm-1.094-37.238-.032.966-1.673-.071-.033-.967zM251.8 38.852v.967h-1.722v-.967zm-1.706-2.363.145-.95 1.722.34-.16.95zm2.012 28.233.145.966-1.722.305-.145-.95zm-2.832-37.865 1.738.071-.033.967-1.737-.071zm-.065 11.995v.949h-1.737v-.967zm-1.673-2.865.145-.966 1.722.322-.161.967zm2.011 29.182.161.967-1.721.34-.161-.967zm-2.896-38.42 1.754.072-.032.967-1.738-.072zm-.048 12.085v.967l-1.738-.018v-.967zm-1.658-3.33.161-.949 1.706.322-.145.95zm2.028 30.184.16.95-1.705.357-.16-.949zm-2.913-39.046 1.738.072-.032.966-1.754-.071zm.515 40.55-1.69.394-.176-.949 1.013-.25-.321-.86.836-.304q.193.716.419 1.056l-.21.161zM230.93 38.494l-.032.949-1.738-.036.032-.967zm-1.512-5.604.128-.949 1.722.269-.113.967zm2.574 14.143.064.95-1.721.143-.08-.95zm-.225-7.555.032-.966 1.738.053-.016.967zm.241-6.176.129-.949 1.722.269-.113.966zm2.607 13.552.048.967-1.738.108-.048-.967zm-.225-7.304.016-.967 1.738.054-.017.967zm.209-5.818.129-.967 1.721.286-.128.967zm2.639 13.033.016.967-1.722.053-.032-.966zm-.242-7.161.016-.95 1.754.037-.016.966zm.193-5.443.13-.967 1.721.305-.129.949zm.934 13.57v-.966q.917 0 1.77.054l-.048.966q-.821-.053-1.722-.053m1.368 20.678-1.674.465-.225-.93 1.705-.466zm.128-28.735v-.966l1.754.035v.573h.805l.032 1.934-.869.018-.032-1.558zm1.899 7.323-.064-1.844.869-.036.08 1.933-.322.018h.016l-.16.967q-.564-.107-1.256-.179l.08-.967q.403.036.757.108m-.16-4.763.884-.017.048 1.933-.869.036zm1.077 5.783.097 1.934-.87.053-.096-1.933zm.145 2.9.113 1.934-.87.072-.112-1.934zm-.354-11.189v-.967l1.754.018v.967zm1.754 24.58-.837.234q-.209-.86-.37-1.934l.853-.179q.16 1.074.354 1.88m-1.61-29.272.113-.948 1.738.304-.16.949zm.033-3.222-.853-.25.499-1.88.837.286zm-.563 35 .177.95-1.674.429-.209-.95zm.048-12.926.869-.071.129 1.933-.853.072zm1.078 2.829.177 1.916-.853.107-.193-1.934zm.29 2.864.225 1.916-.853.143-.241-1.933zM241.42 26.5l1.738.09v.429l.547.215s-.257.77-.563 1.826l-.82-.305.37-1.235-1.288-.054zm.773 6.248a6.436 7.161 0 0 0-.161 1.396.322.358 0 0 0-.225-.179l-.13.95-.176-.055v.036l-1.722-.304.129-.949 1.255.215q0-.484.177-1.325zm-3.38-6.356 1.739.072-.033.967-1.738-.072zm-2.606-.125 1.738.072-.032.966-1.738-.071zm-2.607-.125 1.738.09-.032.966-1.754-.09zm-2.607-.126 1.738.09-.032.967-1.754-.09zm-2.622-.125 1.754.09-.049.966-1.738-.09zm-4.184 21.95.097.966c-1.079.125-1.722.233-1.738.233l-.097-.86-.37-.036.16-1.933.87.107-.145 1.683zm-.306 21.393.483 1.826-.805.323q-.29-.931-.515-1.898zm-1.046-.698q-.209-.931-.354-1.916l.853-.179q.161.95.354 1.88zm.049-19.335-.113 1.915-.869-.053.113-1.934zm-.161 2.864-.065 1.934-.869-.018q0-.985.065-1.952zm-.097 2.9v1.916h-.869v-1.916zm0 2.883.064 1.933-.868.036-.065-1.951zm.113 2.882.128 1.916-.852.09q-.097-.95-.145-1.934zm.225 2.865.225 1.897-.853.162-.24-1.952zm1.03 11.744.048.967-1.738.107-.048-.966zm-.161-3.043.82-.34q.322.912.676 1.754l-.804.412q-.37-.86-.676-1.826m1.303-23.614-.096-.95 1.738-.214.096.967zm-1.206-14.95.29-1.647.128-.966 1.738.268-.129.967-.869-.143-.306 1.7zm.692 1.128-.322 1.898-.837-.179.306-1.898zm-.161-3.992.37-1.898.836.215-.37 1.88zm2.494 41.5.45.823c-.933.644-1.174 1.056-1.174 1.074l-.74-.537c.048-.072.353-.573 1.448-1.36m-.403-33.05.016-.967 1.754.054-.032.967zm.274-6.839.129-.949 1.721.269-.112.949zm-1.384-6.355.306.09.016-.466 1.738.09-.032.966-1.288-.054-.322 1.486-.836-.215zm-2.285-.502 1.738.09-.032.967-1.754-.09zm.161 11.924.853.179-.08.537 1.609.054-.017.966-1.737-.053-.049.394-.853-.144q.113-.984.274-1.933m-.418 2.882.869.143-.242 1.916-.869-.125zm-.354 2.883.869.125-.21 1.916-.852-.108zm-2.012-17.832 1.754.09-.048.967-1.738-.09zm.901 50.988-1.737.107-.033-.966 1.738-.108zm-3.507-51.113 1.737.107-.032.95-1.754-.09zm.852 50.307.049.967-1.738.09-.048-.967zm-3.46-50.432 1.739.09-.033.966-1.737-.09zm.918 51.542-1.738.108-.032-.985 1.738-.09zm-3.411-51.918q.885.25 1.641.322l-.08.967a12.873 14.322 0 0 1-1.77-.34zm.804 52.062-1.738.107-.032-.967 1.738-.107zm-3.33-52.778 1.673.5-.225.95-1.69-.537zm-1.883 15.593.515-1.862.82.287-.498 1.861zm.58 1.217-.484 1.844-.836-.268.482-1.862zm.192-3.992.531-1.862.82.304-.514 1.844zm.805-2.775q.322-1.02.53-1.593l.162.09.241-.448.547.358-.16.376-.484 1.521zm.16-2.435-.418.842-1.512-.967.434-.841zm-.98-7.34.37.86a6.436 7.161 0 0 0-1.32 1.02l-.58-.716q.773-.77 1.53-1.182m-2.399 2.202.21-.304.676.626-.113.144-.193 1.468-.853-.143zm-.53 3.76.128-1.003.853.126-.048.358.724.465-.435.842zm1.174 13.069.837.286-.483 1.862-.837-.286zm-.74 2.793.837.268-.483 1.862-.837-.268zm-.74 2.793.853.25q-.21.86-.354 1.844l-.853-.143q.145-1.038.354-1.951m-.467 2.936.869.107q-.08.931-.113 1.88l-.869-.018zm-.113 2.954h.87l.048 1.915-.87.036zm.113 2.936.853-.072.16 1.916-.852.107zm.258 2.918.868-.125.242 1.898-.853.143zm.402 2.883.853-.162q.128.95.322 1.898l-.87.18zm.483 2.864.852-.179.354 1.88-.852.215zm.547 2.864.853-.214.386 1.88-.837.214zm.611 2.83.853-.234.418 1.862-.836.251zm.644 2.81.853-.233.338 1.397 1.367-.072.032.967-1.705.09-.016-.395-.403.126zm1.545 7.448q-.017-.752-.226-1.844l.853-.197q.21 1.181.241 1.987zm.82 1.002q-.145 1.074-.788 1.97l-.676-.591q.483-.716.611-1.522zm-.837-5.89.435 1.88-.837.233-.434-1.862zm-.82 8.235.016-.411.869.143-.016.268q0 .573.209 1.45l-.853.251a6.436 7.161 0 0 1-.225-1.7m.483 2.65.82-.305q.274.895.644 1.754l-.805.412q-.386-.931-.643-1.862m2.124 4.44a8.046 8.952 0 0 1-1.046-1.683l.756-.483q.483.949.933 1.504zm2.349 0c-.322.645-.756.788-1.046.788a1.61 1.79 0 0 1-.45-.09l.321-.895c.226.072.322-.107.419-.286l.273-.537.773.465zm.708-1.396-.756-.466.852-1.7.773.483zm1.287-2.507-.756-.483.869-1.683.756.465zm1.287-2.524-.74-.484.87-1.682.755.5zm1.32-2.507-.724-.5.965-1.63.708.537-.95 1.611m1.45-2.327-.677-.609q.547-.805 1.127-1.504l.643.645q-.53.68-1.078 1.45m1.69-2.148-.628-.699q.644-.716 1.336-1.324l.547.752q-.644.572-1.255 1.253m1.93-1.826-.514-.788q.756-.609 1.545-1.038l.386.859q-.724.394-1.432.967m2.188-1.361-.16-.412-.29.197-.564-1.074.773-.448.354.68q.627-.286 1.27-.447l.194.949q-.82.215-1.577.555M229.4 47.23l.08.967-1.72.18-.097-.968zm-1.69 24.653q.66-.394 1.594-.86l.354.896q-.885.43-1.529.823zm2.19 3.58h-.113q-.724 0-1.449.108l-.128-.949q.804-.125 1.593-.125l.16.734zm.208-4.833 1.642-.699.29.913-1.61.68zm2.51 4.94-1.753-.07.032-.968 1.77.072zm-.048-5.96 1.658-.592.257.931q-.869.287-1.625.573zm2.671 6.068-1.753-.071.032-.967 1.754.071zm-.16-6.946 1.673-.537.225.949-1.657.537zm2.767 7.054-1.738-.072.033-.967 1.753.072zm2.623.125-1.754-.09.048-.966 1.738.09zm2.607.125-1.738-.09.032-.966 1.738.09zm2.607.108-1.722-.054.032-.967 1.754.072zm2.622.125-1.754-.072.049-.966 1.738.071zm2.607.125-1.738-.071.032-.967 1.738.072zm2.607.126-1.738-.09.032-.967 1.738.09zm.869.035.032-.966 1.706.09v.948zm4.36.215-1.737-.09.032-.966 1.738.09zm2.607.126-1.738-.09.049-.967 1.737.09zm2.623.125-1.754-.09.048-.966 1.738.09zm2.607.125-1.738-.09.032-.966 1.738.09zm-.065-9.059.87-.09.16 1.934-.869.072zm2.671 9.185-1.737-.09v-.25l-.724-.233.74.125.016-.609 1.754.09zm2.607.125-1.738-.09.033-.966 1.754.09zm2.623.125-1.754-.09.048-.966 1.738.09zm2.607.126-1.738-.09.032-.967 1.754.09zm2.623.125-1.754-.09.032-.966 1.754.09zm2.606.107-1.737-.071.032-.967 1.754.072zm2.64.126-1.77-.072.048-.967 1.753.072zm1.126.018-.065.017h-.128l-.033-.966q.773-.161 1.674-.269l.08.967q-.869.09-1.544.25m4.087-.358h-.419q-.675 0-1.287.054l-.048-.967q.643-.035 1.335-.035h.435zm-.74-16.327-.065-.967 1.738-.125.064.967zm3.314 16.453-1.721-.09.032-.966q.804 0 1.77.089zm2.575.304q-.87-.143-1.706-.233l.08-.948 1.755.214zm2.526.537-1.673-.394.16-.948q.853.179 1.722.411zm3.138 1.325.338-.68-.805.232-.064-.483-.21.52q-.723-.359-1.576-.663l.241-.913q.805.268 1.497.609l-.033-.305.853-.09.129 1.021.048-.107q.885.537 1.513 1.181l-.596.716q-.547-.537-1.335-1.038m2.478 2.972a3.218 3.58 0 0 0-.612-1.29l.692-.59q.483.716.74 1.522l.097.322-.804.358zm.804 2.274-.386-1.057.805-.358.386 1.057q.113.358.274.716l-.789.411zm1.996 3.222q-.692-.537-1.255-1.557l.724-.537q.482.859 1.046 1.324zm-1.207-28.09-.048-.966 1.737-.09.049.967zm.418-40.407-.466-.805 1.416-1.075.515.77q-.628.537-1.449 1.11m1.963-2.81q.483-.287 1.416-.502l.177.95c-.724.178-.997.286-1.094.357l-.29.287-.563-.752zm.483 71.97q-.37 0-.772-.144l.273-.913q.692.251 1.32-.16l.434.823q-.579.394-1.239.394m2.028-1.128-.676-.627q.45-.59.724-1.522l.82.287a4.827 5.37 0 0 1-.868 1.862m1.287-4.154-.177 1.253-.434-.053-.435-.108.258-1.593.418-.412.58.716zm1.673-1.593q-.563.483-.804.752l-.595-.716a16.091 17.903 0 0 1 1.383-1.236l.531.77zm1.207-1.056-.563-.734q.612-.538 1.287-1.254l.596.68q-.692.753-1.32 1.308m1.947-2.023-.643-.645q.611-.716 1.094-1.45l.692.573q-.5.787-1.127 1.522m1.658-2.346-.74-.537a9.655 10.742 0 0 0 .772-1.611l.804.358q-.354.895-.836 1.79m1.255-3.222-.113.465-.837-.268.113-.43.322-1.432.853.25zm.547-2.346-.837-.25.467-1.88.837.268zm.708-2.792-.837-.269.499-1.862.837.287zm.756-2.758-.836-.304.547-1.844.82.304zm.805-2.757-.805-.304.58-1.844.804.34zm.885-2.72-.805-.341.08-.25-1.27.035-.017-.967 1.61-.053.209-.573.804.358zm.933-2.686-.804-.358.675-1.79.805.357zm1.014-2.686-.805-.358.708-1.79.805.412q-.37.841-.708 1.754m1.062-2.614-.789-.411.773-1.755.772.43zm1.142-2.596-.772-.447.804-1.719.773.466zm1.223-2.542-.756-.483.869-1.683.74.483zm1.287-2.506-.724-.502.95-1.647.724.537zm1.32-2.292-.193-.358-.386-.322.144-.143q.483-.323.885-1.254l.789.412q-.499 1.182-1.24 1.665m1.562-2.632-.837-.286q.225-.788.37-1.808l.869.143q-.16 1.11-.402 1.97m.515-2.937-.87-.107q.097-.895.13-1.898l.868.054q-.032 1.02-.128 1.97m.16-2.937h-.868v-1.933l.869-.018z"></path></svg></svg>