<svg transform="scale(1)" id="_0024_question" xmlns="http://www.w3.org/2000/svg" xmlns:xlink="http://www.w3.org/1999/xlink" viewBox="0 0 500 500" class="show_show__wrapper__graphic__5Waiy "><title>React</title><defs><style>.cls-1{fill:url(#linear-gradient);}.cls-1,.cls-2,.cls-3,.cls-4,.cls-5,.cls-6,.cls-7{stroke-width:0px;}.cls-2{isolation:isolate;opacity:.18;}.cls-2,.cls-7{fill:#212529;}.cls-3{fill:url(#linear-gradient-2);}.cls-4{fill:#343A40;}.cls-5{fill:#F8F9FA;}.cls-6{fill:#E9ECEF;}</style><linearGradient id="linear-gradient" x1="-831.76" y1="5564.45" x2="-648.38" y2="5627.72" gradientTransform="translate(1068.24 5886.37) scale(1 -1)" gradientUnits="userSpaceOnUse"><stop offset="0" stop-color="#fff"></stop><stop offset="0" stop-color="#fff" stop-opacity="0"></stop><stop offset=".99" stop-color="#fff"></stop></linearGradient><linearGradient id="linear-gradient-2" x1="-984.11" y1="5552.86" x2="-1031.7" y2="5533.65" gradientTransform="translate(1289 5888.65) scale(1 -1)" gradientUnits="userSpaceOnUse"><stop offset="0" stop-color="#fff" style="stop-color: rgb(248, 249, 250);"></stop><stop offset="0" stop-color="#000" stop-opacity="0" style="stop-color: rgb(33, 37, 41);"></stop><stop offset="1" stop-color="#000" style="stop-color: rgb(52, 58, 64);"></stop></linearGradient></defs><path class="cls-2" id="background" d="M188.23,123.78c-17.82,18.6-23.74,45.61-38.87,66.46-17.68,24.38-48.27,41.13-54.65,70.58-6.99,32.44,19.15,62.18,45.52,82.27,12.7,9.68,26.34,19.02,34.6,32.69,5.17,8.55,7.92,18.31,12.06,27.41,13.13,29.04,42.16,51.2,73.99,52.81,31.84,1.62,64.39-19.41,73.01-50.09,4.21-15,3.16-31.78,11.32-45.01,10.67-17.35,33.09-22.71,49.3-35.04,31.01-23.58,32.72-76.51,3.3-102.07-25.79-22.39-68.94-25.33-83.43-56.26-3.93-8.38-5.05-17.81-8.49-26.4-17.9-44.68-86.94-49.41-117.66-17.34Z"></path><g id="character"><path class="cls-6" d="M302.86,351.52s-.97,21.7-2.37,25.9c-1.4,4.2.27,6.13-4.12,7.23-4.39,1.1-2.85-22.55-2.85-22.55l1.48-9.07,7.86-1.52Z"></path><path class="cls-4" d="M256.97,357.83l10.15,59.42h8.68l2.17-34.23,2,42.97h9.52s8.19-47.07,6.68-55.74c-.41-2.86-1.31-5.62-2.66-8.17l-36.55-4.25Z"></path><path class="cls-4" d="M262.96,265.19c-.35-4.59-.1-9.47,2.36-13.35,2.03-3.16,5.31-5.31,9.01-5.92,5.28-.8,10.45,1.61,15.27,3.94,7.07,3.47,14.19,6.98,20.41,11.79s11.57,11.12,13.92,18.64c1.06,3.66,1.62,7.44,1.68,11.25.19,3.55-.05,7.12-.73,10.61-2.49,10.9-10.78,19.55-21.56,22.5-12.06,3.13-25.79-1.29-36.7,4.69-.71.5-1.54.8-2.41.88-1.2-.12-2.22-.95-2.56-2.11-.31-1.14-.31-2.35,0-3.49.76-3.55,2.55-6.79,5.14-9.34,3.33-3.26,7.76-5.14,11.4-8.04.62-.41,1.09-1.01,1.35-1.7.43-1.61-1.24-2.93-2.77-3.53-1.54-.59-3.37-1.13-3.98-2.64-.5-1.23,0-2.6.35-3.88,1.39-5.63-1.61-9.4-4.7-13.57-3.59-4.82-5.02-10.85-5.47-16.73Z"></path><path class="cls-4" d="M289.73,266.86s5.42,9.06,11.65,15.05c6.23,6,16.84,16.77,10.08,24.96-4.06,4.91-9.23,8.79-15.09,11.31l-13.72-13.78v-22.5l7.08-15.03Z"></path><path class="cls-7" d="M242.18,258.81l13.08-.97s-3.67,25.4,14.19,33.64c17.86,8.25,28.85,9.97,30.06,16.33,1.21,6.37,5.94,43.1,5.94,43.1l-8.99,2.1-.27-28.41.35,35.84s-19.48,10.93-25.09,8.78c-5.61-2.15-17.38-3.95-17.1-22.21.28-18.26,8.84-31.18-.45-45.08-9.29-13.9-11.94-36.54-11.7-43.12Z"></path><path class="cls-1" d="M242.18,258.81l13.08-.97s-3.67,25.4,14.19,33.64c17.86,8.25,28.85,9.97,30.06,16.33,1.21,6.37,5.94,43.1,5.94,43.1l-8.99,2.1-.27-28.41.35,35.84s-19.48,10.93-25.09,8.78c-5.61-2.15-17.38-3.95-17.1-22.21.28-18.26,8.84-31.18-.45-45.08-9.29-13.9-11.94-36.54-11.7-43.12Z"></path><path class="cls-6" d="M273.33,293.26s.5,7.55,5.35,7.37c4.85-.18,4.86-2.61,4.86-2.61l3.09-13.16-13.3.8s1.51,5.58,0,7.6Z"></path><path class="cls-4" d="M273.93,289.11s-.61,3.89,1.89,4.99c2.5,1.1,6.53-.28,7.5-1.39l.23,5.27,2.25-9.6-11.86.73Z"></path><path class="cls-6" d="M269.17,266.6s-2.8,20,7.27,24.04,13.16-6.81,14.47-12.02c1.3-5.21-2.47-23.87-10.45-20.97-4.67,1.61-8.66,4.76-11.29,8.95Z"></path><path class="cls-6" d="M245.48,258.57s.94-6.99.96-7.12c.17-1.32-.41-2.63-1.49-3.4-.96-.72-2.03-2.41-2.03-6.31s4.13-8.12,5.84-6.43c1.7,1.69,1.71,3.02,3.3,3.27,1.58.25.36,4.27,0,5.63-.36,1.36,1.95,13.75,1.95,13.75l-8.52.61Z"></path><polygon class="cls-3" points="296.18 324.64 301.4 351.86 296.45 353.02 296.18 324.64"></polygon><path class="cls-4" d="M279.98,426s-2.26,22.26,1.45,40.35h2.58l5.5-40.35h-9.52Z"></path><path class="cls-4" d="M267.13,417.25l5.18,45.4,1.9-.8s3.55-32.15,3.26-35.25c-.29-3.1-1.66-9.36-1.66-9.36l-8.68.02Z"></path><path class="cls-4" d="M274.2,461.87s1.15,1.94,1.02,3.33c-.1.95-6.65,9.08-11.34,13.47-5.06,4.74-9.97,2.99-9.97,2.99-1.83-.18-2.78-4.4-1.38-5.63,3.05-2.61,6.47-4.75,10.16-6.33,8.4-3.55,9.64-7.07,9.64-7.07l1.87-.76Z"></path><path class="cls-4" d="M281.42,466.35c-.5,1.58-.69,3.24-.54,4.89.32,2.35,10.45,13.88,10.45,13.88,0,0,8.29,5.38,11.2.76,2.91-4.63-8.58-10.77-10.87-12.06-2.28-1.29-7.67-7.47-7.67-7.47h-2.58Z"></path></g><g id="_"><circle class="cls-4" cx="168.73" cy="214.38" r="7.35"></circle><path class="cls-4" d="M156.51,206.75c1.96,2.56,5.32,3.59,8.37,2.56,1.85-.66,3.66-2.13,4.75-5.16,2.88-8.04-10.54-15.57-2.6-33.42,7.95-17.85.76-41.79-22.68-35.01-17.91,5.16-21.11,18.62-20.66,26.16l2.5,6.88,14.02.35s-.48-15.94,7.91-16.93,5.75,14.43,2.63,21.06c-6.86,14.61,1.56,28.11,5.75,33.52Z"></path><path class="cls-7" d="M153.34,198.01c1.95,2.56,5.32,3.59,8.37,2.56,1.86-.66,3.62-2.26,4.7-5.29,2.89-8.04-9.46-10.57-1.52-28.42,7.94-17.85.41-44.78-23.03-38.02-23.44,6.76-18.12,33.04-18.12,33.04l14.02.35s-.47-15.93,7.91-16.93c8.38-1,5.75,14.43,2.63,21.05-6.87,14.61.84,26.27,5.05,31.67Z"></path><circle class="cls-7" cx="167.09" cy="209.86" r="7.35"></circle></g><g id="_-2"><path class="cls-4" d="M136.36,284.85c.86,3.97-1.67,7.87-5.63,8.73-3.97.86-7.87-1.67-8.73-5.63-.85-3.96,1.65-7.86,5.61-8.73,3.96-.87,7.87,1.63,8.74,5.59,0,.01,0,.03,0,.04Z"></path><path class="cls-4" d="M118.07,277.23c1.6,2.8,4.8,4.26,7.96,3.63,1.92-.41,3.92-1.61,5.38-4.48,3.91-7.62-8.41-16.82,1.81-33.47,10.22-16.65,6.24-41.3-17.89-37.68-18.43,2.76-23.37,15.69-23.9,23.22l1.61,7.15,13.82,2.2s1.61-15.86,10.06-15.74c8.46.11,3.8,15.05-.15,21.21-8.74,13.57-2.15,28.07,1.29,33.97Z"></path><path class="cls-7" d="M116.07,268.16c1.6,2.8,4.81,4.26,7.96,3.63,1.92-.41,3.88-1.77,5.35-4.62,3.91-7.62-8-11.72,2.22-28.37,10.22-16.65,6.28-44.35-17.85-40.72-24.13,3.62-22.33,30.37-22.33,30.37l13.82,2.19s1.61-15.86,10.06-15.74c8.46.11,3.8,15.05-.15,21.21-8.7,13.59-2.55,26.16.91,32.06Z"></path><circle class="cls-7" cx="128.14" cy="281.74" r="7.35"></circle></g><g id="_-3"><path class="cls-4" d="M351.4,229.64c-.9,3.95-4.84,6.43-8.8,5.52-3.95-.9-6.43-4.84-5.52-8.8.9-3.95,4.84-6.42,8.79-5.52,3.96.91,6.43,4.84,5.53,8.8Z"></path><path class="cls-4" d="M338.11,214.95c.25,3.21,2.51,5.9,5.63,6.69,1.9.45,4.24.2,6.78-1.75,6.79-5.22-.41-18.8,15.94-29.49,16.35-10.69,23.31-34.68-.07-41.71-17.84-5.38-27.84,4.2-31.54,10.78l-1.61,7.14,11.59,7.89s8.24-13.66,15.83-9.93c7.59,3.73-3,15.23-9.21,19.11-13.69,8.55-13.91,24.47-13.33,31.28Z"></path><path class="cls-7" d="M340.18,205.89c.24,3.21,2.51,5.9,5.63,6.69,1.91.46,4.28.06,6.82-1.89,6.79-5.22-2.23-14.02,14.13-24.71,16.36-10.69,24.62-37.39,1.31-44.45-23.31-7.06-33.17,17.92-33.17,17.92l11.59,7.89s8.24-13.66,15.83-9.94c7.59,3.72-3,15.27-9.2,19.12-13.73,8.55-13.53,22.55-12.93,29.36Z"></path><circle class="cls-7" cx="345.29" cy="223.31" r="7.35"></circle></g><g id="_-4"><path class="cls-4" d="M388.7,295.36c-1.74,2.46-5.15,3.04-7.61,1.3-2.46-1.74-3.04-5.15-1.3-7.61,1.74-2.46,5.14-3.04,7.6-1.31,2.46,1.74,3.05,5.14,1.31,7.6,0,0,0,0,0,0Z"></path><path class="cls-4" d="M383.71,281.5c-.73,2.28.07,4.77,2,6.19,1.51,1.04,3.42,1.31,5.16.72,6.15-1.66,5.03-13.04,19.29-15.78,14.26-2.73,25.82-17.26,11.74-28.71-10.75-8.74-20.33-4.98-24.73-1.5l-3.14,4.44,5.74,8.71s9.52-7.06,13.66-2.36c4.14,4.69-6.37,9.64-11.73,10.54-11.8,2.01-16.47,12.88-17.99,17.75Z"></path><path class="cls-7" d="M387.7,275.85c-.73,2.28.07,4.78,2,6.2,1.18.85,2.92,1.25,5.22.63,6.15-1.66,2.41-10.26,16.71-12.99,14.3-2.72,27.51-18.77,13.43-30.21-14.08-11.44-27.87,2.94-27.87,2.94l5.74,8.7s9.52-7.06,13.66-2.35-6.37,9.64-11.73,10.54c-11.81,2.01-15.63,11.69-17.15,16.54Z"></path><circle class="cls-7" cx="386.29" cy="289.27" r="5.47"></circle></g><g id="_-5"><circle class="cls-4" cx="244.32" cy="220.72" r="17.29"></circle><path class="cls-4" d="M223.4,193.99c2.26,7.23,8.89,12.21,16.46,12.37,4.62,0,9.82-1.76,14.64-7.59,12.86-15.53-10.81-42.89,21.07-75.98,31.88-33.09,35.2-91.74-22.06-95.64-43.73-2.96-61.62,24.24-66.65,41.26v17.26l30.72,12.06s11.75-35.65,31.1-31.11c19.35,4.54,1.13,36.51-11.08,48.67-26.9,26.79-19.12,63.41-14.19,78.72Z"></path><path class="cls-7" d="M223.4,172.14c2.27,7.22,8.89,12.2,16.46,12.37,4.62,0,9.82-2.1,14.64-7.92,12.86-15.54-12.45-30.98,19.44-64.06,31.89-33.09,36.86-98.7-20.41-102.58-57.27-3.87-66.65,58.49-66.65,58.49l30.72,12.06s11.73-35.61,31.07-31.09c19.35,4.52,1.13,36.5-11.08,48.67-26.9,26.76-19.12,58.76-14.19,74.07Z"></path><circle class="cls-7" cx="244.32" cy="209.41" r="17.29"></circle><path class="cls-5" d="M244.79,440.53c-.1,0-.2-.03-.29-.08-.28-.15-.38-.5-.23-.77,0,0,.01-.02.02-.03,6.09-11.14,11.06-22.86,14.83-34.98,5.96-18.93,11.59-47.18,4.5-74.3-13.66-52.2-16.83-84.25-16.88-84.58-.03-.32.21-.6.52-.63.31-.03.59.2.62.51,0,.32,3.21,32.29,16.83,84.39,7.16,27.39,1.49,55.88-4.52,74.96-3.8,12.19-8.8,23.97-14.92,35.18-.09.18-.28.3-.48.31Z"></path></g></svg>