<svg transform="scale(1)" version="1.1" id="Layer_1" xmlns="http://www.w3.org/2000/svg" xmlns:xlink="http://www.w3.org/1999/xlink" x="0px" y="0px" viewBox="0 0 500 500" xml:space="preserve" class="show_show__wrapper__graphic__5Waiy "><title>React</title><style type="text/css">
	.st0{fill:#343A40;}
	.st1{fill:#F8F9FA;}
	.st2{fill:#212529;}
	.st3{fill:none;}
</style><g id="screen"><path class="st0" d="M76.2,84.4h198.2c4.3,0,7.9,3.5,7.9,7.9v329c0,4.3-3.5,7.9-7.9,7.9H76.2c-4.3,0-7.9-3.5-7.9-7.9v-329
		C68.4,88,71.9,84.4,76.2,84.4z"></path><path class="st0" d="M274.4,429.9H76.2c-4.8,0-8.6-3.9-8.6-8.6v-329c0-4.8,3.9-8.6,8.6-8.6h198.2c4.7,0,8.6,3.9,8.6,8.6v329
		C283,426,279.2,429.9,274.4,429.9z M76.2,85.2c-3.9,0-7.1,3.2-7.1,7.1v329c0,3.9,3.2,7.1,7.1,7.1h198.2c3.9,0,7.1-3.2,7.1-7.1v-329
		c0-3.9-3.2-7.1-7.1-7.1H76.2z"></path><path class="st1" d="M93,84.4h198.2c4.3,0,7.9,3.5,7.9,7.9v329c0,4.3-3.5,7.9-7.9,7.9H93c-4.3,0-7.9-3.5-7.9-7.9v-329
		C85.2,88,88.7,84.4,93,84.4z"></path><path class="st0" d="M291.2,429.9H93c-4.8,0-8.6-3.9-8.6-8.6v-329c0-4.8,3.9-8.6,8.6-8.6h198.2c4.8,0,8.6,3.9,8.6,8.6v329
		C299.8,426.1,295.9,429.9,291.2,429.9z M93,85.2c-3.9,0-7.1,3.2-7.1,7.1v329c0,3.9,3.2,7.1,7.1,7.1h198.2c3.9,0,7.1-3.2,7.1-7.1
		v-329c0-3.9-3.2-7.1-7.1-7.1H93z"></path><path class="st1" d="M93,84.4h198.2c4.3,0,7.9,3.5,7.9,7.9v329c0,4.3-3.5,7.9-7.9,7.9H93c-4.3,0-7.9-3.5-7.9-7.9v-329
		C85.2,88,88.7,84.4,93,84.4z"></path><path class="st0" d="M291.2,429.9H93c-4.8,0-8.6-3.9-8.6-8.6v-329c0-4.8,3.9-8.6,8.6-8.6h198.2c4.8,0,8.6,3.9,8.6,8.6v329
		C299.8,426.1,295.9,429.9,291.2,429.9z M93,85.2c-3.9,0-7.1,3.2-7.1,7.1v329c0,3.9,3.2,7.1,7.1,7.1h198.2c3.9,0,7.1-3.2,7.1-7.1
		v-329c0-3.9-3.2-7.1-7.1-7.1H93z"></path><path class="st2" d="M288.7,112.6v299.7c0,3.2-2.6,5.8-5.8,5.8H101.2c-3.2,0-5.8-2.6-5.8-5.8V112.6c0-3.2,2.6-5.8,5.8-5.8h181.7
		C286.1,106.8,288.7,109.4,288.7,112.6z"></path><path class="st0" d="M283,418.9H101.3c-3.6,0-6.5-2.9-6.6-6.5V112.6c0-3.6,2.9-6.6,6.5-6.6c0,0,0,0,0,0H283c3.6,0,6.5,2.9,6.5,6.6
		v299.7C289.5,415.9,286.6,418.9,283,418.9z M101.3,107.6c-2.8,0-5,2.2-5.1,5v299.8c0,2.8,2.3,5,5.1,5H283c2.8,0,5-2.3,5-5V112.6
		c0-2.8-2.3-5-5-5L101.3,107.6z"></path><path class="st0" d="M303,242.6v52.9c0,4.3-3.5,7.8-7.8,7.8H126.9c-4.3,0-7.8-3.5-7.8-7.8v-52.9c0-4.3,3.5-7.8,7.8-7.8h168.3
		C299.6,234.9,303,238.3,303,242.6z"></path><path class="st0" d="M295.3,304H126.9c-4.7,0-8.5-3.8-8.5-8.5v-52.9c0-4.7,3.8-8.5,8.5-8.5h168.3c4.7,0,8.5,3.8,8.5,8.5v52.9
		C303.8,300.2,300,304,295.3,304z M126.9,235.6c-3.9,0-7,3.1-7,7v52.9c0,3.9,3.1,7,7,7h168.3c3.9,0,7-3.1,7-7v-52.9c0-3.9-3.1-7-7-7
		L126.9,235.6z"></path><path class="st0" d="M211.3,131.7v86.1c0,1.1-0.9,2.1-2.1,2.1h-88c-1.1,0-2.1-0.9-2.1-2.1v-86.1c0-1.1,0.9-2.1,2.1-2.1h88
		C210.4,129.6,211.3,130.6,211.3,131.7z"></path><path class="st0" d="M209.3,220.6h-88c-1.6,0-2.8-1.3-2.8-2.8v-86.1c0-1.6,1.3-2.8,2.8-2.8h88c1.6,0,2.8,1.3,2.8,2.8v86.1
		C212.1,219.3,210.8,220.6,209.3,220.6z M121.3,130.4c-0.7,0-1.3,0.6-1.3,1.3v86.1c0,0.7,0.6,1.3,1.3,1.3h88c0.7,0,1.3-0.6,1.3-1.3
		v-86.1c0-0.7-0.6-1.3-1.3-1.3H121.3z"></path><path class="st0" d="M259.8,320.4v54.8c0,3.8-3,6.8-6.8,6.8H126c-3.8,0-6.8-3-6.8-6.8v-54.8c0-3.8,3-6.8,6.8-6.8H253
		C256.8,313.6,259.8,316.7,259.8,320.4z"></path><path class="st0" d="M253,382.8H126c-4.2,0-7.5-3.4-7.5-7.5v-54.8c0-4.2,3.4-7.5,7.5-7.5h127c4.2,0,7.5,3.4,7.5,7.5v54.8
		C260.5,379.4,257.2,382.8,253,382.8z M126,314.4c-3.3,0-6,2.7-6,6v54.8c0,3.3,2.7,6,6,6h127c3.3,0,6-2.7,6-6v-54.8c0-3.3-2.7-6-6-6
		L126,314.4z"></path><path class="st1" d="M309.2,242.6v52.9c0,4.3-3.5,7.7-7.7,7.7H134c-4.3,0-7.7-3.5-7.7-7.7v-52.9c0-4.3,3.5-7.7,7.7-7.7h167.5
		C305.8,234.9,309.2,238.3,309.2,242.6z"></path><path class="st0" d="M301.5,304H134c-4.7,0-8.5-3.8-8.5-8.5v-52.9c0-4.7,3.8-8.5,8.5-8.5h167.5c4.7,0,8.5,3.8,8.5,8.5c0,0,0,0,0,0
		v52.9C310,300.2,306.2,304,301.5,304z M134,235.6c-3.9,0-7,3.1-7,7v52.9c0,3.9,3.1,7,7,7h167.5c3.9,0,7-3.1,7-7v-52.9
		c0-3.9-3.1-7-7-7L134,235.6z"></path><path class="st0" d="M226.5,252h-23.2c-0.4,0-0.8-0.3-0.8-0.8s0.3-0.8,0.8-0.8h23.2c0.4,0,0.8,0.3,0.8,0.8S226.9,252,226.5,252z"></path><path class="st0" d="M270.9,259.4h-67.6c-0.4,0-0.8-0.3-0.8-0.8s0.3-0.8,0.8-0.8h67.6c0.4,0,0.8,0.3,0.8,0.8
		S271.3,259.4,270.9,259.4z"></path><path class="st0" d="M270.9,266.3h-67.6c-0.4,0-0.8-0.3-0.8-0.8s0.3-0.8,0.8-0.8h67.6c0.4,0,0.8,0.3,0.8,0.8
		S271.3,266.3,270.9,266.3z"></path><path class="st0" d="M270.9,273.2h-67.6c-0.4,0-0.8-0.3-0.8-0.8s0.3-0.8,0.8-0.8h67.6c0.4,0,0.8,0.3,0.8,0.8
		S271.3,273.2,270.9,273.2z"></path><path class="st0" d="M270.9,280.1h-67.6c-0.4,0-0.8-0.3-0.8-0.8s0.3-0.8,0.8-0.8h67.6c0.4,0,0.8,0.3,0.8,0.8
		S271.3,280.1,270.9,280.1z"></path><path class="st0" d="M257.5,287h-54.2c-0.4,0-0.8-0.3-0.8-0.8s0.3-0.8,0.8-0.8h54.2c0.4,0,0.8,0.3,0.8,0.8S257.9,287,257.5,287z"></path><path class="st1" d="M218.4,131.7v86.1c0,1.1-0.9,2.1-2.1,2.1h-88c-1.1,0-2.1-0.9-2.1-2.1v-86.1c0-1.1,0.9-2.1,2.1-2.1h88
		C217.4,129.6,218.4,130.6,218.4,131.7z"></path><path class="st0" d="M216.3,220.6h-88c-1.6,0-2.8-1.3-2.8-2.8v-86.1c0-1.6,1.3-2.8,2.8-2.8h88c1.6,0,2.8,1.3,2.8,2.8v86.1
		C219.1,219.3,217.9,220.6,216.3,220.6z M128.3,130.4c-0.7,0-1.3,0.6-1.3,1.3v86.1c0,0.7,0.6,1.3,1.3,1.3h88c0.7,0,1.3-0.6,1.3-1.3
		v-86.1c0-0.7-0.6-1.3-1.3-1.3H128.3z"></path><path class="st1" d="M258.1,132.4v84.7c0,1.5-1.2,2.8-2.8,2.8h-25.8c-1.5,0-2.8-1.2-2.8-2.8v-84.7c0-1.5,1.2-2.8,2.8-2.8h25.8
		C256.9,129.6,258.1,130.9,258.1,132.4z"></path><path class="st0" d="M255.3,220.6h-25.8c-1.9,0-3.5-1.6-3.5-3.5v-84.7c0-1.9,1.6-3.5,3.5-3.5h25.8c1.9,0,3.5,1.6,3.5,3.5v84.7
		C258.8,219,257.3,220.6,255.3,220.6z M229.5,130.4c-1.1,0-2,0.9-2,2V217c0,1.1,0.9,2,2,2h25.8c1.1,0,2-0.9,2-2v0v-84.7
		c0-1.1-0.9-2-2-2L229.5,130.4z"></path><path class="st0" d="M273.7,168.7v5.8c0,0.5-0.4,0.9-0.9,0.9h-38.9c-0.5,0-0.9-0.4-0.9-0.9v-5.8c0-0.5,0.4-0.9,0.9-0.9h38.9
		C273.3,167.8,273.7,168.2,273.7,168.7z"></path><path class="st0" d="M272.8,176.2h-38.9c-0.9,0-1.7-0.7-1.7-1.7v-5.8c0-0.9,0.7-1.7,1.7-1.7c0,0,0,0,0,0h38.9
		c0.9,0,1.7,0.7,1.7,1.7l0,0v5.8C274.5,175.4,273.7,176.2,272.8,176.2C272.8,176.2,272.8,176.2,272.8,176.2z M233.9,168.6
		c-0.1,0-0.2,0.1-0.2,0.2v5.8c0,0.1,0.1,0.2,0.2,0.2h38.9c0.1,0,0.2-0.1,0.2-0.2c0,0,0,0,0,0v-5.8c0-0.1-0.1-0.2-0.2-0.2l0,0H233.9z
		"></path><path class="st1" d="M280.3,137.8v22.1c0,1-0.8,1.8-1.8,1.8h-43.7c-1,0-1.8-0.8-1.8-1.8v-22.1c0-1,0.8-1.8,1.8-1.8h43.7
		C279.5,136,280.3,136.8,280.3,137.8z"></path><path class="st0" d="M278.5,162.4h-43.7c-1.4,0-2.6-1.1-2.6-2.6v-22.1c0-1.4,1.1-2.6,2.6-2.6h43.7c1.4,0,2.6,1.1,2.6,2.6v22.1
		C281.1,161.3,279.9,162.4,278.5,162.4z M234.8,136.8c-0.6,0-1.1,0.5-1.1,1.1v22.1c0,0.6,0.5,1.1,1.1,1.1h43.7
		c0.6,0,1.1-0.5,1.1-1.1v-22.1c0-0.6-0.5-1.1-1.1-1.1H234.8z"></path><path class="st0" d="M264.8,180.5v6c0,0.4-0.4,0.8-0.8,0.8h-30.2c-0.4,0-0.8-0.4-0.8-0.8v-6c0-0.4,0.4-0.8,0.8-0.8H264
		C264.4,179.6,264.8,180,264.8,180.5z"></path><path class="st0" d="M264,188h-30.2c-0.9,0-1.6-0.7-1.6-1.6v-6c0-0.9,0.7-1.6,1.6-1.6H264c0.9,0,1.6,0.7,1.5,1.6v6
		C265.5,187.3,264.9,188,264,188z M233.8,180.4l-0.1,6.1c0,0,0,0,0.1,0H264l0-6L233.8,180.4z"></path><path class="st0" d="M279.7,192.4v5.6c0,0.5-0.4,1-1,1h-44.7c-0.5,0-1-0.4-1-1v-5.6c0-0.5,0.4-1,1-1h44.7
		C279.2,191.5,279.7,191.9,279.7,192.4z"></path><path class="st0" d="M278.7,199.8H234c-1,0-1.7-0.8-1.7-1.7v-5.7c0-1,0.8-1.7,1.7-1.7h44.7c0.9,0,1.7,0.8,1.7,1.7c0,0,0,0,0,0v5.7
		C280.5,199.1,279.7,199.8,278.7,199.8C278.7,199.8,278.7,199.8,278.7,199.8z M234,192.2c-0.1,0-0.2,0.1-0.2,0.2v5.7
		c0,0.1,0.1,0.2,0.2,0.2h44.7c0.1,0,0.2-0.1,0.2-0.2l0,0v-5.7c0-0.1-0.1-0.2-0.2-0.2c0,0,0,0,0,0H234z"></path><path class="st0" d="M253.4,205.2v6.3c0,0.4-0.3,0.6-0.6,0.6h-19.1c-0.4,0-0.6-0.3-0.6-0.6v-6.3c0-0.4,0.3-0.6,0.6-0.6h19.1
		C253.1,204.5,253.4,204.8,253.4,205.2z"></path><path class="st0" d="M252.7,212.9h-19.1c-0.8,0-1.4-0.6-1.4-1.4v-6.3c0-0.8,0.6-1.4,1.4-1.4h19.1c0.8,0,1.4,0.6,1.4,1.4v6.3
		C254.1,212.2,253.5,212.9,252.7,212.9z M233.7,211.4h18.9v-6.1h-18.9L233.7,211.4z"></path><path class="st1" d="M194.1,253.5v31.1c0,4.1-3.3,7.5-7.5,7.5h-42.2c-4.1,0-7.5-3.3-7.5-7.5v-31.1c0-4.1,3.3-7.5,7.5-7.5h42.2
		C190.8,246.1,194.1,249.4,194.1,253.5z"></path><path class="st0" d="M186.7,292.8h-42.2c-4.5,0-8.2-3.7-8.2-8.2v-31.1c0-4.5,3.7-8.2,8.2-8.2h42.2c4.5,0,8.2,3.7,8.2,8.2v31.1
		C194.9,289.1,191.2,292.8,186.7,292.8z M144.4,246.8c-3.7,0-6.7,3-6.7,6.7v31.1c0,3.7,3,6.7,6.7,6.7h42.2c3.7,0,6.7-3,6.7-6.7
		v-31.1c0-3.7-3-6.7-6.7-6.7L144.4,246.8z"></path><rect class="st0" x="142.8" y="251.2" width="25.5" height="34"></rect><path class="st0" d="M168.3,286h-25.5c-0.4,0-0.7-0.3-0.8-0.8v-34c0-0.4,0.3-0.7,0.8-0.8h25.5c0.4,0,0.8,0.3,0.8,0.8v34
		C169,285.7,168.7,286,168.3,286z M143.5,284.5h24V252h-24V284.5z"></path><path class="st1" d="M266.1,320.4v54.9c0,3.7-3,6.8-6.8,6.8H133c-3.7,0-6.8-3-6.8-6.8v-54.9c0-3.7,3-6.8,6.8-6.8h126.4
		C263.1,313.6,266.1,316.6,266.1,320.4z"></path><path class="st0" d="M259.4,382.8H133c-4.2,0-7.5-3.4-7.5-7.5v-54.9c0-4.2,3.4-7.5,7.5-7.5h126.4c4.2,0,7.5,3.4,7.5,7.5v54.9
		C266.9,379.4,263.5,382.8,259.4,382.8z M133,314.4c-3.3,0-6,2.7-6,6v54.9c0,3.3,2.7,6,6,6h126.4c3.3,0,6-2.7,6-6v-54.8
		c0-3.3-2.7-6-6-6L133,314.4z"></path><path class="st0" d="M219.4,331.6h-16.3c-0.4,0-0.8-0.3-0.8-0.8s0.3-0.8,0.8-0.8h16.3c0.4,0,0.8,0.3,0.8,0.8
		S219.8,331.6,219.4,331.6z"></path><path class="st0" d="M250.6,339h-47.5c-0.4,0-0.8-0.3-0.8-0.8s0.3-0.8,0.8-0.8h47.5c0.4,0,0.8,0.3,0.8,0.8S251,339,250.6,339z"></path><path class="st0" d="M250.6,345.9h-47.5c-0.4,0-0.8-0.3-0.8-0.8s0.3-0.8,0.8-0.8h47.5c0.4,0,0.8,0.3,0.8,0.8S251,345.9,250.6,345.9
		z"></path><path class="st0" d="M250.6,352.8h-47.5c-0.4,0-0.8-0.3-0.8-0.8s0.3-0.8,0.8-0.8h47.5c0.4,0,0.8,0.3,0.8,0.8S251,352.8,250.6,352.8
		z"></path><path class="st0" d="M250.6,359.7h-47.5c-0.4,0-0.8-0.3-0.8-0.8s0.3-0.8,0.8-0.8h47.5c0.4,0,0.8,0.3,0.8,0.8S251,359.7,250.6,359.7
		z"></path><path class="st0" d="M241.2,366.6h-38.1c-0.4,0-0.8-0.3-0.8-0.8s0.3-0.8,0.8-0.8h38.1c0.4,0,0.8,0.3,0.8,0.8
		S241.6,366.6,241.2,366.6L241.2,366.6z"></path><path class="st1" d="M194.1,332.3v31.1c0,4.1-3.3,7.5-7.5,7.5h-42.2c-4.1,0-7.5-3.3-7.5-7.5v-31.1c0-4.1,3.3-7.5,7.5-7.5h42.2
		C190.8,324.8,194.1,328.2,194.1,332.3z"></path><path class="st0" d="M186.7,371.6h-42.2c-4.5,0-8.2-3.7-8.2-8.2v-31.1c0-4.5,3.7-8.2,8.2-8.2h42.2c4.5,0,8.2,3.7,8.2,8.2v31.1
		C194.9,367.9,191.2,371.6,186.7,371.6z M144.4,325.6c-3.7,0-6.7,3-6.7,6.7v31.1c0,3.7,3,6.7,6.7,6.7h42.2c3.7,0,6.7-3,6.7-6.7
		v-31.1c0-3.7-3-6.7-6.7-6.7H144.4z"></path><path class="st0" d="M177.8,347.6c0,8.6-7,15.7-15.6,15.7c-8.6,0-15.7-7-15.7-15.6s7-15.7,15.6-15.7c4.5,0,8.7,1.9,11.7,5.2
		C176.4,340.1,177.8,343.8,177.8,347.6z"></path><path class="st0" d="M162.2,364c-9,0-16.4-7.3-16.3-16.4s7.3-16.4,16.4-16.3c9,0,16.3,7.3,16.3,16.3
		C178.5,356.7,171.2,364,162.2,364z M162.2,332.8c-8.2,0-14.9,6.6-15,14.9c0,8.2,6.6,14.9,14.9,15c8.2,0,14.9-6.6,15-14.9
		c0-3.7-1.3-7.2-3.8-10C170.5,334.6,166.4,332.7,162.2,332.8L162.2,332.8z"></path><path class="st1" d="M163.2,93.7h1.2c0.9,0,1.7,0.8,1.7,1.7V96c0,0.9-0.8,1.7-1.7,1.7h-1.2c-0.9,0-1.7-0.8-1.7-1.7v-0.6
		C161.5,94.5,162.3,93.7,163.2,93.7z"></path><path class="st0" d="M164.3,98.4h-1.1c-1.3,0-2.4-1.1-2.4-2.4v-0.6c0-1.3,1.1-2.4,2.4-2.4h1.1c1.4,0,2.4,1.1,2.4,2.4V96
		C166.8,97.3,165.7,98.4,164.3,98.4z M163.2,94.4c-0.5,0-0.9,0.4-1,0.9c0,0,0,0,0,0.1V96c0,0.5,0.4,1,0.9,1c0,0,0,0,0.1,0h1.1
		c0.5,0,1-0.5,0.9-1v-0.6c0-0.5-0.4-1-0.9-1L163.2,94.4z"></path><path class="st0" d="M172.4,93.7h48.4c1.1,0,2,0.9,2,2l0,0c0,1.1-0.9,2-2,2h-48.4c-1.1,0-2-0.9-2-2l0,0
		C170.4,94.6,171.2,93.7,172.4,93.7z"></path><path class="st0" d="M220.7,98.4h-48.4c-1.5,0.1-2.8-1.1-2.9-2.6s1.1-2.8,2.6-2.9c0.1,0,0.2,0,0.3,0h48.4c1.5-0.1,2.8,1.1,2.9,2.6
		s-1.1,2.8-2.6,2.9C220.9,98.4,220.8,98.4,220.7,98.4z M172.4,94.4c-0.7-0.1-1.3,0.4-1.4,1.1c-0.1,0.7,0.4,1.3,1.1,1.4
		c0.1,0,0.1,0,0.2,0h48.4c0.7,0.1,1.3-0.4,1.4-1.1c0.1-0.7-0.4-1.3-1.1-1.4c-0.1,0-0.1,0-0.2,0H172.4z"></path><path class="st1" d="M140,176.9c0,18.6,15.1,33.7,33.7,33.7s33.7-15.1,33.7-33.7s-15.1-33.7-33.7-33.7c0,0,0,0,0,0
		c-18.5-0.1-33.6,14.8-33.7,33.3C140,176.7,140,176.8,140,176.9z"></path><path class="st0" d="M173.7,211.4c-19,0-34.4-15.5-34.4-34.5c0-19,15.5-34.4,34.5-34.4c19,0,34.4,15.5,34.4,34.5
		c0,6.1-1.7,12.2-4.8,17.5C197.2,205,185.9,211.4,173.7,211.4z M173.7,144c-18.2,0-33,14.8-33,33s14.8,33,33,33s33-14.8,33-33l0,0
		C206.6,158.8,191.9,144,173.7,144L173.7,144z"></path><path class="st2" d="M145.7,195.8c10.4,15.4,31.4,19.5,46.8,9.1c4.1-2.8,7.6-6.5,10.2-10.8c-5.5-1.6-11.1-2.4-16.8-2.3h-27.7
		C153.6,191.8,149,193.8,145.7,195.8z"></path><path class="st1" d="M165.9,189.7c0,0.3-0.3,2.5-0.6,5.1c-0.1,1.5,0.1,2.9,0.6,4.3c1.9,5,9.1,4.6,13.9,1.6c4-2.5,5.9-7.4,5.9-7.4
		l2.5-15.6c1.2,0.4,6.4,1.3,6.9-4c0.3-3.5-1.5-4.5-3.2-4.8c-0.7-0.1-1.5-0.1-2.2,0c-0.1,0.1-0.2,0.3-0.3,0.4l0,0
		c-0.1,0.1-0.2,0.2-0.3,0.3c-0.6,0.7-1.7,0.9-2.5,0.4c-0.4-0.4-0.6-0.9-0.6-1.4c-0.9-4.8-1.7-9.9,0.4-14.4c-0.1-0.2-0.2-0.3-0.3-0.5
		c-0.3-0.5-0.6-1-0.9-1.5l0,0c-0.6-1.1-1.5-1.8-2.7-2.2c-2.4-0.4-2.4-0.4-4.1,0.4c-2.7,1.3-4.6,3.2-8.3,3.3c-2.7,0-5.4-0.7-7.7-2.2
		c-0.3,0.6-0.7,1.2-0.9,1.8c-0.6,1.3-1,2.8-1.2,4.2c-1.2,8-2.4,16.8-2.6,21.2C157.1,187.7,165.9,189.7,165.9,189.7z"></path><path class="st0" d="M172.4,203.7c-1.1,0-2.1-0.2-3.1-0.5c-1.9-0.6-3.4-2-4.1-3.9c-0.6-1.5-0.8-3.1-0.7-4.6
		c0.3-2.2,0.5-3.7,0.6-4.5c-2.1-0.7-8.7-3.5-8.3-11.5c0.2-3.6,1.1-10.8,2.6-21.2c0.2-1.5,0.7-3,1.3-4.4c0.3-0.7,0.6-1.3,1-1.9
		c0.1-0.2,0.3-0.3,0.5-0.4c0.2,0,0.4,0,0.6,0.1c2.1,1.4,4.7,2.1,7.2,2.1c2.1-0.1,4.2-0.8,5.9-2c0.7-0.4,1.4-0.8,2.1-1.2
		c1.9-0.9,2-0.9,4.5-0.5c1.3,0.3,2.5,1.2,3.1,2.4l0.1,0.1c0.2,0.3,0.4,0.6,0.6,0.9l0.4,0.6l0.3,0.5c0.1,0.2,0.2,0.5,0.1,0.7
		c-1.9,4-1.2,8.7-0.3,13.9c0,0.4,0.2,0.7,0.4,1c0.3,0.3,1,0,1.5-0.4c0.1-0.1,0.2-0.2,0.3-0.3c0.1-0.1,0.2-0.2,0.3-0.4
		c0.1-0.2,0.3-0.3,0.5-0.3c0.8-0.1,1.6-0.1,2.4,0c1.6,0.2,4.2,1.3,3.8,5.6c0,1.7-0.9,3.2-2.3,4.2c-1.5,0.8-3.2,1.1-4.8,0.7
		l-2.4,14.8c0,0,0,0.1,0,0.1c-0.1,0.2-2,5.2-6.2,7.8C177.9,202.8,175.2,203.6,172.4,203.7z M162.6,152.6c-0.2,0.3-0.4,0.7-0.5,1.1
		c-0.6,1.3-1,2.6-1.2,4c-1.6,10.4-2.4,17.5-2.6,21.1c-0.4,8.2,7.4,10.1,7.8,10.1c0.4,0.1,0.6,0.4,0.6,0.8c0,0.2-0.1,0.9-0.6,5.2
		c-0.1,1.3,0.1,2.7,0.6,3.9c0.5,1.4,1.7,2.6,3.2,3c2.7,0.9,6.5,0.2,9.6-1.7c3.5-2.2,5.3-6.4,5.6-7l2.5-15.5c0-0.2,0.2-0.4,0.4-0.5
		c0.2-0.1,0.4-0.1,0.6-0.1c1.4,0.5,3,0.4,4.4-0.3c1-0.7,1.6-1.9,1.6-3.1c0.2-2.4-0.6-3.7-2.5-3.9c-0.5-0.1-1.1-0.1-1.6,0l-0.2,0.2
		c-0.1,0.1-0.2,0.3-0.4,0.4c-0.9,1-2.4,1.1-3.5,0.4c-0.5-0.5-0.8-1.2-0.9-1.9c-0.8-4.3-1.7-9.7,0.2-14.4l-0.1-0.1l-0.4-0.6
		c-0.2-0.3-0.3-0.6-0.5-0.8l-0.1-0.1c-0.8-1.2-1.4-1.7-2.2-1.8c-2.1-0.4-2.1-0.4-3.6,0.4c-0.7,0.4-1.4,0.7-2,1.1
		c-2,1.4-4.3,2.2-6.6,2.3C167.5,154.6,164.9,153.9,162.6,152.6z"></path><path class="st0" d="M157.9,174.4c0.9-1.1,2.4-1.4,3.7-0.9c2.3,1,4.9,1.3,7.4,1c2.6-0.4,8-0.6,10.8,2c2.8,2.4,3,6.6,0.6,9.4
		c-0.3,0.4-0.7,0.7-1.1,1c-3.8,2.9-12.4,5.4-18.5,0.3C155.4,182.7,156.1,176.8,157.9,174.4z"></path><path class="st0" d="M169.3,190.9c-3.3,0.1-6.5-1-9-3.1c-5.5-4.6-5.2-11-3-13.9c1.1-1.3,2.9-1.8,4.5-1.1c2.2,0.9,4.6,1.3,7,1
		c2.9-0.5,8.5-0.6,11.5,2.2c1.7,1.5,2.6,3.7,2.5,6c-0.1,2.2-1.2,4.3-3,5.6C176.7,189.8,173,190.9,169.3,190.9z M160.3,174
		c-0.7,0-1.3,0.3-1.8,0.8l0,0c-1.6,2-2.4,7.5,2.8,11.8c5.7,4.7,13.9,2.6,17.6-0.3c1.5-1,2.3-2.7,2.4-4.5c0.1-1.8-0.7-3.6-2-4.8
		c-2.6-2.4-7.8-2.2-10.2-1.8c-2.6,0.3-5.3,0-7.8-1C161,174.1,160.7,174,160.3,174L160.3,174z M157.9,174.4L157.9,174.4z"></path><path class="st0" d="M159,151.9c0.7,0.6,1.6,1.1,2.4,1.5c0.3-0.6,0.6-1.2,0.9-1.8c1,2.1,1.7,2.5,4.4,2.9c10.6,1.5,17.2-2.3,18,1.5
		c0.8,3.9-0.1,11.8,0.1,13.8c0.5,4,2.8,2.3,2.8,2.3s2.1-3.1,2.2-3.3c0.7-0.1,1.5-0.1,2.2,0c0.8-0.9,1.5-1.9,2.1-3
		c1.2-2,1.7-4.4,1.4-6.7c-0.2-1.3-0.8-2.6-0.9-4c-0.1-1.9,0.6-3.8,0-5.6c-2.9-8.2-9.5-8.9-11.4-10.1c-1.7-1.1-3.8-1.1-5.8-0.8
		c-1.9,0.4-3.9,0.6-5.9,0.5c-1.4-0.2-2.7-0.8-4.1-1.1c-8-1.6-10.4,4.6-11,7.1C156,147.7,157,150.3,159,151.9z"></path><path class="st0" d="M186.6,173.2c-0.3,0-0.5-0.1-0.8-0.2c-0.9-0.4-1.5-1.5-1.7-3.1c-0.1-1.4-0.1-2.9,0-4.3
		c0.1-3.1,0.3-7.1-0.2-9.5c-0.3-1.3-1.5-1.3-5.4-0.9c-4,0.5-8,0.5-11.9,0c-2.3-0.3-3.3-0.8-4.2-2.1c-0.1,0.2-0.2,0.4-0.3,0.6
		c-0.1,0.2-0.2,0.3-0.4,0.4c-0.2,0.1-0.4,0.1-0.6,0c-0.9-0.4-1.8-1-2.6-1.6l0,0c-2.3-1.7-3.3-4.6-2.8-7.4c0.6-2.2,3.1-9.4,11.9-7.6
		c0.6,0.1,1.2,0.3,1.9,0.5c0.7,0.2,1.4,0.4,2.2,0.6c1.5,0.1,2.9,0,4.4-0.3c0.4-0.1,0.9-0.1,1.4-0.2c1.7-0.2,4.3-0.4,6.3,0.9
		c0.5,0.3,1,0.5,1.6,0.7c2.9,1.1,7.7,2.9,10.1,9.8c0.3,1.2,0.4,2.5,0.1,3.7c-0.1,0.7-0.1,1.4-0.1,2.1c0.1,0.7,0.2,1.5,0.4,2.1
		c0.2,0.6,0.3,1.2,0.4,1.8c0.3,2.5-0.2,5-1.5,7.2c-0.6,1.1-1.4,2.1-2.2,3.1c-0.2,0.2-0.4,0.3-0.7,0.3c-0.5-0.1-1.1-0.1-1.6,0
		l-0.3,0.4c-1.5,2.2-1.7,2.5-1.8,2.6l-0.1,0.1C187.6,173.1,187.1,173.2,186.6,173.2z M181.7,153.5c2,0,3.4,0.5,3.7,2.3
		c0.5,2.6,0.4,6.6,0.2,9.8c-0.1,1.4-0.1,2.7-0.1,4.1c0.1,1.1,0.4,1.8,0.8,1.9c0.3,0.1,0.5,0,0.8-0.1c0.2-0.3,1.1-1.7,1.6-2.4
		l0.5-0.7c0.1-0.2,0.3-0.3,0.5-0.3c0.7-0.1,1.3-0.1,2-0.1c0.7-0.8,1.2-1.7,1.8-2.6c1.1-1.9,1.6-4,1.4-6.2c-0.1-0.5-0.2-1.1-0.4-1.6
		c-0.3-0.8-0.4-1.6-0.5-2.4c0-0.8,0-1.6,0.1-2.3c0.2-1,0.2-2-0.1-3c-2.2-6.2-6.4-7.8-9.2-8.9c-0.6-0.2-1.3-0.5-1.9-0.8
		c-1.2-0.8-2.9-1-5.3-0.7c-0.4,0.1-0.9,0.1-1.3,0.2c-1.6,0.3-3.2,0.4-4.8,0.3c-0.8-0.1-1.6-0.3-2.4-0.6c-0.6-0.2-1.1-0.4-1.7-0.5
		c-7.3-1.5-9.5,4-10.2,6.5c-0.6,2.3,0.8,4.6,2.3,5.9l0,0c0.5,0.4,1,0.8,1.6,1.1c0.2-0.4,0.4-0.8,0.6-1.2c0.1-0.2,0.4-0.4,0.7-0.4
		c0.3,0,0.5,0.2,0.6,0.4c0.9,1.8,1.3,2.2,3.8,2.5c3.8,0.5,7.7,0.5,11.6,0C179.6,153.6,180.7,153.5,181.7,153.5z"></path><path class="st1" d="M165.3,164.1c0,0-3.6,6.4-3.5,8.2s2.5,2.6,2.5,2.6c1.1,0.5,4.9-1.2,4.9-1.2"></path><path class="st0" d="M164.9,175.6c-0.3,0-0.6,0-0.8-0.1c0,0-2.8-0.9-3-3.2c-0.1-1.9,3-7.5,3.6-8.6c0.2-0.4,0.6-0.5,1-0.4
		s0.5,0.6,0.4,1c0,0,0,0.1-0.1,0.1c-1.5,2.6-3.5,6.6-3.4,7.8c0.1,1.3,2,1.9,2,1.9c0.5,0.2,2.6-0.4,4.4-1.2c0.4-0.2,0.8,0,1,0.4
		c0.2,0.4,0,0.8-0.4,1c0,0,0,0,0,0C168.1,175,166.5,175.5,164.9,175.6z"></path><circle class="st1" cx="174.7" cy="163.5" r="6.6"></circle><path class="st0" d="M174.7,170.9c-4.1,0-7.4-3.3-7.4-7.4c0-4.1,3.3-7.4,7.4-7.4c4.1,0,7.4,3.3,7.4,7.4
		C182.1,167.6,178.8,170.9,174.7,170.9z M174.7,157.6c-3.2,0-5.9,2.6-5.9,5.9c0,3.2,2.6,5.9,5.9,5.9c3.2,0,5.9-2.6,5.9-5.9
		S178,157.6,174.7,157.6C174.7,157.6,174.7,157.6,174.7,157.6z"></path><circle class="st1" cx="158.1" cy="161.7" r="6.6"></circle><path class="st0" d="M158.1,169.1c-4.1,0-7.4-3.3-7.4-7.4c0-4.1,3.3-7.4,7.4-7.4c4.1,0,7.4,3.3,7.4,7.4
		C165.5,165.8,162.2,169.1,158.1,169.1z M158.1,155.8c-3.2,0-5.9,2.6-5.9,5.9c0,3.2,2.6,5.9,5.9,5.9c3.2,0,5.9-2.6,5.9-5.9
		C164,158.4,161.4,155.8,158.1,155.8z"></path><path class="st1" d="M168.2,162.1c-1.1-0.5-2.3-0.5-3.4-0.2"></path><path class="st0" d="M168.2,162.8c-0.1,0-0.2,0-0.4-0.1c-0.9-0.4-1.9-0.4-2.9-0.1c-0.4,0.1-0.8-0.1-0.9-0.5
		c-0.1-0.4,0.1-0.8,0.5-0.9c0,0,0,0,0,0c1.3-0.4,2.7-0.4,4,0.2c0.4,0.2,0.5,0.7,0.3,1C168.7,162.7,168.5,162.8,168.2,162.8
		L168.2,162.8z"></path><line class="st3" x1="181.3" y1="163.5" x2="190.4" y2="168.8"></line><path class="st0" d="M190.4,169.5c-0.1,0-0.3,0-0.4-0.1l-9.1-5.3c-0.3-0.2-0.5-0.6-0.3-1c0.2-0.3,0.6-0.5,1-0.3l9.1,5.3
		c0.4,0.2,0.5,0.7,0.3,1C190.9,169.4,190.7,169.6,190.4,169.5L190.4,169.5z"></path><path class="st0" d="M179.9,185.4c0,0-3.9,5.1-14,4.2l-0.6,4.5C165.4,194.2,176.7,197.1,179.9,185.4z"></path><path class="st0" d="M168.3,195.2c-1.1,0-2.1-0.1-3.1-0.3c-0.4-0.1-0.6-0.4-0.6-0.8l0.6-4.5c0.1-0.4,0.4-0.7,0.8-0.7
		c9.6,0.8,13.3-3.9,13.4-3.9c0.3-0.3,0.7-0.4,1.1-0.1c0.2,0.2,0.3,0.5,0.3,0.8C178.4,193.9,172.1,195.2,168.3,195.2z M166.2,193.6
		c2.1,0.4,8.8,0.9,12-5.7c-2.1,1.4-5.9,3-11.6,2.6L166.2,193.6z"></path><ellipse class="st0" transform="matrix(8.976350e-02 -0.996 0.996 8.976350e-02 -4.7108 320.646)" cx="173.1" cy="162.9" rx="1.8" ry="1.2"></ellipse><ellipse class="st0" transform="matrix(8.976350e-02 -0.996 0.996 8.976350e-02 -14.9015 308.5584)" cx="161.4" cy="162.4" rx="1.8" ry="1.2"></ellipse><path class="st1" d="M190.4,171.1c0,0,2.5,1.7,1.6,4.3"></path><path class="st0" d="M192,176.1c-0.1,0-0.2,0-0.3,0c-0.4-0.1-0.6-0.6-0.4-1c0,0,0,0,0,0c0.7-2-1.2-3.3-1.3-3.4
		c-0.3-0.2-0.4-0.7-0.2-1.1c0.2-0.3,0.7-0.4,1-0.2c1.7,1.1,2.5,3.2,1.9,5.1C192.6,175.9,192.3,176.1,192,176.1z"></path><path class="st0" d="M180.8,185.4c-0.4,0.6-0.9,1.1-1.5,1.5c-3,2.4-9.3,4.4-14.8,2.5"></path><path class="st1" d="M169.3,190.9c-1.7,0-3.4-0.3-5-0.8c-0.4-0.1-0.6-0.6-0.5-1c0.1-0.4,0.6-0.6,1-0.5l0,0
		c4.9,1.8,10.9,0.1,14.1-2.3c0.5-0.4,1-0.9,1.4-1.4c0.2-0.3,0.7-0.4,1.1-0.2s0.4,0.7,0.2,1.1l0,0c-0.5,0.6-1,1.2-1.6,1.7
		C176.7,189.7,173.1,190.9,169.3,190.9z"></path><path class="st0" d="M161.2,179c1.4,1.3,3.1,2,5,2.1c1.8,0.2,3.7-0.4,5.1-1.6"></path><path class="st1" d="M166.8,181.9h-0.7c-2.1-0.1-4-0.9-5.5-2.3c-0.3-0.3-0.4-0.7-0.1-1.1s0.7-0.4,1.1-0.1c0.1,0,0.1,0.1,0.1,0.1
		c1.3,1.1,2.8,1.8,4.5,1.9c1.6,0.2,3.2-0.3,4.4-1.4c0.3-0.3,0.8-0.3,1,0c0,0,0,0,0,0c0.3,0.3,0.3,0.7,0.1,1c0,0,0,0,0,0
		C170.5,181.3,168.7,181.9,166.8,181.9z"></path><path class="st0" d="M173.7,211.4c-19,0-34.5-15.4-34.5-34.5c0,0,0,0,0,0c0-0.4,0.3-0.8,0.8-0.8s0.8,0.3,0.8,0.8
		c0,18.2,14.8,33,33,33c17.4,0,31.9-13.6,32.9-31c0-0.4,0.4-0.7,0.8-0.7c0.4,0,0.7,0.4,0.7,0.8C207.1,197.2,192,211.5,173.7,211.4
		L173.7,211.4z"></path><rect class="st1" x="144.5" y="251.2" width="25.5" height="34"></rect><path class="st0" d="M170,286h-25.5c-0.4,0-0.8-0.3-0.8-0.8v-34c0-0.4,0.3-0.8,0.8-0.8H170c0.4,0,0.7,0.3,0.8,0.8v34
		C170.7,285.7,170.4,286,170,286z M145.2,284.5h24V252h-24V284.5z"></path><rect class="st2" x="151.1" y="258.3" width="25.5" height="28"></rect><path class="st0" d="M176.6,287h-25.5c-0.4,0-0.7-0.3-0.8-0.7c0,0,0,0,0,0v-28c0-0.4,0.3-0.7,0.7-0.8c0,0,0,0,0,0h25.5
		c0.4,0,0.8,0.3,0.8,0.8v28C177.4,286.7,177.1,287,176.6,287z M151.9,285.5h24V259h-24V285.5z"></path><rect class="st1" x="155.7" y="258.3" width="25.5" height="28"></rect><path class="st0" d="M181.2,287h-25.5c-0.4,0-0.7-0.3-0.8-0.7c0,0,0,0,0,0v-28c0-0.4,0.3-0.7,0.7-0.8c0,0,0,0,0,0h25.5
		c0.4,0,0.8,0.3,0.8,0.8v28C182,286.7,181.6,287,181.2,287z M156.5,285.5h24V259h-24V285.5z"></path><rect class="st1" x="160.3" y="258.3" width="25.5" height="28"></rect><path class="st0" d="M185.8,287h-25.5c-0.4,0-0.7-0.3-0.8-0.7c0,0,0,0,0,0v-28c0-0.4,0.3-0.7,0.7-0.8c0,0,0,0,0,0h25.5
		c0.4,0,0.8,0.3,0.8,0.8v28C186.6,286.7,186.2,287,185.8,287z M161.1,285.5h24V259h-24V285.5z"></path><rect class="st1" x="151.8" y="251.2" width="11" height="3.9"></rect><path class="st0" d="M162.8,255.9h-11c-0.4,0-0.8-0.3-0.8-0.8v-3.9c0-0.4,0.3-0.7,0.8-0.8h11c0.4,0,0.8,0.3,0.8,0.8v3.9
		C163.5,255.5,163.2,255.9,162.8,255.9C162.8,255.9,162.8,255.9,162.8,255.9z M152.5,254.4h9.5V252h-9.5L152.5,254.4z"></path><path class="st0" d="M173.1,263.9h-9.2c-0.4,0-0.8-0.3-0.8-0.8s0.3-0.8,0.8-0.8h9.2c0.4,0,0.8,0.3,0.8,0.8S173.5,263.9,173.1,263.9
		z"></path><path class="st0" d="M181.8,267.5h-18c-0.4,0-0.8-0.3-0.8-0.8s0.3-0.8,0.8-0.8h18c0.4,0,0.8,0.3,0.8,0.8S182.2,267.5,181.8,267.5z"></path><path class="st0" d="M181.8,270.2h-18c-0.4,0-0.8-0.3-0.8-0.8s0.3-0.8,0.8-0.8h18c0.4,0,0.8,0.3,0.8,0.8S182.2,270.2,181.8,270.2z"></path><path class="st0" d="M181.8,273h-18c-0.4,0-0.8-0.3-0.8-0.8s0.3-0.8,0.8-0.8h18c0.4,0,0.8,0.3,0.8,0.8S182.2,273,181.8,273z"></path><path class="st0" d="M181.8,275.8h-18c-0.4,0-0.8-0.3-0.8-0.8s0.3-0.8,0.8-0.8h18c0.4,0,0.8,0.3,0.8,0.8S182.2,275.8,181.8,275.8z"></path><path class="st0" d="M178.5,278.6h-14.7c-0.4,0-0.8-0.3-0.8-0.8s0.3-0.8,0.8-0.8h14.7c0.4,0,0.8,0.3,0.8,0.8S179,278.6,178.5,278.6
		L178.5,278.6z"></path><path class="st1" d="M180.4,347.6c0,8.6-7,15.6-15.6,15.7c-8.6,0-15.6-7-15.7-15.6c0-8.6,7-15.6,15.6-15.7c4.5,0,8.7,1.9,11.7,5.2
		C179,340.1,180.4,343.8,180.4,347.6z"></path><path class="st0" d="M164.8,364c-9,0-16.4-7.3-16.4-16.4c0-9,7.3-16.4,16.4-16.4c9,0,16.4,7.3,16.4,16.4
		C181.1,356.7,173.8,364,164.8,364z M164.8,332.8c-8.2,0-14.9,6.6-14.9,14.9c0,8.2,6.6,14.9,14.9,14.9c8.2,0,14.9-6.6,14.9-14.9
		c0-3.7-1.3-7.2-3.8-9.9C173,334.6,169,332.7,164.8,332.8L164.8,332.8z"></path><path class="st2" d="M176.4,337.2l-11.7,10.4V332C169.2,332,173.5,333.9,176.4,337.2z"></path><path class="st0" d="M164.8,348.4c-0.1,0-0.2,0-0.3-0.1c-0.3-0.1-0.4-0.4-0.4-0.7V332c0-0.4,0.3-0.7,0.8-0.8c4.7,0,9.1,2,12.2,5.5
		c0.3,0.3,0.2,0.8-0.1,1.1l-11.6,10.4C165.1,348.3,165,348.4,164.8,348.4z M165.5,332.8v13.2l9.8-8.8
		C172.7,334.5,169.2,332.9,165.5,332.8z"></path><path class="st1" d="M170.1,355.9v-3.6c0-0.1,0.1-0.3,0.3-0.3h20.1c0.1,0,0.3,0.1,0.3,0.3v3.6c0,0.1-0.1,0.3-0.3,0.3h-20.1
		C170.2,356.2,170.1,356.1,170.1,355.9z"></path><path class="st0" d="M190.4,357h-20.1c-0.6,0-1-0.4-1-1v-3.7c0-0.6,0.4-1,1-1h20.1c0.6,0,1,0.4,1,1v3.7
		C191.4,356.6,191,357,190.4,357z M170.8,355.5h19.1v-2.7h-19.1V355.5z M190.4,352.8L190.4,352.8z"></path><path class="st1" d="M142.6,342.2v-3.7c0-0.1,0.1-0.2,0.2-0.2h17.3c0.1,0,0.2,0.1,0.2,0.2v3.7c0,0.1-0.1,0.2-0.2,0.2h-17.3
		C142.7,342.4,142.6,342.3,142.6,342.2z"></path><path class="st0" d="M160.2,343.2h-17.3c-0.6,0-1-0.4-1-1v-3.7c0-0.6,0.4-1,1-1h17.3c0.6,0,1,0.4,1,1v3.7
		C161.2,342.7,160.7,343.2,160.2,343.2L160.2,343.2z M143.3,341.7h16.3V339h-16.3L143.3,341.7z M160.2,339L160.2,339z"></path><path class="st1" d="M142.6,348.8V345c0-0.1,0.1-0.2,0.2-0.2h11.6c0.1,0,0.2,0.1,0.2,0.2v3.8c0,0.1-0.1,0.2-0.2,0.2h-11.6
		C142.7,349,142.6,348.9,142.6,348.8z"></path><path class="st0" d="M154.4,349.8h-11.6c-0.6,0-1-0.4-1-1V345c0-0.5,0.5-1,1-1h11.6c0.5,0,1,0.4,1,1v3.8
		C155.4,349.3,155,349.8,154.4,349.8z M143.4,348.2h10.5v-2.7h-10.5V348.2z M154.4,345.6L154.4,345.6z"></path></g><g id="message"><path class="st2" d="M276.4,370.6L230,331.4c-2,1.8-3.1,4.4-3.1,7.1v61.1c0,2.8,1.2,5.5,3.4,7.4l49.4-34.3
		C278.5,372.1,277.4,371.4,276.4,370.6z"></path><path class="st0" d="M230.3,407.7c-0.2,0-0.4-0.1-0.5-0.2c-2.3-2-3.6-4.9-3.6-7.9v-61.1c0-2.9,1.2-5.7,3.3-7.6c0.3-0.3,0.7-0.3,1,0
		l46.4,39.1c0.9,0.8,2,1.5,3.1,2c0.2,0.1,0.4,0.3,0.4,0.6c0,0.3-0.1,0.5-0.3,0.7l-49.4,34.3C230.6,407.7,230.4,407.7,230.3,407.7z
		 M230,332.4c-1.5,1.7-2.4,3.8-2.4,6.1v61.1c0,2.4,1,4.7,2.7,6.4l47.9-33.2c-0.8-0.5-1.6-1-2.3-1.6l0,0L230,332.4z"></path><path class="st2" d="M346.8,399.6v-61.1c0-2.7-1.1-5.3-3.1-7.1l-46.5,39.2c-1,0.8-2.1,1.5-3.2,2.1l49.4,34.3
		C345.6,405.1,346.8,402.4,346.8,399.6z"></path><path class="st0" d="M343.4,407.7c-0.2,0-0.3,0-0.4-0.1l-49.4-34.3c-0.2-0.1-0.3-0.4-0.3-0.7c0-0.3,0.2-0.5,0.4-0.6
		c1.1-0.5,2.1-1.2,3.1-2l46.4-39.1c0.3-0.3,0.7-0.3,1,0c2.1,2,3.3,4.7,3.3,7.6v61.1c0,3.1-1.3,6-3.6,7.9
		C343.8,407.6,343.6,407.7,343.4,407.7z M295.5,372.8l47.9,33.2c1.7-1.7,2.7-4,2.7-6.4v-61.1c0-2.3-0.9-4.4-2.4-6.1l-45.9,38.7
		C297,371.8,296.3,372.3,295.5,372.8L295.5,372.8z"></path><path class="st2" d="M294,372.7l-7.2-5l-7.2,5L230.3,407c1.8,1.5,4,2.4,6.3,2.4h100.5c2.3,0,4.6-0.8,6.3-2.4L294,372.7z"></path><path class="st0" d="M337.1,410.1H236.6c-2.5,0-4.9-0.9-6.8-2.5c-0.2-0.2-0.3-0.4-0.3-0.6c0-0.2,0.1-0.4,0.3-0.6l56.6-39.3
		c0.3-0.2,0.6-0.2,0.9,0l56.6,39.3c0.2,0.1,0.3,0.3,0.3,0.6c0,0.2-0.1,0.5-0.3,0.6C342,409.2,339.6,410.1,337.1,410.1z M231.6,407
		c1.5,1,3.3,1.6,5.1,1.6h100.5c1.8,0,3.6-0.6,5.1-1.6l-48.5-33.7l0,0l-6.8-4.7L231.6,407z"></path><path class="st2" d="M297.3,370.6l46.5-39.2c-1.8-1.7-4.2-2.6-6.6-2.6H236.6c-2.5,0-4.8,0.9-6.6,2.6l46.4,39.2
		C282.5,375.7,291.2,375.7,297.3,370.6z"></path><path class="st0" d="M286.9,375.1c-4,0-7.8-1.4-10.9-4L229.5,332c-0.2-0.1-0.3-0.3-0.3-0.6c0-0.2,0.1-0.4,0.2-0.6
		c1.9-1.8,4.5-2.8,7.1-2.8h100.5c2.6,0,5.2,1,7.1,2.8c0.2,0.1,0.2,0.3,0.2,0.6c0,0.2-0.1,0.4-0.3,0.6l-46.4,39.1l0,0
		C294.7,373.7,290.8,375.1,286.9,375.1z M231.2,331.4l45.8,38.6c5.7,4.8,14.1,4.8,19.9,0l45.8-38.6c-1.6-1.2-3.5-1.9-5.5-1.9H236.6
		C234.6,329.6,232.7,330.2,231.2,331.4z M297.3,370.6L297.3,370.6z"></path></g><g id="open_message"><path class="st0" d="M366,95.3l-45.6,39.8l47.1,39.7c4.7,4,11.6,4,16.3,0l47.1-39.7l-45.6-39.8C379.8,90.5,371.5,90.5,366,95.3z"></path><path class="st0" d="M375.6,178.6c-3.2,0-6.2-1.1-8.6-3.2l-47.1-39.7c-0.2-0.1-0.3-0.3-0.3-0.6c0-0.2,0.1-0.4,0.3-0.6l45.5-39.8
		c5.8-5.1,14.5-5.1,20.4,0l45.6,39.8c0.2,0.1,0.3,0.4,0.2,0.6c0,0.2-0.1,0.4-0.3,0.6l-47.1,39.7
		C381.8,177.4,378.8,178.6,375.6,178.6z M321.5,135.1l46.5,39.1c4.4,3.7,10.9,3.7,15.3,0l46.4-39.1l-44.9-39.2
		c-5.3-4.6-13.1-4.6-18.4,0l0,0L321.5,135.1z M366,95.3L366,95.3z"></path><rect class="st1" x="339.6" y="107.4" width="72" height="79.5"></rect><path class="st0" d="M411.6,187.7h-72c-0.4,0-0.8-0.3-0.8-0.8v-79.5c0-0.4,0.3-0.8,0.8-0.8h72c0.4,0,0.7,0.3,0.8,0.7c0,0,0,0,0,0
		v79.5C412.4,187.3,412.1,187.7,411.6,187.7C411.7,187.7,411.6,187.7,411.6,187.7z M340.4,186.2h70.5v-78h-70.5L340.4,186.2z"></path><path class="st2" d="M365.5,173.1l-45.1-38c-1.9,1.8-3,4.3-3,6.9v59.3c0,2.8,1.2,5.4,3.3,7.2l48-33.3
		C367.5,174.7,366.5,174,365.5,173.1z"></path><path class="st0" d="M320.7,209.2c-0.2,0-0.4-0.1-0.5-0.2c-2.3-1.9-3.6-4.8-3.5-7.7V142c0-2.8,1.2-5.5,3.2-7.5c0.3-0.3,0.7-0.3,1,0
		l45.1,38c0.9,0.8,1.9,1.4,3,1.9c0.4,0.2,0.5,0.6,0.3,1c-0.1,0.1-0.1,0.2-0.2,0.3l-48,33.3C321,209.2,320.8,209.2,320.7,209.2z
		 M320.4,136.1c-1.5,1.6-2.3,3.7-2.3,5.9v59.3c0,2.3,0.9,4.6,2.6,6.2l46.5-32.3c-0.8-0.5-1.5-1-2.2-1.5L320.4,136.1z"></path><path class="st2" d="M433.9,201.3V142c0-2.6-1.1-5.1-3-6.9l-45.1,38c-1,0.8-2,1.5-3.1,2l48,33.3
		C432.7,206.6,433.9,204.1,433.9,201.3z"></path><path class="st0" d="M430.6,209.2c-0.2,0-0.3,0-0.4-0.1l-48-33.3c-0.2-0.2-0.3-0.4-0.3-0.7c0-0.3,0.2-0.5,0.4-0.6
		c1.1-0.5,2.1-1.2,3-1.9l45.1-38c0.3-0.3,0.7-0.3,1,0c2.1,1.9,3.2,4.6,3.2,7.5v59.3c0,3-1.3,5.8-3.6,7.7
		C431,209.2,430.8,209.3,430.6,209.2z M384.1,175.2l46.5,32.3c1.7-1.6,2.6-3.9,2.6-6.2V142c0-2.2-0.8-4.3-2.3-5.9l-44.6,37.6
		C385.5,174.3,384.8,174.8,384.1,175.2L384.1,175.2z"></path><path class="st2" d="M382.6,175.2l-7-4.9l-7,4.9l-48,33.3c1.7,1.5,3.9,2.3,6.2,2.3h97.6c2.3,0,4.4-0.8,6.2-2.3L382.6,175.2z"></path><path class="st0" d="M424.4,211.5h-97.6c-2.4,0-4.8-0.9-6.6-2.5c-0.3-0.3-0.3-0.7-0.1-1.1c0,0,0.1-0.1,0.1-0.1l55-38.2
		c0.3-0.2,0.6-0.2,0.9,0l7,4.9l0,0l48,33.3c0.2,0.1,0.3,0.3,0.3,0.6c0,0.2-0.1,0.5-0.3,0.6C429.3,210.7,426.9,211.6,424.4,211.5z
		 M321.9,208.5c1.4,1,3.1,1.5,4.9,1.5h97.6c1.7,0,3.4-0.5,4.9-1.5l-53.7-37.3L321.9,208.5z"></path><path class="st0" d="M374.1,119.9h-25.4c-0.4,0-0.8-0.3-0.8-0.8s0.3-0.8,0.8-0.8h25.4c0.4,0,0.8,0.3,0.8,0.8
		S374.5,119.9,374.1,119.9z"></path><path class="st0" d="M403.3,127.4h-54.6c-0.4,0-0.8-0.3-0.8-0.8s0.3-0.8,0.8-0.8h54.6c0.4,0,0.8,0.3,0.8,0.8
		S403.7,127.4,403.3,127.4z"></path><path class="st0" d="M403.3,134h-54.6c-0.4,0-0.8-0.3-0.8-0.8s0.3-0.8,0.8-0.8h54.6c0.4,0,0.8,0.3,0.8,0.8S403.7,134,403.3,134z"></path><path class="st0" d="M403.3,140.6h-54.6c-0.4,0-0.8-0.3-0.8-0.8s0.3-0.8,0.8-0.8h54.6c0.4,0,0.8,0.3,0.8,0.8
		S403.7,140.6,403.3,140.6z"></path><path class="st0" d="M403.3,147.2h-54.6c-0.4,0-0.8-0.3-0.8-0.8s0.3-0.8,0.8-0.8h54.6c0.4,0,0.8,0.3,0.8,0.8
		S403.7,147.2,403.3,147.2z"></path><path class="st0" d="M403.3,153.8h-54.6c-0.4,0-0.8-0.3-0.8-0.8s0.3-0.8,0.8-0.8h54.6c0.4,0,0.8,0.3,0.8,0.8
		S403.7,153.8,403.3,153.8z"></path><path class="st0" d="M394.1,160.4h-44.7c-0.4,0-0.8-0.3-0.8-0.8s0.3-0.8,0.8-0.8h44.7c0.4,0,0.8,0.3,0.8,0.8
		S394.6,160.4,394.1,160.4z"></path></g><g id="magnifying_glass"><g id="Magnifying_Glass-2"><rect class="st1" x="385.5" y="282.8" transform="matrix(0.8761 -0.4821 0.4821 0.8761 -119.2579 232.7355)" width="15.6" height="131.3"></rect><path class="st0" d="M418.1,410.5c-0.3,0-0.5-0.1-0.6-0.4L354.1,295c-0.1-0.2-0.1-0.4-0.1-0.6c0.1-0.2,0.2-0.4,0.4-0.5l13.7-7.5
			c0.4-0.2,0.8-0.1,1,0.3l63.3,115.1c0.2,0.4,0,0.8-0.3,1l-13.7,7.5C418.3,410.4,418.2,410.4,418.1,410.5z M355.8,294.9l62.6,113.7
			l12.4-6.8l-62.6-113.8L355.8,294.9z"></path><path class="st0" d="M367.7,308.9l5.6-3.1c6.6-3.6,14.8-1.2,18.5,5.4l46.2,83.9c3.6,6.6,1.2,14.8-5.4,18.5l-5.6,3.1
			c-6.6,3.6-14.8,1.2-18.5-5.4l-46.2-83.9C358.8,320.8,361.2,312.5,367.7,308.9z"></path><path class="st0" d="M420.5,419c-1.4,0-2.7-0.2-4-0.6c-3.7-1.1-6.7-3.5-8.6-6.9l-46.2-83.9c-3.8-6.9-1.3-15.7,5.6-19.5l0,0
			l5.6-3.1c6.9-3.8,15.7-1.3,19.5,5.6c0,0,0,0,0,0l46.2,83.9c3.8,6.9,1.3,15.6-5.6,19.5l-5.6,3.1C425.3,418.4,422.9,419,420.5,419z
			 M368.1,309.5L368.1,309.5c-6.2,3.4-8.5,11.2-5.1,17.5c0,0,0,0,0,0l46.2,83.9c3.4,6.2,11.2,8.5,17.4,5.1c0,0,0,0,0,0l5.6-3.1
			c6.2-3.4,8.5-11.2,5.1-17.4c0,0,0,0,0,0l-46.2-83.9c-3.4-6.2-11.2-8.5-17.4-5.1c0,0,0,0,0,0L368.1,309.5z"></path><path class="st1" d="M395.8,184.4c-21.8-39.5-71.4-53.9-110.9-32.2s-53.9,71.4-32.2,110.9s71.4,53.9,110.9,32.2
			c19-10.4,33-28,39.1-48.8C408.8,225.8,406.3,203.4,395.8,184.4z M387.8,242.2c-10.2,35.1-46.9,55.3-81.9,45.1
			s-55.3-46.9-45.1-81.9s46.9-55.3,81.9-45.1c16.8,4.9,31,16.3,39.5,31.6C390.7,207.3,392.7,225.4,387.8,242.2L387.8,242.2z"></path><path class="st0" d="M324.3,290.8c-6.3,0-12.6-0.9-18.7-2.7c-35.5-10.3-55.9-47.4-45.6-82.9c10.3-35.5,47.4-55.9,82.9-45.6
			c35.5,10.3,55.9,47.4,45.6,82.9l0,0C380.1,271,354,290.7,324.3,290.8z M324.1,158.4c-36.1,0.1-65.3,29.4-65.3,65.5
			s29.4,65.3,65.5,65.3s65.3-29.4,65.3-65.5c0-11-2.8-21.8-8.1-31.4C370,171.3,348,158.4,324.1,158.4z M387.7,242.2L387.7,242.2z"></path><path class="st0" d="M324.3,306.3c-45.5,0.1-82.5-36.8-82.6-82.3s36.8-82.5,82.3-82.6c30.1,0,57.8,16.3,72.3,42.7l0,0
			c21.9,39.9,7.4,90.1-32.6,112C351.7,302.8,338.1,306.3,324.3,306.3z M324.1,142.9c-44.7,0-81,36.3-81,81c0,44.7,36.3,81,81,81
			s81-36.3,81-81c0-13.6-3.4-27-10-39l0,0C380.8,159,353.6,142.9,324.1,142.9z"></path></g><path class="st1" d="M283.9,179.6c-0.2,0-0.4-0.1-0.6-0.2c-0.3-0.3-0.2-0.8,0.1-1.1c0,0,0,0,0,0c3.5-3.1,7.3-5.8,11.3-8
		c0.4-0.2,0.8-0.1,1,0.3c0.2,0.4,0.1,0.8-0.3,1l0,0c-4,2.2-7.7,4.8-11,7.8C284.3,179.5,284.1,179.6,283.9,179.6z"></path><path class="st1" d="M297.2,278.6c-0.1,0-0.2,0-0.3-0.1c-30.2-15.2-42.4-52-27.3-82.2c1.5-3,3.3-5.9,5.3-8.7c0.2-0.3,0.7-0.4,1-0.2
		c0.3,0.2,0.4,0.7,0.2,1c0,0,0,0,0,0c-19.5,26.6-13.7,64,12.9,83.4c2.7,2,5.5,3.7,8.5,5.2c0.4,0.2,0.5,0.6,0.3,1
		C297.7,278.5,297.4,278.6,297.2,278.6L297.2,278.6z"></path></g></svg>