<svg transform="scale(1)" version="1.1" id="Layer_1" xmlns="http://www.w3.org/2000/svg" xmlns:xlink="http://www.w3.org/1999/xlink" x="0px" y="0px" viewBox="0 0 500 500" xml:space="preserve" class="show_show__wrapper__graphic__5Waiy "><title>React</title><style type="text/css">
	.st0{fill:#343A40;}
	.st1{fill:#F8F9FA;}
	.st2{fill:#212529;}
	.st3{fill:#E9ECEF;}
</style><g id="chair_2"><path class="st0" d="M45.9,215.4c5.3-5.8,13.6-9.7,20.5-11.3c17.1-4,36.1-5.5,53,0.4c26.4,9.2,20.9,42,23.3,64.7
		c1.2,11.6,1.4,24.3,5.7,35.2c4.8,12.1,2.2,22.8-8.6,31.5c-8.1,6.5-18.9,9-29.3,8.8c-11.5-0.2-30,4.4-39.8-2.5
		c-13.9-9.8-16.5-31.6-20.2-46.9c-4.9-20.1-8.2-40.5-9.8-61.1c-0.3-3.7-0.5-7.4,0.5-10.9C42.3,220.3,43.8,217.6,45.9,215.4z"></path><path class="st0" d="M87.2,346.6c-6.3,0-12.3-0.9-16.6-3.9c-11.9-8.4-15.6-25-18.8-39.7c-0.6-2.7-1.1-5.2-1.7-7.6
		c-4.9-20.1-8.2-40.6-9.8-61.2c-0.3-4-0.5-7.6,0.6-11.1c0.9-3,2.5-5.7,4.7-8l0,0c4.7-5.2,12.5-9.6,20.8-11.5
		c20.7-4.9,38.6-4.7,53.3,0.4c21.5,7.5,22.2,30.4,22.9,50.6c0.2,5.2,0.3,10,0.8,14.6c0.2,2.4,0.5,4.9,0.7,7.4
		c0.8,9.4,1.6,19.1,5,27.7c5,12.6,2,23.4-8.7,32.1c-7.4,6-17.9,9.1-29.6,8.9c-3.7,0-7.3,0.2-11,0.6
		C95.6,346.2,91.3,346.6,87.2,346.6z M94.5,201.1c-9.4,0.1-18.8,1.3-27.9,3.5c-8.1,1.9-15.7,6.1-20.2,11.1l0,0
		c-2,2.2-3.6,4.8-4.4,7.6c-1,3.3-0.8,6.8-0.5,10.7c1.6,20.6,4.9,41,9.8,61c0.6,2.4,1.2,4.9,1.7,7.6c3.2,14.4,6.7,30.8,18.3,38.9
		c6.8,4.8,18.2,3.9,28.3,3c4-0.3,7.8-0.7,11.1-0.6c11.5,0.2,21.7-2.9,28.9-8.7c10.3-8.4,13.1-18.7,8.4-30.8
		c-3.4-8.7-4.3-18.5-5.1-28c-0.2-2.5-0.4-5-0.7-7.4c-0.5-4.6-0.6-9.5-0.8-14.7c-0.6-19.8-1.3-42.3-22.1-49.5
		C111.3,202.3,102.9,201,94.5,201.1z M45.9,215.4L45.9,215.4z"></path><path class="st1" d="M65.5,257.2L65.5,257.2c-0.4,0-0.7-0.4-0.7-0.7c0,0,0,0,0,0c0-0.2,2.6-22.5,0-33.7c-1.3-6-3.2-8.2-4.6-9
		c-0.6-0.4-1.2-0.5-1.9-0.4c-0.3,0.1-0.7-0.1-0.8-0.4c-0.1-0.3,0.1-0.7,0.4-0.8c0,0,0,0,0,0c1-0.2,2-0.1,2.9,0.5
		c2.3,1.3,4.1,4.6,5.3,9.9c2.6,11.4,0.1,33.2,0,34.1C66.1,257,65.8,257.2,65.5,257.2z"></path></g><g id="Character_Female"><path class="st1" d="M211,205.3c0.4-6.8,2-13.6,4.7-19.9c0.4-0.9,1.3-2.1,2.2-1.6c-0.5,2.9-1,5.8-1.6,8.7
		c5.4-3.6,10.1-8.1,13.8-13.4c0.3-0.5,0.8-1,1.3-1.3c0.6-0.3,1.3-0.1,1.6,0.4c0.1,0.5,0,1.1-0.3,1.5c-1.6,2.8-3.4,5.5-5.5,8
		c2.7-3.9,5.5-8,9.7-10.3c-0.4,4.6-2.1,8.9-4.9,12.6l6.7-7.4c0.6-0.7,1.6-1.4,2.3-0.8s0.2,1.7-0.2,2.4l-4.6,6.9
		c2.4-2.1,4.8-4,7.4-5.9c-0.4,4.2-3.7,7.6-7.1,10.1s-7.4,4.5-10.2,7.7c-1.7,2.1-3.1,4.3-4.3,6.7"></path><path class="st0" d="M221.9,210.3c-0.1,0-0.2,0-0.3-0.1c-0.3-0.2-0.4-0.5-0.2-0.8c2.3-5.3,6.4-9.7,11.5-12.5c1-0.7,2.1-1.4,3.1-2.1
		c3.6-2.6,5.8-5.4,6.6-8.2c-2.1,1.6-4.1,3.2-6.1,4.9c-0.2,0.2-0.6,0.2-0.8,0c-0.2-0.2-0.2-0.5-0.1-0.7l4.6-6.9
		c0.4-0.6,0.7-1.4,0.4-1.6s-1,0.2-1.5,0.8l-6.7,7.4c-0.2,0.2-0.6,0.3-0.8,0.1c-0.2-0.2-0.3-0.6-0.1-0.8c2.5-3.2,4.1-7,4.7-11
		c-1.7,1.2-3.3,2.6-4.6,4.2c-1.2,1.9-2.5,3.6-3.9,5.3c-0.2,0.2-0.6,0.3-0.8,0.1c-0.3-0.2-0.3-0.5-0.1-0.8c1.2-1.8,2.4-3.6,3.9-5.3
		c0.6-0.9,1.1-1.8,1.6-2.7c0.2-0.3,0.4-0.7,0.3-0.9c0-0.1-0.1-0.1-0.2-0.2c-0.2-0.1-0.4-0.1-0.6,0c-0.4,0.3-0.8,0.7-1.1,1.1
		c-3.8,5.3-8.5,9.9-13.9,13.6c-0.2,0.1-0.5,0.1-0.7,0c-0.2-0.1-0.3-0.4-0.3-0.6c0.5-2.7,1-5.3,1.5-8c-0.4,0.3-0.8,0.8-0.9,1.2
		c-2.7,6.2-4.2,12.9-4.6,19.7c0,0.3-0.3,0.6-0.6,0.6c-0.3,0-0.6-0.3-0.6-0.6c0.4-6.9,2-13.7,4.7-20.1c0.3-0.9,0.9-1.6,1.8-2
		c0.4-0.2,0.9-0.1,1.3,0.1c0.2,0.1,0.4,0.4,0.3,0.6c-0.4,2.4-0.9,4.9-1.3,7.3c4.8-3.4,9-7.6,12.4-12.4c0.4-0.6,0.9-1.2,1.5-1.5
		c0.5-0.2,1.1-0.3,1.6-0.1c0.4,0.1,0.7,0.4,0.9,0.8c0.1,0.3,0.2,0.7,0.1,1c0.9-0.8,1.9-1.5,2.9-2.1c0.2-0.1,0.4-0.1,0.6,0
		c0.2,0.1,0.3,0.3,0.3,0.6c-0.3,2.6-0.9,5.2-2,7.6l2.7-3c1.1-1.2,2.3-1.6,3.1-0.9s0.8,1.9-0.1,3.2l-2.3,3.5c1.3-1.1,2.7-2.2,4.1-3.2
		c0.3-0.2,0.6-0.1,0.8,0.1c0.1,0.1,0.1,0.3,0.1,0.4c-0.4,3.7-2.9,7.3-7.4,10.5c-1,0.7-2.1,1.4-3.1,2.1c-5,2.6-8.9,6.9-11.1,12
		C222.3,210.2,222.1,210.3,221.9,210.3z"></path><path class="st1" d="M97.4,185.8l3.7-14.9c4-16.1,9.6-32.8,27.2-37.8c5.2-1.5,10.6-0.9,14,3.8c3.6-3,9.2-1.4,12.9,1.5
		c5.1,3.9,8.5,9.7,10.7,15.8c3.9,10.6,4.6,22.2,9.1,32.8c-22.5,16.6-54.7,19-79.4,5.8L97.4,185.8z"></path><path class="st0" d="M130.6,202c-12.2,0.1-24.3-2.9-35.2-8.6c-0.2-0.1-0.4-0.4-0.3-0.7l1.7-7l0,0l3.7-14.9
		c4-15.8,9.7-33.1,27.7-38.2c6-1.7,11.1-0.4,14.3,3.6c3.9-2.7,9.4-1,13.1,1.8c4.6,3.5,8.3,8.9,10.9,16.1c1.7,5,3.1,10.1,4.1,15.3
		c1.3,5.8,2.6,11.9,5,17.6c0.1,0.3,0,0.6-0.2,0.7C162.4,197,146.7,202.1,130.6,202z M96.4,192.5c24.4,12.8,55.7,10.6,78-5.7
		c-2.1-5.6-3.8-11.4-4.9-17.3c-1-5.1-2.4-10.2-4.1-15.1c-2.6-6.9-6.1-12.1-10.5-15.5c-3.5-2.7-8.8-4.3-12.1-1.5
		c-0.3,0.2-0.6,0.2-0.8-0.1c0,0,0,0,0,0c-3.7-5.1-9.3-4.8-13.4-3.6c-17.4,4.9-22.8,21.2-26.8,37.4L96.4,192.5z"></path><path class="st2" d="M167.4,204.7c4.6,4.2,14.7,20.3,24,37l19.2-40.2l15.6,4.6c0,0-14.1,74.4-28,77.4s-32.9-30.1-32.9-30.1
		L144,195.1C144,195.1,160.6,198.3,167.4,204.7z"></path><path class="st1" d="M142.4,202c0,0,21,11.8,25.1,32.2s-3.9,82.9-3.9,82.9l-52.1-2.1c0,0,8.5-74.4,3.4-90.6s-4.9-20.7,0-22.3
		S133.3,191.9,142.4,202z"></path><path class="st0" d="M163.6,317.7L163.6,317.7l-52.1-2.2c-0.2,0-0.3-0.1-0.4-0.2c-0.1-0.1-0.2-0.3-0.1-0.5
		c0.1-0.8,8.4-74.5,3.4-90.4c-5.1-16.3-5.1-21.3,0.4-23.1c0.8-0.3,1.8-0.7,3-1.2c6-2.6,17.1-7.4,25,1.3c1.5,0.9,21.4,12.8,25.3,32.6
		c4.1,20.2-3.8,82.4-3.9,83.1C164.2,317.5,163.9,317.7,163.6,317.7z M112.2,314.4l50.9,2.1c0.8-6.2,7.6-63.1,3.8-82.1
		c-4-19.9-24.6-31.7-24.8-31.8c-0.1,0-0.1-0.1-0.2-0.1c-7.4-8.2-17.6-3.7-23.7-1.1c-1.2,0.5-2.2,1-3.1,1.2
		c-4.1,1.3-4.9,4.6,0.4,21.6C120.4,239.7,113.1,306.6,112.2,314.4z"></path><path class="st2" d="M155.4,328c-1.4-33.1-4.6-59.9-5.3-69.2c-0.8-10.3-3.4-40-6.2-53.1c-3.7-8.1-2.1-10.4-2.1-10.4
		s20.7-2.9,26.9,28c1.8,9.1,6.4,62.2,10.9,103.5L155.4,328z"></path><path class="st1" d="M144,189.7l0.1,15.9c0,0-1.6,8.9-11.3,6.2c-5.8-1.7-10.5-5.9-12.9-11.4l1.1-27.6c0-1.2,1.8-4.7,1.6-14.8
		c11.8-0.2,21-9.1,21-9.1s4,6.1,5.8,8c1.4,1.4,2.6,3.1,3.6,4.8c1.6,3.1,1.6,6.9,1.5,10.3c0,4-0.4,8-1.2,12
		C151.8,191.6,144,189.7,144,189.7z"></path><path class="st0" d="M136.2,213c-1.2,0-2.4-0.2-3.6-0.5c-6-1.7-10.9-6-13.3-11.8c0-0.1,0-0.2,0-0.2c0,0,1.1-27.4,1.1-27.6
		c0.1-0.5,0.1-0.9,0.3-1.4c0.5-1.8,1.5-5.7,1.3-13.4c0-0.2,0-0.3,0.2-0.4c0.1-0.1,0.3-0.2,0.4-0.2c11.4-0.2,20.5-8.8,20.6-8.9
		c0.1-0.1,0.3-0.2,0.5-0.2c0.2,0,0.3,0.1,0.4,0.3c0,0.1,4,6.1,5.8,7.9c1.4,1.5,2.7,3.1,3.7,4.9c1.7,3.2,1.6,7.3,1.6,10.6
		c0,4.1-0.4,8.1-1.2,12.1c-0.3,2.1-1.5,3.9-3.2,5.1c-1.9,1.1-4,1.5-6.1,1.1l0.1,15.2c-0.5,2.5-1.9,4.7-4,6.1
		C139.3,212.6,137.8,213,136.2,213z M120.5,200.4c2.3,5.3,6.9,9.3,12.4,10.9c2.9,0.8,5.3,0.6,7.1-0.5c1.8-1.2,3-3.1,3.4-5.2
		l-0.1-15.8c0-0.2,0.1-0.4,0.2-0.5c0.1-0.1,0.3-0.2,0.5-0.1c0,0,3.4,0.8,6-0.9c1.5-1,2.5-2.6,2.7-4.3c0.8-3.9,1.2-7.9,1.2-11.9
		c0.1-3.3,0.1-7-1.4-10c-1-1.7-2.2-3.3-3.6-4.7c-1.5-1.6-4.4-5.9-5.5-7.5c-2.1,1.9-10.2,8.3-20.3,8.7c0.2,4.4-0.3,8.8-1.4,13.1
		c-0.1,0.4-0.2,0.7-0.2,1.1l0,0C121.6,172.9,121.6,173.3,120.5,200.4L120.5,200.4z"></path><path class="st0" d="M143.9,197.6c0,0-6.5,0.3-10.6-4s-3.5-8.6-3.5-8.6s7,4.7,14.2,4.9L143.9,197.6z"></path><path class="st0" d="M143.6,198.1c-1.4,0-6.9-0.3-10.8-4.2c-4.3-4.5-3.7-8.9-3.7-9.1c0-0.2,0.2-0.4,0.3-0.4c0.2-0.1,0.4-0.1,0.6,0
		c0.1,0.1,6.9,4.6,13.9,4.8c0.3,0,0.6,0.3,0.6,0.6c0,0,0,0,0,0l-0.1,7.8c0,0.3-0.2,0.6-0.6,0.6L143.6,198.1z M143.9,197.6
		L143.9,197.6z M130.3,185.9c0.2,2.7,1.4,5.3,3.4,7.2c3.2,3.4,8,3.8,9.6,3.8l0.1-6.7C137.7,190,132.3,187.1,130.3,185.9L130.3,185.9
		z"></path><path class="st1" d="M138.3,166.9c0,0,5.1,7.6,3.9,9s-4.6,0.4-4.6,0.4"></path><path class="st0" d="M139.9,177.2c-0.8,0-1.6-0.1-2.4-0.3c-0.3-0.1-0.5-0.4-0.4-0.7c0.1-0.3,0.4-0.5,0.7-0.4
		c0.8,0.2,3.3,0.6,4.1-0.3c0.4-0.6-1.4-4.5-4-8.3c-0.2-0.3-0.1-0.6,0.2-0.8c0.3-0.2,0.6-0.1,0.8,0.2c1.6,2.4,5.2,8.2,3.9,9.7
		C141.9,176.9,140.9,177.2,139.9,177.2z"></path><ellipse class="st0" transform="matrix(0.9992 -3.925982e-02 3.925982e-02 0.9992 -6.3852 5.9685)" cx="148.8" cy="165.6" rx="0.9" ry="1.6"></ellipse><ellipse class="st0" transform="matrix(0.9992 -3.996804e-02 3.996804e-02 0.9992 -6.4607 5.5095)" cx="134.6" cy="164.3" rx="0.9" ry="1.7"></ellipse><path class="st1" d="M141.8,180.3l-4.1-1.1c0,0-0.8,6,1.5,6.5S141.8,180.3,141.8,180.3z"></path><path class="st0" d="M139.5,186.4c-0.1,0-0.3,0-0.4,0c-2.7-0.6-2-6.4-1.9-7.1c0-0.2,0.1-0.3,0.2-0.4c0.1-0.1,0.3-0.1,0.5-0.1l4.1,1
		c0.3,0.1,0.5,0.3,0.4,0.6c0,0.4-0.3,4.4-1.9,5.6C140.2,186.3,139.9,186.4,139.5,186.4z M138.2,180c-0.2,1.9-0.1,4.9,1.1,5.2
		c0.2,0,0.4,0,0.5-0.1c0.8-0.6,1.2-2.8,1.4-4.3L138.2,180z"></path><path class="st1" d="M126.3,164.7c-1.1-2.8-4.6-3.8-7.3-3.3c-1.8,0.3-3.3,1.7-3.7,3.4c-0.2,1.1-0.2,2.2,0,3.3c0.3,2,1,4,2,5.8
		c0.5,0.9,1.1,1.7,2,2.3c1.1,0.7,2.5,0.6,3.5-0.2"></path><path class="st0" d="M120.8,177.3c-0.7,0-1.3-0.2-1.8-0.5c-0.9-0.6-1.7-1.5-2.2-2.5c-1-1.9-1.7-3.9-2.1-6c-0.2-1.2-0.2-2.4,0-3.5
		c0.5-2,2.1-3.6,4.2-3.9c3-0.6,6.8,0.6,8,3.7c0.1,0.3-0.1,0.7-0.4,0.8c-0.3,0.1-0.6,0-0.8-0.3c-0.9-2.5-4.1-3.4-6.7-2.9
		c-1.6,0.3-2.9,1.4-3.2,3c-0.2,1-0.2,2.1,0,3.1c0.3,2,1,3.8,1.9,5.6c0.4,0.8,1,1.5,1.8,2.1c0.9,0.5,2.1,0.4,2.9-0.2
		c0.3-0.2,0.7-0.1,0.8,0.2c0.2,0.3,0.1,0.7-0.2,0.8l0,0C122.4,177,121.6,177.3,120.8,177.3z"></path><path class="st2" d="M88.3,328c1.9-8,3.3-16,4.2-24.2c1.7-18.9,0-83.1,4-95.8c1.9-6.1,22.5-10.6,22.5-10.6s19.6,104.1,19.7,132.2
		L88.3,328z"></path><path class="st1" d="M123.2,274c4.8-0.8,9.2-3.1,13.7-5c1.8-0.8,3.7-1.4,5.5-2c2.2-0.7,4.3-2,6.7-2.1c1.5,0,1.1,2,0.5,2.8
		c-0.6,0.7-1.2,1.3-2,1.7c-1.4,0.9-4.3,2.7-4.8,4.3c1.8,0.5,3.7,0.2,5.5,0.5c2,0.2,4,0.5,5.9,0.9c1.9,0.4,3.8,0.8,5.7,1.4
		c1.6,0.5,3.5,0.6,5,1.3c0.4,0.2,0.8,0.5,0.8,0.9c0.1,1.5-3.3,1.3-4.1,1.2l-15.5-1.6c5.4,0.5,10.8,1.5,16,2.9c0.5,0.1,1,0.3,1.3,0.7
		c1.3,2-4.2,2.1-4.8,2.1c-2.9,0.1-5.7,0-8.6-0.2l7,1.1c1.6,0.3,3.1,0.5,4.6,0.9c0.9,0.1,1.7,0.5,2.3,1.1c0.1,0.1,0.1,0.2,0.1,0.3
		c0,0.2-0.2,0.3-0.3,0.3c-1.3,0.5-2.7,0.8-4.1,0.7c-2.9,0.1-5.8-0.1-8.6-0.6l8.6,0.9c0.8,0,1.5,0.3,2.1,0.8c0.1,0.5-0.1,1.1-0.5,1.3
		c-0.4,0.3-1,0.4-1.5,0.4c-3.2,0.4-6.3,0-9.5,0c-3.5,0-6.9-0.2-10.3-0.6c-6.8-0.8-13.3-2.8-19.5-5.8"></path><path class="st0" d="M156.4,292c-1,0-2,0-3-0.1s-2.1-0.1-3.1-0.1c-3.5,0-7-0.2-10.4-0.7c-6.8-0.8-13.5-2.8-19.7-5.9
		c-0.3-0.1-0.4-0.5-0.3-0.8c0,0,0,0,0,0c0.1-0.3,0.5-0.4,0.8-0.3c0,0,0,0,0,0c6.1,3,12.6,4.9,19.3,5.8c3.4,0.4,6.8,0.7,10.2,0.6
		c1.1,0,2.1,0,3.2,0.1c2.1,0.1,4.2,0.1,6.2-0.1c0.4,0,0.8-0.1,1.2-0.3c0.2-0.1,0.3-0.3,0.3-0.5c-0.5-0.3-1-0.5-1.6-0.5l-4-0.4
		c-1.5-0.1-3.1-0.3-4.6-0.5c-0.3-0.1-0.5-0.3-0.5-0.7c0-0.3,0.3-0.5,0.7-0.5l4.5,0.5c1.4,0.1,2.7,0.1,4.1,0.1c1.2,0,2.5-0.2,3.6-0.6
		c-0.5-0.4-1.1-0.6-1.8-0.7c-1.5-0.4-3.1-0.6-4.6-0.9l-6.9-1.1c-0.3-0.1-0.5-0.3-0.5-0.7c0-0.3,0.3-0.6,0.6-0.5
		c2.8,0.2,5.7,0.3,8.5,0.2s4.3-0.6,4.4-0.9c0-0.1,0-0.2-0.1-0.3c-0.3-0.3-0.6-0.4-1-0.5c-5.2-1.4-10.5-2.4-15.9-2.9
		c-0.3,0-0.5-0.3-0.5-0.6c0,0,0,0,0-0.1c0-0.3,0.3-0.6,0.6-0.5l15.5,1.6c1.3,0.1,2.9,0,3.4-0.4c0.1,0,0.1-0.1,0.1-0.2
		c0-0.1-0.1-0.2-0.5-0.4c-1-0.4-2-0.7-3.1-0.9c-0.6-0.1-1.2-0.2-1.8-0.4c-1.9-0.5-3.8-1-5.7-1.4s-3.9-0.7-5.9-0.9
		c-0.6-0.1-1.3-0.1-2-0.1c-1.2,0-2.4-0.1-3.6-0.4c-0.3-0.1-0.5-0.4-0.4-0.8c0.5-1.6,2.8-3.1,4.4-4.2l0.8-0.5
		c0.6-0.4,1.2-0.8,1.6-1.4c0.3-0.5,0.4-1.1,0.3-1.7c0-0.1-0.1-0.1-0.3-0.1c-1.5,0.1-3,0.5-4.3,1.2c-0.7,0.3-1.5,0.6-2.2,0.8
		c-1.9,0.6-3.7,1.2-5.5,2l-2.5,1.1c-3.6,1.8-7.4,3.1-11.4,3.9c-0.3,0-0.6-0.2-0.7-0.5c-0.1-0.3,0.2-0.6,0.5-0.7c0,0,0,0,0,0
		c3.8-0.8,7.6-2.1,11.1-3.9c0.8-0.4,1.6-0.7,2.5-1.1c1.8-0.8,3.7-1.5,5.6-2.1c0.7-0.2,1.4-0.5,2.1-0.8c1.5-0.7,3.1-1.2,4.7-1.3
		c0.6,0,1.1,0.3,1.4,0.8c0.4,1,0.2,2.1-0.4,3c-0.5,0.7-1.2,1.3-1.9,1.7l-0.8,0.6c-1.4,0.8-2.6,1.8-3.6,3c0.9,0.1,1.7,0.2,2.6,0.2
		c0.7,0,1.4,0,2.1,0.1c2,0.2,4,0.5,6,0.9s3.9,0.8,5.8,1.4c0.6,0.2,1.1,0.3,1.7,0.4c1.2,0.2,2.3,0.5,3.3,1c0.6,0.2,1.1,0.8,1.2,1.4
		c0,0.4-0.1,0.8-0.4,1.1c-0.9,0.9-3.1,0.8-4,0.8l0.5,0.1c0.7,0.1,1.2,0.5,1.6,1c0.3,0.4,0.4,1,0.1,1.5c-0.5,1-2.3,1.5-5.4,1.5l0,0
		c1.1,0.2,2.1,0.4,3.2,0.7c1,0.2,1.9,0.6,2.6,1.3c0.2,0.2,0.3,0.5,0.3,0.7c0,0.4-0.3,0.7-0.7,0.9c-0.7,0.3-1.4,0.5-2.2,0.6
		c0.1,0.1,0.2,0.2,0.3,0.2c0,0.1,0.1,0.1,0.1,0.2c0.3,0.8,0,1.6-0.7,2.1c-0.5,0.3-1.1,0.5-1.7,0.5C158.8,292,157.6,292,156.4,292z"></path><path class="st2" d="M96.6,207.9c0,0-40.4,73.4-25.9,78.4c5.9,2,59,5.1,59,5.1l5.6-22.9l-39.8-6.1L96.6,207.9z"></path><path class="st0" d="M148.8,174.9c-5.2,0-9.4-4.2-9.4-9.4c0-5.2,4.2-9.4,9.4-9.4c5.2,0,9.4,4.2,9.4,9.4c0,0,0,0,0,0
		C158.1,170.7,154,174.9,148.8,174.9z M148.8,157.3c-4.5,0-8.2,3.7-8.2,8.2s3.7,8.2,8.2,8.2s8.2-3.7,8.2-8.2l0,0
		C156.9,161,153.3,157.4,148.8,157.3z"></path><path class="st0" d="M130.7,173.4c-5.2,0-9.4-4.2-9.4-9.3s4.2-9.4,9.3-9.4c5.2,0,9.4,4.2,9.4,9.3c0,0,0,0,0,0
		C140,169.2,135.8,173.4,130.7,173.4z M130.7,155.8c-4.5,0-8.2,3.7-8.2,8.2s3.7,8.2,8.2,8.2c4.5,0,8.2-3.7,8.2-8.2l0,0
		C138.8,159.5,135.2,155.8,130.7,155.8z"></path><path class="st0" d="M135.3,269.1h-0.1L95.4,263c-0.2,0-0.3-0.1-0.4-0.3c-0.1-0.1-0.1-0.3-0.1-0.5l9.6-41.3
		c0.1-0.3,0.4-0.5,0.7-0.4s0.5,0.4,0.4,0.7l-9.4,40.7l39.1,6c0.3,0.1,0.5,0.4,0.5,0.7C135.9,268.9,135.6,269.1,135.3,269.1z"></path><path class="st0" d="M174.8,279.9c-0.3,0-0.6-0.2-0.6-0.5l-6.3-51.9c-1.2-10.1-1.2-10.1-0.7-10.3l0.2,1.2l-0.1-0.6h0.6
		c0.1,0.9,7.3,60.8,7.4,61.4C175.4,279.6,175.2,279.9,174.8,279.9L174.8,279.9z"></path><path class="st0" d="M183.7,256.2c-0.1,0-0.2,0-0.3-0.1c-0.3-0.2-0.4-0.5-0.3-0.8l23.8-47.6c0.1-0.3,0.5-0.5,0.8-0.3
		s0.5,0.5,0.3,0.8c0,0,0,0.1-0.1,0.1l-23.8,47.7C184.2,256.1,184,256.2,183.7,256.2z"></path><path class="st0" d="M121.9,247.7c-0.2,0-0.3-0.1-0.5-0.2l-12.1-13.9c-0.2-0.2-0.2-0.6,0-0.8l7.9-8l-7.8-7.4
		c-0.2-0.2-0.2-0.5-0.1-0.8c1.3-1.9,7.7-11.6,8.2-12.1c0.2-0.2,0.6-0.2,0.8,0c0.2,0.2,0.2,0.6,0,0.8c-0.4,0.5-4.8,7-7.8,11.5
		l7.9,7.4c0.1,0.1,0.2,0.3,0.2,0.4c0,0.2-0.1,0.3-0.2,0.4l-7.9,8.1l11.8,13.5c0.2,0.2,0.2,0.6-0.1,0.8c0,0,0,0,0,0
		C122.2,247.6,122,247.7,121.9,247.7z"></path><path class="st0" d="M151.6,244.3c-0.1,0-0.2,0-0.4-0.1c-0.3-0.2-0.3-0.6-0.1-0.8c0,0,0,0,0,0l9.5-13.6l-9.9-7.9
		c-0.1-0.1-0.2-0.3-0.2-0.4c0-0.2,0.1-0.3,0.2-0.4l6-6.3l-10.4-9.5c-0.2-0.2-0.3-0.6,0-0.9c0.2-0.2,0.6-0.3,0.9,0l10.9,9.9
		c0.1,0.1,0.2,0.3,0.2,0.4c0,0.2-0.1,0.3-0.2,0.4l-6,6.3l9.9,7.8c0.2,0.2,0.3,0.6,0.1,0.8l-9.8,14
		C152,244.2,151.9,244.3,151.6,244.3z"></path></g><g id="Resume"><path class="st1" d="M312.3,284.2c-3.4,2-7.9,0.7-11.1-1.5c-5.5-3.9-9.1-10.1-9.5-16.8c-0.2-2.2,0.2-4.5,1.2-6.5
		C301.7,244.4,326.3,276,312.3,284.2z"></path><path class="st0" d="M308.5,285.7c-2.8-0.1-5.4-1-7.7-2.6c-5.7-4-9.3-10.3-9.8-17.3c-0.3-2.4,0.2-4.7,1.3-6.8
		c2-3.3,4.9-4.7,8.3-4.1c6.9,1.3,14.7,10.4,16.2,18.9c0.9,4.9-0.7,8.7-4.3,10.8C311.3,285.4,309.9,285.8,308.5,285.7z M299,256
		c-2.4,0-4.3,1.2-5.7,3.6c-1,1.9-1.4,4-1.1,6.1c0.5,6.6,3.9,12.6,9.3,16.4c2.9,2,7.2,3.5,10.5,1.5l0,0c4-2.4,4.2-6.5,3.7-9.6
		c-1.4-7.9-8.9-16.8-15.2-17.9C300,256,299.5,256,299,256z"></path><polygon class="st1" points="247.6,289.3 308.7,288.6 280.4,216.5 219.2,217.2 	"></polygon><path class="st0" d="M247.6,289.9c-0.2,0-0.5-0.2-0.6-0.4l-28.3-72.1c-0.1-0.2,0-0.4,0.1-0.6c0.1-0.2,0.3-0.3,0.5-0.3l61.2-0.7
		c0.2,0,0.4,0.2,0.6,0.4l28.3,72.1c0.1,0.2,0,0.4-0.1,0.5c-0.1,0.2-0.3,0.3-0.5,0.3L247.6,289.9L247.6,289.9z M220.1,217.8
		l27.9,70.9l59.9-0.7L280,217.1L220.1,217.8z"></path><polygon class="st1" points="249.7,287.5 310.8,286.8 282.5,214.7 221.3,215.4 	"></polygon><path class="st0" d="M249.7,288.1c-0.2,0-0.5-0.2-0.6-0.4l-28.3-72.1c-0.1-0.3,0-0.7,0.3-0.8c0.1,0,0.1,0,0.2,0l61.2-0.7
		c0.2,0,0.5,0.2,0.6,0.4l28.3,72.1c0.1,0.2,0.1,0.4-0.1,0.5c-0.1,0.2-0.3,0.3-0.5,0.3L249.7,288.1L249.7,288.1z M222.2,216
		l27.9,70.9l59.9-0.7l-27.9-70.9L222.2,216z"></path><path class="st3" d="M244,252.1c-0.4,0-0.7-0.2-0.7-0.6c0-0.4,0.2-0.7,0.6-0.7c0.1,0,0.1,0,0.2,0l43.7-0.5l0,0
		c0.4,0,0.7,0.2,0.7,0.6c0,0.4-0.2,0.7-0.6,0.7c-0.1,0-0.1,0-0.2,0L244,252.1L244,252.1z"></path><path class="st3" d="M246.9,259.4c-0.4,0-0.6-0.4-0.6-0.7c0-0.3,0.3-0.5,0.6-0.6l43.6-0.5c0.3,0,0.6,0.2,0.7,0.6c0,0,0,0,0,0.1
		c0,0.4-0.3,0.7-0.6,0.7L246.9,259.4L246.9,259.4z"></path><path class="st3" d="M249.8,266.8c-0.4,0-0.6-0.4-0.6-0.7c0-0.3,0.3-0.5,0.6-0.6l43.7-0.5l0,0c0.4,0,0.6,0.4,0.6,0.7
		c0,0.3-0.3,0.5-0.6,0.6L249.8,266.8z"></path><path class="st3" d="M268.6,273.9c-0.4,0-0.6-0.4-0.6-0.7c0-0.3,0.3-0.5,0.6-0.6l27.7-0.3l0,0c0.4,0,0.6,0.3,0.6,0.6c0,0,0,0,0,0
		c0,0.4-0.3,0.7-0.6,0.7c0,0,0,0,0,0L268.6,273.9L268.6,273.9z"></path><path class="st3" d="M241.7,246.2c-0.3,0-0.5-0.2-0.6-0.4l-9.4-24c-0.1-0.3,0-0.7,0.4-0.8c0.1,0,0.1,0,0.2,0l23.8-0.3l0,0
		c0.3,0,0.5,0.2,0.6,0.4l9.4,24c0.1,0.2,0,0.4-0.1,0.6c-0.1,0.2-0.3,0.3-0.5,0.3L241.7,246.2L241.7,246.2z M233.2,222.2l8.9,22.7
		l22.4-0.3l-8.9-22.7L233.2,222.2z"></path><path class="st3" d="M278.2,228.5h-1.5l-1.2-3h-1.1l-0.7,3H272l0.9-3.2c-0.6-0.1-1.2-0.3-1.6-0.6c-0.5-0.3-0.8-0.8-1-1.3
		c-0.2-0.3-0.2-0.7-0.1-1c0.1-0.3,0.2-0.5,0.4-0.6c0.3-0.2,0.5-0.3,0.9-0.3c0.4-0.1,0.7-0.1,1.1-0.1h2.8L278.2,228.5z M275.1,224.4
		l-0.8-1.9h-1.2c-0.2,0-0.4,0-0.6,0c-0.2,0-0.3,0.1-0.5,0.1c-0.1,0.1-0.2,0.2-0.3,0.3c-0.1,0.2,0,0.3,0,0.5c0.1,0.2,0.2,0.4,0.4,0.6
		c0.2,0.1,0.3,0.2,0.5,0.3c0.2,0.1,0.4,0.1,0.6,0.1h0.6L275.1,224.4z"></path><path class="st3" d="M270.9,228.6l-5.6,0.1l-0.5-1.1l4.2-0.1l-0.8-1.9h-3.8l-0.5-1.1l3.8-0.1l-0.7-1.8l-4,0.1l-0.5-1.1l5.4-0.1
		L270.9,228.6z"></path><path class="st3" d="M274,230.9c0.2-0.3,0.5-0.5,0.9-0.6c0.4-0.1,0.8-0.2,1.2-0.2c0.4,0,0.8,0,1.2,0.1c0.4,0.1,0.8,0.2,1.1,0.4
		c0.3,0.2,0.7,0.4,0.9,0.7c0.3,0.3,0.5,0.6,0.6,1c0.2,0.3,0.2,0.7,0.1,1c-0.1,0.2-0.3,0.5-0.5,0.6c-0.2,0.2-0.5,0.3-0.8,0.4
		c-0.3,0.1-0.6,0.2-0.8,0.3c-0.2,0.1-0.4,0.2-0.6,0.4c-0.1,0.2-0.2,0.4,0,0.6c0.1,0.2,0.2,0.3,0.3,0.4c0.1,0.1,0.3,0.2,0.5,0.3
		c0.2,0.1,0.3,0.1,0.5,0.2c0.2,0,0.4,0,0.5,0.1c0.3,0,0.6-0.1,0.8-0.2c0.2-0.1,0.4-0.3,0.5-0.6l1.5,0.9c-0.2,0.4-0.5,0.6-0.9,0.8
		c-0.4,0.2-0.9,0.2-1.4,0.2c-0.4,0-0.8,0-1.2-0.1c-0.4-0.1-0.8-0.2-1.1-0.4c-0.3-0.2-0.7-0.4-0.9-0.7c-0.3-0.3-0.5-0.6-0.6-1
		c-0.2-0.3-0.2-0.7-0.1-1c0.1-0.3,0.2-0.5,0.5-0.6c0.2-0.2,0.5-0.3,0.8-0.4c0.3-0.1,0.6-0.2,0.8-0.3c0.2-0.1,0.4-0.2,0.6-0.3
		c0.1-0.2,0.2-0.4,0.1-0.6c-0.1-0.2-0.2-0.3-0.3-0.4c-0.1-0.1-0.3-0.2-0.4-0.3c-0.2-0.1-0.3-0.1-0.5-0.1c-0.2,0-0.3,0-0.5,0
		c-0.3,0-0.5,0.1-0.8,0.1c-0.2,0.1-0.4,0.2-0.5,0.4L274,230.9z"></path><path class="st3" d="M265.7,230.5h1.5l1.8,4.5c0.1,0.2,0.2,0.4,0.3,0.5c0.1,0.2,0.3,0.4,0.5,0.5c0.2,0.2,0.5,0.3,0.7,0.4
		c0.3,0.1,0.6,0.2,0.9,0.1c0.3,0,0.6,0,0.8-0.2c0.3-0.2,0.5-0.6,0.5-0.9c0-0.2-0.1-0.4-0.1-0.6l-1.8-4.5h1.5l1.8,4.5
		c0.2,0.4,0.2,0.8,0.2,1.2c0,0.3-0.1,0.6-0.4,0.9c-0.2,0.3-0.5,0.5-0.8,0.6c-0.4,0.1-0.8,0.2-1.2,0.2c-0.5,0-0.9-0.1-1.4-0.2
		c-0.4-0.1-0.9-0.3-1.3-0.5c-0.4-0.2-0.7-0.5-1-0.9c-0.3-0.3-0.5-0.7-0.7-1.2L265.7,230.5z"></path><path class="st3" d="M284.8,245.1h-1.1l-1.9-4.8l0,0l-0.1,4.8h-0.8l-3.8-4.7l0,0l1.9,4.8h-1.1l-2.2-5.7h1.8l3.4,4l0.2-4h1.8
		L284.8,245.1z"></path><path class="st3" d="M276.2,245.2l-4.5,0.1l-0.4-0.9h3.4l-0.7-1.6h-3l-0.4-0.9h3l-0.5-1.4h-3.2l-0.4-0.9h4.4L276.2,245.2z"></path><path class="st1" d="M242,238.9c-1.3-1.6-0.9-3.4-0.9-5.1s-0.8-3.5-0.9-5.1c-0.1-2.2,1.6-4.4,3.4-5.5c1.2-0.8,2.8-0.8,4,0.1
		c0.6-1,2.2-0.9,3.5-0.4c1.7,0.8,3.2,2,4.3,3.5c1.4,1.7,2.4,3.7,2.9,5.9c0.4,2,0,4.2-1.2,5.9c-1.3,1.5-3.1,2.4-5,2.6
		c-2,0.2-4,0.2-6-0.1c-1.3-0.1-2.5-0.5-3.5-1.3C242.3,239.2,242.1,239.1,242,238.9z"></path><path class="st3" d="M249.7,241.6c-1.3,0-2.5-0.1-3.8-0.3c-1.4-0.1-2.8-0.6-3.9-1.4c-0.2-0.2-0.3-0.3-0.5-0.5l0,0
		c-0.9-1.2-1.3-2.8-1.1-4.3c0-0.4,0-0.8,0-1.2c-0.1-0.8-0.2-1.7-0.4-2.5c-0.2-0.9-0.4-1.8-0.4-2.7c-0.1-2.6,1.8-5,3.7-6.1
		c1.3-0.8,2.9-0.9,4.2-0.1c1.2-0.7,2.6-0.8,3.8-0.2c1.8,0.8,3.4,2.1,4.5,3.7c1.5,1.8,2.5,3.9,3,6.2c0.5,2.2,0,4.6-1.4,6.4
		c-1.4,1.6-3.3,2.6-5.4,2.8C251.3,241.5,250.5,241.6,249.7,241.6z M242.5,238.5c0.1,0.1,0.2,0.3,0.4,0.4c0.9,0.7,2,1,3.2,1.1
		c1.9,0.3,3.9,0.4,5.8,0.1c1.8-0.2,3.4-1,4.6-2.4c1.1-1.5,1.5-3.5,1.1-5.3c-0.4-2.1-1.4-4-2.7-5.6c-1-1.4-2.4-2.5-4-3.3
		c-1-0.4-2.2-0.5-2.7,0.2c-0.1,0.2-0.3,0.3-0.4,0.3c-0.2,0-0.4,0-0.5-0.1c-0.9-0.8-2.3-0.8-3.3-0.1c-1.6,0.9-3.1,2.9-3.1,4.9
		c0.1,0.8,0.2,1.6,0.4,2.4c0.2,0.9,0.4,1.8,0.4,2.7c0,0.4,0,0.9,0,1.3C241.6,236.2,241.9,237.5,242.5,238.5L242.5,238.5z"></path><path class="st3" d="M253.8,240.3l0.1,0.1c0.2,0.2,0.4,0.5,0.7,0.9l0,0c0.9,1.2,1.7,2.6,2.4,4l4.9-0.1h1.3
		c-0.2-0.4-0.4-0.7-0.5-0.9c-2.1-3.6-4.4-5.1-6.2-5.7c-0.9-0.3-1.9-0.4-2.9-0.2c-0.2,0-0.4,0.1-0.6,0.1
		C253,238.6,252.9,239.1,253.8,240.3z"></path><path class="st1" d="M253.1,237.1l1.6,4.2c0,0,0.4,2.4-2.3,2.3c-1.7-0.1-3.3-0.9-4.4-2.2l-2.4-7.3c-0.1-1.4-0.5-2.7-1-4
		c1.9-0.6,3.6-1.9,4.6-3.7c0,0,1.6,1.4,2.3,1.7c0.5,0.3,1,0.6,1.4,1c0.6,0.8,1.1,1.6,1.4,2.6c0.4,1.1,0.7,2.2,0.9,3.3
		C255.3,237.1,253.1,237.1,253.1,237.1z"></path><path class="st3" d="M252.5,244.2h-0.2c-1.9-0.1-3.7-1-4.9-2.4c0-0.1-0.1-0.1-0.1-0.2c-1.8-5.4-2.2-6.9-2.3-7.3l0,0
		c0-0.2-0.1-0.3-0.1-0.5c-0.1-1.2-0.4-2.4-0.9-3.5c-0.1-0.2-0.1-0.4,0-0.5c0.1-0.2,0.2-0.3,0.4-0.3c1.8-0.6,3.2-1.8,4.2-3.4
		c0.1-0.2,0.3-0.3,0.4-0.3c0.2,0,0.4,0,0.5,0.1c0.4,0.4,1.7,1.4,2.2,1.7c0.5,0.3,1.1,0.7,1.5,1.1c0.7,0.8,1.2,1.8,1.5,2.9
		c0.4,1.1,0.7,2.2,0.9,3.3c0.1,0.7,0,1.4-0.5,1.9c-0.3,0.4-0.7,0.6-1.2,0.7l1.3,3.4c0.4,1.4-0.4,2.8-1.8,3.1
		C253.1,244.2,252.8,244.3,252.5,244.2L252.5,244.2z M248.5,241c1,1.1,2.4,1.8,3.9,1.9c0.5,0.1,1-0.1,1.4-0.4
		c0.2-0.3,0.3-0.7,0.3-1.1l-1.5-4.1c-0.1-0.2-0.1-0.4,0.1-0.6c0.1-0.2,0.3-0.3,0.5-0.3c0.4,0,0.8-0.1,1.1-0.4
		c0.2-0.3,0.2-0.6,0.2-0.9c-0.2-1.1-0.5-2.1-0.8-3.1c-0.2-0.9-0.6-1.7-1.2-2.3c-0.4-0.4-0.8-0.7-1.3-1c-0.4-0.3-1.2-0.9-1.8-1.3
		c-1,1.4-2.3,2.5-3.9,3.1c0.4,1,0.6,2.1,0.8,3.1c0,0.1,0,0.2,0,0.2L248.5,241z"></path><path class="st1" d="M244.8,230.4c-0.5-0.3-1.1-0.3-1.6,0c-0.4,0.5-0.4,1.2-0.1,1.7c0.3,0.7,0.6,1.3,1.1,1.9
		c0.2,0.4,0.6,0.7,0.9,0.9c0.4,0.2,0.8,0.2,1.1-0.1"></path><path class="st3" d="M245.7,235.7c-0.3,0-0.6-0.1-0.9-0.2c-0.5-0.3-0.9-0.6-1.2-1.1c-0.5-0.6-0.9-1.3-1.2-2.1
		c-0.4-0.8-0.3-1.8,0.3-2.4c0.7-0.5,1.6-0.5,2.4-0.1c0.3,0.2,0.4,0.6,0.2,0.9c-0.2,0.3-0.6,0.4-0.9,0.2c0,0,0,0,0,0
		c-0.2-0.2-0.6-0.2-0.8-0.1c-0.1,0.1-0.1,0.6,0,1c0.2,0.6,0.6,1.2,1,1.8c0.2,0.3,0.4,0.5,0.7,0.7c0.1,0.1,0.2,0.1,0.4,0.1
		c0.2-0.3,0.6-0.3,0.9-0.1c0,0,0,0,0,0c0.3,0.2,0.3,0.6,0.1,0.9c0,0,0,0,0,0C246.5,235.5,246.1,235.7,245.7,235.7z"></path><path class="st3" d="M242.5,242.8c0.1,0.9,0.3,1.8,0.5,2.7h4.1h2.5c-0.8-1.6-1.5-3.1-2-4.1c-0.1-0.2-0.2-0.4-0.3-0.6
		c-0.4-0.7-0.6-1.1-0.6-1.1c-0.7,0.2-1.3,0.5-1.9,0.8C243.8,241,242.5,241.9,242.5,242.8z"></path><ellipse class="st1" transform="matrix(0.6307 -0.776 0.776 0.6307 -85.7159 280.6538)" cx="252" cy="230.4" rx="2.2" ry="2.5"></ellipse><path class="st3" d="M252.3,233.4c-1.4,0-2.7-0.9-3.2-2.2l0,0c-0.3-0.8-0.2-1.6,0.1-2.4c0.4-0.7,1-1.2,1.8-1.3
		c1.7-0.3,3.3,0.6,3.9,2.2c0.3,0.8,0.2,1.6-0.1,2.4c-0.4,0.7-1,1.2-1.8,1.3C252.8,233.4,252.5,233.4,252.3,233.4z M250.3,230.7
		c0.4,1,1.3,1.5,2.4,1.3c0.4-0.1,0.7-0.3,0.9-0.7c0.2-0.4,0.2-0.9,0.1-1.3c-0.4-1-1.3-1.5-2.4-1.3c-0.4,0.1-0.7,0.3-0.9,0.7
		C250.2,229.8,250.2,230.3,250.3,230.7z"></path><ellipse class="st1" transform="matrix(0.6307 -0.776 0.776 0.6307 -88.0636 277.1608)" cx="247.2" cy="231.1" rx="2.2" ry="2.5"></ellipse><path class="st3" d="M247.5,234.1c-1.4,0-2.7-0.9-3.2-2.2l0,0c-0.3-0.8-0.2-1.6,0.1-2.4c0.4-0.7,1-1.2,1.8-1.3
		c1.7-0.3,3.3,0.6,3.9,2.2c0.3,0.8,0.2,1.6-0.1,2.4c-0.4,0.7-1,1.2-1.8,1.3C247.9,234.1,247.7,234.1,247.5,234.1z M245.5,231.4
		c0.4,1,1.3,1.5,2.4,1.3c0.4-0.1,0.7-0.3,0.9-0.7c0.2-0.4,0.2-0.9,0.1-1.3c-0.4-1-1.3-1.5-2.4-1.4c-0.4,0.1-0.7,0.3-0.9,0.7
		C245.3,230.6,245.3,231,245.5,231.4z"></path><path class="st1" d="M249.4,231.4c0,0,2.1,1.7,1.9,2.1s-1.1,0.4-1.1,0.4"></path><path class="st3" d="M250.2,234.6L250.2,234.6c-0.4,0-0.7-0.3-0.7-0.7c0,0,0,0,0,0c0-0.4,0.3-0.6,0.7-0.6l0,0h0.3
		c-0.4-0.5-0.9-0.9-1.4-1.3c-0.3-0.2-0.3-0.6-0.1-0.9c0.2-0.3,0.6-0.3,0.9-0.1c0,0,0,0,0,0c2.4,2,2.2,2.6,2.1,2.9
		C251.6,234.5,250.6,234.6,250.2,234.6z M250.7,233.6L250.7,233.6z"></path><path class="st3" d="M250.7,236.1c-0.4,0-0.8-0.1-1.2-0.2c-0.4-0.1-0.6-0.5-0.5-0.8c0.1-0.4,0.5-0.6,0.8-0.5c0,0,0.1,0,0.1,0
		c0.8,0.3,1.7,0.1,2.4-0.5c0.3-0.2,0.7-0.2,0.9,0.1c0.2,0.3,0.2,0.7-0.1,0.9l0,0C252.6,235.7,251.7,236.1,250.7,236.1z"></path><path class="st0" d="M231.7,229.8c-1.4,0-2.7-0.9-3.3-2.1l-4.3-10.9c-0.3-0.8-0.3-1.7,0.2-2.4c0.6-0.7,1.4-1.2,2.4-1.1
		c1.9,0,3.7,1.2,4.6,2.9l1.4,3.5c0.1,0.3,0,0.7-0.4,0.9c-0.3,0.1-0.7,0-0.8-0.4c0,0,0,0,0,0l-1.4-3.5c-0.6-1.3-1.9-2.1-3.3-2.1
		c-0.5,0-1,0.2-1.3,0.5c-0.2,0.4-0.2,0.8,0,1.1l4.3,10.9c0.4,0.8,1.2,1.3,2.1,1.3c0.3,0,0.5-0.1,0.7-0.3c0.1-0.2,0.1-0.4,0-0.6
		l-3.5-8.7c-0.1-0.3-0.4-0.4-0.7-0.4l3.1,7.9c0.1,0.3,0,0.7-0.4,0.8c0,0,0,0,0,0c-0.3,0.1-0.7,0-0.9-0.4l-3.2-7.9
		c-0.2-0.4-0.1-0.8,0.1-1.2c0.3-0.4,0.7-0.6,1.1-0.6l0,0c0.8,0,1.6,0.5,1.9,1.3l3.4,8.7c0.3,0.6,0.2,1.3-0.1,1.8
		C233,229.5,232.4,229.8,231.7,229.8L231.7,229.8z"></path><path class="st1" d="M314.9,269.6c-1.9-5.1-5.3-9.4-9.8-12.5c-2-1.4-4.7-3-7.2-3.4c-2.8-0.5-3.3,2.3-1.2,3.8l5.5,3.7
		c0.4,0.3,0.8,0.5,1.2,0.8c0.6,0.6,0.5,0.3,0.4,1c-0.5,2.2-0.3,4.6,0.3,6.8c0.6,1.6,1.3,3.2,2.1,4.8"></path><path class="st0" d="M306.3,275.1c-0.2,0-0.4-0.1-0.5-0.3c-0.8-1.6-1.5-3.2-2.1-4.9c-0.7-2.3-0.8-4.7-0.3-7c0-0.1,0-0.1,0-0.2
		l-0.3-0.2c-0.2-0.2-0.5-0.4-0.7-0.5c-0.1-0.1-0.3-0.2-0.4-0.3l-5.5-3.7c-1.3-0.7-1.9-2.1-1.4-3.5c0.3-0.8,1.3-1.6,3-1.3
		c2.7,0.5,5.5,2.2,7.4,3.5c4.6,3.1,8.1,7.6,10,12.8c0.1,0.3,0,0.7-0.4,0.8c-0.3,0.1-0.7,0-0.8-0.4l0,0c-1.8-4.9-5.2-9.2-9.5-12.2
		c-1.8-1.2-4.5-2.9-6.9-3.3c-0.9-0.1-1.5,0.1-1.7,0.6s0,1.4,1,2.1l5.5,3.7l0.4,0.3c0.3,0.2,0.6,0.4,0.9,0.6l0.3,0.2
		c0.3,0.2,0.5,0.6,0.4,1l0,0.3c-0.4,2.2-0.3,4.4,0.3,6.5c0.6,1.6,1.2,3.2,2,4.7c0.1,0.3,0,0.6-0.3,0.8
		C306.5,275.1,306.4,275.1,306.3,275.1z"></path></g><g id="Desk_back"><rect class="st3" x="282.4" y="311.9" width="66.8" height="54.9"></rect><path class="st3" d="M349.2,367.4h-66.8c-0.4,0-0.7-0.3-0.7-0.6c0,0,0,0,0,0v-54.8c0-0.4,0.3-0.7,0.6-0.7h66.8
		c0.4,0,0.7,0.3,0.7,0.7v54.8C349.9,367.1,349.6,367.4,349.2,367.4L349.2,367.4z M283.1,366.1h65.5v-53.5h-65.5V366.1z"></path></g><g id="Desk_top"><rect class="st1" x="288.7" y="304.4" width="56.8" height="7.5"></rect><path class="st0" d="M345.5,312.5h-56.8c-0.3,0-0.6-0.3-0.6-0.6l0,0v-7.5c0-0.3,0.3-0.6,0.6-0.6l0,0h56.8c0.3,0,0.6,0.3,0.6,0.6
		l0,0v7.5C346.1,312.2,345.8,312.5,345.5,312.5L345.5,312.5z M289.3,311.3h55.6V305h-55.6V311.3z"></path><rect class="st1" x="207.1" y="291.6" width="146.7" height="12.5"></rect><path class="st0" d="M353.8,304.7H207.1c-0.3,0-0.6-0.3-0.6-0.6l0,0v-12.5c0-0.3,0.3-0.6,0.6-0.6c0,0,0,0,0,0h146.7
		c0.3,0,0.6,0.3,0.6,0.6c0,0,0,0,0,0v12.5C354.4,304.5,354.1,304.7,353.8,304.7L353.8,304.7z M207.7,303.5h145.5v-11.3H207.7
		L207.7,303.5z"></path><rect class="st1" x="56.8" y="291.6" width="160.6" height="12.5"></rect><path class="st0" d="M217.4,304.7H56.8c-0.3,0-0.6-0.3-0.6-0.6l0,0v-12.5c0-0.3,0.3-0.6,0.6-0.6c0,0,0,0,0,0h160.6
		c0.3,0,0.6,0.3,0.6,0.6c0,0,0,0,0,0v12.5C218,304.5,217.7,304.7,217.4,304.7L217.4,304.7z M57.4,303.5h159.4v-11.3H57.4L57.4,303.5
		z"></path></g><g id="Character_male"><path class="st1" d="M384.7,190.6c2.8-0.1,5.5-0.6,8.8-0.9c3-0.2,6.8-1.4,6.9-4.4c0-2.6-3-4.7-2.4-7.1c0.2-0.7,0.6-1.3,1.1-1.8
		c8.9-11.9,6.8-28.7-4.8-38c0.8,0.3,1.7-0.6,1.8-1.4c0-0.9-0.4-1.8-1-2.4c-2.1-2.6-5.2-4-8.3-5.1c-10-3.3-21-2.9-31,0
		c-7.8,2.3-17.1,8.4-16,17.8c0.4,3.4,3,6.6,6.4,6.8c1.7,10,7,16.9,13.6,24.1c4.4,5,10,8.8,16.2,11.1
		C378.8,190.3,381.8,190.7,384.7,190.6z"></path><path class="st0" d="M383.5,191.2c-2.6,0-5.2-0.4-7.7-1.3c-6.4-2.3-12-6.2-16.5-11.2c-6.1-6.7-11.7-13.6-13.7-24
		c-3.6-0.5-6.1-4-6.5-7.3c-1-9.2,7.6-15.9,16.5-18.5c10.7-3.1,21.9-3.2,31.4,0c2.6,0.8,6.2,2.3,8.6,5.3c0.7,0.8,1.1,1.8,1.1,2.9
		c-0.1,0.7-0.4,1.3-1,1.7c10.9,9.8,12.6,26.2,3.9,38l-0.1,0.1c-0.4,0.4-0.7,0.9-0.9,1.5c-0.3,1.1,0.3,2.1,1,3.3
		c0.8,1.1,1.3,2.4,1.3,3.7c0,2.7-2.9,4.6-7.5,5c-1.3,0.1-2.6,0.3-3.8,0.4c-1.7,0.2-3.3,0.4-5,0.5l0,0L383.5,191.2z M371.8,127.8
		c-5.4,0-10.7,0.8-15.8,2.3c-6.3,1.8-16.6,7.5-15.6,17.1c0.3,2.9,2.6,6.1,5.8,6.2c0.3,0,0.6,0.2,0.6,0.5c1.6,9.3,6.1,15.8,13.4,23.8
		c4.4,4.9,9.8,8.6,16,10.9c2.7,1,5.6,1.4,8.4,1.2l0,0c1.6-0.1,3.2-0.3,4.9-0.5c1.2-0.1,2.5-0.3,3.8-0.4s6.2-0.8,6.3-3.7
		c-0.1-1.1-0.5-2.1-1.2-3c-0.8-1.3-1.6-2.7-1.2-4.3c0.2-0.7,0.6-1.3,1.1-1.9l0.1-0.1c8.6-11.6,6.6-28-4.6-37.1
		c-0.3-0.2-0.3-0.5-0.2-0.8c0.2-0.3,0.5-0.4,0.8-0.3c0.2,0,0.3,0,0.5-0.1c0.3-0.2,0.4-0.5,0.5-0.8c0-0.7-0.3-1.4-0.8-1.9
		c-2.2-2.7-5.6-4.1-8-4.8C381.8,128.6,376.8,127.8,371.8,127.8z"></path><path class="st1" d="M343.5,168.7c0,0-7.2,11.8-5.5,14.1s6.8,0.5,6.8,0.5"></path><path class="st0" d="M341.1,184.6c-1.4,0.1-2.7-0.4-3.6-1.5c-1.8-2.5,3.7-12,5.5-14.8c0.3-0.2,0.7-0.2,0.9,0.1
		c0.1,0.2,0.2,0.4,0.1,0.6c-3.3,5.5-6.4,12.2-5.5,13.4c1.1,1.6,4.8,0.8,6.1,0.3c0.3-0.1,0.7,0,0.8,0.4c0,0,0,0,0,0
		c0.1,0.3-0.1,0.7-0.4,0.8c0,0,0,0,0,0C343.7,184.4,342.4,184.6,341.1,184.6z"></path><path class="st1" d="M344.5,153.4c-4.7,4.1-3,12.4-2.7,17.9c0.4,7.6,0.9,15.2,1.6,22.9c0.5,4.8,13,4.4,15.1,2.9l-1.2,19.2
		c0,0,6.1,1.4,16-3.6s9.9-7.5,9.9-7.5l-1.7-22c0,0-8.3,0.4-13.5-9.3s-5.6-24.9-5.6-24.9S349.1,149.4,344.5,153.4z"></path><path class="st0" d="M359.6,217.1c-0.8,0-1.6-0.1-2.4-0.2c-0.3-0.1-0.5-0.4-0.5-0.7l1.1-18.1c-2.8,0.9-8.9,1-12.3-0.6
		c-2.1-1-2.7-2.3-2.8-3.3c-0.7-7.6-1.2-15.3-1.6-22.9c0-0.9-0.1-1.9-0.2-2.9c-0.4-5.2-1-11.8,3.1-15.4l0,0
		c4.7-4.1,17.7-4.6,18.2-4.6c0.2,0,0.4,0.1,0.5,0.2c0.1,0.1,0.2,0.3,0.2,0.5c0,0.1,0.4,15.1,5.6,24.5c5,9.2,12.6,9,13,8.9
		c0.4,0,0.7,0.3,0.7,0.6l1.7,22c0,0.5-0.5,3.1-10.3,8.1C367.1,216.5,362.3,217.1,359.6,217.1z M358,215.7c1.7,0.2,7.1,0.4,15-3.7
		c9-4.6,9.6-6.9,9.6-6.9l-1.6-21.3c-2.1-0.1-8.9-1.2-13.5-9.6c-4.7-8.6-5.6-21.4-5.7-24.5c-2.7,0.1-13,0.9-16.8,4.3l0,0
		c-3.6,3.2-3.1,9.4-2.7,14.3c0.1,1.1,0.2,2.1,0.2,3c0.4,7.6,0.9,15.3,1.6,22.8c0.1,0.9,0.8,1.7,2,2.2c3.6,1.7,10.7,1.2,12.1,0.2
		c0.3-0.2,0.7-0.1,0.9,0.2c0.1,0.1,0.1,0.2,0.1,0.4L358,215.7z"></path><path class="st1" d="M343.4,188.4c0,0,6,3.4,9-2.8"></path><path class="st0" d="M347,190c-1.4,0-2.8-0.4-4-1c-0.3-0.2-0.4-0.6-0.2-0.9c0.2-0.3,0.6-0.4,0.9-0.2c1.5,0.8,3.2,1,4.9,0.6
		c1.5-0.5,2.6-1.7,3.2-3.1c0.2-0.3,0.6-0.5,0.9-0.3c0.3,0.2,0.5,0.5,0.3,0.9c0,0,0,0,0,0c-0.7,1.8-2.2,3.2-4,3.9
		C348.3,189.9,347.6,190,347,190z"></path><path class="st1" d="M358.5,175.4c0-1.5,1-2.9,2-4.2c0.8-1.1,1.7-2,2.7-2.9c1.2-0.9,2.6-1.3,4.1-1.2c1.2,0.1,2.3,0.7,3,1.7
		c0.6,0.9,0.9,1.9,1,2.9c0.4,4.5-2.5,9.1-7.3,11.8l0.4-0.4"></path><path class="st0" d="M364.1,184.2c-0.2,0-0.4-0.1-0.5-0.3c-0.2-0.3-0.1-0.6,0.1-0.9l0.4-0.4c0.1-0.1,0.3-0.2,0.5-0.2
		c4.1-2.5,6.6-6.7,6.2-10.7c0-0.9-0.4-1.8-0.9-2.6c-0.6-0.8-1.6-1.3-2.6-1.4c-1.3-0.1-2.6,0.3-3.6,1.1c-1,0.8-1.8,1.7-2.6,2.7
		c-0.9,1.1-1.9,2.5-1.9,3.8c0,0.4-0.3,0.7-0.7,0.7l0,0l0,0c-0.4,0-0.7-0.3-0.6-0.7c0-1.8,1.2-3.3,2.2-4.6c0.8-1.1,1.8-2.1,2.9-3
		c1.3-1,2.9-1.4,4.5-1.3c1.4,0.1,2.6,0.8,3.5,1.9c0.7,0.9,1.1,2.1,1.1,3.2c0.4,4.7-2.6,9.7-7.6,12.4
		C364.3,184.2,364.2,184.2,364.1,184.2z"></path><path class="st0" d="M358.5,197.1c0,0,6.4-2.3,9.3-6.8c0,0,0,11.6-9.8,15.4L358.5,197.1z"></path><path class="st0" d="M358,206.3c-0.1,0-0.3-0.1-0.4-0.1c-0.2-0.1-0.3-0.3-0.3-0.6l0.5-8.6c0-0.3,0.2-0.5,0.4-0.6
		c0.1,0,6.2-2.2,8.9-6.6c0.2-0.3,0.6-0.4,0.9-0.2c0.2,0.1,0.3,0.3,0.3,0.5c0,0.1-0.1,12.1-10.2,16
		C358.2,206.3,358.1,206.3,358,206.3z M359.2,197.5l-0.5,7.1c6-2.8,7.7-8.9,8.2-12.2C364.7,194.6,362.1,196.4,359.2,197.5
		L359.2,197.5z"></path><ellipse class="st0" transform="matrix(0.9788 -0.2047 0.2047 0.9788 -26.0509 74.6021)" cx="347.6" cy="163.2" rx="1.1" ry="2.7"></ellipse><polygon class="st1" points="349,219.9 352,207.5 395,200 396.1,214.9 	"></polygon><path class="st0" d="M349,220.5c-0.2,0-0.4-0.1-0.5-0.2c-0.1-0.2-0.2-0.4-0.1-0.6l3-12.4c0.1-0.3,0.3-0.4,0.5-0.5l43-7.5
		c0.2,0,0.4,0,0.5,0.1c0.1,0.1,0.2,0.3,0.2,0.5l1.1,15c0,0.4-0.2,0.7-0.6,0.7L349,220.5L349,220.5z M352.6,208l-2.7,11.1l45.5-4.8
		l-1-13.6L352.6,208z"></path><path class="st2" d="M429.1,223.8c0,0-19.4-18.1-57.6-13s-34.7,23.6-37.4,41.8s0,84,0,84s-50.9-8.6-56.4,0s-0.9,31.9-0.9,31.9h58.9
		l82-6.7L429.1,223.8z"></path><path class="st0" d="M354,345.8c-0.1,0-0.2,0-0.3,0l-19.9-8.5c-0.3-0.1-0.5-0.5-0.3-0.9c0.1-0.3,0.5-0.5,0.9-0.3c0,0,0,0,0,0
		l19.9,8.5c0.3,0.1,0.5,0.5,0.4,0.8C354.6,345.7,354.3,345.8,354,345.8L354,345.8z"></path><path class="st1" d="M240.6,262.1c0.7,2.4,1.6,4.7,2.5,7c-2.9-2.4-5.9-4.6-9-6.7c-0.6-0.5-1.3-0.7-2-0.7c-0.8,0.2-1.5,0.9-1.8,1.7
		c-2.7,5.3-1.4,11.9,1.9,16.9c5.2,7.9,14.2,14.7,23.9,14.2c0.7,0,1.3-0.1,1.9-0.4c0.4-0.3,0.7-0.8,1-1.2c1.6-2.9,3.1-5.9,4.5-9
		c0.3-0.5,0.4-1.1,0.3-1.6c-0.2-0.5-0.6-0.9-1.1-1.1c-6.9-4.4-10.8-10.8-15.4-17.3c-0.9-1.3-3-6.1-5-6
		C240,257.9,240.1,260.4,240.6,262.1z"></path><path class="st0" d="M255.1,295.1c-10.1,0-18.9-7.7-23.4-14.5c-3.7-5.6-4.5-12.5-1.9-17.5c0.4-1,1.2-1.7,2.2-2
		c0.9-0.1,1.7,0.2,2.4,0.8c2.5,1.6,4.9,3.4,7.3,5.2c-0.6-1.6-1.2-3.2-1.7-4.9c-0.2-0.6-0.7-2.7,0.2-4.1c0.5-0.6,1.2-1,2-1
		c1.9-0.1,3.5,2.8,4.8,5c0.2,0.4,0.5,0.9,0.8,1.3l1.7,2.4c3.9,5.6,7.5,10.9,13.5,14.7c0.6,0.3,1.1,0.8,1.4,1.4
		c0.2,0.7,0.1,1.5-0.3,2.1c-1.4,3.1-2.9,6.1-4.6,9c-0.3,0.5-0.6,1-1.1,1.4c-0.6,0.4-1.4,0.6-2.1,0.6L255.1,295.1z M232.4,262.3h-0.1
		c-0.5,0.1-0.9,0.5-1.3,1.3c-2.4,4.6-1.6,11,1.8,16.3c4.5,6.8,13.3,14.5,23.4,13.9c0.5,0,1-0.1,1.5-0.4c0.3-0.3,0.6-0.6,0.8-1
		c1.6-2.9,3.1-5.9,4.5-9c0.2-0.4,0.3-0.8,0.3-1.2c-0.1-0.3-0.5-0.6-0.9-0.8c-6.2-3.9-9.9-9.3-13.9-15c-0.6-0.8-1.1-1.6-1.6-2.4
		c-0.2-0.3-0.5-0.8-0.8-1.4c-0.9-1.5-2.4-4.4-3.7-4.4c-0.4,0-0.8,0.2-1.1,0.5c-0.4,1-0.5,2.1-0.1,3.1l0,0c0.7,2.3,1.6,4.7,2.5,6.9
		c0.1,0.3,0,0.6-0.2,0.7c-0.2,0.2-0.5,0.2-0.7,0c-2.8-2.4-5.8-4.6-8.9-6.6C233.4,262.6,232.9,262.4,232.4,262.3L232.4,262.3z"></path><path class="st2" d="M368,225.4c0,0-7.8,80.4-34.9,80s-83.9-8.9-83.9-10.1s7-22.3,7-22.3s60.5,6.3,66.4-3.1s15.1-39.3,15.1-39.3"></path><path class="st0" d="M335.3,305.1c-22.6,0-63.2-5.2-65.4-5.5c-0.4,0-0.6-0.4-0.6-0.7c0,0,0,0,0,0c0-0.4,0.4-0.6,0.7-0.6
		c0,0,0,0,0,0c24.7,3.2,72.9,8.2,78.6,3.9c7.2-5.3,18.6-52.4,18.7-52.9c0.1-0.3,0.4-0.6,0.8-0.5c0,0,0,0,0,0
		c0.4,0.1,0.6,0.4,0.5,0.8c-0.5,2-11.6,48-19.2,53.6C347.6,304.5,342.3,305.1,335.3,305.1z"></path></g><g id="Desk_front"><rect class="st1" x="207.1" y="304.1" width="81.6" height="68.8"></rect><path class="st0" d="M288.7,373.5h-81.6c-0.3,0-0.6-0.3-0.6-0.6l0,0v-68.8c0-0.3,0.3-0.6,0.6-0.6h0h81.6c0.3,0,0.6,0.3,0.6,0.6l0,0
		v68.8C289.3,373.2,289,373.5,288.7,373.5L288.7,373.5z M207.7,372.3h80.4v-67.6h-80.4L207.7,372.3z"></path><rect class="st1" x="63.8" y="304.1" width="143.3" height="68.8"></rect><path class="st0" d="M207.1,373.5H63.8c-0.3,0-0.6-0.3-0.6-0.6l0,0v-68.8c0-0.3,0.3-0.6,0.6-0.6h0h143.3c0.3,0,0.6,0.3,0.6,0.6l0,0
		v68.8C207.7,373.2,207.4,373.5,207.1,373.5z M64.4,372.3h142.1v-67.6H64.4L64.4,372.3z"></path><path class="st3" d="M280.4,363.6h-63.8c-0.4,0-0.7-0.3-0.7-0.6c0,0,0,0,0,0v-48.8c0-0.4,0.3-0.7,0.6-0.7h63.8
		c0.4,0,0.7,0.3,0.7,0.7v48.8C281.1,363.3,280.8,363.6,280.4,363.6L280.4,363.6z M217.3,362.3h62.5v-47.5h-62.5L217.3,362.3z"></path><path class="st3" d="M248.3,330.7c-2.8,0-5-2.2-5-5s2.2-5,5-5s5,2.2,5,5S251,330.7,248.3,330.7z M248.3,322c-2,0-3.7,1.7-3.7,3.7
		c0,2,1.7,3.7,3.7,3.7c2,0,3.7-1.7,3.7-3.7c0,0,0,0,0,0C252,323.7,250.3,322,248.3,322C248.3,322,248.3,322,248.3,322L248.3,322z"></path></g><g id="Chair_1"><path class="st0" d="M359.3,348.4c0,0,11.2-126,28.4-140.2s64.3-9.3,70.8,7.9s-22.9,126.4-29.4,141.2s-9.2,14.1-40.2,14.1
		c-19.7,0-92.6,5.3-97.9-4.7S302.5,347.2,359.3,348.4z"></path><path class="st0" d="M332.5,373.5c-22.3,0-39.4-1.4-42-6.4c-1.3-2.2-1.3-5,0-7.2c5.2-8.5,29.5-12.7,68.3-12
		c0.9-10.1,11.8-126.2,28.5-140c11.5-9.5,34.8-10.1,50.8-5.9c11.1,2.9,18.5,7.9,20.9,14.1c6.7,17.8-23.2,127.5-29.4,141.6
		c-6.4,14.5-9.2,14.5-36.8,14.5h-3.9c-4.1,0-10.6,0.2-18.1,0.5C357.5,373,344.2,373.5,332.5,373.5z M350.3,348.9
		c-33,0-54.3,4.1-58.8,11.5c-1.1,1.9-1.1,4.2,0,6.1c4,7.6,53,5.9,79.3,4.9c7.5-0.3,14-0.5,18.1-0.5h3.9c27.4,0,29.7,0,35.8-13.8
		c6.7-15.1,35.7-124.1,29.4-140.8c-2.2-5.8-9.3-10.5-20.1-13.4c-21.1-5.6-41.4-1.2-49.8,5.7c-16.8,13.9-28.1,138.5-28.2,139.8
		c0,0.3-0.3,0.5-0.6,0.5l0,0C356.2,348.9,353.2,348.9,350.3,348.9L350.3,348.9z"></path><path class="st0" d="M326.9,316.9c-7.9,1.1-16.3,3.4-21.1,9.7c-6,7.9-4.3,18.9-2.4,28.5c3.7,0.4,7.4,1.1,10.9,2.3
		c-2.1-5.6-2.7-11.7-1.5-17.5c0.5-2.7,1.5-5.5,3.7-7.2c1.9-1.5,4.5-2,6.9-2.3c15.7-2.1,30,0.2,45.5,2.2c2.5-9.1-0.9-14.1-9.5-15.3
		C348.6,315.6,337.7,315.5,326.9,316.9z"></path><path class="st0" d="M314.3,358c-0.1,0-0.1,0-0.2,0c-3.5-1.2-7.1-1.9-10.8-2.3c-0.3,0-0.5-0.2-0.5-0.5c-1.9-9.9-3.5-21,2.5-29
		c5.3-7,14.8-9,21.5-9.9l0,0c10.8-1.4,21.8-1.3,32.6,0.3c4.4,0.6,7.5,2.3,9.2,4.9s2,6.5,0.7,11.1c-0.1,0.3-0.3,0.5-0.6,0.4l-4.9-0.6
		c-13.6-1.8-26.4-3.5-40.4-1.6c-2.4,0.3-4.8,0.8-6.6,2.2s-2.8,3.6-3.5,6.9c-1.1,5.8-0.6,11.7,1.5,17.2c0.1,0.2,0,0.4-0.1,0.6
		C314.6,358,314.5,358,314.3,358z M303.9,354.6c3.2,0.3,6.4,1,9.5,1.9c-1.8-5.4-2.2-11.2-1.2-16.8c0.7-3.6,2-6,3.9-7.6
		s4.7-2.1,7.2-2.5c14.1-1.9,27-0.2,40.7,1.6l4.4,0.6c1.1-4.1,0.8-7.4-0.7-9.7s-4.4-3.8-8.5-4.4c-10.7-1.6-21.5-1.7-32.2-0.3l0,0
		c-6.5,0.9-15.6,2.8-20.7,9.5C300.6,334.4,302,345.1,303.9,354.6L303.9,354.6z"></path><path class="st1" d="M374.7,350.3h-0.1c-0.4-0.1-0.6-0.4-0.5-0.8c0,0,0,0,0,0c9.5-43.1,27.2-125.9,26.3-131.2
		c-1.5-8.6-9.8-7.4-10.1-7.3c-0.4,0.1-0.7-0.2-0.8-0.5c-0.1-0.4,0.2-0.7,0.5-0.7c0,0,0,0,0,0c0.1,0,9.9-1.5,11.6,8.4
		c1.1,6.8-25.2,126.6-26.3,131.7C375.3,350.1,375,350.3,374.7,350.3z"></path></g></svg>