<svg transform="scale(1)" version="1.1" id="Layer_1" xmlns="http://www.w3.org/2000/svg" xmlns:xlink="http://www.w3.org/1999/xlink" x="0px" y="0px" viewBox="0 0 500 500" xml:space="preserve" class="show_show__wrapper__graphic__5Waiy "><title>React</title><style type="text/css">
	.st0{fill:#343A40;}
	.st1{fill:#F8F9FA;}
	.st2{fill:#212529;}
	.st3{fill:none;}
</style><g id="Floor"><path class="st0" d="M453.9,408H31c-0.4,0-0.8-0.3-0.8-0.8s0.3-0.8,0.8-0.8h422.9c0.4,0,0.8,0.3,0.8,0.8S454.3,408,453.9,408z"></path></g><g id="Line_Flow"><polyline class="st1" points="137.3,102.4 385.7,102.4 385.7,181.5 85.2,181.5 85.2,290.7 357.1,290.7 	"></polyline><path class="st0" d="M357.2,291.5H85.2c-0.4,0-0.8-0.3-0.8-0.8V181.5c0-0.4,0.3-0.7,0.7-0.8c0,0,0,0,0,0H385v-77.7H137.3
		c-0.4,0-0.8-0.3-0.8-0.8s0.3-0.8,0.8-0.8h248.5c0.4,0,0.7,0.3,0.8,0.8v79.2c0,0.4-0.3,0.7-0.8,0.8H86V290h271.2
		c0.4,0,0.8,0.3,0.8,0.8S357.6,291.5,357.2,291.5L357.2,291.5z"></path></g><g id="Character"><polygon class="st1" points="174.7,195.7 207.2,169.8 204.2,205.5 172.2,209.1 	"></polygon><path class="st0" d="M172.2,209.9c-0.2,0-0.4-0.1-0.6-0.2c-0.2-0.2-0.2-0.4-0.2-0.6l2.4-13.4c0-0.2,0.1-0.3,0.3-0.4l32.5-25.9
		c0.2-0.2,0.6-0.2,0.8-0.1c0.3,0.1,0.4,0.4,0.4,0.7l-3,35.7c0,0.4-0.3,0.6-0.7,0.7L172.2,209.9L172.2,209.9z M175.4,196.1l-2.2,12.2
		l30.3-3.5l2.8-33.3L175.4,196.1z"></path><polygon class="st1" points="295.7,429.7 289.6,435 284.7,431.4 282.5,413.7 295.4,410.9 	"></polygon><path class="st0" d="M289.6,435.7c-0.2,0-0.3-0.1-0.4-0.1l-4.9-3.6c-0.2-0.1-0.3-0.3-0.3-0.5l-2.2-17.6c-0.1-0.4,0.2-0.7,0.6-0.8
		l12.9-2.8c0.2-0.1,0.5,0,0.6,0.1c0.2,0.1,0.3,0.4,0.3,0.6l0.2,18.8c0,0.2-0.1,0.4-0.3,0.6l-6.1,5.2
		C289.9,435.7,289.8,435.7,289.6,435.7z M285.4,431l4.1,3l5.4-4.6l-0.2-17.5l-11.3,2.5L285.4,431z"></path><path class="st0" d="M296.7,428.6c0,0-7.6,5.3-13,1c0,0-18-1.6-20.1,10.7h33.3L296.7,428.6L296.7,428.6z"></path><path class="st0" d="M296.9,441h-33.3c-0.2,0-0.4-0.1-0.6-0.3c-0.1-0.2-0.2-0.4-0.2-0.6c2.1-12.9,20.7-11.4,20.9-11.3
		c0.1,0,0.3,0.1,0.4,0.2c5,4,12.1-0.9,12.1-1c0.2-0.2,0.5-0.2,0.8,0c0.2,0.1,0.4,0.4,0.4,0.6l0.2,11.7c0,0.2-0.1,0.4-0.2,0.5
		C297.3,440.9,297.1,441,296.9,441z M264.5,439.5h31.6l-0.2-9.6c-2.4,1.4-8.1,3.8-12.6,0.4C281.4,430.2,266.9,429.6,264.5,439.5
		L264.5,439.5z"></path><polygon class="st1" points="233.4,429.7 228.1,435 223.2,431.4 221,413.7 235.4,410.9 	"></polygon><path class="st0" d="M228.1,435.7c-0.2,0-0.3-0.1-0.4-0.1l-4.9-3.6c-0.2-0.1-0.3-0.3-0.3-0.5l-2.2-17.6c0-0.4,0.2-0.8,0.6-0.8
		l14.4-2.8c0.2,0,0.5,0,0.6,0.2c0.2,0.2,0.3,0.4,0.2,0.6l-2,18.8c0,0.2-0.1,0.3-0.2,0.5l-5.3,5.2
		C228.5,435.6,228.3,435.7,228.1,435.7z M223.9,431l4.1,3l4.7-4.6l1.8-17.5l-12.7,2.5L223.9,431z M233.4,429.8L233.4,429.8z"></path><polygon class="st0" points="291.4,262.5 298.6,420.2 279.5,420.1 253.5,314.3 238.9,419.6 217.7,419.4 211.1,264.3 	"></polygon><path class="st0" d="M224.9,118c0.2-0.5,0.4-1,0.6-1.5c1.2-2.8,5.8-7.5,12.6-8.4c11.5-1.6,17.2,2.5,18.2,7.5c2.6-0.9,6.7,3.7,7,7.8
		c0.2,5.1-0.4,10.1-1.9,15c-0.7,2.3-1.9,4.5-3.6,6.2c-1.9,1.5-4,2.5-6.4,3c-4.9,1.3-10.2,2-15.1,0.4c-5-1.6-10.1-5.9-11.5-11.1
		C223.2,130.8,222.8,124,224.9,118L224.9,118z"></path><path class="st2" d="M287.4,202.1l12.4-14.4c-8.5-14.6-17.4-23-23.3-26.1c-7.6-5.3-25.3-4.1-41.5-3.3c0,0-14.5,0.7-22.8,5.6
		c-10.2,5.8-17.9,15.6-17.9,15.6l9.8,25.8c0,0-0.4,56.6,3.2,68.9c0,0,50.8,8.1,86.6-5.5C293.9,268.9,287.4,206.9,287.4,202.1
		L287.4,202.1z"></path><path class="st1" d="M234.6,150.9l1.1,12.4c0,0,4.9,6.9,12.5,3.8s9.3-8.9,9.3-8.9l-3.7-23.9c0,0-6.4-2.2-6.7-15.2
		c-6,3.8-12.9,6-20,6.2c0,0-1.3,14.3,0.6,20.3S234.6,150.8,234.6,150.9L234.6,150.9z"></path><path class="st0" d="M244.3,168.6c-5.6,0-9.1-4.9-9.2-4.9c-0.1-0.1-0.1-0.2-0.1-0.4l-1-11.7c-1.6-0.1-5.4-0.8-7-5.9
		c-2-6-0.7-20-0.6-20.6c0-0.4,0.3-0.7,0.7-0.7c7-0.2,13.7-2.3,19.6-6c0.2-0.2,0.5-0.2,0.8-0.1c0.3,0.1,0.4,0.4,0.4,0.7
		c0.3,12.2,6.1,14.4,6.2,14.5c0.3,0.1,0.4,0.3,0.5,0.6l3.7,23.9c0,0.1,0,0.2,0,0.3c-0.1,0.2-1.9,6.1-9.7,9.4
		C247.2,168.3,245.7,168.6,244.3,168.6z M236.4,163c0.8,1,5.1,6,11.5,3.4s8.5-7.4,8.8-8.3l-3.6-23.3c-1.5-0.7-6.1-3.9-6.7-14.3
		c-5.7,3.3-12.1,5.2-18.6,5.6c-0.2,2.9-1,14.3,0.6,19.4c1.7,5.3,6,4.8,6.1,4.8c0.2,0,0.4,0,0.6,0.2c0.2,0.1,0.2,0.3,0.2,0.5
		L236.4,163z"></path><path class="st1" d="M249.1,134.6c0.1-1.1,0.6-2.2,1.3-3c0.7-0.8,1.6-1.4,2.5-1.8c0.5-0.3,1-0.5,1.6-0.6c0.4,0,0.8,0.1,1.2,0.2
		c0.9,0.3,1.7,0.9,2.2,1.7c0.3,0.7,0.5,1.5,0.5,2.2c0,0.8,0,1.7-0.2,2.5c-0.8,3.4-4.3,5.5-7.6,4.6c0,0-0.1,0-0.1,0"></path><path class="st0" d="M252,141.3c-0.6,0-1.2-0.1-1.8-0.2c-0.4-0.1-0.6-0.5-0.5-0.9s0.5-0.6,0.9-0.5c3,0.8,6-1,6.8-4c0,0,0,0,0-0.1
		c0.2-0.8,0.2-1.5,0.2-2.3c0-0.7-0.1-1.3-0.4-1.9c-0.4-0.6-1.1-1.1-1.8-1.3c-0.3-0.1-0.6-0.2-0.9-0.2c-0.5,0.1-0.9,0.2-1.3,0.5
		c-0.9,0.4-1.7,1-2.4,1.7c-0.6,0.7-1,1.6-1.1,2.6c0,0.4-0.4,0.7-0.8,0.7c-0.4,0-0.7-0.4-0.7-0.8c0.1-1.3,0.6-2.5,1.5-3.5
		c0.8-0.8,1.7-1.5,2.8-2c0.6-0.4,1.2-0.6,1.9-0.7c0.5,0,1,0.1,1.5,0.3c1.1,0.3,2,1,2.6,2c0.4,0.8,0.6,1.7,0.6,2.6
		c0,0.9,0,1.8-0.2,2.7C258.1,139.1,255.3,141.3,252,141.3z"></path><path class="st0" d="M235.1,156.8c3-0.1,5.8-1.6,7.6-3.9c2.9-3.9,2.3-5.8,2.3-5.8s-5.1,4-10.4,3.8L235.1,156.8z"></path><path class="st0" d="M235.1,157.6c-0.4,0-0.7-0.3-0.8-0.7l-0.5-6c0-0.2,0.1-0.4,0.2-0.6c0.2-0.1,0.3-0.2,0.6-0.2h0.4
		c4.9,0,9.6-3.6,9.6-3.6c0.2-0.2,0.4-0.2,0.7-0.1c0.2,0.1,0.4,0.3,0.5,0.5c0.1,0.2,0.6,2.4-2.4,6.5
		C241.4,155.8,238.3,157.4,235.1,157.6L235.1,157.6z M235.4,151.6l0.4,4.4c2.5-0.3,4.8-1.6,6.4-3.6c0.9-1.1,1.6-2.5,2.1-3.9
		C241.6,150.3,238.6,151.3,235.4,151.6L235.4,151.6z"></path><path class="st1" d="M236.3,131.3c0,0-3.4,6.7-2.2,7.7s3.8-0.1,3.8-0.1"></path><path class="st0" d="M235.4,140.1c-0.7,0-1.3-0.2-1.9-0.6c-1-0.9-0.4-3.8,2.1-8.6c0.2-0.4,0.6-0.5,1-0.3c0.4,0.2,0.5,0.6,0.3,1
		c0,0,0,0,0,0c-1.5,3-2.6,6.2-2.4,6.9c0.5,0.4,2.1,0.1,3-0.3c0.4-0.1,0.8,0.1,0.9,0.5c0.1,0.4-0.1,0.7-0.4,0.9
		C237.3,139.9,236.3,140.1,235.4,140.1z"></path><path class="st1" d="M237.5,143.5c0,0,4.8,0.9,5.5-3.7"></path><path class="st0" d="M238.5,144.3c-0.4,0-0.7,0-1.1-0.1c-0.4-0.1-0.6-0.5-0.5-0.9c0.1-0.4,0.4-0.6,0.8-0.6c1.1,0.2,2.3,0,3.3-0.6
		c0.8-0.6,1.3-1.5,1.4-2.5c0.1-0.4,0.4-0.7,0.9-0.6c0.4,0.1,0.7,0.4,0.6,0.9c-0.2,1.4-0.9,2.7-2,3.5
		C240.8,144,239.6,144.3,238.5,144.3z"></path><ellipse class="st0" transform="matrix(8.785121e-02 -0.9961 0.9961 8.785121e-02 92.1551 361.1684)" cx="243.3" cy="130.3" rx="1.5" ry="1"></ellipse><ellipse class="st0" transform="matrix(8.785121e-02 -0.9961 0.9961 8.785121e-02 80.8606 351.7253)" cx="232.5" cy="131.7" rx="1.5" ry="1"></ellipse><polygon class="st1" points="243.2,185.1 180.8,193.7 122.8,184.9 156,261.8 196.9,269.7 247.1,262.7 	"></polygon><path class="st0" d="M196.9,270.5h-0.1l-40.9-8c-0.2,0-0.5-0.2-0.6-0.4l-33.2-76.8c-0.1-0.2-0.1-0.5,0.1-0.8
		c0.2-0.2,0.4-0.3,0.7-0.3l57.9,8.8l62.3-8.7c0.2,0,0.4,0,0.6,0.2c0.2,0.1,0.3,0.3,0.3,0.5l3.9,77.6c0,0.4-0.3,0.7-0.6,0.8l-50.2,7
		L196.9,270.5z M156.5,261.1l40.4,7.9l49.4-7l-3.8-76.1l-61.6,8.6c-0.1,0-0.1,0-0.2,0l-56.7-8.6L156.5,261.1z"></path><path class="st1" d="M132.2,215c0.2,1.5,0.6,3,1.2,4.4l2.7,7c0.7,1.7,1.7,3.8,3.6,3.8c1.3,0,2.3-1,3.2-1.9c2.7-2.9,5.6-5.9,6.3-9.8
		c0.1-0.6,0-1.3-0.5-1.4c-0.3,0-0.5,0-0.7,0.2c-2,0.9-3.7,2.3-5.2,4c1.9-2.1,3.6-4.4,5-6.9c0.3-0.6,0.6-1.4,0-1.7
		c-0.4-0.2-0.8-0.2-1.2,0c-1.5,0.6-2.8,1.4-3.9,2.4c1.6-1.1,2.8-2.6,3.6-4.4c0.3-0.6,0.4-1.6-0.2-1.9s-1.1,0.1-1.5,0.4
		c-1.1,0.8-2.1,1.8-3,2.8c0.7-0.9,1.2-2,1.5-3.1c0.1-0.2,0.1-0.5-0.1-0.8c-0.3-0.5-1.1-0.2-1.5,0.2l-6.4,5c0.3-0.2-1.3-2.1-1.9-1.9
		C132.2,211.6,132.2,214.4,132.2,215L132.2,215z"></path><path class="st0" d="M139.8,230.9L139.8,230.9c-2.7,0-3.9-3.2-4.3-4.3l-2.7-7c-0.6-1.5-1.1-3-1.3-4.6c0,0,0-0.1,0-0.1
		c-0.1-0.7-0.2-3.8,1.3-4.2c0.9-0.2,1.9,0.7,2.4,1.4l5.7-4.4c0.5-0.4,1.1-0.6,1.8-0.6c0.4,0.1,0.7,0.3,0.9,0.6
		c0.2,0.4,0.3,0.8,0.2,1.2l0.4-0.3c0.6-0.6,1.5-0.8,2.3-0.5c1.1,0.6,1,1.9,0.6,2.9c-0.1,0.3-0.3,0.6-0.4,0.9
		c0.6-0.2,1.2-0.2,1.8,0.1c0.7,0.6,0.8,1.6,0.2,2.7c-0.4,0.7-0.8,1.3-1.2,2l0.4-0.2c0.4-0.2,0.8-0.3,1.2-0.2
		c0.9,0.2,1.3,1.1,1.1,2.3c-0.8,4.2-3.9,7.5-6.5,10.2C142.5,229.8,141.4,230.9,139.8,230.9z M133,215c0.2,1.4,0.6,2.7,1.1,4l2.7,7.1
		c0.9,2.2,1.8,3.3,2.9,3.3s1.9-0.9,2.6-1.7c2.5-2.7,5.4-5.7,6.1-9.4c0-0.2,0-0.4,0-0.6l-0.2,0.1c-1.5,0.7-2.9,1.7-4.1,2.9
		c-0.3,0.3-0.6,0.6-0.9,0.9c-0.3,0.3-0.8,0.3-1.1,0.1s-0.3-0.8-0.1-1.1c0.3-0.3,0.6-0.7,0.9-1c1.5-1.8,2.9-3.7,4-5.8
		c0.2-0.2,0.2-0.5,0.2-0.8c0,0-0.1,0-0.5,0.1c-0.9,0.3-1.7,0.8-2.5,1.3c-0.4,0.4-0.8,0.7-1.3,1c-0.3,0.2-0.8,0.1-1-0.2
		c-0.2-0.3-0.2-0.7,0.1-0.9c0.4-0.4,0.8-0.7,1.2-1c0.9-0.9,1.6-1.9,2.2-3.1c0.2-0.3,0.2-0.6,0.1-0.9c0,0-0.2,0-0.7,0.4
		c-1,0.8-2,1.7-2.9,2.7c-0.3,0.3-0.8,0.4-1.1,0.1s-0.4-0.8-0.1-1.1c0.6-0.8,1.1-1.8,1.3-2.8c0,0,0,0,0-0.1c-0.1,0.1-0.3,0.1-0.4,0.2
		l-6.4,5l0,0c-0.3,0.2-0.7,0.2-1-0.1c-0.1-0.2-0.2-0.3-0.1-0.5c-0.3-0.4-0.6-0.7-1-1c-0.2,0.9-0.3,1.8-0.2,2.7L133,215z"></path><path class="st1" d="M297.1,183.6c0,0,40.1,57.1,18.8,62.7c-14.9,3.9-38.6-0.8-50.4-5.6s-20.9-8.4-20.9-8.4s-15.9-0.5-16.2-3.1
		c-0.5-2,6.5-2.4,6.5-2.4s-9.7-1.4-9.2-3.4c0.7-2.8,9.1-1.9,9.1-1.9s-12.4-2.9-10.3-4.8s10.2-0.3,10.2-0.3s-5.4-2-5.5-4.5
		c2.9-1.8,17.3,0.9,21.1,3.9s32,5.3,36,5.3l-8.9-18.4C281.3,187.1,297.1,183.6,297.1,183.6z"></path><path class="st0" d="M302.8,248.6c-13.7,0-29.1-3.7-37.6-7.1c-10.9-4.5-19.6-7.9-20.8-8.4c-6.2-0.2-16.4-0.9-16.8-3.7
		c-0.1-0.4,0-0.9,0.3-1.2c0.7-0.7,1.6-1.2,2.5-1.3c-2.2-0.5-4.6-1.3-5.2-2.3c-0.2-0.3-0.3-0.7-0.2-1.1c0.4-1.6,2.2-2.2,4.3-2.5
		c-2.8-0.9-5.4-2.1-5.7-3.3c-0.1-0.5,0.1-1,0.4-1.3c1.3-1.1,4.1-1.2,6.6-1c-1.2-0.7-1.9-1.9-2.1-3.2c0-0.3,0.1-0.5,0.4-0.6
		c3.4-2.1,18.1,0.9,22,4c3.3,2.6,27.4,4.8,34.3,5.1l-8.4-17.3c-0.1-0.2-0.1-0.3-0.1-0.5c4-16.1,20.1-19.7,20.3-19.8
		c0.3-0.1,0.6,0.1,0.8,0.3c1.2,1.8,30.1,43.1,24.4,58.5c-1,2.7-3.3,4.7-6.1,5.3C311.7,248.2,307.2,248.7,302.8,248.6z M231.8,222.2
		c-2.6,0-5.2,0.4-5.5,1.5c0.3,0.6,4.3,1.8,8.6,2.5c0.4,0.1,0.7,0.4,0.6,0.9c-0.1,0.3-0.3,0.6-0.7,0.6c-3.1,0.2-5.7,0.9-5.8,1.4
		c0.5,1.1,7.6,2.2,15.6,2.5c0.1,0,0.2,0,0.2,0c0.1,0,9.3,3.7,20.9,8.4c11.2,4.6,34.9,9.5,49.9,5.6c2.3-0.5,4.3-2.2,5.1-4.4
		c5.1-13.9-20.9-52.2-24-56.7c-2.6,0.7-15.1,4.9-18.6,18.3l8.9,18.2c0.2,0.4,0,0.8-0.3,1c-0.1,0.1-0.2,0.1-0.3,0.1l0,0
		c-2.8,0-32.2-2-36.5-5.5c-3.7-2.9-16.5-5.1-19.8-4.1c0.6,1.4,3.4,2.8,4.9,3.4c0.4,0.1,0.6,0.5,0.5,0.9c-0.1,0.4-0.5,0.6-0.9,0.5
		c-3-0.6-8.1-1.1-9.5,0c0.7,0.8,5.1,2.4,9.9,3.6c0.4,0.1,0.6,0.5,0.6,0.9c-0.1,0.4-0.4,0.7-0.8,0.6
		C233.7,222.3,232.8,222.2,231.8,222.2L231.8,222.2z"></path><path class="st0" d="M234.4,428.6c0,0-6.8,5.3-12.3,1c0,0-18-1.6-20.1,10.7h31.9L234.4,428.6L234.4,428.6z"></path><path class="st0" d="M233.9,441h-31.9c-0.2,0-0.4-0.1-0.6-0.3c-0.1-0.2-0.2-0.4-0.2-0.6c2.1-12.9,20.7-11.4,20.9-11.3
		c0.1,0,0.3,0.1,0.4,0.2c4.9,4,11.1-0.8,11.4-1c0.2-0.2,0.5-0.2,0.8-0.1c0.3,0.1,0.4,0.4,0.4,0.7l-0.5,11.7
		C234.7,440.7,234.3,441,233.9,441z M203,439.5h30.2l0.4-9.5c-2.3,1.4-7.4,3.6-11.8,0.3C219.9,430.2,205.4,429.6,203,439.5z"></path><line class="st3" x1="180.8" y1="193.7" x2="196.9" y2="269.7"></line><path class="st0" d="M196.9,270.5c-0.4,0-0.7-0.2-0.7-0.6l-16.1-76c-0.1-0.4,0.1-0.8,0.5-0.9c0.4-0.1,0.8,0.1,0.9,0.5
		c0,0,0,0.1,0,0.1l16.1,76c0.1,0.4-0.2,0.8-0.6,0.9C197,270.5,196.9,270.5,196.9,270.5z"></path><path class="st0" d="M276,206h-0.2c-0.2,0-0.4-0.1-0.5-0.3l-9-12.9c-0.2-0.3-0.2-0.8,0.2-1c0.3-0.2,0.8-0.2,1,0.2l8.8,12.6
		c0.5,0,1-0.3,1.4-0.6c0.3-0.2,0.8-0.1,1,0.2c0.2,0.3,0.2,0.7,0,0.9C277.9,205.7,277,206,276,206z"></path><path class="st0" d="M199.1,192.2c-0.3,0-0.6-0.2-0.7-0.5l-4.7-11.8c-0.1-0.3,0-0.6,0.2-0.8c0.1-0.1,6.4-6.7,12.6-12
		c7-5.9,15-7.6,18.4-8.3l0.9-0.2c0.4-0.1,0.8,0.1,0.9,0.5c0.1,0.4-0.1,0.8-0.5,0.9c0,0-0.1,0-0.1,0l-1,0.2
		c-3.3,0.7-11.1,2.2-17.8,7.9c-5.4,4.6-10.8,10.1-12.1,11.5l4.5,11.3c0.2,0.4,0,0.8-0.4,1c0,0,0,0,0,0
		C199.3,192.1,199.2,192.2,199.1,192.2z"></path></g><g id="Plant"><path class="st0" d="M150.4,308.7c0,0-1.7,12.6,0.4,17.1s2.4,3.7,1.4,12.2s0.7,9.4,4.1,12.9c2.4,2.5,2.5,5.9,2.4,9.2
		s2.8,6.6,2.9,8.9l-0.6-24.9l-4.2-30L150.4,308.7z"></path><path class="st0" d="M162.7,362.5c-0.1-2.5,4.5-5.2,4.8-8.6c0.6-5.9-2.7-12.6-2.5-13.2c1.2-3.1,1.6-6.9-0.3-9.7
		c-0.8-1.2-1.9-2.1-2.5-3.4c-1.7-3.6,1.5-8.1-0.1-11.8c-0.9-2.1-3.2-3.2-5.3-4.2l-6.5-3c1.9,3.9,3.4,8,4.7,12.2
		c1.5,5.3,3.3,16.3,3.3,16.3c0.2,0.7,2,12.5,3,26.3c1.3,17.9,1.8,39.8,1,50.6l1,0.1C164.3,400.7,163.5,378.2,162.7,362.5"></path><path class="st0" d="M158,383.9c0.4-0.3,0.8-0.7,1-1.2c1.9-3.4,2.8-7.2,2.6-11.1l0,0c0-1.7-0.5-3.4-1.4-4.8
		c-0.9-0.9-1.7-1.9-2.4-2.9c-1.1-1.9-0.6-4.3-1-6.5c-0.3-1.8-1.3-3.4-2.7-4.6c-1.2-1.1-2.8-1.7-3.9-2.8c-1.9-1.8-2.7-4.5-3.9-6.9
		c-1.7-3.3-4.4-6.1-7.8-7.8c2.2,3.8-1.8,9.1,0.5,12.8c0.7,1.2,2,2,2.6,3.2c1.4,3-2.1,6.8-0.6,9.8c0.7,1.5,2.5,2.3,3.4,3.7
		c1.2,1.9,0.6,4.4,0.8,6.6c0.4,3.1,2.5,5.7,4.9,7.7c1.5,1.2,3.1,2.3,4.8,3.4c0.7,0.6,1.5,1.1,2.3,1.6c0.8,3.7,5.8,26.6,7.4,33.4l0,0
		l0.9-0.2C163.8,410.4,158.9,387.9,158,383.9z"></path><path class="st0" d="M179.6,353.6c0.3-0.7,0.7-1.3,1.1-1.9c1.6-2.4,1.6-5.6,0.6-8.3c-1.1-2.7-2.6-5.2-4.5-7.4
		c-0.3,4.1-1.9,8.1-4.7,11.1c-1.2,1.3-2.7,2.6-3.1,4.3s0.6,3.6,0.4,5.5c-0.3,2.8-3.1,4.6-4.2,7.2c-1,2.3-0.6,4.9,0,7.3l0,0
		c0.5,2.1,1.3,4.2,1.8,6.3c0.2,1,0.3,1.7,0.8,1.9c-2.1,8.6-4.9,35.3-5,43h0.9c0.1-10.7,3.3-35.6,5-43l0.5-0.1
		c3.2-0.9,5.5-3.6,5.8-6.9c0-0.9,0.1-1.8,0.3-2.7c0.8-2.4,3.8-3.2,5.4-5.2c1.3-1.7,1.5-4.1,0.6-6C180.5,357,179,355.3,179.6,353.6z"></path><polygon class="st1" points="165.7,420.9 165.7,420.9 165.7,420.9 	"></polygon><path class="st0" d="M165.7,421.6c-0.1,0-0.2,0-0.3,0c-0.4-0.2-0.5-0.6-0.4-1c0.1-0.3,0.4-0.4,0.7-0.4c0.4,0,0.7,0.3,0.7,0.8
		c0,0.2-0.1,0.4-0.2,0.5l0,0C166.1,421.5,165.9,421.6,165.7,421.6z"></path><path class="st1" d="M152.6,393.8H174l-1.5,24.2c-0.3,4.2-3.4,7.5-7.1,7.5h-4.1c-3.8,0-6.9-3.3-7.1-7.5L152.6,393.8z"></path><path class="st0" d="M165.4,426.2h-4.1c-4.1,0-7.6-3.6-7.9-8.1l-1.5-24.2c0-0.4,0.3-0.8,0.7-0.8c0,0,0,0,0,0H174
		c0.2,0,0.4,0.1,0.6,0.2c0.1,0.2,0.2,0.4,0.2,0.6l-1.5,24.2C172.9,422.6,169.5,426.2,165.4,426.2z M153.4,394.6l1.5,23.4
		c0.2,3.8,3,6.8,6.4,6.8h4.1c3.3,0,6.1-3,6.4-6.8l1.4-23.4L153.4,394.6z"></path></g><g id="Tools"><circle class="st0" cx="152.7" cy="103.8" r="25.3"></circle><circle class="st0" cx="385.7" cy="106" r="38"></circle><circle class="st0" cx="87.4" cy="182.2" r="20.4"></circle><circle class="st1" cx="84.5" cy="289.2" r="38.8"></circle><path class="st0" d="M84.5,328.8c-21.8,0-39.6-17.6-39.6-39.5c0-21.8,17.6-39.6,39.5-39.6c21.8,0,39.6,17.6,39.6,39.5c0,0,0,0,0,0
		C124,311.1,106.3,328.7,84.5,328.8z M84.5,251.2c-21,0-38,17-38,38c0,21,17,38,38,38s38-17,38-38l0,0
		C122.5,268.3,105.5,251.3,84.5,251.2z"></path><circle class="st0" cx="362.3" cy="289.2" r="47.1"></circle><path class="st2" d="M85.6,189.2c-0.2,0-0.4-0.1-0.5-0.2l-8.6-8.5c-0.3-0.3-0.3-0.8,0-1.1c0.3-0.3,0.8-0.3,1,0c0,0,0,0,0,0l8.1,7.9
		l23.1-23.1c0.3-0.3,0.8-0.3,1.1,0c0.3,0.3,0.3,0.7,0,1L86.1,189C86,189.1,85.8,189.2,85.6,189.2z"></path><path class="st2" d="M118.3,289.3c0,18.7-15.1,33.8-33.7,33.8c-13.8,0-26.2-8.3-31.4-21.1l16.2-12.3l17.5,12.7l30.3-21.5
		C117.9,283.7,118.3,286.5,118.3,289.3z"></path><rect class="st0" x="135.5" y="69.3" width="31.5" height="6.8"></rect><path class="st0" d="M167,76.8h-31.5c-0.4,0-0.8-0.3-0.8-0.8v-6.8c0-0.4,0.3-0.8,0.8-0.8H167c0.4,0,0.7,0.3,0.8,0.8v6.8
		C167.7,76.5,167.4,76.8,167,76.8z M136.2,75.3h30v-5.3h-30V75.3z"></path><rect class="st1" x="141.1" y="67" width="29" height="35.3"></rect><path class="st0" d="M170.1,103h-29c-0.4,0-0.7-0.3-0.8-0.8V67c0-0.4,0.3-0.7,0.8-0.8h29c0.4,0,0.8,0.3,0.8,0.8v35.3
		C170.8,102.7,170.5,103,170.1,103z M141.9,101.5h27.5V67.8h-27.5V101.5z"></path><rect class="st1" x="141.1" y="69.1" width="29" height="35.3"></rect><path class="st0" d="M170.1,105.1h-29c-0.4,0-0.8-0.3-0.8-0.8V69.1c0-0.4,0.3-0.7,0.8-0.8h29c0.4,0,0.8,0.3,0.8,0.8v35.2
		C170.9,104.8,170.5,105.1,170.1,105.1C170.1,105.1,170.1,105.1,170.1,105.1z M141.9,103.6h27.5V69.9h-27.5V103.6z"></path><rect class="st1" x="141.1" y="71.3" width="29" height="35.3"></rect><path class="st0" d="M170.1,107.3h-29c-0.4,0-0.8-0.3-0.8-0.8V71.3c0-0.4,0.3-0.8,0.8-0.8h29c0.4,0,0.7,0.3,0.8,0.7c0,0,0,0,0,0
		v35.2C170.9,106.9,170.5,107.3,170.1,107.3C170.1,107.3,170.1,107.3,170.1,107.3z M141.9,105.8h27.5V72h-27.5V105.8z"></path><polygon class="st1" points="171.4,114.9 135.5,114.9 135.5,76.1 167.8,76.1 167.8,98.5 171.4,101.7 	"></polygon><path class="st0" d="M171.4,115.7h-35.9c-0.4,0-0.8-0.3-0.8-0.8l0,0V76.1c0-0.4,0.3-0.7,0.7-0.8c0,0,0,0,0,0h32.3
		c0.4,0,0.7,0.3,0.8,0.7c0,0,0,0,0,0v22.1l3.4,3c0.2,0.1,0.3,0.3,0.3,0.6v13.2C172.1,115.3,171.8,115.7,171.4,115.7z M136.2,114.2
		h34.4v-12.1l-3.4-3c-0.2-0.1-0.3-0.3-0.2-0.6V76.8h-30.8V114.2z"></path><rect class="st2" x="141.4" y="82.2" width="22.2" height="8.9"></rect><path class="st1" d="M423.7,67.4c-12-12.6-31.9-13-44.5-1c-12.6,12-13,31.9-1,44.5c12,12.6,31.9,13,44.5,1c0,0,0,0,0,0
		C435.2,99.9,435.7,80,423.7,67.4z M417.1,106.1c-9.3,8.9-24.2,8.6-33.1-0.7s-8.6-24.2,0.7-33.1c9.3-8.9,24.1-8.6,33.1,0.7
		C426.8,82.3,426.5,97.2,417.1,106.1z"></path><path class="st0" d="M401,121.4c-17.8,0-32.2-14.4-32.2-32.2S383.2,57,401,57c17.8,0,32.2,14.4,32.2,32.2c0,8.8-3.6,17.2-9.9,23.3
		C417.3,118.2,409.3,121.4,401,121.4z M401,58.5c-17,0-30.7,13.7-30.8,30.6s13.7,30.7,30.6,30.8c17,0,30.7-13.7,30.8-30.6
		c0-7.9-3-15.5-8.5-21.3C417.3,61.9,409.3,58.5,401,58.5L401,58.5z M401,113.3c-13.3,0-24.1-10.8-24.1-24.1s10.8-24.1,24.1-24.1
		c13.3,0,24.1,10.8,24.1,24.1c0,6.6-2.7,12.9-7.4,17.4C413.2,111,407.2,113.3,401,113.3z M401,66.5c-12.8,0.1-23.1,10.6-22.9,23.4
		s10.6,23.1,23.4,22.9c12.8-0.1,23.1-10.6,22.9-23.4c-0.1-12.6-10.3-22.8-22.9-22.9H401z"></path><circle class="st1" cx="401.3" cy="88.9" r="25"></circle><path class="st0" d="M401.3,114.6c-14.2,0-25.8-11.5-25.8-25.8c0-14.2,11.5-25.8,25.8-25.8c14.2,0,25.8,11.5,25.8,25.8
		c0,6.8-2.7,13.4-7.5,18.2C414.7,111.9,408.1,114.6,401.3,114.6z M401.3,64.6c-13.4,0-24.2,10.9-24.2,24.3
		c0,13.4,10.9,24.2,24.3,24.2c13.4,0,24.2-10.9,24.2-24.3c0-6.4-2.6-12.6-7.1-17.1C413.9,67.2,407.7,64.6,401.3,64.6L401.3,64.6z"></path><circle class="st1" cx="397.2" cy="79.3" r="9.6"></circle><path class="st0" d="M397.2,89.6c-5.7,0-10.3-4.6-10.3-10.3c0-5.7,4.6-10.3,10.3-10.3c5.7,0,10.3,4.6,10.3,10.3
		c0,2.7-1.1,5.4-3,7.3C402.6,88.5,400,89.6,397.2,89.6z M397.2,70.5c-4.9,0-8.8,3.9-8.8,8.8c0,4.9,3.9,8.8,8.8,8.8s8.8-3.9,8.8-8.8
		c0-2.3-0.9-4.6-2.6-6.2C401.8,71.4,399.6,70.5,397.2,70.5z"></path><circle class="st1" cx="385.1" cy="88.1" r="2.6"></circle><path class="st0" d="M385.1,91.4c-0.9,0-1.7-0.4-2.4-1c-1.3-1.3-1.3-3.4,0-4.7c1.3-1.3,3.4-1.3,4.7,0c1.3,1.3,1.3,3.4,0,4.7
		C386.8,91,386,91.4,385.1,91.4z M385.1,86.3c-1,0-1.8,0.8-1.8,1.8c0,0.5,0.2,0.9,0.5,1.3c0.7,0.7,1.9,0.7,2.6,0
		c0.7-0.7,0.7-1.9,0-2.6C386,86.5,385.6,86.3,385.1,86.3L385.1,86.3z"></path><path class="st1" d="M345,145.1L345,145.1c-2.9-2.8-2.9-7.5,0-10.3c0,0,0,0,0,0l21.3-21.3l10.3,10.3l-21.3,21.3
		C352.5,148,347.9,148,345,145.1z"></path><path class="st0" d="M350.2,148c-2.1,0-4.2-0.8-5.7-2.4l0,0c-3.1-3.2-3.1-8.2,0-11.4l21.3-21.3c0.3-0.3,0.8-0.3,1.1,0l10.3,10.3
		c0.3,0.3,0.3,0.8,0,1c0,0,0,0,0,0l-21.3,21.3C354.4,147.2,352.3,148,350.2,148z M345.6,144.6c2.6,2.6,6.7,2.6,9.3,0l20.8-20.8
		l-9.3-9.3l-20.8,20.8C343,137.9,343,142,345.6,144.6z"></path><path class="st2" d="M375.3,106.1l8.7,8.7c1.1,1.1,1.1,2.9,0,4.1l-5.4,5.4c-1.1,1.1-2.9,1.1-4.1,0l-8.7-8.7c-1.1-1.1-1.1-2.9,0-4.1
		l5.4-5.4C372.3,105,374.2,105,375.3,106.1z"></path><path class="st0" d="M376.5,126c-1,0-1.9-0.4-2.5-1.1l-8.8-8.7c-1.4-1.4-1.4-3.7,0-5.1l5.5-5.4c1.4-1.4,3.7-1.4,5.1,0l8.8,8.8
		c1.4,1.4,1.4,3.7,0,5.1l-5.4,5.4C378.5,125.6,377.5,126,376.5,126z M373.2,106c-0.6,0-1.1,0.2-1.5,0.6l-5.4,5.4
		c-0.8,0.8-0.8,2.2,0,3l8.7,8.7l0,0c0.8,0.8,2.2,0.8,3,0l5.4-5.4c0.4-0.4,0.6-0.9,0.6-1.5c0-0.6-0.2-1.1-0.6-1.5l-8.8-8.8
		C374.3,106.2,373.8,106,373.2,106z"></path><path class="st1" d="M344,240.5h65.3c4.9,0,8.8,4,8.8,8.8v62.1c0,4.9-4,8.8-8.8,8.8H344c-4.9,0-8.8-4-8.8-8.8v-62.1
		C335.1,244.5,339.1,240.5,344,240.5z"></path><path class="st0" d="M409.2,321H344c-5.3,0-9.6-4.3-9.6-9.6v-62.1c0-5.3,4.3-9.6,9.6-9.6h65.2c5.3,0,9.6,4.3,9.6,9.6v62.1
		C418.8,316.7,414.5,321,409.2,321C409.2,321,409.2,321,409.2,321z M344,241.2c-4.5,0-8.1,3.6-8.1,8.1v62.1c0,4.5,3.6,8.1,8.1,8.1
		h65.2c4.5,0,8.1-3.6,8.1-8.1v-62.1c0-4.5-3.6-8.1-8.1-8.1H344z"></path><circle class="st1" cx="348.5" cy="251.1" r="2.5"></circle><path class="st0" d="M347.4,253.9c-1.8,0-3.2-1.5-3.2-3.3c0-1.8,1.5-3.2,3.2-3.2s3.2,1.5,3.2,3.3c0,0,0,0,0,0
		C350.6,252.5,349.2,253.9,347.4,253.9z M347.4,248.9c-1,0-1.8,0.8-1.8,1.8s0.8,1.8,1.8,1.8s1.8-0.8,1.8-1.8
		C349.1,249.7,348.4,248.9,347.4,248.9L347.4,248.9z"></path><circle class="st1" cx="362" cy="250.6" r="2.5"></circle><path class="st0" d="M362,253.9c-1.8,0-3.2-1.5-3.2-3.3c0-1.8,1.5-3.2,3.2-3.2s3.2,1.5,3.2,3.3c0,0,0,0,0,0
		C365.2,252.4,363.8,253.9,362,253.9C362,253.9,362,253.9,362,253.9z M362,248.9c-1,0-1.8,0.8-1.8,1.8s0.8,1.8,1.8,1.8
		s1.8-0.8,1.8-1.8C363.8,249.7,363,248.9,362,248.9C362,248.9,362,248.9,362,248.9L362,248.9z"></path><circle class="st1" cx="376.6" cy="250.7" r="2.5"></circle><path class="st0" d="M376.6,253.9c-1.8,0-3.3-1.4-3.3-3.2s1.4-3.3,3.2-3.3s3.3,1.4,3.3,3.2c0,0,0,0,0,0
		C379.8,252.4,378.4,253.9,376.6,253.9z M376.6,248.9c-1,0-1.8,0.8-1.8,1.7c0,1,0.8,1.8,1.7,1.8c1,0,1.8-0.8,1.8-1.7c0,0,0,0,0,0
		C378.3,249.7,377.6,248.9,376.6,248.9L376.6,248.9z"></path><circle class="st1" cx="391.2" cy="250.7" r="2.5"></circle><path class="st0" d="M391.2,253.9c-1.8,0-3.2-1.5-3.2-3.3c0-1.8,1.5-3.2,3.2-3.2s3.2,1.5,3.2,3.3c0,0,0,0,0,0
		C394.5,252.5,393,253.9,391.2,253.9z M391.2,248.9c-1,0-1.8,0.8-1.8,1.8s0.8,1.8,1.8,1.8s1.8-0.8,1.8-1.8
		C393,249.7,392.2,248.9,391.2,248.9L391.2,248.9z"></path><circle class="st1" cx="405.8" cy="250.7" r="2.5"></circle><path class="st0" d="M405.8,253.9c-1.8,0-3.2-1.5-3.2-3.3c0-1.8,1.5-3.2,3.2-3.2s3.2,1.5,3.2,3.3c0,0,0,0,0,0
		C409.1,252.4,407.6,253.9,405.8,253.9C405.8,253.9,405.8,253.9,405.8,253.9z M405.8,248.9c-1,0-1.8,0.8-1.8,1.8s0.8,1.8,1.8,1.8
		s1.8-0.8,1.8-1.8C407.6,249.7,406.8,248.9,405.8,248.9C405.8,248.9,405.8,248.9,405.8,248.9L405.8,248.9z"></path><path class="st0" d="M345.6,270.1h3.6c1.3,0,2.4,1.1,2.4,2.4v3.6c0,1.3-1.1,2.4-2.4,2.4h-3.6c-1.3,0-2.4-1.1-2.4-2.4v-3.6
		C343.2,271.1,344.3,270.1,345.6,270.1z"></path><path class="st2" d="M360.2,270.1h3.6c1.3,0,2.4,1.1,2.4,2.4v3.6c0,1.3-1.1,2.4-2.4,2.4h-3.6c-1.3,0-2.4-1.1-2.4-2.4v-3.6
		C357.9,271.1,358.9,270.1,360.2,270.1z"></path><path class="st0" d="M374.8,270.1h3.6c1.3,0,2.4,1.1,2.4,2.4v3.6c0,1.3-1.1,2.4-2.4,2.4h-3.6c-1.3,0-2.4-1.1-2.4-2.4v-3.6
		C372.5,271.1,373.5,270.1,374.8,270.1z"></path><path class="st0" d="M389.4,270.1h3.6c1.3,0,2.4,1.1,2.4,2.4v3.6c0,1.3-1.1,2.4-2.4,2.4h-3.6c-1.3,0-2.4-1.1-2.4-2.4v-3.6
		C387.1,271.1,388.1,270.1,389.4,270.1z"></path><path class="st0" d="M404,270.1h3.6c1.3,0,2.4,1.1,2.4,2.4v3.6c0,1.3-1.1,2.4-2.4,2.4H404c-1.3,0-2.4-1.1-2.4-2.4v-3.6
		C401.7,271.1,402.7,270.1,404,270.1z"></path><path class="st0" d="M345.6,284.9h3.6c1.3,0,2.4,1.1,2.4,2.4v3.6c0,1.3-1.1,2.4-2.4,2.4h-3.6c-1.3,0-2.4-1.1-2.4-2.4v-3.6
		C343.2,285.9,344.3,284.9,345.6,284.9z"></path><path class="st0" d="M360.2,284.9h3.6c1.3,0,2.4,1.1,2.4,2.4v3.6c0,1.3-1.1,2.4-2.4,2.4h-3.6c-1.3,0-2.4-1.1-2.4-2.4v-3.6
		C357.9,285.9,358.9,284.9,360.2,284.9z"></path><path class="st2" d="M374.8,284.9h3.6c1.3,0,2.4,1.1,2.4,2.4v3.6c0,1.3-1.1,2.4-2.4,2.4h-3.6c-1.3,0-2.4-1.1-2.4-2.4v-3.6
		C372.5,285.9,373.5,284.9,374.8,284.9z"></path><path class="st0" d="M389.4,284.9h3.6c1.3,0,2.4,1.1,2.4,2.4v3.6c0,1.3-1.1,2.4-2.4,2.4h-3.6c-1.3,0-2.4-1.1-2.4-2.4v-3.6
		C387.1,285.9,388.1,284.9,389.4,284.9z"></path><path class="st0" d="M404,284.9h3.6c1.3,0,2.4,1.1,2.4,2.4v3.6c0,1.3-1.1,2.4-2.4,2.4H404c-1.3,0-2.4-1.1-2.4-2.4v-3.6
		C401.7,285.9,402.7,284.9,404,284.9z"></path><path class="st2" d="M345.6,299.6h3.6c1.3,0,2.4,1.1,2.4,2.4v3.6c0,1.3-1.1,2.4-2.4,2.4h-3.6c-1.3,0-2.4-1.1-2.4-2.4V302
		C343.2,300.7,344.3,299.6,345.6,299.6z"></path><path class="st2" d="M360.2,299.6h3.6c1.3,0,2.4,1.1,2.4,2.4v3.6c0,1.3-1.1,2.4-2.4,2.4h-3.6c-1.3,0-2.4-1.1-2.4-2.4V302
		C357.9,300.7,358.9,299.6,360.2,299.6z"></path><path class="st0" d="M374.8,299.6h3.6c1.3,0,2.4,1.1,2.4,2.4v3.6c0,1.3-1.1,2.4-2.4,2.4h-3.6c-1.3,0-2.4-1.1-2.4-2.4V302
		C372.5,300.7,373.5,299.6,374.8,299.6z"></path><path class="st0" d="M389.4,299.6h3.6c1.3,0,2.4,1.1,2.4,2.4v3.6c0,1.3-1.1,2.4-2.4,2.4h-3.6c-1.3,0-2.4-1.1-2.4-2.4V302
		C387.1,300.7,388.1,299.6,389.4,299.6z"></path><path class="st0" d="M404,299.6h3.6c1.3,0,2.4,1.1,2.4,2.4v3.6c0,1.3-1.1,2.4-2.4,2.4H404c-1.3,0-2.4-1.1-2.4-2.4V302
		C401.7,300.7,402.7,299.6,404,299.6z"></path><path class="st1" d="M356.6,297.5l-1.9-8.3c4.2-7.8,1.3-17.5-6.5-21.7s-17.5-1.3-21.7,6.5c-4.2,7.8-1.3,17.5,6.5,21.7
		c4.5,2.4,9.9,2.5,14.5,0.3l7.9,2.5c0.5,0.2,1-0.1,1.2-0.6C356.6,297.8,356.6,297.6,356.6,297.5z"></path><path class="st0" d="M355.7,299.4c-0.2,0-0.3,0-0.5-0.1l-7.6-2.4c-8.4,3.8-18.3,0.1-22.2-8.3c-3.8-8.4-0.1-18.3,8.3-22.2
		c8.4-3.8,18.3-0.1,22.2,8.3c2.1,4.7,2,10.1-0.3,14.6l1.8,8c0.1,0.6,0,1.2-0.5,1.6C356.5,299.2,356.1,299.4,355.7,299.4z
		 M347.5,295.3c0.1,0,0.1,0,0.2,0l7.9,2.5c0.1,0,0.1,0,0.2,0c0,0,0.1-0.1,0-0.2l0,0l-1.9-8.3c0-0.2,0-0.4,0.1-0.5
		c4-7.4,1.2-16.7-6.2-20.7c-7.4-4-16.7-1.2-20.7,6.2c-4,7.4-1.2,16.7,6.2,20.7c4.3,2.3,9.5,2.4,13.9,0.3
		C347.3,295.3,347.4,295.3,347.5,295.3z"></path><path class="st2" d="M339,283.8l-0.5-7.5c-0.1-1.5-0.1-2.5-0.1-3.1c0-0.7,0.2-1.4,0.7-2c0.5-0.5,1.1-0.8,1.8-0.7
		c0.7-0.1,1.4,0.3,1.8,0.9c0.3,0.9,0.5,1.8,0.5,2.7c0,0.7,0,1.4-0.1,2.1l-0.7,7.7c0,0.7-0.2,1.4-0.5,2.1c-0.2,0.5-0.7,0.8-1.2,0.7
		c-0.5,0-1-0.2-1.2-0.7C339.2,285.3,339,284.6,339,283.8z"></path><path class="st2" d="M340.7,293.1c-0.6,0-1.2-0.2-1.7-0.6c-0.5-0.4-0.8-1.1-0.7-1.7c0-1.3,1-2.3,2.3-2.3c0,0,0,0,0,0
		c0.6,0,1.2,0.2,1.7,0.7c0.9,0.9,0.9,2.4,0,3.4c0,0,0,0,0,0C341.9,292.9,341.3,293.1,340.7,293.1z"></path><circle class="st1" cx="418.1" cy="303.1" r="23.9"></circle><path class="st0" d="M418.1,327.7c-13.6,0-24.7-11-24.7-24.7c0-13.6,11-24.7,24.7-24.7c13.6,0,24.7,11,24.7,24.7c0,0,0,0,0,0
		C442.7,316.7,431.7,327.7,418.1,327.7z M418.1,279.9c-12.8,0-23.2,10.4-23.2,23.2s10.4,23.2,23.2,23.2s23.2-10.4,23.2-23.2
		c0,0,0,0,0,0C441.2,290.3,430.8,279.9,418.1,279.9L418.1,279.9z"></path><circle class="st0" cx="418.1" cy="286.4" r="1.1"></circle><path class="st0" d="M410.7,288.1c0.3,0.5,0.1,1.2-0.4,1.5c0,0,0,0,0,0c-0.5,0.3-1.2,0.1-1.5-0.4c-0.3-0.5-0.1-1.2,0.4-1.5
		C409.7,287.4,410.4,287.5,410.7,288.1C410.7,288.1,410.7,288.1,410.7,288.1z"></path><path class="st0" d="M404.2,293.8c0.5,0.3,0.7,1,0.4,1.5c-0.3,0.5-1,0.7-1.5,0.4s-0.7-1-0.4-1.5C403,293.6,403.6,293.5,404.2,293.8
		z"></path><circle class="st0" cx="401.4" cy="303.1" r="1.1"></circle><path class="st0" d="M403.1,310.5c0.5-0.3,1.2-0.1,1.5,0.4s0.1,1.2-0.4,1.5l0,0c-0.5,0.3-1.2,0.1-1.5-0.4S402.5,310.8,403.1,310.5z
		"></path><path class="st0" d="M408.8,317c0.3-0.5,1-0.7,1.5-0.4c0.5,0.3,0.7,1,0.4,1.5c-0.3,0.5-1,0.7-1.5,0.4c0,0,0,0,0,0
		C408.6,318.2,408.5,317.5,408.8,317C408.8,317,408.8,317,408.8,317z"></path><circle class="st0" cx="418.1" cy="319.7" r="1.1"></circle><path class="st0" d="M425.5,318.1c-0.3-0.5-0.1-1.2,0.4-1.5c0.5-0.3,1.2-0.1,1.5,0.4c0.3,0.5,0.1,1.2-0.4,1.5c0,0,0,0,0,0
		C426.4,318.8,425.8,318.6,425.5,318.1C425.5,318.1,425.5,318.1,425.5,318.1z"></path><path class="st0" d="M432,312.4c-0.5-0.3-0.7-1-0.4-1.5c0.3-0.5,1-0.7,1.5-0.4c0.5,0.3,0.7,1,0.4,1.5c0,0,0,0,0,0
		C433.2,312.5,432.5,312.7,432,312.4z"></path><circle class="st0" cx="434.7" cy="303.1" r="1.1"></circle><path class="st0" d="M433.1,295.7c-0.5,0.3-1.2,0.1-1.5-0.4c-0.3-0.5-0.1-1.2,0.4-1.5s1.2-0.1,1.5,0.4l0,0
		C433.8,294.7,433.6,295.4,433.1,295.7z"></path><path class="st0" d="M427.4,289.2c-0.3,0.5-1,0.7-1.5,0.4c-0.5-0.3-0.7-1-0.4-1.5s1-0.7,1.5-0.4l0,0
		C427.5,288,427.7,288.6,427.4,289.2C427.4,289.2,427.4,289.2,427.4,289.2z"></path><circle class="st1" cx="418.1" cy="303.1" r="2.1"></circle><path class="st0" d="M418.1,305.9c-1.6,0-2.9-1.3-2.9-2.9s1.3-2.9,2.9-2.9s2.9,1.3,2.9,2.9v0C420.9,304.6,419.6,305.9,418.1,305.9z
		 M418.1,301.7c-0.8,0-1.4,0.6-1.4,1.4s0.6,1.4,1.4,1.4s1.4-0.6,1.4-1.4v0C419.4,302.3,418.8,301.7,418.1,301.7z"></path><path class="st0" d="M414.2,261.7H339c-0.4,0-0.8-0.3-0.8-0.8s0.3-0.8,0.8-0.8h75.2c0.4,0,0.8,0.3,0.8,0.8S414.7,261.7,414.2,261.7
		L414.2,261.7z"></path><path class="st0" d="M418.1,303.8c-0.4,0-0.7-0.3-0.8-0.8v-12.3c0-0.4,0.3-0.8,0.8-0.8s0.8,0.3,0.8,0.8v10.9l5.5-3.7
		c0.3-0.2,0.8-0.1,1,0.2c0.2,0.3,0.1,0.8-0.2,1l0,0l-6.6,4.5C418.4,303.8,418.2,303.8,418.1,303.8z"></path></g></svg>