<svg transform="scale(1)" version="1.1" id="Layer_1" xmlns="http://www.w3.org/2000/svg" xmlns:xlink="http://www.w3.org/1999/xlink" x="0px" y="0px" viewBox="0 0 500 500" xml:space="preserve" class="show_show__wrapper__graphic__5Waiy "><title>React</title><style type="text/css">
	.st0{fill:#343A40;}
	.st1{fill:#FFFFFF;}
	.st2{fill:#F8F9FA;}
	.st3{fill:#212529;}
</style><g id="Arrow"><ellipse class="st0" cx="403.6" cy="231.4" rx="50.6" ry="52.2"></ellipse><path class="st0" d="M403.6,284.1c-28.2,0-51.1-23.6-51.1-52.7s22.9-52.7,51.1-52.7s51.1,23.6,51.1,52.7S431.8,284.1,403.6,284.1
		L403.6,284.1z M403.6,179.7c-27.6,0-50.1,23.2-50.1,51.6S376,283,403.6,283s50.1-23.2,50.1-51.6S431.2,179.7,403.6,179.7
		L403.6,179.7z"></path><ellipse class="st1" cx="397.1" cy="231.4" rx="50.6" ry="52.2"></ellipse><path class="st0" d="M397.1,284c-28.1,0-51-23.6-51-52.6s22.9-52.6,51-52.6s51,23.6,51,52.6S425.2,284,397.1,284z M397.1,179.6
		c-27.7,0-50.2,23.2-50.2,51.8s22.5,51.8,50.2,51.8s50.2-23.2,50.2-51.8S424.8,179.6,397.1,179.6L397.1,179.6z"></path><ellipse class="st2" cx="397.1" cy="231.4" rx="38.8" ry="40"></ellipse><ellipse class="st1" cx="397.1" cy="231.4" rx="27.4" ry="28.3"></ellipse><ellipse class="st2" cx="397.1" cy="231.4" rx="18.1" ry="18.6"></ellipse></g><g id="Character"><path class="st1" d="M256,251.4l13.9-3.9c0,0,4.6-1.9,8.2-3.2s9.6-1.5,13.5-1.4c2,0,3.9,0.8,5.3,2.3c1.8,2.1,1.5,5.3,0.8,8
		c-1,3.6-2.7,7-5,9.9c-0.6,0.9-1.4,1.6-2.3,2.2c-4.8,2.9-13.2,0.2-18.6,0.4c-6.8,0.3-22.4,3.4-23.2,3.4S255.9,251.4,256,251.4
		L256,251.4z"></path><path class="st0" d="M248.7,269.8c-0.2,0-0.5-0.1-0.6-0.3c-0.2-0.4-0.6-1,7.3-18.4c0.1-0.2,0.3-0.3,0.4-0.4l13.9-3.9l0,0
		c0,0,4.6-1.9,8.2-3.1c4.3-1.5,11-1.5,13.7-1.4c2.2,0,4.3,0.9,5.8,2.6c1.6,2,1.9,4.9,1,8.6c-1,3.7-2.7,7.1-5.1,10.1
		c-0.7,0.9-1.5,1.7-2.5,2.4c-3.4,2.1-8.5,1.5-13,1c-2-0.3-3.9-0.4-5.9-0.4c-4.9,0.2-14.4,1.9-19.5,2.8
		C249.7,269.7,248.9,269.8,248.7,269.8L248.7,269.8z M256.5,251.9c-3,6.6-6.2,13.9-7,16.3l2.6-0.5c5.2-0.9,14.8-2.6,19.7-2.8
		c2.1,0,4.1,0.1,6.1,0.4c4.3,0.5,9.1,1.1,12.1-0.8c0.8-0.6,1.6-1.3,2.1-2.1c2.2-2.8,3.9-6.1,4.8-9.6c0.6-2.2,1-5.3-0.7-7.4
		c-1.2-1.3-2.9-2.1-4.7-2.1c-2-0.1-9-0.2-13.2,1.4c-3.6,1.3-8.2,3.1-8.2,3.1L256.5,251.9L256.5,251.9z"></path><polygon class="st0" points="173.3,361.7 183.5,412.5 87.8,415.2 96.8,362 	"></polygon><path class="st0" d="M87.8,415.9c-0.2,0-0.4-0.1-0.5-0.2c-0.1-0.2-0.2-0.4-0.2-0.6l9-53.2c0.1-0.3,0.3-0.6,0.7-0.6l76.5-0.3l0,0
		c0.3,0,0.6,0.2,0.7,0.6l10.2,50.8c0,0.2,0,0.4-0.1,0.6c-0.1,0.2-0.3,0.3-0.5,0.3L87.8,415.9L87.8,415.9L87.8,415.9z M97.4,362.7
		l-8.8,51.8l94.1-2.7l-10-49.4L97.4,362.7L97.4,362.7z"></path><path class="st1" d="M100.3,372.6c0,0,46,0.1,73-10.9c0,0-3.6-78.5-0.6-92.8s-5.6-27-5.6-27l-61.3-7L100.3,372.6L100.3,372.6z"></path><path class="st0" d="M100.3,373.3L100.3,373.3c-0.2,0-0.4-0.1-0.5-0.2c-0.1-0.1-0.2-0.3-0.2-0.5l5.5-137.7c0-0.2,0.1-0.4,0.2-0.5
		c0.1-0.1,0.3-0.2,0.5-0.2l61.3,7c0.2,0,0.4,0.1,0.5,0.3c0.4,0.5,8.6,13.1,5.7,27.5c-2.9,14,0.6,91.9,0.6,92.7
		c0,0.3-0.2,0.6-0.4,0.7C146.9,373.1,101.4,373.2,100.3,373.3L100.3,373.3z M106.4,235.6L101,371.9c5.9,0,46.8-0.8,71.5-10.6
		c-0.3-7.3-3.4-78.7-0.6-92.5c2.6-12.7-4.1-24.3-5.3-26.2L106.4,235.6L106.4,235.6z"></path><path class="st3" d="M162.2,248.6c0,0,5.8,37.2,7.4,58.7s4.5,50.2,4.5,50.2c5.1-12.1,9.2-24.6,12.1-37.4c4.5-20.4,0-47,0-47
		s64.9,1.9,76.7-1.6c0,0,2.1-13.4,0.2-23.6l-132.1-20.5c0,0,16.9,15.6,24.1,18.4L162.2,248.6L162.2,248.6z"></path><path class="st3" d="M130.8,234.9c0,0-54.7-20.9-71-16.3c-5.5,1.8-10.2,5.5-13.2,10.6c-7.8,13.9,20.1,39.6,34.6,65.3
		c10.5,18.7,8.2,40.5,8.9,43.5c1.7,7-23,10.4-28.8,26s13.2,44.8,13.2,44.8s44.8-8.4,59.6-50.6S130.9,234.9,130.8,234.9L130.8,234.9z
		"></path><path class="st1" d="M117.3,217c-8.8-3.4-12.7-14.2-14.4-22.7c-2-9.7-4.5-17.6,0-27.2c1-2.2,2.6-4.5,5-4.9c0.6,0,1.1-0.2,1.7-0.4
		c0.4-0.4,0.8-0.8,1-1.4c6.4-12.4,21.8-11.6,33.2-8.9c6.6,1.6,15.1,5.3,16.6,12.3c2.9,12.9-1.4,26.5-9.2,36.9
		C143.8,210.4,130.4,222,117.3,217L117.3,217z"></path><path class="st0" d="M123.8,218.9c-2.3,0-4.5-0.4-6.7-1.2c-9.1-3.5-13.1-14.6-14.9-23.2c-0.2-1.1-0.5-2.2-0.7-3.2
		c-1.8-8.4-3.4-15.7,0.8-24.4c1.5-3.1,3.3-4.9,5.5-5.3l0.5-0.1c0.3,0,0.7-0.1,1-0.3c0.3-0.3,0.5-0.6,0.7-1
		c6.6-12.9,22.2-12.2,34.1-9.4c4.5,1.1,15.3,4.4,17.1,12.8c2.7,12.3-0.7,25.9-9.4,37.4C144.8,210.2,134.3,218.8,123.8,218.9
		L123.8,218.9z M131,150.5c-8,0-15.8,2.4-19.8,10.2c-0.2,0.6-0.7,1.2-1.2,1.6c-0.5,0.3-1,0.4-1.5,0.5l-0.4,0.1
		c-1.7,0.3-3.2,1.9-4.5,4.6c-3.9,8.3-2.4,15.3-0.7,23.5c0.2,1.1,0.5,2.2,0.7,3.3c1.7,8.3,5.5,18.9,14,22.2l0,0
		c11.9,4.6,24.9-5.4,33-16.2c8.4-11.2,11.8-24.4,9.1-36.3c-1.7-7.6-11.8-10.8-16.1-11.8C139.5,151.1,135.3,150.6,131,150.5
		L131,150.5z"></path><path class="st1" d="M159.9,194.4c0,0,8.7,12.7,7,15.4s-7.6,1-7.6,1"></path><path class="st0" d="M163,212.1c-1.3,0-2.6-0.2-3.9-0.5c-0.4-0.1-0.6-0.4-0.6-0.8c0.1-0.4,0.4-0.6,0.8-0.6c0,0,0.1,0,0.1,0
		c1.5,0.4,5.6,1.1,6.8-0.7c0.9-1.4-2.9-8.7-7-14.6c-0.2-0.3-0.2-0.7,0.1-1c0.3-0.2,0.7-0.2,1,0.1c0,0,0,0.1,0.1,0.1
		c1.5,2.2,8.9,13.2,7,16.2C166.6,211.7,164.7,212.1,163,212.1L163,212.1z"></path><path class="st1" d="M157.8,177.5c5.5,4.3,4,13.7,4.1,19.8c0.1,8.5-0.1,17.1-0.4,25.6c-0.2,5.4-14.2,5.7-16.7,4.2l2.5,21.3
		l-29.6-10.9l0.6-24.7c0,0,9.3-0.1,14.6-11.2s4.8-28,4.8-28S152.5,173.3,157.8,177.5L157.8,177.5z"></path><path class="st0" d="M147.3,249c-0.1,0-0.2,0-0.2,0l-29.6-10.9c-0.3-0.1-0.5-0.4-0.5-0.7l0.6-24.7c0-0.4,0.3-0.7,0.7-0.7
		c0.4,0,8.9-0.2,13.9-10.8c5.2-10.8,4.8-27.6,4.8-27.7c0-0.2,0.1-0.4,0.2-0.5c0.1-0.1,0.3-0.2,0.5-0.2c0.6,0,15.1-0.3,20.6,4.1l0,0
		c4.8,3.8,4.6,11.1,4.4,17c0,1.2-0.1,2.3-0.1,3.3c0.1,8.5-0.1,17.1-0.4,25.6c0,1.1-0.6,2.6-2.9,3.8c-3.7,2-10.6,2.2-13.7,1.4
		l2.4,20.2c0,0.2-0.1,0.5-0.3,0.6C147.6,249,147.5,249,147.3,249L147.3,249z M118.4,237l28.1,10.3l-2.4-20.2c0-0.3,0.1-0.5,0.3-0.7
		c0.2-0.1,0.5-0.1,0.7,0c1.6,1,9.5,1.2,13.5-0.9c1.4-0.7,2.1-1.6,2.1-2.7c0.3-8.5,0.5-17.1,0.4-25.6c0-1,0-2.2,0.1-3.4
		c0.2-5.6,0.4-12.5-3.9-15.9c-4.4-3.5-16.1-3.8-19-3.8c0,3.4-0.1,17.7-4.9,27.7c-4.7,9.8-12.2,11.3-14.5,11.5L118.4,237z"></path><path class="st1" d="M161.2,216.5c0,0-8.3-0.6-9.5-12"></path><path class="st0" d="M161.2,217.2L161.2,217.2c-0.1,0-9-0.8-10.2-12.6c0-0.4,0.2-0.7,0.6-0.8c0,0,0,0,0,0c0.4,0,0.7,0.2,0.8,0.6
		c1.1,10.6,8.5,11.4,8.8,11.4c0.4,0.1,0.6,0.4,0.6,0.8C161.8,216.9,161.6,217.1,161.2,217.2L161.2,217.2z"></path><path class="st1" d="M143.6,200.1c-0.1-2.1-1.3-4-2.5-5.8c-0.8-1.4-1.9-2.7-3.1-3.8c-1.3-1.1-3-1.6-4.6-1.3
		c-1.4,0.4-2.6,1.4-3.3,2.7c-0.7,1.3-1,2.8-1,4.2c-0.2,6.5,3.1,12.7,8.7,16.1l-0.5-0.5"></path><path class="st0" d="M137.8,212.9c-0.1,0-0.3,0-0.4-0.1c-5.8-3.6-9.2-10-9-16.7c0-1.6,0.4-3.1,1.1-4.6c0.8-1.5,2.1-2.6,3.8-3
		c1.9-0.3,3.8,0.2,5.2,1.5c1.3,1.2,2.4,2.5,3.3,4c1.1,1.7,2.5,3.8,2.6,6.2c0,0.4-0.3,0.7-0.7,0.7c-0.4,0-0.7-0.3-0.7-0.7
		c0,0,0,0,0,0c-0.1-2-1.3-3.9-2.4-5.5c-0.8-1.4-1.8-2.6-3-3.7c-1.1-1-2.6-1.4-4-1.2c-1.2,0.3-2.3,1.2-2.9,2.4
		c-0.6,1.2-0.9,2.6-0.9,3.9c-0.1,5.9,2.6,11.5,7.4,14.9c0.2,0,0.4,0.1,0.6,0.2l0.5,0.5c0.2,0.3,0.2,0.6,0,0.9
		C138.2,212.9,138,213,137.8,212.9L137.8,212.9z"></path><path class="st0" d="M144.8,227c0,0-7.3-2.1-10.8-7.1c0,0,0.5,11.3,11.7,14.9L144.8,227L144.8,227z"></path><path class="st0" d="M145.7,235.6h-0.2c-11.5-3.7-12.2-15.4-12.2-15.6c0-0.3,0.2-0.6,0.5-0.7c0.3-0.1,0.6,0,0.8,0.3
		c3.3,4.7,10.3,6.8,10.4,6.8c0.3,0.1,0.5,0.3,0.5,0.6l0.9,7.9c0,0.2-0.1,0.5-0.2,0.6C146.1,235.5,145.9,235.6,145.7,235.6
		L145.7,235.6z M135.1,222.2c1.1,5.3,4.8,9.7,9.8,11.6l-0.7-6.3C140.8,226.4,137.7,224.6,135.1,222.2L135.1,222.2z"></path><ellipse class="st0" transform="matrix(0.1518 -0.9884 0.9884 0.1518 -54.9792 313.1118)" cx="154.9" cy="188.6" rx="3.1" ry="1.2"></ellipse><path class="st0" d="M186.1,273.9c-0.3,0-0.6-0.2-0.7-0.5c0-0.2-3.4-16.5-5.2-20.9c-0.1-0.4,0-0.8,0.4-0.9c0,0,0,0,0,0
		c0.4-0.1,0.8,0,0.9,0.4c1.8,4.4,5.2,20.4,5.3,21.1c0.1,0.4-0.2,0.7-0.5,0.8c0,0,0,0,0,0L186.1,273.9z"></path><path class="st0" d="M150.9,252.2l-6.3,10.2l6,5.1c0,0-7.6,59.2-36.3,73.8l-3.2,24.2l29.8-10.5c0,0,18.3-46.1,12.9-87.9
		c0,0,3.1-4,3.1-4S150.9,252.2,150.9,252.2L150.9,252.2z"></path><path class="st0" d="M111.2,366.2c-0.2,0-0.3-0.1-0.4-0.1c-0.2-0.2-0.3-0.4-0.2-0.6l3.2-24.2c0-0.2,0.2-0.4,0.4-0.5
		c26.9-13.7,35.1-67.9,35.8-72.9l-5.7-4.8c-0.3-0.2-0.3-0.6-0.1-0.9l6.3-10.2c0.1-0.2,0.4-0.3,0.6-0.3c0.2,0,0.5,0.1,0.6,0.4
		c2.3,4.1,5.7,10.3,6,10.7c0,0.1,0.1,0.1,0.1,0.2c0.1,0.3-0.9,1.8-3,4.5c5.3,41.4-12.8,87.5-12.9,88c-0.1,0.2-0.2,0.3-0.4,0.4
		l-29.8,10.6C111.4,366.3,111.3,366.3,111.2,366.2L111.2,366.2z M115,341.8l-3,22.7l28.4-10.1c1.5-4,17.9-47.9,12.7-87.3
		c0-0.2,0-0.4,0.1-0.5c0.9-1.2,2.3-3,2.9-3.7c-0.6-1-2-3.5-5.2-9.4l-5.3,8.7l5.5,4.7c0.2,0.2,0.3,0.4,0.2,0.6
		c-1.6,10.7-4,21.3-7.4,31.6C138.9,314.3,129.8,334,115,341.8L115,341.8z"></path><path class="st0" d="M207.6,421.8c-0.3,0-0.6-0.2-0.7-0.5L166.4,242c0-0.1,0-0.2,0-0.3l40.5-166.1c0.1-0.4,0.5-0.6,0.8-0.5
		c0.4,0.1,0.6,0.5,0.5,0.8l0,0l-40.5,165.9L208.3,421c0.1,0.4-0.1,0.7-0.5,0.8L207.6,421.8L207.6,421.8z"></path><path class="st1" d="M138.2,257.5l1.6-20.7c8.9-2.7,18-4.8,27.2-6.5c12.1-2,18-1.4,19,2.4s-10.6,4.3-10.6,4.3s8.4,0.1,10.3,3.6
		s-9.9,4.3-9.9,4.3c0.4,3.3,0.3,6.6-0.4,9.8c-1.2,4.9-4.7,7.8-8.5,7.8S138.2,257.5,138.2,257.5L138.2,257.5z"></path><path class="st0" d="M167.1,263.1c-3.9,0-28-4.7-29-4.9c-0.3-0.1-0.6-0.4-0.6-0.7l1.6-20.7c0-0.3,0.2-0.5,0.5-0.6
		c9-2.7,18.1-4.9,27.3-6.5c13-2.1,18.7-1.3,19.8,2.9c0.2,0.7,0,1.4-0.4,2c-0.9,1.2-3.1,2-5.3,2.5c2.2,0.5,4.5,1.5,5.4,3.2
		c0.4,0.6,0.4,1.4,0.1,2c-1.2,2.3-7.3,3-9.8,3.2c0.3,3.1,0.2,6.3-0.5,9.3C175.1,259.7,171.4,263.1,167.1,263.1L167.1,263.1z
		 M139,257c3.9,0.8,24.7,4.8,28.1,4.8c3.6,0,6.8-2.9,7.8-7.3c0.7-3.1,0.8-6.3,0.4-9.5c0-0.2,0-0.4,0.1-0.5c0.1-0.2,0.3-0.2,0.5-0.3
		c3.4-0.2,8.6-1.2,9.4-2.6c0.1-0.2,0.1-0.5-0.1-0.7c-1.4-2.6-7.5-3.2-9.7-3.2c-0.4,0-0.7-0.4-0.6-0.8c0-0.3,0.3-0.6,0.6-0.6
		c3.1-0.2,8.6-1,9.8-2.6c0.2-0.2,0.3-0.5,0.2-0.8c-0.8-3.2-6.4-3.7-18.2-1.8c-9,1.6-17.9,3.8-26.7,6.4L139,257z"></path><path class="st3" d="M139.9,260.3c0,0,2.6-19.2,3.8-26.2c0,0-67.9-19.7-82.8-15.8s1,28.6,9.8,51s32.5-10.8,32.5-10.8L139.9,260.3
		L139.9,260.3z"></path><path class="st0" d="M139.9,261L139.9,261c-15.7-0.6-56.9-2-58.5-1.8c-0.3,0.1-0.7-0.1-0.8-0.4c0,0,0,0,0,0
		c-0.1-0.4,0.1-0.8,0.5-0.9c0.8-0.2,37.2,1,58.9,1.8c0.4,0,0.7,0.3,0.7,0.7C140.6,260.7,140.3,261,139.9,261L139.9,261z"></path><path class="st0" d="M86.2,288.2c-0.2,0-0.4-0.1-0.6-0.3c-0.2-0.3-0.2-0.7,0.1-1c0,0,0,0,0,0c16.6-12.2,14-27.3,14-27.5
		c0-0.4,0.2-0.7,0.6-0.8c0.3,0,0.6,0.2,0.7,0.5c0,0.2,2.8,16.1-14.5,28.9C86.5,288.1,86.4,288.2,86.2,288.2L86.2,288.2z"></path><path class="st1" d="M204.7,75.9c-0.7,0.6-0.8,1.7-0.2,2.4c0.1,0.1,0.1,0.1,0.2,0.2c11.3,10.3,84.5,80.6,74.5,172.7
		c-11.9,110.3-57.2,157.5-71.7,170c-1.5,1.3-0.4,3.5,1.8,3.5l0,0c0.5,0,1.1-0.2,1.5-0.5c7.2-5.7,71.7-59.3,79.8-167.7
		c8.3-110.4-71-171.9-83.1-180.6C206.7,75.2,205.5,75.2,204.7,75.9L204.7,75.9L204.7,75.9z"></path><path class="st0" d="M209.4,425.3c-1.3,0.1-2.4-0.7-2.9-1.9c-0.4-1-0.1-2.1,0.7-2.8c13.7-11.9,59.5-59.1,71.4-169.6
		c4.2-38.6-5.6-77.8-29.2-116.6C237,114,221.8,95.4,204.3,79c-0.5-0.5-0.8-1.1-0.8-1.8c0-0.7,0.3-1.3,0.8-1.8l0,0
		c1.1-0.9,2.6-0.9,3.7-0.1c6.5,4.7,29.1,22.2,49.4,52.4c26.1,38.9,37.5,82.2,34,128.8c-8.1,108.6-72.8,162.4-80.1,168.2
		C210.7,425.1,210,425.3,209.4,425.3L209.4,425.3L209.4,425.3z M205.2,76.4c-0.2,0.2-0.4,0.5-0.4,0.8c0,0.3,0.2,0.6,0.4,0.8
		c17.6,16.4,32.9,35.2,45.4,55.8c23.7,39,33.6,78.5,29.4,117.4c-5.1,47.3-16.9,88.3-35,121.9c-14.6,27-29.4,42-36.9,48.5
		c-0.4,0.3-0.6,0.9-0.4,1.3c0.3,0.7,1,1.1,1.7,1l0,0c0.4,0,0.8-0.1,1.1-0.4c7.3-5.7,71.5-59.2,79.6-167.3
		c3.5-46.3-7.9-89.4-33.8-128c-20.1-30-42.6-47.4-49-52C206.6,75.9,205.8,75.9,205.2,76.4L205.2,76.4L205.2,76.4z"></path><path class="st1" d="M266.4,248.5c0,0,8.6-7,12-8.8s14.9-2.3,14.4,1.2s-13.8,5.7-13.8,5.7s-1.3,8.2-3.9,9.5"></path><path class="st0" d="M275,256.8c-0.4,0-0.7-0.3-0.7-0.7c0-0.3,0.1-0.5,0.4-0.6c1.7-0.8,3-6,3.5-9c0-0.3,0.3-0.5,0.6-0.6
		c5.3-0.9,13-3.1,13.3-5.1c0-0.2,0-0.5-0.5-0.8c-2.2-1.6-10.1-1.1-12.9,0.3c-3.3,1.8-11.7,8.7-11.8,8.8c-0.3,0.2-0.8,0.1-1-0.2
		c-0.2-0.3-0.1-0.6,0.1-0.9c0.4-0.3,8.7-7.1,12.1-8.9c2.9-1.6,11.5-2.2,14.4-0.2c0.7,0.5,1.1,1.3,1,2.2c-0.5,3.6-10.8,5.7-13.9,6.2
		c-0.4,2-1.7,8.3-4.2,9.5C275.2,256.7,275.1,256.8,275,256.8z"></path><path class="st0" d="M173.3,237c-0.4,0-0.7-0.3-0.7-0.7l0,0c0-0.4,0.3-0.7,0.7-0.7l143.5-0.5l0,0c0.4,0,0.7,0.3,0.7,0.7l0,0
		c0,0.4-0.3,0.7-0.7,0.7L173.3,237z"></path><polygon class="st0" points="312.5,233 312.5,238.2 316.3,238.2 314.4,243 331,236 316.8,229.4 316.8,233.4 	"></polygon><path class="st0" d="M314.4,243.7c-0.2,0-0.4-0.1-0.5-0.2c-0.2-0.2-0.3-0.5-0.2-0.8l1.5-3.9h-2.8c-0.4,0-0.7-0.3-0.7-0.7l0,0V233
		c0-0.2,0.1-0.4,0.2-0.5c0.1-0.1,0.3-0.2,0.5-0.2l3.5,0.3v-3.3c0-0.4,0.3-0.7,0.7-0.7c0.1,0,0.2,0,0.3,0.1l14.2,6.6
		c0.2,0.1,0.4,0.4,0.4,0.6c0,0.3-0.2,0.5-0.4,0.6l-16.6,7C314.6,243.7,314.5,243.7,314.4,243.7L314.4,243.7z M313.2,237.5h3.1
		c0.2,0,0.4,0.1,0.6,0.3c0.1,0.2,0.2,0.4,0.1,0.6l-1.3,3.3l13.7-5.7l-11.8-5.5v3c0,0.2-0.1,0.4-0.2,0.5c-0.1,0.1-0.3,0.2-0.5,0.2
		l-3.5-0.3L313.2,237.5L313.2,237.5z"></path></g></svg>