<svg transform="scale(1)" version="1.1" id="Layer_1" xmlns="http://www.w3.org/2000/svg" xmlns:xlink="http://www.w3.org/1999/xlink" x="0px" y="0px" viewBox="0 0 500 500" xml:space="preserve" class="show_show__wrapper__graphic__5Waiy "><title>React</title><style type="text/css">
	.st0{fill:#343A40;}
	.st1{fill:#F8F9FA;}
	.st2{fill:#212529;}
	.st3{fill:#E9ECEF;}
</style><path class="st0" id="floor" d="M485,440.8H12.6c-0.4,0-0.8-0.3-0.8-0.8s0.3-0.8,0.8-0.8H485c0.4,0,0.8,0.3,0.8,0.8
	S485.4,440.8,485,440.8z"></path><g id="Board"><path class="st0" d="M198.7,440c-0.2,0-0.4-0.1-0.5-0.2l-29-30l-29,30c-0.3,0.2-0.8,0.2-1-0.2c-0.2-0.2-0.2-0.6,0-0.8l29.5-30.5
		c0.3-0.3,0.8-0.3,1.1,0l29.5,30.5c0.3,0.3,0.3,0.8,0,1.1C199.1,440,198.9,440,198.7,440L198.7,440z"></path><path class="st0" d="M169.2,409.3c-0.4,0-0.8-0.3-0.8-0.8V80.1c0-0.4,0.3-0.8,0.7-0.9c0.4,0,0.8,0.3,0.9,0.7c0,0.1,0,0.1,0,0.2
		v328.4C170,408.9,169.6,409.3,169.2,409.3C169.2,409.3,169.2,409.3,169.2,409.3z"></path><rect class="st1" x="41.5" y="87.8" width="255.4" height="188.7"></rect><path class="st0" d="M296.9,277.3H41.5c-0.4,0-0.8-0.3-0.8-0.8V87.8c0-0.4,0.3-0.7,0.8-0.8h255.3c0.4,0,0.7,0.3,0.8,0.8v188.7
		C297.6,277,297.3,277.3,296.9,277.3z M42.3,275.8h253.9V88.6H42.3L42.3,275.8z"></path><path class="st2" d="M65.9,159.3c0,26.5,21.5,48,48,48s48-21.5,48-48h-48v-48C87.4,111.3,65.9,132.8,65.9,159.3z"></path><path class="st3" d="M121.6,104.2v48h48C169.6,125.7,148.1,104.2,121.6,104.2L121.6,104.2z"></path><rect class="st2" x="72.7" y="263.9" width="32.9" height="28.9"></rect><rect class="st3" x="86.9" y="260.9" width="3.8" height="5.8"></rect><path class="st1" d="M88.8,273.2h-10c-0.4,0-0.8-0.3-0.8-0.8s0.3-0.8,0.8-0.8h10c0.4,0,0.8,0.3,0.8,0.8S89.2,273.2,88.8,273.2z"></path><path class="st1" d="M96.4,279.4H78.8c-0.4,0-0.8-0.3-0.8-0.8s0.3-0.8,0.8-0.8h17.6c0.4,0,0.8,0.3,0.8,0.8S96.8,279.4,96.4,279.4z"></path><path class="st1" d="M100.6,273.4h-7.4c-0.4,0-0.8-0.3-0.8-0.8s0.3-0.8,0.8-0.8h7.3c0.4,0,0.8,0.3,0.8,0.8S101,273.4,100.6,273.4z"></path><rect class="st2" x="32" y="97.3" width="29" height="25.5"></rect><rect class="st3" x="44.4" y="94.6" width="3.4" height="5.1"></rect><path class="st1" d="M56.1,105.6H37.3c-0.4,0-0.8-0.3-0.8-0.8s0.3-0.8,0.8-0.8h18.8c0.4,0,0.8,0.3,0.8,0.8S56.5,105.6,56.1,105.6z"></path><path class="st1" d="M56.1,111H37.3c-0.4,0-0.8-0.3-0.8-0.8s0.3-0.8,0.8-0.8h18.8c0.4,0,0.8,0.3,0.8,0.8S56.5,111,56.1,111z"></path><path class="st1" d="M49.3,116.5h-12c-0.4,0-0.8-0.3-0.8-0.8s0.3-0.8,0.8-0.8h12c0.4,0,0.8,0.3,0.8,0.8S49.8,116.5,49.3,116.5z"></path><path class="st3" d="M121.2,227.4H68.1c-0.4,0-0.8-0.3-0.8-0.8s0.3-0.8,0.8-0.8h53.1c0.4,0,0.8,0.3,0.8,0.8
		S121.6,227.4,121.2,227.4z"></path><path class="st3" d="M141.2,227.4h-10.1c-0.4,0-0.8-0.3-0.8-0.8s0.3-0.8,0.8-0.8h10.1c0.4,0,0.8,0.3,0.8,0.8
		S141.6,227.4,141.2,227.4z"></path><path class="st3" d="M159.9,227.4h-10.1c-0.4,0-0.8-0.3-0.8-0.8s0.3-0.8,0.8-0.8h10.1c0.4,0,0.8,0.3,0.8,0.8
		S160.3,227.4,159.9,227.4z"></path><path class="st3" d="M145.9,239.8H67.6c-0.4,0-0.8-0.3-0.8-0.8s0.3-0.8,0.8-0.8h78.3c0.4,0,0.8,0.3,0.8,0.8
		S146.3,239.8,145.9,239.8z"></path><path class="st3" d="M93.3,252.1H67.9c-0.4,0-0.8-0.3-0.8-0.8s0.3-0.8,0.8-0.8h25.4c0.4,0,0.8,0.3,0.8,0.8S93.7,252.1,93.3,252.1z"></path><path class="st3" d="M154.3,251.7H109c-0.4,0-0.8-0.3-0.8-0.8s0.3-0.8,0.8-0.8h45.3c0.4,0,0.8,0.3,0.8,0.8S154.7,251.7,154.3,251.7
		L154.3,251.7z"></path><rect class="st2" x="189.9" y="212.9" width="16.2" height="45.9"></rect><rect class="st3" x="217.8" y="228.5" width="16.2" height="30.3"></rect><rect class="st3" x="245.7" y="219.6" width="16.2" height="39.2"></rect><path class="st3" d="M268.9,114.3h-84.5c-0.4,0-0.8-0.3-0.8-0.8s0.3-0.8,0.8-0.8h84.5c0.4,0,0.8,0.3,0.8,0.8
		S269.4,114.3,268.9,114.3z"></path><path class="st3" d="M250.7,126.7h-65c-0.4,0-0.8-0.3-0.8-0.8s0.3-0.8,0.8-0.8h65c0.4,0,0.8,0.3,0.8,0.8S251.1,126.7,250.7,126.7z"></path><path class="st3" d="M259.8,138.6h-75.4c-0.4,0-0.8-0.3-0.8-0.8s0.3-0.8,0.8-0.8h75.4c0.4,0,0.8,0.3,0.8,0.8
		S260.2,138.6,259.8,138.6z"></path><path class="st3" d="M271.8,126.1h-12c-0.4,0-0.8-0.3-0.8-0.8s0.3-0.8,0.8-0.8h12c0.4,0,0.8,0.3,0.8,0.8S272.3,126.1,271.8,126.1z"></path><path class="st3" d="M230,198.8h-44.1c-0.4,0-0.7-0.3-0.8-0.8v-36.1c0-0.4,0.3-0.8,0.8-0.8s0.8,0.3,0.8,0.8v35.4H230
		c0.4,0,0.8,0.3,0.8,0.8S230.4,198.8,230,198.8z"></path><path class="st3" d="M185.9,198.8c-0.2,0-0.4-0.1-0.5-0.2c-0.3-0.3-0.3-0.8,0-1.1l18.5-19.8c0.2-0.2,0.4-0.3,0.6-0.2
		c0.2,0,0.4,0.2,0.6,0.4l3.9,6.2l12.6-13.8c0.2-0.3,0.7-0.4,1.1-0.1c0.3,0.2,0.4,0.7,0.1,1.1c0,0-0.1,0.1-0.1,0.1l-13.2,14.5
		c-0.2,0.2-0.4,0.3-0.6,0.2c-0.2,0-0.4-0.1-0.6-0.4l-3.9-6.2l-17.9,19.1C186.3,198.7,186.1,198.8,185.9,198.8z"></path><path class="st3" d="M274.5,259.2h-96.1c-0.4,0-0.8-0.3-0.8-0.8s0.3-0.8,0.8-0.8h96.1c0.4,0,0.8,0.3,0.8,0.8
		S274.9,259.2,274.5,259.2L274.5,259.2z"></path></g><g id="Character"><polyline class="st1" points="333.8,428.1 330.9,439 285.1,422.4 301.4,418.4 	"></polyline><path class="st0" d="M330.9,439.7c-0.1,0-0.2,0-0.3,0l-45.8-16.6c-0.3-0.1-0.5-0.4-0.5-0.8c0-0.3,0.3-0.6,0.6-0.7l16.3-4
		c0.4-0.1,0.8,0.2,0.9,0.6s-0.2,0.8-0.6,0.9l-13.9,3.4l42.7,15.5l2.7-10.1c0.1-0.4,0.5-0.6,0.9-0.5s0.6,0.5,0.5,0.9l-2.9,10.9
		c-0.1,0.2-0.2,0.4-0.4,0.5C331.1,439.7,331,439.7,330.9,439.7z"></path><path class="st0" d="M337.5,237.7c0,0-27,83.4-36.1,180.7l32.5,9.7l43.8-141l16.5,142.5l34.4,0.7c0,0,0.3-85.1-8.5-192.6
		C402.1,237.4,337.5,237.7,337.5,237.7z"></path><path class="st1" d="M252.1,194.6c0,0,35.2,44,51.5,42.6s36.4-34.6,36.4-34.6l-16.6-29.3c0,0-21.2,25.8-25.1,24s-30-20.9-30-20.9"></path><path class="st0" d="M302.9,238c-16.8,0-49.9-41.1-51.3-42.9c-0.3-0.3-0.2-0.8,0.1-1.1c0.3-0.3,0.8-0.2,1.1,0.1
		c0.4,0.4,35.1,43.7,50.8,42.3c14.8-1.3,33.3-30.2,35.6-33.9l-15.9-28c-5.5,6.6-19.9,23.5-24.7,23.5c-0.2,0-0.4,0-0.6-0.1
		c-3.9-1.8-29.1-20.1-30.2-20.9c-0.4-0.2-0.5-0.7-0.2-1c0.2-0.4,0.7-0.5,1-0.2c0,0,0.1,0,0.1,0.1c0.3,0.2,26.1,19,29.9,20.8
		c1.6,0.7,11.3-8.2,24.2-23.8c0.2-0.2,0.4-0.3,0.6-0.3c0.2,0,0.5,0.2,0.6,0.4l16.6,29.3c0.1,0.2,0.1,0.5,0,0.8
		c-3.7,5.9-7.7,11.5-12.2,16.9c-9.5,11.4-17.9,17.5-24.8,18.1C303.4,238,303.1,238,302.9,238z"></path><path class="st2" d="M415.8,187.3l21.7-8.9c-7.7-16.5-16.4-26.2-22.4-30.1c-7.7-6.4-26.6-6.8-44-7.5c-5.6-0.3-11.2,0.2-16.6,1.6
		c-20.3,5.6-39.2,35-39.2,35l18.2,10.8c0,0-2,40,0.6,53.5c0,0,47.1,20.3,86.7,9.2C420.8,250.9,415.3,192.4,415.8,187.3z"></path><path class="st1" d="M374.1,135.4l-2.7,13.1c0,0,2.9,8.7,11.7,7.8c5.3-0.6,10-3.5,12.8-8l3.1-24c0,0-5.9-4.2-2.2-17.7
		c-7.4,2.1-15.1,2.1-22.5,0.1c0,0-5.9,14.3-5.7,21.1C368.7,134.5,374.1,135.4,374.1,135.4z"></path><path class="st0" d="M381.8,157.1c-8.2,0-11.1-8.2-11.1-8.3c0-0.1,0-0.3,0-0.4l2.5-12.3c-1.6-0.6-5.2-2.5-5.4-8.2
		c-0.1-6.8,5.5-20.8,5.8-21.3c0.1-0.3,0.5-0.5,0.9-0.4c7.2,1.9,14.9,1.9,22.1-0.1c0.4-0.1,0.8,0.1,1,0.4c0.1,0.1,0.1,0.3,0,0.5
		c-3.5,12.7,1.8,16.8,1.9,16.8c0.2,0.2,0.3,0.4,0.3,0.7l-3.1,24c0,0.1,0,0.2-0.1,0.3c-3,4.7-7.9,7.7-13.4,8.3
		C382.7,157,382.2,157.1,381.8,157.1z M372.1,148.4c0.5,1.2,3.3,7.8,10.8,7.1c5-0.6,9.4-3.3,12.2-7.5l3-23.4
		c-1.2-1.2-5.1-5.8-2.4-16.9c-6.9,1.7-14.1,1.6-21-0.1c-1.1,2.8-5.5,14.4-5.4,20.1c0.1,6,4.8,6.9,4.9,6.9c0.2,0,0.4,0.1,0.5,0.3
		c0.1,0.2,0.2,0.4,0.1,0.6L372.1,148.4z"></path><path class="st1" d="M394,123.2c0.4-1.1,1.2-2.1,2.3-2.7c1-0.5,2.1-0.9,3.2-1.1c0.6-0.2,1.2-0.2,1.8-0.1c0.4,0.1,0.8,0.3,1.1,0.6
		c0.9,0.6,1.5,1.4,1.8,2.4c0.1,0.8,0.1,1.7-0.2,2.4c-0.2,0.9-0.6,1.7-1,2.5c-1.9,3.2-6.1,4.3-9.3,2.4c0,0-0.1,0-0.1,0"></path><path class="st0" d="M397.2,131.3c-1.4,0-2.8-0.4-4-1.1c-0.3-0.2-0.5-0.7-0.2-1c0.2-0.3,0.7-0.4,1-0.2c2.8,1.8,6.5,0.9,8.3-1.9
		c0,0,0.1-0.1,0.1-0.1c0.4-0.7,0.7-1.5,0.9-2.3c0.2-0.7,0.3-1.4,0.2-2.1c-0.2-0.8-0.8-1.5-1.5-2c-0.3-0.2-0.6-0.4-0.9-0.5
		c-0.5-0.1-1,0-1.5,0.1c-1,0.2-2,0.5-2.9,1c-0.9,0.5-1.6,1.4-2,2.3c-0.2,0.4-0.6,0.6-1,0.4s-0.6-0.6-0.4-1c0.5-1.3,1.4-2.4,2.6-3.1
		c1.1-0.6,2.2-1,3.4-1.2c0.7-0.2,1.5-0.2,2.2-0.1c0.5,0.2,1,0.4,1.4,0.7c1,0.7,1.7,1.7,2,2.9c0.1,0.9,0.1,1.9-0.2,2.8
		c-0.2,0.9-0.6,1.8-1.1,2.7c-1,1.7-2.7,3-4.7,3.5C398.4,131.3,397.8,131.3,397.2,131.3z"></path><path class="st0" d="M400.2,137.2c-0.3,0-0.6-0.2-0.7-0.6c-0.1-0.4,0.1-0.8,0.5-0.9c0,0,0,0,0,0c5-1.3,9.2-4.5,11.7-9
		c3.8-6.7,5-14.7,3.4-22.2c-1.1-4.2-2.4-5.4-3.4-5.7c-1-0.1-2,0.2-2.7,0.9c-0.3,0.3-0.8,0.3-1.1,0c-0.2-0.2-0.2-0.4-0.2-0.6
		c0,0,0.5-5.3-4.8-10.4c-3.8-3.7-16.4-8.4-25.9-7.1c-4.9,0.7-8.4,2.7-10.5,6.1c-2.2,3.7-2.8,7.1-1.9,10.1c1.5,4.8,6.3,7.1,6.3,7.1
		c0.4,0.2,0.5,0.6,0.4,1c-0.2,0.4-0.6,0.5-1,0.4c0,0,0,0,0,0c-0.2-0.1-5.5-2.6-7.1-8c-1.1-3.5-0.4-7.3,2.1-11.3
		c2.3-3.8,6.2-6.1,11.5-6.8c10.3-1.4,23.2,3.6,27.2,7.5c2.9,2.6,4.7,6.2,5.2,10.1c0.9-0.5,1.9-0.6,2.9-0.4c2,0.5,3.5,2.8,4.5,6.8
		c1.7,8,0.4,16.3-3.6,23.4c-2.7,4.8-7.3,8.3-12.6,9.7L400.2,137.2z"></path><path class="st0" d="M373,142c3.1,0.8,6.4,0.2,9.1-1.7c4.2-3.1,4.2-5.2,4.2-5.2s-6.5,2.5-11.9,0.6L373,142z"></path><path class="st0" d="M375.8,143.1c-1,0-2-0.1-3-0.4c-0.4-0.1-0.6-0.5-0.5-0.9l1.4-6.3c0-0.2,0.2-0.4,0.4-0.5
		c0.2-0.1,0.4-0.1,0.6-0.1c5.1,1.8,11.3-0.6,11.4-0.6c0.2-0.1,0.5-0.1,0.7,0.1c0.2,0.1,0.3,0.4,0.3,0.6c0,0.2-0.1,2.6-4.5,5.9
		C380.6,142.3,378.2,143.1,375.8,143.1z M373.9,141.4c2.7,0.5,5.5-0.1,7.8-1.7c1.4-0.9,2.5-2.1,3.4-3.5c-3.3,1-6.8,1.1-10.1,0.4
		L373.9,141.4z"></path><path class="st0" d="M334.1,242.5c-0.4,0-0.7-0.3-0.8-0.7c0-0.4-2-36.6,6.7-81.4c0.1-0.4,0.5-0.6,0.9-0.5c0.4,0.1,0.6,0.5,0.6,0.8
		c-8.6,44.5-6.7,80.6-6.6,81C334.9,242.1,334.6,242.5,334.1,242.5C334.2,242.5,334.2,242.5,334.1,242.5L334.1,242.5z"></path><path class="st0" d="M376.7,235.2c0-1.2-6.5-50.1-6.5-50.1l-47.2-2.4l8,48.5L376.7,235.2z"></path><path class="st1" d="M435.8,173.8c0,0,36.6,64.8,13.2,68.8c-16.3,2.8-48.7-4.8-60.8-11S371,220.7,371,220.7s-13.5-1-11.9-4.2
		c0.9-1.9,3-2.9,5-2.4c0,0-6.5-0.6-5.6-3.6s6.1-2,6.1-2s-9.1-3.2-6.7-5s7.1-0.4,7.1-0.4s-6.3-1.1-6.1-3.8c0.4-4.6,20,0.4,23.8,4
		s27.2,7.3,31.4,7.7l-11-23.4"></path><path class="st0" d="M440.9,243.9c-17.4,0-42.5-6.2-53-11.7c-10.9-5.6-16-9.9-17.1-10.8c-2.3-0.2-10.8-1-12.2-3.6
		c-0.3-0.5-0.3-1.2,0-1.8c0.4-0.9,1.1-1.7,2-2.2c-0.9-0.3-1.7-0.9-2.3-1.6c-0.4-0.6-0.6-1.4-0.4-2.1c0.4-1.4,1.6-2.4,3-2.6
		c-2-0.9-3.9-2.2-4.1-3.4c-0.1-0.6,0.2-1.2,0.7-1.5c0.7-0.5,1.5-0.8,2.3-0.9c-1-0.6-1.6-1.6-1.6-2.8c0.1-1,0.8-1.8,1.8-2.1
		c4.7-1.8,19.7,2.2,23.3,5.6c3.3,3.1,22.9,6.5,29.7,7.3l-10.5-22.2c-0.1-0.4,0.1-0.8,0.4-1c0.3-0.1,0.7,0,0.9,0.3l11,23.4
		c0.1,0.2,0.1,0.5-0.1,0.8c-0.2,0.2-0.4,0.3-0.7,0.3c-3.9-0.4-27.8-4-31.9-7.9c-3.2-3-17.6-6.9-21.7-5.3c-0.8,0.3-0.8,0.7-0.8,0.8
		c-0.1,1.2,2.2,2.2,4.1,2.7c0.5,0.1,0.9,0.2,1.4,0.3c0.4,0.1,0.7,0.5,0.6,0.9c-0.1,0.4-0.5,0.7-0.9,0.6c-0.2,0-0.7-0.1-1.4-0.3
		c-1.4-0.3-3.8-0.4-5.1,0.6c0,0-0.1,0.1-0.1,0.1c0,0.7,3.2,2.4,6.6,3.6c0.4,0.1,0.6,0.6,0.4,1c-0.1,0.3-0.5,0.5-0.8,0.5
		c0,0-4.6-0.8-5.2,1.5c-0.1,0.3,0,0.6,0.1,0.9c0.6,0.9,2.6,1.5,4.1,1.7c0.3,0,0.6,0.1,0.8,0.1c0.4,0.1,0.6,0.5,0.5,0.9
		c-0.1,0.3-0.4,0.6-0.8,0.5l-0.7-0.1c-1.5-0.1-3,0.7-3.6,2.1c-0.1,0.1-0.1,0.2,0,0.4c0.8,1.4,7.1,2.5,11.3,2.8
		c0.2,0,0.3,0.1,0.5,0.2c0,0.1,5.1,4.6,17,10.7s44.4,13.7,60.4,11c2.6-0.3,4.8-2,5.9-4.3c7.3-15.3-19.4-62.8-19.7-63.3
		c-0.2-0.3-0.1-0.8,0.2-1s0.8-0.1,1,0.2c0,0,0,0.1,0.1,0.1c1.1,2,27.3,48.7,19.7,64.7c-1.3,2.8-3.9,4.8-7,5.2
		C446.4,243.8,443.6,244,440.9,243.9z"></path><path class="st1" d="M272.4,179.7c0,0-9.3-25-11.5-24.2s1.6,16.4,1.6,16.4s-15-16.3-17-15.3s-0.7,5.1,4.9,13.4
		c0,0-10-11.5-11.6-9.1s8.2,12.7,8.2,12.7s-9.4-9.9-10.7-7.9s8.9,12.3,8.9,12.3s-9.5-11.1-10.2-7.7s18.3,25.9,23.7,32"></path><path class="st0" d="M258.8,203.1c-0.2,0-0.4-0.1-0.6-0.2c-0.2-0.3-24.7-28.2-23.9-32.7c0.1-0.6,0.4-1.1,1-1.2c0.5-0.1,1,0,1.5,0.2
		c-1.1-1.7-1.6-3.1-1.1-3.9c0.2-0.3,0.6-0.6,1-0.6c1.2,0.1,2.3,0.6,3.1,1.4c-1.5-2.3-2.4-4.4-1.6-5.6c0.3-0.4,0.7-0.6,1.2-0.7
		c1.4-0.1,4.1,2,6.5,4.3c-2.1-4-2.2-5.7-1.9-6.7c0.1-0.7,0.6-1.2,1.2-1.5c1.5-0.8,6.9,3.7,16,13.4c-2.4-11.2-1.6-14.1-0.5-14.6
		c0.9-0.3,2-0.8,7.5,12.2c2.6,6.1,4.9,12.4,5,12.4c0.2,0.4,0,0.8-0.4,1c0,0,0,0,0,0c-0.4,0.2-0.8,0-1-0.4c0,0,0,0,0,0
		c-4-10.6-8.9-22-10.6-23.6c-0.5,1.4,0.6,8.9,2.1,15.4c0.1,0.4-0.2,0.8-0.6,0.9c-0.3,0.1-0.5,0-0.7-0.2
		c-6.7-7.3-14.5-14.8-16.1-15.1c-0.2,0.1-0.3,0.3-0.3,0.5c-0.3,1.2,0.5,4.2,5.6,11.7c0.3,0.3,0.2,0.8-0.1,1.1
		c-0.3,0.3-0.8,0.2-1.1-0.1l0,0c-4.5-5.2-9.4-9.5-10.4-9.2c-0.6,1,3.1,6.5,8.1,11.7v0.1c0.3,0.3,0.3,0.8,0,1.1
		c-0.3,0.3-0.8,0.3-1.1,0l-0.1-0.1c-4.1-4.4-8.4-7.9-9.5-7.9c-0.1,0.8,1.8,3.5,4.6,6.8c1.6,1.6,3.2,3.4,4.2,4.5
		c0.2,0.3,0.1,0.8-0.2,1c-0.3,0.2-0.7,0.2-0.9,0c-1.3-1.3-2.8-2.9-4.3-4.6c-2.2-2.1-4-3.6-4.7-3.6c0,0,0,0,0,0.1
		c-0.5,2.4,13.4,19.9,23.5,31.4c0.3,0.3,0.3,0.8,0,1C259.1,203.1,259,203.2,258.8,203.1L258.8,203.1z"></path><path class="st1" d="M262.6,171.9c-3,1.9-4.2,5.7-2.8,8.9"></path><path class="st0" d="M259.7,181.6c-0.3,0-0.6-0.2-0.7-0.5c-1.4-3.6-0.1-7.7,3.1-9.8c0.4-0.2,0.8,0,1,0.3c0.2,0.3,0.1,0.8-0.2,1
		c-2.7,1.7-3.7,5.1-2.5,8c0.2,0.4,0,0.8-0.4,1c0,0,0,0-0.1,0C259.9,181.6,259.8,181.6,259.7,181.6z"></path><path class="st1" d="M394.1,429.6l1,10.5h49c-4.9-3.7-10.1-7-15.6-9.8"></path><path class="st0" d="M444,440.9h-49c-0.4,0-0.7-0.3-0.8-0.7l-1-10.5c0-0.4,0.3-0.8,0.7-0.8c0,0,0,0,0,0c0.4,0,0.8,0.2,0.8,0.6
		c0,0,0,0,0,0l0.9,9.9h46.1c-4.3-3.1-8.9-5.9-13.6-8.4c-0.4-0.2-0.5-0.7-0.3-1c0.2-0.3,0.6-0.5,1-0.3c5.5,2.8,10.8,6.1,15.7,9.9
		c0.2,0.2,0.3,0.5,0.2,0.8C444.6,440.7,444.3,440.9,444,440.9z"></path><path class="st1" d="M391.7,293.1c-0.1,0-0.2,0-0.3,0l-24.7-8.8c-0.4-0.1-0.6-0.6-0.5-1s0.6-0.6,1-0.5l24.7,8.8
		c0.4,0.2,0.6,0.6,0.5,1C392.4,292.9,392.1,293.2,391.7,293.1z"></path><path class="st1" d="M332.1,269c-0.4,0-0.8-0.4-0.7-0.8c0-0.4,0.3-0.7,0.7-0.7c11-1.1,13.4-14.5,13.4-14.6c0.1-0.4,0.5-0.7,1-0.5
		c0.4,0.1,0.6,0.4,0.6,0.8c-0.5,2.6-1.4,5.1-2.7,7.5C341.4,265.6,337.2,268.6,332.1,269L332.1,269z"></path><path class="st1" d="M419,269h-0.2c-6-1.5-10.1-7-10-13.1c0-0.4,0.4-0.8,0.8-0.7c0.4,0,0.8,0.4,0.7,0.8c0,0,0,0,0,0
		c-0.1,5.5,3.5,10.3,8.8,11.5c0.4,0.1,0.7,0.5,0.5,0.9c0,0,0,0,0,0.1C419.6,268.9,419.3,269,419,269z"></path><path class="st1" d="M381.9,115.9c0,0-5.6,5.9-4.7,7.2s3.9,1.1,3.9,1.1"></path><path class="st0" d="M380.5,124.9c-1.1,0-3.1-0.2-3.9-1.4c-1-1.5,2.1-5.2,4.8-8.1c0.3-0.3,0.8-0.3,1.1,0c0.3,0.3,0.3,0.8,0,1.1
		c-2.5,2.7-4.7,5.6-4.6,6.3c0.4,0.6,2.1,0.8,3.2,0.7c0.4-0.1,0.8,0.2,0.9,0.6s-0.2,0.8-0.6,0.9c0,0-0.1,0-0.1,0
		C381,124.9,380.7,124.9,380.5,124.9z"></path><path class="st1" d="M379.4,128.7c0,0,4.7,2.4,6.8-2.1"></path><path class="st0" d="M382.1,130.1c-1.1,0-2.1-0.3-3.1-0.7c-0.4-0.2-0.5-0.6-0.3-1c0.2-0.4,0.6-0.5,1-0.3l0,0
		c1.1,0.5,2.4,0.7,3.6,0.4c1-0.4,1.8-1.2,2.2-2.1c0.2-0.4,0.6-0.5,1-0.4s0.5,0.6,0.4,1c-0.6,1.4-1.7,2.4-3.1,2.9
		C383.3,130.1,382.7,130.2,382.1,130.1z"></path><ellipse class="st0" transform="matrix(0.3733 -0.9277 0.9277 0.3733 135.5349 434.5936)" cx="389.4" cy="117" rx="1.6" ry="1.1"></ellipse><ellipse class="st0" transform="matrix(0.3733 -0.9277 0.9277 0.3733 130.042 422.7102)" cx="377.9" cy="115.1" rx="1.6" ry="1.1"></ellipse></g><g id="Plant"><path class="st0" d="M86.7,410H66.4c-0.3,0-0.5-0.1-0.6-0.4c-6-10.1-13.1-25.8-12.7-42.9c0-0.4,0.4-0.7,0.8-0.7c0.1,0,0.2,0,0.2,0
		c5.8,2.6,11.1,6.1,15.8,10.3c0.3,0.3,0.3,0.7,0.1,1.1c-0.3,0.3-0.7,0.3-1.1,0.1c-4.3-3.8-9.1-7.1-14.3-9.6
		c-0.1,16.1,6.5,30.8,12.2,40.6h19.9c0.4,0,0.8,0.3,0.8,0.8S87.1,410,86.7,410z"></path><path class="st0" d="M98.3,410H76.5c-0.3,0-0.6-0.2-0.7-0.5c-3.6-10.5-6-21.4-7.1-32.5c-1.3-14,0-26.8,3.7-38.2
		c0.1-0.2,0.3-0.4,0.5-0.5c0.2-0.1,0.5,0,0.7,0.1c0.2,0.2,20.7,16.9,25.7,42.9c0.1,0.4-0.2,0.8-0.6,0.9c-0.4,0.1-0.7-0.2-0.8-0.6
		c-4.3-22.5-20.4-37.8-24.3-41.3c-3.4,11-4.5,23.2-3.3,36.6c1,10.8,3.3,21.4,6.8,31.6h21.3c0.4,0,0.8,0.3,0.8,0.8S98.7,410,98.3,410
		L98.3,410z"></path><path class="st0" d="M109.3,410H90c-0.4,0-0.7-0.3-0.8-0.7c0,0,0,0,0,0c-0.2-5.4,1-14.4,7.4-26c0.4-0.8,0.8-1.5,1.2-2.2
		c11.3-19.1,21.7-19.1,22.1-19.1c0.3,0,0.6,0.3,0.7,0.6c4.4,20.3-4.9,38.2-10.8,47.2C109.8,409.9,109.6,410,109.3,410z M90.7,408.5
		h18.2c5.7-8.7,14.4-25.8,10.5-45c-2.3,0.3-10.9,2.6-20.2,18.4c-0.4,0.7-0.8,1.4-1.2,2.2C92,394.9,90.7,403.2,90.7,408.5L90.7,408.5
		z"></path><polygon class="st0" points="105.8,439.9 67.9,439.9 61.8,409.3 111.9,409.3 	"></polygon></g></svg>